<svg width="34" height="41" viewBox="0 0 34 41" fill="none" xmlns="http://www.w3.org/2000/svg">
<path d="M7.58823 35.8232H26.4118" stroke="#61AB48" stroke-width="3" stroke-linecap="round"/>
<path d="M27.6717 1H7.16406C5.08682 1 3.35527 2.59002 3.17856 4.65973L1.37056 25.8362C1.17121 28.1711 3.01268 30.1765 5.35606 30.1765H28.7843C31.0759 30.1765 32.899 28.255 32.7788 25.9666L31.6662 4.79013C31.5546 2.66548 29.7993 1 27.6717 1Z" fill="#3179AA" stroke="#EDEDED" stroke-width="2"/>
<path d="M25.322 4.76465H8.3516C7.30043 4.76465 6.42866 5.57837 6.35634 6.62704L5.85329 13.9212C5.77357 15.0772 6.68981 16.0588 7.84855 16.0588H26.0765C27.2625 16.0588 28.188 15.0326 28.0659 13.853L27.3114 6.55885C27.2059 5.5394 26.3469 4.76465 25.322 4.76465Z" fill="white" stroke="#3179AA" stroke-width="3"/>
<path d="M10.6912 32.9305C11.1727 32.2563 11.0166 31.3195 10.3424 30.838C9.66833 30.3565 8.7315 30.5126 8.24999 31.1867L10.6912 32.9305ZM3.54411 37.775C3.0626 38.4491 3.21873 39.3859 3.89285 39.8674C4.56697 40.3489 5.5038 40.1928 5.98531 39.5187L3.54411 37.775ZM8.24999 31.1867L3.54411 37.775L5.98531 39.5187L10.6912 32.9305L8.24999 31.1867Z" fill="#61AB48"/>
<path d="M23.3905 33.0348C22.8514 32.4058 22.9242 31.4588 23.5532 30.9197C24.1822 30.3806 25.1292 30.4534 25.6683 31.0824L23.3905 33.0348ZM31.3154 37.6706C31.8545 38.2996 31.7817 39.2466 31.1527 39.7857C30.5237 40.3248 29.5767 40.252 29.0376 39.623L31.3154 37.6706ZM25.6683 31.0824L31.3154 37.6706L29.0376 39.623L23.3905 33.0348L25.6683 31.0824Z" fill="#61AB48"/>
<circle cx="7.11765" cy="22.1762" r="2.35294" fill="white"/>
<circle cx="26.8824" cy="22.1762" r="2.35294" fill="white"/>
</svg>
