<svg width="21" height="22" viewBox="0 0 21 22" fill="none" xmlns="http://www.w3.org/2000/svg">
<path d="M0.489258 17.083C0.489258 17.7637 1.01221 18.2202 1.86719 18.2202H6.73975C6.81445 20.2456 8.3501 21.9473 10.5 21.9473C12.6499 21.9473 14.1855 20.2539 14.2603 18.2202H19.1245C19.9878 18.2202 20.5107 17.7637 20.5107 17.083C20.5107 16.0122 19.4482 15.0576 18.5435 14.1113C17.73 13.2397 17.6055 11.4634 17.4644 9.94434C17.3232 6.07617 16.2358 3.48633 13.4717 2.54834C13.1396 1.12891 12.019 0.0581055 10.5 0.0581055C8.98096 0.0581055 7.85205 1.12891 7.52832 2.54834C4.76416 3.48633 3.67676 6.07617 3.53564 9.94434C3.39453 11.4634 3.27002 13.2397 2.45654 14.1113C1.54346 15.0576 0.489258 16.0122 0.489258 17.083ZM2.25732 16.834V16.7095C2.40674 16.3193 3.0957 15.6138 3.69336 14.958C4.58984 13.9785 4.83057 12.2686 4.98828 10.0771C5.1543 5.84375 6.44092 4.32471 8.29199 3.81836C8.59082 3.74365 8.75684 3.60254 8.77344 3.32031C8.83984 2.20801 9.479 1.41113 10.5 1.41113C11.521 1.41113 12.1602 2.20801 12.2183 3.32031C12.2432 3.60254 12.4092 3.74365 12.708 3.81836C14.5591 4.32471 15.8457 5.84375 16.0117 10.0771C16.1694 12.2686 16.4102 13.9785 17.3066 14.958C17.9043 15.6138 18.5933 16.3193 18.7427 16.7095V16.834H2.25732ZM8.16748 18.2202H12.8325C12.7495 19.7061 11.8115 20.6606 10.5 20.6606C9.18848 20.6606 8.25049 19.7061 8.16748 18.2202Z" fill="black"/>
</svg>
