<svg width="389" height="113" viewBox="0 0 389 113" fill="none" xmlns="http://www.w3.org/2000/svg">
<g filter="url(#filter0_d_472_2377)">
<rect x="11" y="10" width="366" height="85" rx="6" fill="url(#paint0_linear_472_2377)"/>
<path d="M42.93 43.554V40.962H44.01V39.504H42.93V36.912H39.438V35.868H43.848V34.374H39.438V33.258H37.818V34.374H33.786V35.868H37.818V36.912H34.65V38.37H37.818V39.504H33.894V40.962H37.818V42.114H34.524V43.554H37.818V47.586C37.692 47.55 37.584 47.496 37.494 47.46C36.846 47.208 36.288 46.614 35.784 45.714C35.874 45.282 35.964 44.814 36.036 44.328L34.452 44.094C34.164 46.146 33.516 47.766 32.508 48.918L33.858 49.872C34.434 49.242 34.92 48.396 35.316 47.334C35.784 48.09 36.306 48.63 36.882 48.918C37.71 49.314 39.24 49.512 41.472 49.53C42.156 49.548 42.948 49.566 43.83 49.566L44.334 47.838C43.506 47.91 42.516 47.964 41.346 47.964C40.626 47.964 39.996 47.928 39.438 47.874V46.308H43.272V44.814H39.438V43.554H42.93ZM39.438 38.37H41.4V39.504H39.438V38.37ZM41.4 40.962V42.114H39.438V40.962H41.4ZM30.006 49.656C31.158 49.656 31.734 49.062 31.734 47.892V42.798C32.274 42.546 32.814 42.258 33.354 41.952V40.224C32.814 40.548 32.274 40.836 31.734 41.106V38.046H33.516V36.408H31.734V33.276H30.042V36.408H27.99V38.046H30.042V41.826C29.268 42.132 28.476 42.384 27.684 42.582L28.116 44.31C28.764 44.076 29.394 43.824 30.042 43.572V47.46C30.042 47.892 29.826 48.126 29.412 48.126C28.98 48.126 28.548 48.09 28.08 48.018L28.458 49.656H30.006ZM59.454 44.058H48.87V49.908H50.526V49.224H57.78V49.908H59.454V44.058ZM50.526 47.676V45.588H57.78V47.676H50.526ZM51.498 36.174C50.31 37.83 48.888 39.108 47.232 40.044L48.33 41.358C49.068 40.89 49.77 40.35 50.436 39.774C51.084 40.332 51.768 40.854 52.524 41.322C50.688 41.952 48.402 42.474 45.666 42.87L46.314 44.382C49.518 43.842 52.182 43.14 54.27 42.258C56.466 43.284 58.986 43.878 61.83 44.04L62.208 42.492C59.976 42.366 57.942 41.988 56.106 41.34C57.366 40.62 58.302 39.792 58.95 38.856V37.488H52.506C52.722 37.182 52.956 36.858 53.172 36.534L51.498 36.174ZM54.324 40.602C53.37 40.134 52.488 39.594 51.66 38.946H56.88C56.232 39.558 55.368 40.098 54.324 40.602ZM61.47 34.446H54.81C54.63 33.942 54.45 33.51 54.27 33.114L52.38 33.402C52.596 33.726 52.776 34.086 52.956 34.446H46.53V38.082H48.258V35.976H59.742V38.082H61.47V34.446ZM64.386 41.484V42.834H67.158V43.878H63.972V45.39H71.802V43.878H68.652V42.834H71.388V41.484H68.652V40.494H71.64V33.816H64.152V40.494H67.158V41.484H64.386ZM64.296 46.11C64.224 47.352 64.008 48.45 63.666 49.422L65.052 49.836C65.34 48.792 65.538 47.604 65.61 46.272L64.296 46.11ZM67.41 46.218L66.168 46.38C66.222 47.154 66.258 48.252 66.294 49.656L67.68 49.494C67.626 48.108 67.536 47.01 67.41 46.218ZM71.208 45.894L70.002 46.236C70.29 47.172 70.524 48.144 70.722 49.152L71.964 48.702C71.784 47.838 71.532 46.902 71.208 45.894ZM69.3 46.128L68.076 46.38C68.256 47.262 68.418 48.288 68.562 49.44L69.93 49.134C69.75 48.054 69.534 47.046 69.3 46.128ZM70.29 39.198H68.49V35.112H70.29V39.198ZM67.266 39.198H65.52V35.112H67.266V39.198ZM69.138 35.616C69.03 36.588 68.868 37.506 68.652 38.37L69.552 38.676C69.804 37.776 69.966 36.84 70.074 35.868L69.138 35.616ZM66.474 35.796L65.592 36.066C65.844 36.894 66.06 37.758 66.24 38.658L67.122 38.424C66.942 37.416 66.726 36.552 66.474 35.796ZM74.934 33.33V40.962H72.468V49.854H74.088V48.972H77.958V49.854H79.56V40.962H76.59V38.082H80.28V36.516H76.59V33.33H74.934ZM74.088 47.424V42.51H77.958V47.424H74.088Z" fill="white"/>
<path d="M310.181 48H312.352V45.5654H314.057V43.6934H312.352V35.3174H309.144C307.421 37.9365 305.619 40.8545 303.976 43.7109V45.5654H310.181V48ZM306.085 43.7461V43.6143C307.315 41.4609 308.783 39.1143 310.084 37.1279H310.216V43.7461H306.085ZM321 48.3164C323.742 48.3164 325.667 46.5146 325.667 43.8779V43.8604C325.667 41.4346 323.953 39.6768 321.589 39.6768C320.394 39.6768 319.409 40.1865 318.882 41.0391H318.732L319.084 37.1807H324.929V35.3174H317.317L316.702 42.7441H318.645C318.794 42.4629 319.005 42.2168 319.233 42.0234C319.699 41.6016 320.314 41.3906 321.026 41.3906C322.477 41.3906 323.514 42.4277 323.514 43.9043V43.9219C323.514 45.416 322.494 46.4619 321.009 46.4619C319.708 46.4619 318.75 45.6357 318.583 44.5986L318.574 44.5371H316.482L316.491 44.6514C316.658 46.7344 318.407 48.3164 321 48.3164ZM332.725 48.3164C335.739 48.3164 337.567 45.7588 337.567 41.6631V41.6455C337.567 37.5498 335.739 35.001 332.725 35.001C329.71 35.001 327.899 37.5498 327.899 41.6455V41.6631C327.899 45.7588 329.71 48.3164 332.725 48.3164ZM332.725 46.4795C331.107 46.4795 330.185 44.6689 330.185 41.6631V41.6455C330.185 38.6396 331.107 36.8467 332.725 36.8467C334.342 36.8467 335.282 38.6396 335.282 41.6455V41.6631C335.282 44.6689 334.342 46.4795 332.725 46.4795ZM344.376 41.484V42.834H347.148V43.878H343.962V45.39H351.792V43.878H348.642V42.834H351.378V41.484H348.642V40.494H351.63V33.816H344.142V40.494H347.148V41.484H344.376ZM344.286 46.11C344.214 47.352 343.998 48.45 343.656 49.422L345.042 49.836C345.33 48.792 345.528 47.604 345.6 46.272L344.286 46.11ZM347.4 46.218L346.158 46.38C346.212 47.154 346.248 48.252 346.284 49.656L347.67 49.494C347.616 48.108 347.526 47.01 347.4 46.218ZM351.198 45.894L349.992 46.236C350.28 47.172 350.514 48.144 350.712 49.152L351.954 48.702C351.774 47.838 351.522 46.902 351.198 45.894ZM349.29 46.128L348.066 46.38C348.246 47.262 348.408 48.288 348.552 49.44L349.92 49.134C349.74 48.054 349.524 47.046 349.29 46.128ZM350.28 39.198H348.48V35.112H350.28V39.198ZM347.256 39.198H345.51V35.112H347.256V39.198ZM349.128 35.616C349.02 36.588 348.858 37.506 348.642 38.37L349.542 38.676C349.794 37.776 349.956 36.84 350.064 35.868L349.128 35.616ZM346.464 35.796L345.582 36.066C345.834 36.894 346.05 37.758 346.23 38.658L347.112 38.424C346.932 37.416 346.716 36.552 346.464 35.796ZM354.924 33.33V40.962H352.458V49.854H354.078V48.972H357.948V49.854H359.55V40.962H356.58V38.082H360.27V36.516H356.58V33.33H354.924ZM354.078 47.424V42.51H357.948V47.424H354.078Z" fill="white"/>
<path d="M37.62 70.036V68.308H38.34V67.336H37.62V65.608H35.292V64.912H38.232V63.916H35.292V63.172H34.212V63.916H31.524V64.912H34.212V65.608H32.1V66.58H34.212V67.336H31.596V68.308H34.212V69.076H32.016V70.036H34.212V72.724C34.128 72.7 34.056 72.664 33.996 72.64C33.564 72.472 33.192 72.076 32.856 71.476C32.916 71.188 32.976 70.876 33.024 70.552L31.968 70.396C31.776 71.764 31.344 72.844 30.672 73.612L31.572 74.248C31.956 73.828 32.28 73.264 32.544 72.556C32.856 73.06 33.204 73.42 33.588 73.612C34.14 73.876 35.16 74.008 36.648 74.02C37.104 74.032 37.632 74.044 38.22 74.044L38.556 72.892C38.004 72.94 37.344 72.976 36.564 72.976C36.084 72.976 35.664 72.952 35.292 72.916V71.872H37.848V70.876H35.292V70.036H37.62ZM35.292 66.58H36.6V67.336H35.292V66.58ZM36.6 68.308V69.076H35.292V68.308H36.6ZM29.004 74.104C29.772 74.104 30.156 73.708 30.156 72.928V69.532C30.516 69.364 30.876 69.172 31.236 68.968V67.816C30.876 68.032 30.516 68.224 30.156 68.404V66.364H31.344V65.272H30.156V63.184H29.028V65.272H27.66V66.364H29.028V68.884C28.512 69.088 27.984 69.256 27.456 69.388L27.744 70.54C28.176 70.384 28.596 70.216 29.028 70.048V72.64C29.028 72.928 28.884 73.084 28.608 73.084C28.32 73.084 28.032 73.06 27.72 73.012L27.972 74.104H29.004ZM48.636 70.372H41.58V74.272H42.684V73.816H47.52V74.272H48.636V70.372ZM42.684 72.784V71.392H47.52V72.784H42.684ZM43.332 65.116C42.54 66.22 41.592 67.072 40.488 67.696L41.22 68.572C41.712 68.26 42.18 67.9 42.624 67.516C43.056 67.888 43.512 68.236 44.016 68.548C42.792 68.968 41.268 69.316 39.444 69.58L39.876 70.588C42.012 70.228 43.788 69.76 45.18 69.172C46.644 69.856 48.324 70.252 50.22 70.36L50.472 69.328C48.984 69.244 47.628 68.992 46.404 68.56C47.244 68.08 47.868 67.528 48.3 66.904V65.992H44.004C44.148 65.788 44.304 65.572 44.448 65.356L43.332 65.116ZM45.216 68.068C44.58 67.756 43.992 67.396 43.44 66.964H46.92C46.488 67.372 45.912 67.732 45.216 68.068ZM49.98 63.964H45.54C45.42 63.628 45.3 63.34 45.18 63.076L43.92 63.268C44.064 63.484 44.184 63.724 44.304 63.964H40.02V66.388H41.172V64.984H48.828V66.388H49.98V63.964ZM53.82 66.772V67.444H56.448V68.896H52.26V69.952H56.448V72.892H55.296C55.008 71.992 54.696 71.224 54.36 70.576L53.34 70.948C53.676 71.56 53.964 72.208 54.192 72.892H51.84V73.972H62.172V72.892H59.856C60.168 72.292 60.456 71.62 60.72 70.864L59.688 70.492C59.4 71.344 59.076 72.148 58.704 72.892H57.576V69.952H61.752V68.896H57.576V67.444H60.204V66.82C60.708 67.108 61.26 67.372 61.836 67.612L62.484 66.664C60.252 65.74 58.584 64.588 57.468 63.196H56.556C55.26 64.612 53.58 65.776 51.504 66.688L52.164 67.636C52.74 67.372 53.292 67.084 53.82 66.772ZM59.544 66.424H54.384C55.344 65.8 56.22 65.08 57.012 64.264C57.72 65.08 58.56 65.8 59.544 66.424Z" fill="#E7E7E7"/>
<path d="M278.624 63.82V64.924H286.748V72.568C286.748 72.928 286.58 73.108 286.256 73.108C285.656 73.108 285.032 73.084 284.372 73.048L284.636 74.152H286.652C287.468 74.152 287.888 73.72 287.888 72.856V64.924H289.4V63.82H278.624ZM284.816 66.484H279.944V72.088H281.036V71.104H284.816V66.484ZM281.036 70.072V67.504H283.736V70.072H281.036ZM300.56 63.148C299.048 63.712 297.332 64.012 295.412 64.06V68.404C295.34 70.516 294.86 72.16 293.948 73.36L294.752 74.212C295.856 72.76 296.456 70.828 296.528 68.404V68.044H298.52V74.284H299.672V68.044H301.4V66.952H296.528V65.008C298.22 64.924 299.756 64.648 301.124 64.18L300.56 63.148ZM292.244 74.104C293.012 74.104 293.408 73.696 293.408 72.904V69.64C293.9 69.448 294.38 69.232 294.848 69.016V67.852C294.38 68.092 293.9 68.308 293.408 68.5V66.364H294.8V65.272H293.408V63.172H292.292V65.272H290.684V66.364H292.292V68.896C291.692 69.088 291.092 69.256 290.468 69.388L290.744 70.54C291.26 70.396 291.776 70.228 292.292 70.06V72.616C292.292 72.928 292.136 73.084 291.848 73.084C291.536 73.084 291.2 73.06 290.84 73.012L291.104 74.104H292.244ZM303.884 74.092C304.628 74.092 305.012 73.696 305.012 72.916V69.616C305.408 69.448 305.804 69.256 306.188 69.052V67.96C305.804 68.176 305.408 68.368 305.012 68.536V66.364H306.212V65.272H305.012V63.172H303.908V65.272H302.648V66.364H303.908V68.968C303.428 69.136 302.948 69.268 302.468 69.376L302.744 70.468C303.128 70.348 303.524 70.216 303.908 70.072V72.64C303.908 72.952 303.764 73.108 303.5 73.108C303.224 73.108 302.936 73.084 302.636 73.036L302.876 74.092H303.884ZM307.772 68.296H310.16C310.22 69.772 310.316 70.828 310.46 71.452C310.652 72.292 310.94 72.964 311.336 73.468C311.648 73.84 311.984 74.032 312.356 74.032C312.968 74.032 313.388 73.204 313.616 71.56L312.704 70.936C312.584 72.172 312.452 72.808 312.296 72.844C312.008 72.772 311.768 72.316 311.552 71.476C311.396 70.9 311.288 69.832 311.216 68.296H313.196V67.192H311.18C311.156 66.424 311.144 65.56 311.144 64.6C311.828 64.456 312.428 64.324 312.956 64.18L312.284 63.22C310.916 63.604 309.044 63.94 306.668 64.228V70.696C306.668 71.068 306.524 71.32 306.236 71.452L306.536 72.424C307.76 72.076 308.84 71.74 309.764 71.416L309.584 70.432C308.984 70.672 308.384 70.876 307.772 71.068V68.296ZM310.124 67.192H307.772V65.116C308.6 65.008 309.368 64.9 310.088 64.792C310.088 65.656 310.1 66.46 310.124 67.192ZM306.62 72.928V74.008H310.412V72.928H306.62ZM318.037 73H319.314V66.8594H319.408L323.75 73H324.934V64.5449H323.656V70.6973H323.568L319.221 64.5449H318.037V73ZM329.205 73H330.518V65.6758H333.172V64.5449H326.545V65.6758H329.205V73ZM340.549 73.8438H341.24V72.8652C342.723 72.7539 343.889 71.9395 343.889 70.5098V70.498C343.889 69.2559 343.045 68.623 341.504 68.2656L341.24 68.2012V65.7461C341.984 65.8516 342.5 66.2969 342.582 67.0234V67.0352L343.795 67.0293V67.0234C343.742 65.7051 342.693 64.8027 341.24 64.6797V63.6953H340.549V64.6797C339.078 64.7969 338.035 65.6641 338.035 66.9707V66.9824C338.035 68.166 338.838 68.834 340.32 69.1797L340.549 69.2383V71.7988C339.605 71.6992 339.166 71.1895 339.066 70.5098V70.498L337.848 70.5039V70.5098C337.895 71.9043 339.066 72.748 340.549 72.8652V73.8438ZM339.271 66.8887V66.877C339.271 66.3438 339.711 65.8574 340.549 65.7461V68.0371C339.623 67.8027 339.271 67.4102 339.271 66.8887ZM342.646 70.6152V70.627C342.646 71.248 342.23 71.7227 341.24 71.8047V69.3965C342.318 69.6543 342.646 70.0117 342.646 70.6152ZM349.543 73H350.809V71.3184H351.975V70.2051H350.809V64.5449H348.939C347.773 66.2969 346.531 68.2949 345.418 70.2051V71.3184H349.543V73ZM346.678 70.2285V70.1465C347.545 68.6641 348.576 67.0176 349.484 65.6523H349.561V70.2285H346.678ZM356.504 73.2051C358.285 73.2051 359.539 72.0098 359.539 70.2754V70.2637C359.539 68.6406 358.402 67.457 356.814 67.457C356.035 67.457 355.373 67.7852 355.016 68.3535H354.916L355.174 65.6582H359.059V64.5449H354.143L353.721 69.4551H354.852C354.951 69.2617 355.086 69.0977 355.238 68.9629C355.572 68.6582 356.012 68.5059 356.527 68.5059C357.547 68.5059 358.285 69.2441 358.285 70.2871V70.2988C358.285 71.3594 357.559 72.1035 356.516 72.1035C355.59 72.1035 354.916 71.5117 354.805 70.7676L354.799 70.7207H353.568L353.574 70.7969C353.691 72.168 354.84 73.2051 356.504 73.2051Z" fill="#E7E7E7"/>
</g>
<defs>
<filter id="filter0_d_472_2377" x="0" y="0" width="394" height="113" filterUnits="userSpaceOnUse" color-interpolation-filters="sRGB">
<feFlood flood-opacity="0" result="BackgroundImageFix"/>
<feColorMatrix in="SourceAlpha" type="matrix" values="0 0 0 0 0 0 0 0 0 0 0 0 0 0 0 0 0 0 127 0" result="hardAlpha"/>
<feOffset dx="3" dy="4"/>
<feGaussianBlur stdDeviation="7"/>
<feComposite in2="hardAlpha" operator="out"/>
<feColorMatrix type="matrix" values="0 0 0 0 0 0 0 0 0 0 0 0 0 0 0 0 0 0 0.14 0"/>
<feBlend mode="normal" in2="BackgroundImageFix" result="effect1_dropShadow_472_2377"/>
<feBlend mode="normal" in="SourceGraphic" in2="effect1_dropShadow_472_2377" result="shape"/>
</filter>
<linearGradient id="paint0_linear_472_2377" x1="11" y1="52.5" x2="377" y2="52.5" gradientUnits="userSpaceOnUse">
<stop stop-color="#3178AA"/>
<stop offset="1" stop-color="#5FAA49"/>
</linearGradient>
</defs>
</svg>
