<svg width="15" height="19" viewBox="0 0 15 19" fill="none" xmlns="http://www.w3.org/2000/svg">
<path d="M3.01562 18.6016H11.9766C12.7943 18.6016 13.4062 18.3984 13.8125 17.9922C14.224 17.5859 14.4297 16.9818 14.4297 16.1797V8.38281C14.4297 7.58073 14.224 6.97656 13.8125 6.57031C13.4062 6.16406 12.7943 5.96094 11.9766 5.96094H9.79688V7.21875H11.9531C12.3385 7.21875 12.638 7.32292 12.8516 7.53125C13.0651 7.73958 13.1719 8.04688 13.1719 8.45312V16.1094C13.1719 16.5156 13.0651 16.8229 12.8516 17.0312C12.638 17.2396 12.3385 17.3438 11.9531 17.3438H3.03125C2.64062 17.3438 2.34115 17.2396 2.13281 17.0312C1.92448 16.8229 1.82031 16.5156 1.82031 16.1094V8.45312C1.82031 8.04688 1.92448 7.73958 2.13281 7.53125C2.34115 7.32292 2.64062 7.21875 3.03125 7.21875H5.19531V5.96094H3.01562C2.19792 5.96094 1.58333 6.16406 1.17188 6.57031C0.765625 6.97135 0.5625 7.57552 0.5625 8.38281V16.1797C0.5625 16.987 0.765625 17.5911 1.17188 17.9922C1.58333 18.3984 2.19792 18.6016 3.01562 18.6016ZM7.49219 12.4844C7.66406 12.4844 7.8099 12.4245 7.92969 12.3047C8.05469 12.1849 8.11719 12.0417 8.11719 11.875V3.85156L8.07031 2.67969L8.59375 3.23438L9.78125 4.5C9.89062 4.625 10.0312 4.6875 10.2031 4.6875C10.3646 4.6875 10.5 4.63542 10.6094 4.53125C10.7188 4.42708 10.7734 4.29427 10.7734 4.13281C10.7734 3.98698 10.7109 3.85156 10.5859 3.72656L7.94531 1.17969C7.86719 1.10156 7.79167 1.04688 7.71875 1.01562C7.65104 0.984375 7.57552 0.96875 7.49219 0.96875C7.41406 0.96875 7.33854 0.984375 7.26562 1.01562C7.19792 1.04688 7.1224 1.10156 7.03906 1.17969L4.39844 3.72656C4.27865 3.85156 4.21875 3.98698 4.21875 4.13281C4.21875 4.29427 4.27083 4.42708 4.375 4.53125C4.47917 4.63542 4.61458 4.6875 4.78125 4.6875C4.95833 4.6875 5.10156 4.625 5.21094 4.5L6.39062 3.23438L6.92188 2.67969L6.875 3.85156V11.875C6.875 12.0417 6.9349 12.1849 7.05469 12.3047C7.17969 12.4245 7.32552 12.4844 7.49219 12.4844Z" fill="black"/>
</svg>
