<svg width="22" height="22" viewBox="0 0 22 22" fill="none" xmlns="http://www.w3.org/2000/svg">
<path d="M10.9917 21.8145C12.1759 21.8145 13.3049 21.6291 14.3784 21.2583C15.4575 20.8931 16.4481 20.3784 17.3501 19.7144C18.2521 19.0503 19.0352 18.2673 19.6992 17.3652C20.3688 16.4632 20.8862 15.4727 21.2515 14.3936C21.6222 13.3145 21.8076 12.1855 21.8076 11.0068C21.8076 9.82259 21.6222 8.69368 21.2515 7.62012C20.8862 6.54102 20.3688 5.55046 19.6992 4.64844C19.0352 3.74642 18.2521 2.96338 17.3501 2.29932C16.4481 1.62972 15.4575 1.1123 14.3784 0.74707C13.2993 0.376302 12.1676 0.190918 10.9834 0.190918C9.79915 0.190918 8.66748 0.376302 7.58838 0.74707C6.51481 1.1123 5.52702 1.62972 4.625 2.29932C3.72852 2.96338 2.94548 3.74642 2.27588 4.64844C1.61182 5.55046 1.09717 6.54102 0.731934 7.62012C0.366699 8.69368 0.184082 9.82259 0.184082 11.0068C0.184082 12.1855 0.366699 13.3145 0.731934 14.3936C1.1027 15.4727 1.62012 16.4632 2.28418 17.3652C2.94824 18.2673 3.73128 19.0503 4.6333 19.7144C5.53532 20.3784 6.52311 20.8931 7.59668 21.2583C8.67578 21.6291 9.80745 21.8145 10.9917 21.8145ZM10.9917 20.2705C9.96794 20.2705 8.99121 20.1128 8.06152 19.7974C7.13737 19.4875 6.29069 19.0503 5.52148 18.4858C4.75228 17.9214 4.08268 17.2546 3.5127 16.4854C2.94824 15.7106 2.51107 14.8612 2.20117 13.937C1.89128 13.0073 1.73633 12.0306 1.73633 11.0068C1.73633 9.97754 1.89128 9.00081 2.20117 8.07666C2.51107 7.14697 2.94824 6.29753 3.5127 5.52832C4.07715 4.75358 4.74398 4.08398 5.51318 3.51953C6.28239 2.95508 7.12907 2.5179 8.05322 2.20801C8.98291 1.89811 9.95964 1.74316 10.9834 1.74316C12.0127 1.74316 12.9894 1.89811 13.9136 2.20801C14.8433 2.5179 15.6927 2.95508 16.4619 3.51953C17.2367 4.08398 17.9062 4.75358 18.4707 5.52832C19.0352 6.29753 19.4723 7.14697 19.7822 8.07666C20.0977 9.00081 20.2554 9.97754 20.2554 11.0068C20.2609 12.0306 20.1087 13.0073 19.7988 13.937C19.4889 14.8612 19.049 15.7106 18.479 16.4854C17.9146 17.2546 17.245 17.9214 16.4702 18.4858C15.701 19.0503 14.8516 19.4875 13.9219 19.7974C12.9977 20.1128 12.021 20.2705 10.9917 20.2705ZM8.42676 6.26709C7.82357 6.26709 7.28678 6.4082 6.81641 6.69043C6.35156 6.96712 5.98356 7.34896 5.7124 7.83594C5.44678 8.32292 5.31396 8.8763 5.31396 9.49609C5.31396 10.0771 5.42464 10.6416 5.646 11.1895C5.86735 11.7373 6.16341 12.263 6.53418 12.7666C6.90495 13.2702 7.31722 13.7433 7.771 14.186C8.22477 14.6232 8.68962 15.0244 9.16553 15.3896C9.64144 15.7493 10.0897 16.0648 10.5103 16.3359C10.5933 16.3857 10.6818 16.4355 10.7759 16.4854C10.87 16.5352 10.9502 16.5601 11.0166 16.5601C11.0775 16.5601 11.1522 16.5352 11.2407 16.4854C11.3293 16.4355 11.4095 16.3857 11.4814 16.3359C11.8965 16.0537 12.3392 15.73 12.8096 15.3647C13.2855 14.9995 13.7503 14.5983 14.2041 14.1611C14.6634 13.7184 15.0785 13.248 15.4492 12.75C15.8255 12.252 16.1243 11.7318 16.3457 11.1895C16.5671 10.6416 16.6777 10.0771 16.6777 9.49609C16.6777 8.8763 16.5422 8.32292 16.271 7.83594C16.0054 7.34896 15.6374 6.96712 15.167 6.69043C14.7021 6.4082 14.1681 6.26709 13.5649 6.26709C13.0005 6.26709 12.4969 6.41927 12.0542 6.72363C11.6115 7.02246 11.2601 7.40983 11 7.88574C10.7399 7.40983 10.3885 7.02246 9.9458 6.72363C9.50309 6.41927 8.99674 6.26709 8.42676 6.26709Z" fill="#5A5A5A" style="mix-blend-mode:color-burn"/>
<path d="M10.9917 21.8145C12.1759 21.8145 13.3049 21.6291 14.3784 21.2583C15.4575 20.8931 16.4481 20.3784 17.3501 19.7144C18.2521 19.0503 19.0352 18.2673 19.6992 17.3652C20.3688 16.4632 20.8862 15.4727 21.2515 14.3936C21.6222 13.3145 21.8076 12.1855 21.8076 11.0068C21.8076 9.82259 21.6222 8.69368 21.2515 7.62012C20.8862 6.54102 20.3688 5.55046 19.6992 4.64844C19.0352 3.74642 18.2521 2.96338 17.3501 2.29932C16.4481 1.62972 15.4575 1.1123 14.3784 0.74707C13.2993 0.376302 12.1676 0.190918 10.9834 0.190918C9.79915 0.190918 8.66748 0.376302 7.58838 0.74707C6.51481 1.1123 5.52702 1.62972 4.625 2.29932C3.72852 2.96338 2.94548 3.74642 2.27588 4.64844C1.61182 5.55046 1.09717 6.54102 0.731934 7.62012C0.366699 8.69368 0.184082 9.82259 0.184082 11.0068C0.184082 12.1855 0.366699 13.3145 0.731934 14.3936C1.1027 15.4727 1.62012 16.4632 2.28418 17.3652C2.94824 18.2673 3.73128 19.0503 4.6333 19.7144C5.53532 20.3784 6.52311 20.8931 7.59668 21.2583C8.67578 21.6291 9.80745 21.8145 10.9917 21.8145ZM10.9917 20.2705C9.96794 20.2705 8.99121 20.1128 8.06152 19.7974C7.13737 19.4875 6.29069 19.0503 5.52148 18.4858C4.75228 17.9214 4.08268 17.2546 3.5127 16.4854C2.94824 15.7106 2.51107 14.8612 2.20117 13.937C1.89128 13.0073 1.73633 12.0306 1.73633 11.0068C1.73633 9.97754 1.89128 9.00081 2.20117 8.07666C2.51107 7.14697 2.94824 6.29753 3.5127 5.52832C4.07715 4.75358 4.74398 4.08398 5.51318 3.51953C6.28239 2.95508 7.12907 2.5179 8.05322 2.20801C8.98291 1.89811 9.95964 1.74316 10.9834 1.74316C12.0127 1.74316 12.9894 1.89811 13.9136 2.20801C14.8433 2.5179 15.6927 2.95508 16.4619 3.51953C17.2367 4.08398 17.9062 4.75358 18.4707 5.52832C19.0352 6.29753 19.4723 7.14697 19.7822 8.07666C20.0977 9.00081 20.2554 9.97754 20.2554 11.0068C20.2609 12.0306 20.1087 13.0073 19.7988 13.937C19.4889 14.8612 19.049 15.7106 18.479 16.4854C17.9146 17.2546 17.245 17.9214 16.4702 18.4858C15.701 19.0503 14.8516 19.4875 13.9219 19.7974C12.9977 20.1128 12.021 20.2705 10.9917 20.2705ZM8.42676 6.26709C7.82357 6.26709 7.28678 6.4082 6.81641 6.69043C6.35156 6.96712 5.98356 7.34896 5.7124 7.83594C5.44678 8.32292 5.31396 8.8763 5.31396 9.49609C5.31396 10.0771 5.42464 10.6416 5.646 11.1895C5.86735 11.7373 6.16341 12.263 6.53418 12.7666C6.90495 13.2702 7.31722 13.7433 7.771 14.186C8.22477 14.6232 8.68962 15.0244 9.16553 15.3896C9.64144 15.7493 10.0897 16.0648 10.5103 16.3359C10.5933 16.3857 10.6818 16.4355 10.7759 16.4854C10.87 16.5352 10.9502 16.5601 11.0166 16.5601C11.0775 16.5601 11.1522 16.5352 11.2407 16.4854C11.3293 16.4355 11.4095 16.3857 11.4814 16.3359C11.8965 16.0537 12.3392 15.73 12.8096 15.3647C13.2855 14.9995 13.7503 14.5983 14.2041 14.1611C14.6634 13.7184 15.0785 13.248 15.4492 12.75C15.8255 12.252 16.1243 11.7318 16.3457 11.1895C16.5671 10.6416 16.6777 10.0771 16.6777 9.49609C16.6777 8.8763 16.5422 8.32292 16.271 7.83594C16.0054 7.34896 15.6374 6.96712 15.167 6.69043C14.7021 6.4082 14.1681 6.26709 13.5649 6.26709C13.0005 6.26709 12.4969 6.41927 12.0542 6.72363C11.6115 7.02246 11.2601 7.40983 11 7.88574C10.7399 7.40983 10.3885 7.02246 9.9458 6.72363C9.50309 6.41927 8.99674 6.26709 8.42676 6.26709Z" fill="#717171" fill-opacity="0.5"/>
</svg>
