<svg width="20" height="22" viewBox="0 0 20 22" fill="none" xmlns="http://www.w3.org/2000/svg">
<path d="M0.611816 18.5811C0.611816 19.6436 0.882975 20.4404 1.42529 20.9717C1.96761 21.5085 2.77279 21.7769 3.84082 21.7769H16.4082C17.3545 21.7769 18.0877 21.5085 18.6079 20.9717C19.1281 20.4349 19.3882 19.638 19.3882 18.5811V7.4082C19.3882 6.35124 19.117 5.55436 18.5747 5.01758C18.0324 4.48079 17.2272 4.2124 16.1592 4.2124H14.3164C14.2998 3.67562 14.1808 3.16374 13.9595 2.67676C13.7381 2.18978 13.4338 1.75814 13.0464 1.38184C12.659 1.00553 12.2052 0.709473 11.6851 0.493652C11.1704 0.277832 10.6087 0.169922 10 0.169922C9.39128 0.169922 8.82682 0.277832 8.30664 0.493652C7.79199 0.709473 7.34098 1.00553 6.95361 1.38184C6.56624 1.75814 6.26188 2.18978 6.04053 2.67676C5.81917 3.16374 5.7002 3.67562 5.68359 4.2124H3.84082C2.77279 4.2124 1.96761 4.48079 1.42529 5.01758C0.882975 5.54883 0.611816 6.3457 0.611816 7.4082V18.5811ZM2.08105 18.5063V7.49121C2.08105 6.89355 2.23324 6.44255 2.5376 6.13818C2.84749 5.83382 3.29297 5.68164 3.87402 5.68164H16.126C16.696 5.68164 17.1359 5.83382 17.4458 6.13818C17.7612 6.44255 17.9189 6.89355 17.9189 7.49121V18.5063C17.9189 19.0985 17.7723 19.5467 17.479 19.8511C17.1912 20.1554 16.826 20.3076 16.3833 20.3076H3.87402C3.29297 20.3076 2.84749 20.1554 2.5376 19.8511C2.23324 19.5467 2.08105 19.0985 2.08105 18.5063ZM7.15283 4.2124C7.16943 3.74202 7.29948 3.30485 7.54297 2.90088C7.78646 2.49691 8.11849 2.17318 8.53906 1.92969C8.96517 1.6862 9.45215 1.56445 10 1.56445C10.5479 1.56445 11.0321 1.6862 11.4526 1.92969C11.8787 2.17318 12.2135 2.49691 12.457 2.90088C12.7005 3.30485 12.8306 3.74202 12.8472 4.2124H7.15283Z" fill="#5A5A5A" style="mix-blend-mode:color-burn"/>
<path d="M0.611816 18.5811C0.611816 19.6436 0.882975 20.4404 1.42529 20.9717C1.96761 21.5085 2.77279 21.7769 3.84082 21.7769H16.4082C17.3545 21.7769 18.0877 21.5085 18.6079 20.9717C19.1281 20.4349 19.3882 19.638 19.3882 18.5811V7.4082C19.3882 6.35124 19.117 5.55436 18.5747 5.01758C18.0324 4.48079 17.2272 4.2124 16.1592 4.2124H14.3164C14.2998 3.67562 14.1808 3.16374 13.9595 2.67676C13.7381 2.18978 13.4338 1.75814 13.0464 1.38184C12.659 1.00553 12.2052 0.709473 11.6851 0.493652C11.1704 0.277832 10.6087 0.169922 10 0.169922C9.39128 0.169922 8.82682 0.277832 8.30664 0.493652C7.79199 0.709473 7.34098 1.00553 6.95361 1.38184C6.56624 1.75814 6.26188 2.18978 6.04053 2.67676C5.81917 3.16374 5.7002 3.67562 5.68359 4.2124H3.84082C2.77279 4.2124 1.96761 4.48079 1.42529 5.01758C0.882975 5.54883 0.611816 6.3457 0.611816 7.4082V18.5811ZM2.08105 18.5063V7.49121C2.08105 6.89355 2.23324 6.44255 2.5376 6.13818C2.84749 5.83382 3.29297 5.68164 3.87402 5.68164H16.126C16.696 5.68164 17.1359 5.83382 17.4458 6.13818C17.7612 6.44255 17.9189 6.89355 17.9189 7.49121V18.5063C17.9189 19.0985 17.7723 19.5467 17.479 19.8511C17.1912 20.1554 16.826 20.3076 16.3833 20.3076H3.87402C3.29297 20.3076 2.84749 20.1554 2.5376 19.8511C2.23324 19.5467 2.08105 19.0985 2.08105 18.5063ZM7.15283 4.2124C7.16943 3.74202 7.29948 3.30485 7.54297 2.90088C7.78646 2.49691 8.11849 2.17318 8.53906 1.92969C8.96517 1.6862 9.45215 1.56445 10 1.56445C10.5479 1.56445 11.0321 1.6862 11.4526 1.92969C11.8787 2.17318 12.2135 2.49691 12.457 2.90088C12.7005 3.30485 12.8306 3.74202 12.8472 4.2124H7.15283Z" fill="#717171" fill-opacity="0.5"/>
</svg>
