<svg width="366" height="80" viewBox="0 0 366 80" fill="none" xmlns="http://www.w3.org/2000/svg">
<rect width="366" height="80" fill="#F1F1F1"/>
<g clip-path="url(#clip0_659_3831)">
<rect y="24" width="366" height="32" rx="8" fill="#F8F8F8"/>
<g filter="url(#filter0_dd_659_3831)">
<rect x="2" y="26" width="122" height="28.0024" rx="7" fill="#3179AA"/>
<rect x="1.75" y="25.75" width="122.5" height="28.5024" rx="7.25" stroke="black" stroke-opacity="0.04" stroke-width="0.5"/>
</g>
<path d="M44.299 35.159V36.069H53.243V44.675C53.243 45.117 53.022 45.351 52.606 45.351C51.956 45.351 51.267 45.325 50.552 45.299L50.76 46.209H52.931C53.763 46.209 54.179 45.767 54.179 44.909V36.069H55.895V35.159H44.299ZM50.864 38.058H45.807V43.973H46.717V42.829H50.864V38.058ZM46.717 41.971V38.903H49.967V41.971H46.717ZM60.946 35.705V36.602H64.352V37.837H61.388V41.516H64.3C64.222 42.426 64.04 43.167 63.767 43.739C63.078 43.245 62.454 42.66 61.895 41.958L61.18 42.452C61.778 43.219 62.467 43.882 63.234 44.428C62.636 45 61.661 45.364 60.335 45.507L60.738 46.365C62.246 46.144 63.351 45.676 64.053 44.961C65.431 45.767 67.03 46.222 68.85 46.339L69.084 45.442C67.381 45.351 65.873 44.948 64.573 44.233C64.924 43.583 65.145 42.686 65.249 41.516H68.343V37.837H65.301V36.602H68.876V35.705H65.301V34.379H64.352V35.705H60.946ZM67.459 40.671H65.288C65.288 40.567 65.301 40.463 65.301 40.359V38.669H67.459V40.671ZM64.339 40.671H62.272V38.669H64.352V40.359C64.352 40.463 64.339 40.567 64.339 40.671ZM58.567 39.072V46.326H59.503V37.577C59.984 36.68 60.387 35.718 60.712 34.704L59.828 34.301C59.23 36.355 58.255 38.175 56.903 39.761L57.215 40.749C57.709 40.216 58.151 39.657 58.567 39.072ZM72.185 38.916H75.487V41.191H72.185V38.916ZM72.133 42.049H75.487V45.858H76.449V42.049H79.985V44.311C79.985 44.857 79.738 45.13 79.27 45.13C78.828 45.13 78.347 45.104 77.827 45.078L78.074 46.001H79.569C80.479 46.001 80.934 45.546 80.934 44.636V34.899H71.249V41.139C71.223 42.92 70.794 44.389 69.962 45.546L70.677 46.183C71.509 45.091 71.99 43.713 72.133 42.049ZM79.985 41.191H76.449V38.916H79.985V41.191ZM79.985 38.045H76.449V35.809H79.985V38.045ZM75.487 35.809V38.045H72.185V35.809H75.487Z" fill="white"/>
<path d="M174.1 40.268V35.068H164.48V35.978H173.151V39.371H165.936V37.447H165V44.272C165 45.338 165.52 45.884 166.573 45.884H173.619C174.165 45.858 174.594 45.715 174.88 45.442C175.192 45.104 175.413 44.142 175.543 42.53L174.633 42.244C174.555 43.674 174.386 44.506 174.126 44.74C173.931 44.896 173.671 44.974 173.359 44.974H166.833C166.235 44.974 165.936 44.675 165.936 44.103V40.268H174.1ZM180.613 35.705V36.602H184.019V37.837H181.055V41.516H183.967C183.889 42.426 183.707 43.167 183.434 43.739C182.745 43.245 182.121 42.66 181.562 41.958L180.847 42.452C181.445 43.219 182.134 43.882 182.901 44.428C182.303 45 181.328 45.364 180.002 45.507L180.405 46.365C181.913 46.144 183.018 45.676 183.72 44.961C185.098 45.767 186.697 46.222 188.517 46.339L188.751 45.442C187.048 45.351 185.54 44.948 184.24 44.233C184.591 43.583 184.812 42.686 184.916 41.516H188.01V37.837H184.968V36.602H188.543V35.705H184.968V34.379H184.019V35.705H180.613ZM187.126 40.671H184.955C184.955 40.567 184.968 40.463 184.968 40.359V38.669H187.126V40.671ZM184.006 40.671H181.939V38.669H184.019V40.359C184.019 40.463 184.006 40.567 184.006 40.671ZM178.234 39.072V46.326H179.17V37.577C179.651 36.68 180.054 35.718 180.379 34.704L179.495 34.301C178.897 36.355 177.922 38.175 176.57 39.761L176.882 40.749C177.376 40.216 177.818 39.657 178.234 39.072ZM191.858 38.916H195.16V41.191H191.858V38.916ZM191.806 42.049H195.16V45.858H196.122V42.049H199.658V44.311C199.658 44.857 199.411 45.13 198.943 45.13C198.501 45.13 198.02 45.104 197.5 45.078L197.747 46.001H199.242C200.152 46.001 200.607 45.546 200.607 44.636V34.899H190.922V41.139C190.896 42.92 190.467 44.389 189.635 45.546L190.35 46.183C191.182 45.091 191.663 43.713 191.806 42.049ZM199.658 41.191H196.122V38.916H199.658V41.191ZM199.658 38.045H196.122V35.809H199.658V38.045ZM195.16 35.809V38.045H191.858V35.809H195.16Z" fill="black"/>
<rect x="242.333" y="32" width="1" height="16" rx="0.5" fill="#3C3C43" fill-opacity="0.18"/>
<path d="M294.766 40.268V35.068H285.146V35.978H293.817V39.371H286.602V37.447H285.666V44.272C285.666 45.338 286.186 45.884 287.239 45.884H294.285C294.831 45.858 295.26 45.715 295.546 45.442C295.858 45.104 296.079 44.142 296.209 42.53L295.299 42.244C295.221 43.674 295.052 44.506 294.792 44.74C294.597 44.896 294.337 44.974 294.025 44.974H287.499C286.901 44.974 286.602 44.675 286.602 44.103V40.268H294.766ZM302.891 37.07V37.629H307.051V36.875C307.584 37.265 308.156 37.616 308.78 37.954L309.274 37.213C307.987 36.537 306.726 35.614 305.504 34.47H304.802C303.658 35.536 302.358 36.459 300.915 37.239L301.396 37.98C301.89 37.694 302.397 37.395 302.891 37.07ZM306.999 36.836H303.229C303.879 36.381 304.529 35.874 305.153 35.328C305.725 35.861 306.336 36.368 306.999 36.836ZM302.644 40.853H304.126V41.724H302.618C302.631 41.542 302.644 41.347 302.644 41.139V40.853ZM304.126 40.164H302.644V39.241H304.126V40.164ZM302.54 42.426H304.126V43.388C304.126 43.648 303.996 43.791 303.762 43.791C303.515 43.791 303.255 43.778 302.969 43.765L303.177 44.519H304.009C304.62 44.519 304.932 44.233 304.932 43.661V38.487H301.851V41.191C301.838 42.296 301.591 43.206 301.123 43.921L301.773 44.506C302.15 43.934 302.41 43.245 302.54 42.426ZM305.816 38.747V42.803H306.57V38.747H305.816ZM307.402 44.48C308.052 44.48 308.377 44.155 308.377 43.518V38.344H307.558V43.31C307.558 43.596 307.415 43.752 307.129 43.752C306.778 43.752 306.414 43.726 306.024 43.7L306.206 44.48H307.402ZM298.51 34.509L297.899 35.094C298.757 35.744 299.433 36.342 299.927 36.914L300.538 36.303C299.992 35.705 299.316 35.107 298.51 34.509ZM297.561 37.629V38.487H299.537C299.069 39.215 298.523 39.956 297.886 40.684V41.399H299.797C299.628 42.244 299.407 43.011 299.121 43.687C298.588 43.843 298.016 44.493 297.418 45.663L298.107 46.274C298.679 45.13 299.108 44.558 299.407 44.558C299.511 44.558 299.628 44.597 299.732 44.688C300.174 45.156 300.655 45.494 301.201 45.715C301.682 45.91 302.371 46.027 303.255 46.053C304.022 46.079 304.893 46.092 305.881 46.092H309.079L309.287 45.195C307.844 45.234 306.674 45.26 305.764 45.26C304.841 45.26 304.022 45.247 303.32 45.247C302.566 45.234 301.981 45.143 301.552 44.974C301.123 44.779 300.707 44.48 300.304 44.09C300.187 43.986 300.07 43.895 299.966 43.83C300.252 43.128 300.486 42.27 300.681 41.23V40.606H298.991C299.589 39.878 300.109 39.137 300.564 38.37V37.629H297.561ZM311.38 34.418V35.874H310.574V36.745H311.38V42.244H310.431V43.128H316.58V42.244H315.735V36.745H316.515V35.874H315.735V34.444H314.825V35.874H312.29V34.418H311.38ZM312.29 42.244V40.97H314.825V42.244H312.29ZM314.825 36.745V38.045H312.29V36.745H314.825ZM312.29 40.151V38.864H314.825V40.151H312.29ZM314.591 43.466L313.863 43.921C314.448 44.701 314.916 45.429 315.254 46.092L315.943 45.598C315.93 45.624 315.917 45.65 315.891 45.676L316.606 46.339C317.464 45.195 317.984 43.778 318.166 42.062H320.688V44.727C320.688 45.117 320.519 45.312 320.181 45.312C319.765 45.312 319.323 45.286 318.842 45.26L319.102 46.183H320.48C321.234 46.183 321.624 45.806 321.624 45.065V34.873H317.308V40.957C317.282 42.777 316.853 44.298 315.995 45.507C315.67 44.935 315.202 44.246 314.591 43.466ZM312.056 43.453C311.575 44.337 311.003 45.091 310.353 45.728L311.094 46.261C311.744 45.572 312.316 44.753 312.81 43.817L312.056 43.453ZM318.231 38.89H320.688V41.204H318.218C318.218 41.1 318.231 40.996 318.231 40.879V38.89ZM320.688 38.032H318.231V35.757H320.688V38.032Z" fill="black"/>
</g>
<defs>
<filter id="filter0_dd_659_3831" x="-6.5" y="20.5" width="139" height="45.002" filterUnits="userSpaceOnUse" color-interpolation-filters="sRGB">
<feFlood flood-opacity="0" result="BackgroundImageFix"/>
<feColorMatrix in="SourceAlpha" type="matrix" values="0 0 0 0 0 0 0 0 0 0 0 0 0 0 0 0 0 0 127 0" result="hardAlpha"/>
<feOffset dy="3"/>
<feGaussianBlur stdDeviation="0.5"/>
<feColorMatrix type="matrix" values="0 0 0 0 0.380392 0 0 0 0 0.670588 0 0 0 0 0.282353 0 0 0 0.04 0"/>
<feBlend mode="normal" in2="BackgroundImageFix" result="effect1_dropShadow_659_3831"/>
<feColorMatrix in="SourceAlpha" type="matrix" values="0 0 0 0 0 0 0 0 0 0 0 0 0 0 0 0 0 0 127 0" result="hardAlpha"/>
<feOffset dy="3"/>
<feGaussianBlur stdDeviation="4"/>
<feColorMatrix type="matrix" values="0 0 0 0 0.380392 0 0 0 0 0.670588 0 0 0 0 0.282353 0 0 0 0.12 0"/>
<feBlend mode="normal" in2="effect1_dropShadow_659_3831" result="effect2_dropShadow_659_3831"/>
<feBlend mode="normal" in="SourceGraphic" in2="effect2_dropShadow_659_3831" result="shape"/>
</filter>
<clipPath id="clip0_659_3831">
<rect y="24" width="366" height="32" rx="8" fill="white"/>
</clipPath>
</defs>
</svg>
