<svg width="74" height="49" viewBox="0 0 74 49" fill="none" xmlns="http://www.w3.org/2000/svg">
<path d="M24.4907 18.2847C24.4907 18.6582 24.7812 19.0151 25.2793 19.0151C25.5283 19.0151 25.7358 18.874 25.9185 18.7163L27.4624 17.4214V27.9302C27.4624 29.3745 28.2925 30.188 29.7534 30.188H44.2051C45.666 30.188 46.4961 29.3745 46.4961 27.9302V17.3799L48.0898 18.7163C48.2808 18.874 48.48 19.0151 48.7373 19.0151C49.1689 19.0151 49.5093 18.7412 49.5093 18.3096C49.5093 18.0356 49.418 17.853 49.2188 17.6787L46.4961 15.3877V10.9385C46.4961 10.5234 46.2222 10.2578 45.8071 10.2578H44.7529C44.3379 10.2578 44.0557 10.5234 44.0557 10.9385V13.3374L38.2202 8.43164C37.4731 7.79248 36.5684 7.79248 35.813 8.43164L24.7896 17.6787C24.582 17.853 24.4907 18.0688 24.4907 18.2847ZM40.0464 21.3809C40.0464 20.916 39.7476 20.6172 39.2827 20.6172H34.7173C34.2524 20.6172 33.9453 20.916 33.9453 21.3809V28.7188H30.0605C29.3135 28.7188 28.9316 28.3286 28.9316 27.5732V16.1929L36.6099 9.75146C36.8589 9.52734 37.1494 9.51904 37.4233 9.75146L45.0269 16.1431V27.5732C45.0269 28.3286 44.645 28.7188 43.8896 28.7188H40.0464V21.3809Z" fill="#5A5A5A" style="mix-blend-mode:color-burn"/>
<path d="M24.4907 18.2847C24.4907 18.6582 24.7812 19.0151 25.2793 19.0151C25.5283 19.0151 25.7358 18.874 25.9185 18.7163L27.4624 17.4214V27.9302C27.4624 29.3745 28.2925 30.188 29.7534 30.188H44.2051C45.666 30.188 46.4961 29.3745 46.4961 27.9302V17.3799L48.0898 18.7163C48.2808 18.874 48.48 19.0151 48.7373 19.0151C49.1689 19.0151 49.5093 18.7412 49.5093 18.3096C49.5093 18.0356 49.418 17.853 49.2188 17.6787L46.4961 15.3877V10.9385C46.4961 10.5234 46.2222 10.2578 45.8071 10.2578H44.7529C44.3379 10.2578 44.0557 10.5234 44.0557 10.9385V13.3374L38.2202 8.43164C37.4731 7.79248 36.5684 7.79248 35.813 8.43164L24.7896 17.6787C24.582 17.853 24.4907 18.0688 24.4907 18.2847ZM40.0464 21.3809C40.0464 20.916 39.7476 20.6172 39.2827 20.6172H34.7173C34.2524 20.6172 33.9453 20.916 33.9453 21.3809V28.7188H30.0605C29.3135 28.7188 28.9316 28.3286 28.9316 27.5732V16.1929L36.6099 9.75146C36.8589 9.52734 37.1494 9.51904 37.4233 9.75146L45.0269 16.1431V27.5732C45.0269 28.3286 44.645 28.7188 43.8896 28.7188H40.0464V21.3809Z" fill="#717171" fill-opacity="0.5"/>
<path d="M24.5027 36.86V44H25.3227V40.67H29.4527V44H30.2727V36.86H29.4527V39.96H25.3227V36.86H24.5027ZM33.6688 38.69C32.8888 38.69 32.2788 38.95 31.8188 39.49C31.3788 40 31.1588 40.64 31.1588 41.42C31.1588 42.19 31.3788 42.83 31.8188 43.33C32.2788 43.87 32.8888 44.14 33.6688 44.14C34.4388 44.14 35.0588 43.87 35.5288 43.33C35.9588 42.83 36.1788 42.19 36.1788 41.42C36.1788 40.64 35.9588 40 35.5188 39.49C35.0588 38.95 34.4388 38.69 33.6688 38.69ZM33.6688 39.36C34.2088 39.36 34.6388 39.57 34.9588 39.99C35.2288 40.37 35.3688 40.84 35.3688 41.42C35.3688 41.98 35.2288 42.46 34.9588 42.84C34.6388 43.26 34.2088 43.47 33.6688 43.47C33.1188 43.47 32.6888 43.26 32.3888 42.84C32.1088 42.46 31.9788 41.99 31.9788 41.42C31.9788 40.84 32.1088 40.37 32.3888 39.99C32.6888 39.57 33.1188 39.36 33.6688 39.36ZM39.237 38.69C38.657 38.69 38.167 38.96 37.777 39.52V38.83H36.977V44H37.777V40.85C37.777 40.44 37.897 40.09 38.137 39.81C38.377 39.51 38.677 39.37 39.047 39.37C39.837 39.37 40.237 39.82 40.237 40.74V44H41.037V40.76C41.037 40.34 41.147 40.01 41.387 39.75C41.607 39.49 41.897 39.37 42.237 39.37C42.677 39.37 42.997 39.48 43.197 39.72C43.387 39.94 43.487 40.28 43.487 40.74V44H44.287V40.61C44.287 40.02 44.117 39.55 43.797 39.2C43.457 38.86 43.027 38.69 42.487 38.69C42.127 38.69 41.827 38.77 41.577 38.93C41.297 39.08 41.057 39.33 40.857 39.67C40.567 39.01 40.027 38.69 39.237 38.69ZM47.4205 38.69C46.6705 38.69 46.0805 38.96 45.6405 39.5C45.2005 40.01 44.9905 40.65 44.9905 41.41C44.9905 42.25 45.2105 42.91 45.6705 43.41C46.1105 43.89 46.7105 44.14 47.4505 44.14C48.1205 44.14 48.6705 43.94 49.1005 43.56C49.4505 43.24 49.6805 42.84 49.8005 42.34H49.0005C48.8705 42.7 48.7005 42.97 48.4805 43.15C48.2205 43.36 47.8705 43.47 47.4505 43.47C46.9605 43.47 46.5705 43.31 46.2905 42.99C46.0105 42.67 45.8605 42.22 45.8205 41.64H49.9005C49.8805 40.74 49.6805 40.03 49.3005 39.53C48.8805 38.97 48.2505 38.69 47.4205 38.69ZM47.4405 39.36C48.4205 39.36 48.9705 39.91 49.0705 41.02H45.8405C45.8905 40.51 46.0505 40.11 46.3305 39.81C46.6105 39.51 46.9805 39.36 47.4405 39.36Z" fill="#5A5A5A" style="mix-blend-mode:color-burn"/>
<path d="M24.5027 36.86V44H25.3227V40.67H29.4527V44H30.2727V36.86H29.4527V39.96H25.3227V36.86H24.5027ZM33.6688 38.69C32.8888 38.69 32.2788 38.95 31.8188 39.49C31.3788 40 31.1588 40.64 31.1588 41.42C31.1588 42.19 31.3788 42.83 31.8188 43.33C32.2788 43.87 32.8888 44.14 33.6688 44.14C34.4388 44.14 35.0588 43.87 35.5288 43.33C35.9588 42.83 36.1788 42.19 36.1788 41.42C36.1788 40.64 35.9588 40 35.5188 39.49C35.0588 38.95 34.4388 38.69 33.6688 38.69ZM33.6688 39.36C34.2088 39.36 34.6388 39.57 34.9588 39.99C35.2288 40.37 35.3688 40.84 35.3688 41.42C35.3688 41.98 35.2288 42.46 34.9588 42.84C34.6388 43.26 34.2088 43.47 33.6688 43.47C33.1188 43.47 32.6888 43.26 32.3888 42.84C32.1088 42.46 31.9788 41.99 31.9788 41.42C31.9788 40.84 32.1088 40.37 32.3888 39.99C32.6888 39.57 33.1188 39.36 33.6688 39.36ZM39.237 38.69C38.657 38.69 38.167 38.96 37.777 39.52V38.83H36.977V44H37.777V40.85C37.777 40.44 37.897 40.09 38.137 39.81C38.377 39.51 38.677 39.37 39.047 39.37C39.837 39.37 40.237 39.82 40.237 40.74V44H41.037V40.76C41.037 40.34 41.147 40.01 41.387 39.75C41.607 39.49 41.897 39.37 42.237 39.37C42.677 39.37 42.997 39.48 43.197 39.72C43.387 39.94 43.487 40.28 43.487 40.74V44H44.287V40.61C44.287 40.02 44.117 39.55 43.797 39.2C43.457 38.86 43.027 38.69 42.487 38.69C42.127 38.69 41.827 38.77 41.577 38.93C41.297 39.08 41.057 39.33 40.857 39.67C40.567 39.01 40.027 38.69 39.237 38.69ZM47.4205 38.69C46.6705 38.69 46.0805 38.96 45.6405 39.5C45.2005 40.01 44.9905 40.65 44.9905 41.41C44.9905 42.25 45.2105 42.91 45.6705 43.41C46.1105 43.89 46.7105 44.14 47.4505 44.14C48.1205 44.14 48.6705 43.94 49.1005 43.56C49.4505 43.24 49.6805 42.84 49.8005 42.34H49.0005C48.8705 42.7 48.7005 42.97 48.4805 43.15C48.2205 43.36 47.8705 43.47 47.4505 43.47C46.9605 43.47 46.5705 43.31 46.2905 42.99C46.0105 42.67 45.8605 42.22 45.8205 41.64H49.9005C49.8805 40.74 49.6805 40.03 49.3005 39.53C48.8805 38.97 48.2505 38.69 47.4205 38.69ZM47.4405 39.36C48.4205 39.36 48.9705 39.91 49.0705 41.02H45.8405C45.8905 40.51 46.0505 40.11 46.3305 39.81C46.6105 39.51 46.9805 39.36 47.4405 39.36Z" fill="#717171" fill-opacity="0.5"/>
</svg>
