<svg width="74" height="49" viewBox="0 0 74 49" fill="none" xmlns="http://www.w3.org/2000/svg">
<path d="M36.9917 29.8145C42.9102 29.8145 47.8076 24.917 47.8076 19.0068C47.8076 13.0884 42.9019 8.19092 36.9834 8.19092C31.0732 8.19092 26.1841 13.0884 26.1841 19.0068C26.1841 24.917 31.0815 29.8145 36.9917 29.8145ZM36.9917 28.2705C31.8618 28.2705 27.7363 24.1367 27.7363 19.0068C27.7363 13.8687 31.8535 9.74316 36.9834 9.74316C42.1216 9.74316 46.2471 13.8687 46.2554 19.0068C46.2637 24.1367 42.1299 28.2705 36.9917 28.2705ZM33.3892 25.5146H33.6631C33.7959 25.5146 33.8706 25.4731 33.937 25.3652L34.2441 24.8755H39.7393L40.0464 25.3652C40.1128 25.4731 40.1875 25.5146 40.3286 25.5146H40.5942C40.8184 25.5146 40.9097 25.3071 40.7852 25.1079L39.6895 23.3398H39.8472C40.8682 23.3398 41.3911 22.6592 41.3911 21.7461V18.0938C41.3911 16.6162 41.1836 15.1802 40.9678 14.3335C40.7603 13.4868 40.1709 12.8726 39.2993 12.7812C38.9092 12.7314 38.0376 12.665 36.9834 12.665C35.9375 12.665 35.0659 12.7314 34.6675 12.7812C33.8042 12.8726 33.2148 13.4868 33.0073 14.3335C32.7915 15.1802 32.5757 16.6162 32.5757 18.0938V21.7461C32.5757 22.6592 33.0986 23.3398 34.1279 23.3398H34.2939L33.1816 25.1079C33.0654 25.3071 33.165 25.5146 33.3892 25.5146ZM35.6304 14.292C35.4478 14.292 35.3315 14.1675 35.3315 13.9932C35.3315 13.8188 35.4478 13.7026 35.6304 13.7026H38.3447C38.519 13.7026 38.6353 13.8188 38.6353 13.9932C38.6353 14.1675 38.519 14.292 38.3447 14.292H35.6304ZM36.9834 19.9365C35.8047 19.9282 34.7505 19.8784 34.1611 19.812C33.8374 19.7788 33.688 19.563 33.688 19.2476V18.019C33.688 17.0063 33.7959 16.1597 33.8955 15.7114C33.9453 15.4624 34.103 15.2881 34.3354 15.2632C34.9414 15.1885 35.6802 15.147 36.9834 15.147C38.2783 15.1387 39.0254 15.1885 39.5981 15.2549C39.8555 15.2881 40.0132 15.4624 40.0713 15.7114C40.1626 16.1597 40.2788 17.0063 40.2788 18.019V19.2476C40.2788 19.563 40.1294 19.7788 39.8057 19.812C39.0005 19.895 37.938 19.9365 36.9834 19.9365ZM39.4238 22.2192C39.0254 22.2192 38.7266 21.9204 38.7266 21.522C38.7266 21.1318 39.0254 20.8247 39.4238 20.8247C39.8223 20.8247 40.1211 21.1318 40.1211 21.522C40.1211 21.9204 39.8057 22.2192 39.4238 22.2192ZM34.543 22.2109C34.1445 22.2109 33.854 21.9287 33.854 21.522C33.854 21.1318 34.1445 20.833 34.543 20.833C34.9414 20.833 35.2319 21.1318 35.2319 21.522C35.2319 21.9287 34.9331 22.2109 34.543 22.2109ZM34.6841 24.1616L35.1987 23.3398H38.7847L39.2993 24.1616H34.6841Z" fill="#5A5A5A" style="mix-blend-mode:color-burn"/>
<path d="M36.9917 29.8145C42.9102 29.8145 47.8076 24.917 47.8076 19.0068C47.8076 13.0884 42.9019 8.19092 36.9834 8.19092C31.0732 8.19092 26.1841 13.0884 26.1841 19.0068C26.1841 24.917 31.0815 29.8145 36.9917 29.8145ZM36.9917 28.2705C31.8618 28.2705 27.7363 24.1367 27.7363 19.0068C27.7363 13.8687 31.8535 9.74316 36.9834 9.74316C42.1216 9.74316 46.2471 13.8687 46.2554 19.0068C46.2637 24.1367 42.1299 28.2705 36.9917 28.2705ZM33.3892 25.5146H33.6631C33.7959 25.5146 33.8706 25.4731 33.937 25.3652L34.2441 24.8755H39.7393L40.0464 25.3652C40.1128 25.4731 40.1875 25.5146 40.3286 25.5146H40.5942C40.8184 25.5146 40.9097 25.3071 40.7852 25.1079L39.6895 23.3398H39.8472C40.8682 23.3398 41.3911 22.6592 41.3911 21.7461V18.0938C41.3911 16.6162 41.1836 15.1802 40.9678 14.3335C40.7603 13.4868 40.1709 12.8726 39.2993 12.7812C38.9092 12.7314 38.0376 12.665 36.9834 12.665C35.9375 12.665 35.0659 12.7314 34.6675 12.7812C33.8042 12.8726 33.2148 13.4868 33.0073 14.3335C32.7915 15.1802 32.5757 16.6162 32.5757 18.0938V21.7461C32.5757 22.6592 33.0986 23.3398 34.1279 23.3398H34.2939L33.1816 25.1079C33.0654 25.3071 33.165 25.5146 33.3892 25.5146ZM35.6304 14.292C35.4478 14.292 35.3315 14.1675 35.3315 13.9932C35.3315 13.8188 35.4478 13.7026 35.6304 13.7026H38.3447C38.519 13.7026 38.6353 13.8188 38.6353 13.9932C38.6353 14.1675 38.519 14.292 38.3447 14.292H35.6304ZM36.9834 19.9365C35.8047 19.9282 34.7505 19.8784 34.1611 19.812C33.8374 19.7788 33.688 19.563 33.688 19.2476V18.019C33.688 17.0063 33.7959 16.1597 33.8955 15.7114C33.9453 15.4624 34.103 15.2881 34.3354 15.2632C34.9414 15.1885 35.6802 15.147 36.9834 15.147C38.2783 15.1387 39.0254 15.1885 39.5981 15.2549C39.8555 15.2881 40.0132 15.4624 40.0713 15.7114C40.1626 16.1597 40.2788 17.0063 40.2788 18.019V19.2476C40.2788 19.563 40.1294 19.7788 39.8057 19.812C39.0005 19.895 37.938 19.9365 36.9834 19.9365ZM39.4238 22.2192C39.0254 22.2192 38.7266 21.9204 38.7266 21.522C38.7266 21.1318 39.0254 20.8247 39.4238 20.8247C39.8223 20.8247 40.1211 21.1318 40.1211 21.522C40.1211 21.9204 39.8057 22.2192 39.4238 22.2192ZM34.543 22.2109C34.1445 22.2109 33.854 21.9287 33.854 21.522C33.854 21.1318 34.1445 20.833 34.543 20.833C34.9414 20.833 35.2319 21.1318 35.2319 21.522C35.2319 21.9287 34.9331 22.2109 34.543 22.2109ZM34.6841 24.1616L35.1987 23.3398H38.7847L39.2993 24.1616H34.6841Z" fill="#717171" fill-opacity="0.5"/>
<path d="M26.1218 41.44V39.98H26.7718V39.36H26.1218V37.91H24.1518V37.17H26.6818V36.54H24.1518V35.84H23.4618V36.54H21.1418V37.17H23.4618V37.91H21.6018V38.53H23.4618V39.36H21.2018V39.98H23.4618V40.82H21.5318V41.44H23.4618V43.97C23.3418 43.93 23.2418 43.9 23.1418 43.86C22.7618 43.69 22.4218 43.31 22.1218 42.71C22.1718 42.48 22.2218 42.23 22.2618 41.95L21.5918 41.85C21.4318 43.02 21.0518 43.94 20.4518 44.6L21.0318 45C21.3918 44.6 21.6918 44.08 21.9218 43.42C22.2018 43.93 22.5218 44.28 22.8718 44.46C23.3118 44.68 24.1518 44.8 25.3918 44.81C25.7918 44.82 26.2318 44.83 26.7318 44.83L26.9418 44.1C26.5018 44.13 25.9718 44.15 25.3418 44.15C24.8918 44.15 24.4918 44.13 24.1518 44.09V42.97H26.3518V42.34H24.1518V41.44H26.1218ZM24.1518 38.53H25.4718V39.36H24.1518V38.53ZM25.4718 39.98V40.82H24.1518V39.98H25.4718ZM19.0418 44.89C19.6018 44.89 19.8818 44.61 19.8818 44.05V41.04C20.2018 40.88 20.5318 40.71 20.8618 40.53V39.81C20.5418 39.99 20.2218 40.17 19.8818 40.33V38.36H20.9518V37.67H19.8818V35.85H19.1618V37.67H17.9318V38.36H19.1618V40.65C18.7118 40.83 18.2518 40.98 17.7918 41.1L17.9718 41.82C18.3718 41.68 18.7618 41.53 19.1618 41.37V43.87C19.1618 44.12 19.0318 44.25 18.7918 44.25C18.5418 44.25 18.2818 44.23 18.0118 44.2L18.1618 44.89H19.0418ZM36.3506 36.22H30.4806V37.81H31.0506V38.15H33.0906V38.74H30.9506V41.68H33.0906V42.31H30.4206V42.91H33.0906V43.9H33.7806V42.91H36.4506V42.31H33.7806V41.68H35.9106V38.74H33.7806V38.15H35.8306V37.77H36.3506V36.22ZM31.1706 37.58V36.81H33.0906V37.58H31.1706ZM33.7806 36.81H35.6606V37.58H33.7806V36.81ZM35.2206 41.13H33.7806V40.48H35.2206V41.13ZM33.0906 41.13H31.6506V40.48H33.0906V41.13ZM31.6506 39.96V39.3H33.0906V39.96H31.6506ZM33.7806 39.3H35.2206V39.96H33.7806V39.3ZM28.3906 35.92L27.9206 36.37C28.5706 36.89 29.0806 37.37 29.4606 37.82L29.9306 37.35C29.5106 36.87 28.9906 36.4 28.3906 35.92ZM27.6806 38.33V38.99H29.1806C28.8406 39.55 28.4106 40.11 27.9106 40.68V41.23H29.4006C29.2706 41.88 29.1006 42.47 28.8806 42.99C28.4606 43.11 28.0106 43.61 27.5506 44.51L28.0806 44.98C28.5206 44.1 28.8606 43.66 29.1006 43.66C29.1806 43.66 29.2706 43.69 29.3506 43.76C29.6906 44.1 30.0706 44.36 30.4906 44.52C30.8606 44.67 31.3906 44.75 32.0806 44.77C32.6606 44.79 33.3406 44.8 34.1006 44.8H36.5406L36.7006 44.11C35.6006 44.15 34.7006 44.17 34.0106 44.17C33.3006 44.17 32.6706 44.16 32.1206 44.16C31.5406 44.14 31.0906 44.07 30.7606 43.95C30.4306 43.8 30.1106 43.58 29.7906 43.29C29.7006 43.21 29.6106 43.14 29.5306 43.1C29.7506 42.56 29.9306 41.9 30.0806 41.1V40.62H28.7606C29.2206 40.06 29.6206 39.49 29.9806 38.9V38.33H27.6806ZM37.7894 36.23V39.37H39.1994V43.72C38.9594 43.78 38.7094 43.85 38.4594 43.91V40.44H37.8194V44.07L37.2894 44.19L37.4894 44.89C38.8794 44.56 40.0994 44.2 41.1394 43.81V43.09C40.7394 43.24 40.3094 43.38 39.8694 43.52V41.66H40.9094V40.98H39.8694V39.37H40.8694V36.23H37.7894ZM40.1794 38.71H38.4894V36.89H40.1794V38.71ZM45.6394 41.26H41.7394V44.97H42.4294V44.53H44.9494V44.97H45.6394V41.26ZM42.4294 43.87V41.91H44.9494V43.87H42.4294ZM42.7594 35.81C42.4394 36.83 41.8394 37.68 40.9594 38.37L41.3894 38.94C41.7094 38.68 41.9994 38.41 42.2594 38.11C42.5094 38.57 42.8094 38.99 43.1694 39.38C42.5094 39.9 41.7294 40.34 40.8094 40.71L41.2394 41.29C42.1794 40.89 42.9794 40.42 43.6594 39.87C44.3294 40.47 45.1594 40.93 46.1494 41.25L46.5594 40.66C45.6294 40.37 44.8294 39.95 44.1694 39.41C44.8194 38.77 45.3194 38.03 45.6594 37.19V36.67H43.1794C43.2794 36.43 43.3694 36.19 43.4494 35.94L42.7594 35.81ZM42.6694 37.56C42.7294 37.48 42.7794 37.39 42.8394 37.31H44.8994C44.5894 37.91 44.1794 38.45 43.6694 38.95C43.2694 38.55 42.9394 38.08 42.6694 37.56ZM47.4182 42.35C47.3682 43.23 47.2382 44.01 47.0382 44.69L47.6182 44.86C47.8182 44.16 47.9382 43.34 47.9882 42.42L47.4182 42.35ZM48.8882 42.33L48.3682 42.44C48.5082 43.04 48.6282 43.72 48.7182 44.5L49.3082 44.37C49.1882 43.63 49.0482 42.95 48.8882 42.33ZM49.6782 39.71L49.1582 39.88C49.2582 40.19 49.3582 40.51 49.4482 40.85C48.9882 40.97 48.5182 41.07 48.0482 41.15C48.6082 40.49 49.3182 39.33 50.1782 37.69L49.5482 37.46C49.3382 37.88 49.1382 38.27 48.9482 38.65C48.5782 38.72 48.2082 38.78 47.8382 38.83C48.2982 38.13 48.7482 37.2 49.1982 36.03L48.5482 35.77C48.2082 36.83 47.8182 37.77 47.3582 38.59C47.2782 38.71 47.1782 38.8 47.0682 38.85L47.2482 39.49C47.6982 39.42 48.1482 39.35 48.6082 39.27C48.1482 40.09 47.7482 40.68 47.4182 41.04C47.3382 41.12 47.2382 41.18 47.1182 41.22L47.2982 41.84C48.0282 41.75 48.7882 41.59 49.5782 41.35C49.6182 41.51 49.6482 41.69 49.6882 41.87L50.2282 41.73C50.0682 40.97 49.8882 40.3 49.6782 39.71ZM49.8482 42.06L49.3682 42.22C49.5682 42.72 49.7482 43.31 49.9082 43.98L50.4282 43.75C50.2582 43.15 50.0682 42.58 49.8482 42.06ZM52.8682 43.31H54.5582V42.72H53.0582C52.8682 42.72 52.7782 42.64 52.7782 42.48V41.24H54.6982V40.62H53.5982C53.4982 40.25 53.3882 39.92 53.2782 39.62L52.6582 39.72C52.7882 39.99 52.9082 40.29 53.0182 40.62H51.7382V41.24H52.1582V42.58C52.1582 43.06 52.3882 43.31 52.8682 43.31ZM52.4382 37.35L51.9182 37.52C52.1182 37.87 52.3082 38.27 52.4782 38.73L52.9782 38.51C52.8182 38.1 52.6382 37.71 52.4382 37.35ZM53.7982 37.29C53.7182 37.8 53.5982 38.29 53.4182 38.76H51.6382V39.38H54.7882V38.76H53.9582C54.1482 38.34 54.2982 37.87 54.3982 37.37L53.7982 37.29ZM55.0582 44.85C55.5782 44.85 55.8482 44.56 55.8482 43.99V36.25H50.5882V44.92H51.2482V36.89H55.1782V43.84C55.1782 44.1 55.0582 44.23 54.8382 44.23L53.5982 44.2L53.7782 44.85H55.0582Z" fill="#5A5A5A" style="mix-blend-mode:color-burn"/>
<path d="M26.1218 41.44V39.98H26.7718V39.36H26.1218V37.91H24.1518V37.17H26.6818V36.54H24.1518V35.84H23.4618V36.54H21.1418V37.17H23.4618V37.91H21.6018V38.53H23.4618V39.36H21.2018V39.98H23.4618V40.82H21.5318V41.44H23.4618V43.97C23.3418 43.93 23.2418 43.9 23.1418 43.86C22.7618 43.69 22.4218 43.31 22.1218 42.71C22.1718 42.48 22.2218 42.23 22.2618 41.95L21.5918 41.85C21.4318 43.02 21.0518 43.94 20.4518 44.6L21.0318 45C21.3918 44.6 21.6918 44.08 21.9218 43.42C22.2018 43.93 22.5218 44.28 22.8718 44.46C23.3118 44.68 24.1518 44.8 25.3918 44.81C25.7918 44.82 26.2318 44.83 26.7318 44.83L26.9418 44.1C26.5018 44.13 25.9718 44.15 25.3418 44.15C24.8918 44.15 24.4918 44.13 24.1518 44.09V42.97H26.3518V42.34H24.1518V41.44H26.1218ZM24.1518 38.53H25.4718V39.36H24.1518V38.53ZM25.4718 39.98V40.82H24.1518V39.98H25.4718ZM19.0418 44.89C19.6018 44.89 19.8818 44.61 19.8818 44.05V41.04C20.2018 40.88 20.5318 40.71 20.8618 40.53V39.81C20.5418 39.99 20.2218 40.17 19.8818 40.33V38.36H20.9518V37.67H19.8818V35.85H19.1618V37.67H17.9318V38.36H19.1618V40.65C18.7118 40.83 18.2518 40.98 17.7918 41.1L17.9718 41.82C18.3718 41.68 18.7618 41.53 19.1618 41.37V43.87C19.1618 44.12 19.0318 44.25 18.7918 44.25C18.5418 44.25 18.2818 44.23 18.0118 44.2L18.1618 44.89H19.0418ZM36.3506 36.22H30.4806V37.81H31.0506V38.15H33.0906V38.74H30.9506V41.68H33.0906V42.31H30.4206V42.91H33.0906V43.9H33.7806V42.91H36.4506V42.31H33.7806V41.68H35.9106V38.74H33.7806V38.15H35.8306V37.77H36.3506V36.22ZM31.1706 37.58V36.81H33.0906V37.58H31.1706ZM33.7806 36.81H35.6606V37.58H33.7806V36.81ZM35.2206 41.13H33.7806V40.48H35.2206V41.13ZM33.0906 41.13H31.6506V40.48H33.0906V41.13ZM31.6506 39.96V39.3H33.0906V39.96H31.6506ZM33.7806 39.3H35.2206V39.96H33.7806V39.3ZM28.3906 35.92L27.9206 36.37C28.5706 36.89 29.0806 37.37 29.4606 37.82L29.9306 37.35C29.5106 36.87 28.9906 36.4 28.3906 35.92ZM27.6806 38.33V38.99H29.1806C28.8406 39.55 28.4106 40.11 27.9106 40.68V41.23H29.4006C29.2706 41.88 29.1006 42.47 28.8806 42.99C28.4606 43.11 28.0106 43.61 27.5506 44.51L28.0806 44.98C28.5206 44.1 28.8606 43.66 29.1006 43.66C29.1806 43.66 29.2706 43.69 29.3506 43.76C29.6906 44.1 30.0706 44.36 30.4906 44.52C30.8606 44.67 31.3906 44.75 32.0806 44.77C32.6606 44.79 33.3406 44.8 34.1006 44.8H36.5406L36.7006 44.11C35.6006 44.15 34.7006 44.17 34.0106 44.17C33.3006 44.17 32.6706 44.16 32.1206 44.16C31.5406 44.14 31.0906 44.07 30.7606 43.95C30.4306 43.8 30.1106 43.58 29.7906 43.29C29.7006 43.21 29.6106 43.14 29.5306 43.1C29.7506 42.56 29.9306 41.9 30.0806 41.1V40.62H28.7606C29.2206 40.06 29.6206 39.49 29.9806 38.9V38.33H27.6806ZM37.7894 36.23V39.37H39.1994V43.72C38.9594 43.78 38.7094 43.85 38.4594 43.91V40.44H37.8194V44.07L37.2894 44.19L37.4894 44.89C38.8794 44.56 40.0994 44.2 41.1394 43.81V43.09C40.7394 43.24 40.3094 43.38 39.8694 43.52V41.66H40.9094V40.98H39.8694V39.37H40.8694V36.23H37.7894ZM40.1794 38.71H38.4894V36.89H40.1794V38.71ZM45.6394 41.26H41.7394V44.97H42.4294V44.53H44.9494V44.97H45.6394V41.26ZM42.4294 43.87V41.91H44.9494V43.87H42.4294ZM42.7594 35.81C42.4394 36.83 41.8394 37.68 40.9594 38.37L41.3894 38.94C41.7094 38.68 41.9994 38.41 42.2594 38.11C42.5094 38.57 42.8094 38.99 43.1694 39.38C42.5094 39.9 41.7294 40.34 40.8094 40.71L41.2394 41.29C42.1794 40.89 42.9794 40.42 43.6594 39.87C44.3294 40.47 45.1594 40.93 46.1494 41.25L46.5594 40.66C45.6294 40.37 44.8294 39.95 44.1694 39.41C44.8194 38.77 45.3194 38.03 45.6594 37.19V36.67H43.1794C43.2794 36.43 43.3694 36.19 43.4494 35.94L42.7594 35.81ZM42.6694 37.56C42.7294 37.48 42.7794 37.39 42.8394 37.31H44.8994C44.5894 37.91 44.1794 38.45 43.6694 38.95C43.2694 38.55 42.9394 38.08 42.6694 37.56ZM47.4182 42.35C47.3682 43.23 47.2382 44.01 47.0382 44.69L47.6182 44.86C47.8182 44.16 47.9382 43.34 47.9882 42.42L47.4182 42.35ZM48.8882 42.33L48.3682 42.44C48.5082 43.04 48.6282 43.72 48.7182 44.5L49.3082 44.37C49.1882 43.63 49.0482 42.95 48.8882 42.33ZM49.6782 39.71L49.1582 39.88C49.2582 40.19 49.3582 40.51 49.4482 40.85C48.9882 40.97 48.5182 41.07 48.0482 41.15C48.6082 40.49 49.3182 39.33 50.1782 37.69L49.5482 37.46C49.3382 37.88 49.1382 38.27 48.9482 38.65C48.5782 38.72 48.2082 38.78 47.8382 38.83C48.2982 38.13 48.7482 37.2 49.1982 36.03L48.5482 35.77C48.2082 36.83 47.8182 37.77 47.3582 38.59C47.2782 38.71 47.1782 38.8 47.0682 38.85L47.2482 39.49C47.6982 39.42 48.1482 39.35 48.6082 39.27C48.1482 40.09 47.7482 40.68 47.4182 41.04C47.3382 41.12 47.2382 41.18 47.1182 41.22L47.2982 41.84C48.0282 41.75 48.7882 41.59 49.5782 41.35C49.6182 41.51 49.6482 41.69 49.6882 41.87L50.2282 41.73C50.0682 40.97 49.8882 40.3 49.6782 39.71ZM49.8482 42.06L49.3682 42.22C49.5682 42.72 49.7482 43.31 49.9082 43.98L50.4282 43.75C50.2582 43.15 50.0682 42.58 49.8482 42.06ZM52.8682 43.31H54.5582V42.72H53.0582C52.8682 42.72 52.7782 42.64 52.7782 42.48V41.24H54.6982V40.62H53.5982C53.4982 40.25 53.3882 39.92 53.2782 39.62L52.6582 39.72C52.7882 39.99 52.9082 40.29 53.0182 40.62H51.7382V41.24H52.1582V42.58C52.1582 43.06 52.3882 43.31 52.8682 43.31ZM52.4382 37.35L51.9182 37.52C52.1182 37.87 52.3082 38.27 52.4782 38.73L52.9782 38.51C52.8182 38.1 52.6382 37.71 52.4382 37.35ZM53.7982 37.29C53.7182 37.8 53.5982 38.29 53.4182 38.76H51.6382V39.38H54.7882V38.76H53.9582C54.1482 38.34 54.2982 37.87 54.3982 37.37L53.7982 37.29ZM55.0582 44.85C55.5782 44.85 55.8482 44.56 55.8482 43.99V36.25H50.5882V44.92H51.2482V36.89H55.1782V43.84C55.1782 44.1 55.0582 44.23 54.8382 44.23L53.5982 44.2L53.7782 44.85H55.0582Z" fill="#717171" fill-opacity="0.5"/>
</svg>
