<svg width="74" height="49" viewBox="0 0 74 49" fill="none" xmlns="http://www.w3.org/2000/svg">
<path d="M37.0083 19.1729C39.5234 19.1729 41.5488 16.9482 41.5488 14.2007C41.5488 11.5112 39.5234 9.36963 37.0083 9.36963C34.5015 9.36963 32.4512 11.5444 32.4595 14.2256C32.4678 16.9565 34.4932 19.1729 37.0083 19.1729ZM37.0083 17.7866C35.3232 17.7866 33.9287 16.2261 33.9287 14.2256C33.9204 12.2749 35.3149 10.7559 37.0083 10.7559C38.7017 10.7559 40.0796 12.2583 40.0796 14.2007C40.0796 16.2095 38.6934 17.7866 37.0083 17.7866ZM30.1519 29.0176H43.8398C45.4917 29.0176 46.272 28.5112 46.272 27.3906C46.272 24.6016 42.7441 20.584 36.9917 20.584C31.2476 20.584 27.7197 24.6016 27.7197 27.3906C27.7197 28.5112 28.5 29.0176 30.1519 29.0176ZM29.7451 27.6313C29.3384 27.6313 29.189 27.5317 29.189 27.2329C29.189 25.2988 32.0029 21.9702 36.9917 21.9702C41.9888 21.9702 44.8027 25.2988 44.8027 27.2329C44.8027 27.5317 44.6533 27.6313 44.2466 27.6313H29.7451Z" fill="#5A5A5A" style="mix-blend-mode:color-burn"/>
<path d="M37.0083 19.1729C39.5234 19.1729 41.5488 16.9482 41.5488 14.2007C41.5488 11.5112 39.5234 9.36963 37.0083 9.36963C34.5015 9.36963 32.4512 11.5444 32.4595 14.2256C32.4678 16.9565 34.4932 19.1729 37.0083 19.1729ZM37.0083 17.7866C35.3232 17.7866 33.9287 16.2261 33.9287 14.2256C33.9204 12.2749 35.3149 10.7559 37.0083 10.7559C38.7017 10.7559 40.0796 12.2583 40.0796 14.2007C40.0796 16.2095 38.6934 17.7866 37.0083 17.7866ZM30.1519 29.0176H43.8398C45.4917 29.0176 46.272 28.5112 46.272 27.3906C46.272 24.6016 42.7441 20.584 36.9917 20.584C31.2476 20.584 27.7197 24.6016 27.7197 27.3906C27.7197 28.5112 28.5 29.0176 30.1519 29.0176ZM29.7451 27.6313C29.3384 27.6313 29.189 27.5317 29.189 27.2329C29.189 25.2988 32.0029 21.9702 36.9917 21.9702C41.9888 21.9702 44.8027 25.2988 44.8027 27.2329C44.8027 27.5317 44.6533 27.6313 44.2466 27.6313H29.7451Z" fill="#717171" fill-opacity="0.5"/>
<path d="M23.9318 39.34C23.7818 39.74 23.6118 40.07 23.4318 40.33L23.9218 40.5C24.1218 40.2 24.2918 39.86 24.4218 39.46L23.9318 39.34ZM20.7718 39.33L20.2818 39.49C20.4818 39.81 20.6618 40.14 20.8018 40.5L21.2918 40.38C21.1418 39.98 20.9718 39.63 20.7718 39.33ZM18.8518 38.63V41.18H25.8718V38.63H18.8518ZM25.2118 40.64H22.6918V39.18H25.2118V40.64ZM22.0318 40.64H19.5118V39.18H22.0318V40.64ZM25.5118 41.72H19.2218V45.03H19.9118V44.64H24.8218V45.02H25.5118V41.72ZM19.9118 44.07V43.42H24.8218V44.07H19.9118ZM19.9118 42.91V42.26H24.8218V42.91H19.9118ZM20.3718 37.7V38.09H24.3418V37.67C25.0218 38.04 25.7618 38.41 26.5718 38.79L26.9518 38.19C25.3418 37.52 23.8818 36.74 22.5818 35.86H22.1418C20.8418 36.75 19.3818 37.53 17.7718 38.21L18.1518 38.81C18.9518 38.44 19.6918 38.07 20.3718 37.7ZM24.1218 37.55H20.6318C21.2518 37.19 21.8318 36.84 22.3618 36.48C22.8918 36.84 23.4818 37.19 24.1218 37.55ZM29.2106 36.19V38.18H35.0406V36.19H29.2106ZM34.3506 37.63H29.9006V36.75H34.3506V37.63ZM28.7606 38.73V43.16H35.5106V38.73H28.7606ZM34.8206 42.54H29.4506V41.8H34.8206V42.54ZM29.4506 41.24V40.56H34.8206V41.24H29.4506ZM29.4506 40V39.31H34.8206V40H29.4506ZM30.8106 43.18C29.9906 43.68 28.9906 44.11 27.7906 44.49L28.2106 45.03C29.4306 44.62 30.4606 44.14 31.2906 43.6L30.8106 43.18ZM33.4206 43.17L32.9806 43.59C34.2206 44.1 35.1806 44.58 35.8806 45.04L36.3806 44.54C35.5806 44.08 34.6006 43.63 33.4206 43.17ZM41.5094 35.79V37.59H37.9294V42.29H38.6494V41.66H41.5094V45.07H42.2494V41.66H45.1194V42.29H45.8394V37.59H42.2494V35.79H41.5094ZM38.6494 40.96V38.29H41.5094V40.96H38.6494ZM42.2494 40.96V38.29H45.1194V40.96H42.2494ZM52.9182 44.67C53.3182 44.67 53.6182 44.54 53.8082 44.29C54.0182 43.99 54.1582 43.16 54.2382 41.79L53.5582 41.56C53.5082 42.73 53.4182 43.43 53.2982 43.67C53.1982 43.86 53.0282 43.96 52.7882 43.96H50.9082C50.5482 43.96 50.3682 43.81 50.3682 43.51V37.92H49.6482V43.66C49.6482 44.33 49.9882 44.67 50.6882 44.67H52.9182ZM48.1682 38.99C47.9282 40.51 47.5582 41.91 47.0382 43.18L47.6582 43.57C48.1782 42.33 48.5782 40.85 48.8582 39.13L48.1682 38.99ZM54.6082 38.68L53.9082 38.91C54.5282 40.13 55.0982 41.54 55.6182 43.13L56.2782 42.83C55.7982 41.36 55.2482 39.98 54.6082 38.68ZM51.0082 35.87L50.4082 36.24C51.3082 37.18 52.0082 38.05 52.5282 38.83L53.1282 38.42C52.6382 37.69 51.9282 36.84 51.0082 35.87Z" fill="#5A5A5A" style="mix-blend-mode:color-burn"/>
<path d="M23.9318 39.34C23.7818 39.74 23.6118 40.07 23.4318 40.33L23.9218 40.5C24.1218 40.2 24.2918 39.86 24.4218 39.46L23.9318 39.34ZM20.7718 39.33L20.2818 39.49C20.4818 39.81 20.6618 40.14 20.8018 40.5L21.2918 40.38C21.1418 39.98 20.9718 39.63 20.7718 39.33ZM18.8518 38.63V41.18H25.8718V38.63H18.8518ZM25.2118 40.64H22.6918V39.18H25.2118V40.64ZM22.0318 40.64H19.5118V39.18H22.0318V40.64ZM25.5118 41.72H19.2218V45.03H19.9118V44.64H24.8218V45.02H25.5118V41.72ZM19.9118 44.07V43.42H24.8218V44.07H19.9118ZM19.9118 42.91V42.26H24.8218V42.91H19.9118ZM20.3718 37.7V38.09H24.3418V37.67C25.0218 38.04 25.7618 38.41 26.5718 38.79L26.9518 38.19C25.3418 37.52 23.8818 36.74 22.5818 35.86H22.1418C20.8418 36.75 19.3818 37.53 17.7718 38.21L18.1518 38.81C18.9518 38.44 19.6918 38.07 20.3718 37.7ZM24.1218 37.55H20.6318C21.2518 37.19 21.8318 36.84 22.3618 36.48C22.8918 36.84 23.4818 37.19 24.1218 37.55ZM29.2106 36.19V38.18H35.0406V36.19H29.2106ZM34.3506 37.63H29.9006V36.75H34.3506V37.63ZM28.7606 38.73V43.16H35.5106V38.73H28.7606ZM34.8206 42.54H29.4506V41.8H34.8206V42.54ZM29.4506 41.24V40.56H34.8206V41.24H29.4506ZM29.4506 40V39.31H34.8206V40H29.4506ZM30.8106 43.18C29.9906 43.68 28.9906 44.11 27.7906 44.49L28.2106 45.03C29.4306 44.62 30.4606 44.14 31.2906 43.6L30.8106 43.18ZM33.4206 43.17L32.9806 43.59C34.2206 44.1 35.1806 44.58 35.8806 45.04L36.3806 44.54C35.5806 44.08 34.6006 43.63 33.4206 43.17ZM41.5094 35.79V37.59H37.9294V42.29H38.6494V41.66H41.5094V45.07H42.2494V41.66H45.1194V42.29H45.8394V37.59H42.2494V35.79H41.5094ZM38.6494 40.96V38.29H41.5094V40.96H38.6494ZM42.2494 40.96V38.29H45.1194V40.96H42.2494ZM52.9182 44.67C53.3182 44.67 53.6182 44.54 53.8082 44.29C54.0182 43.99 54.1582 43.16 54.2382 41.79L53.5582 41.56C53.5082 42.73 53.4182 43.43 53.2982 43.67C53.1982 43.86 53.0282 43.96 52.7882 43.96H50.9082C50.5482 43.96 50.3682 43.81 50.3682 43.51V37.92H49.6482V43.66C49.6482 44.33 49.9882 44.67 50.6882 44.67H52.9182ZM48.1682 38.99C47.9282 40.51 47.5582 41.91 47.0382 43.18L47.6582 43.57C48.1782 42.33 48.5782 40.85 48.8582 39.13L48.1682 38.99ZM54.6082 38.68L53.9082 38.91C54.5282 40.13 55.0982 41.54 55.6182 43.13L56.2782 42.83C55.7982 41.36 55.2482 39.98 54.6082 38.68ZM51.0082 35.87L50.4082 36.24C51.3082 37.18 52.0082 38.05 52.5282 38.83L53.1282 38.42C52.6382 37.69 51.9282 36.84 51.0082 35.87Z" fill="#717171" fill-opacity="0.5"/>
</svg>
