<svg width="74" height="49" viewBox="0 0 74 49" fill="none" xmlns="http://www.w3.org/2000/svg">
<path d="M27.6118 25.5811C27.6118 27.7061 28.6992 28.7769 30.8408 28.7769H43.4082C45.3091 28.7769 46.3882 27.6978 46.3882 25.5811V14.4082C46.3882 12.2998 45.3008 11.2124 43.1592 11.2124H41.3164C41.2583 9.0625 39.4238 7.16992 37 7.16992C34.5762 7.16992 32.7417 9.0625 32.6836 11.2124H30.8408C28.6992 11.2124 27.6118 12.2832 27.6118 14.4082V25.5811ZM34.1528 11.2124C34.2026 9.80127 35.3564 8.56445 37 8.56445C38.6436 8.56445 39.7974 9.80127 39.8472 11.2124H34.1528ZM29.0811 25.5063V14.4912C29.0811 13.2959 29.7119 12.6816 30.874 12.6816H43.126C44.2632 12.6816 44.9189 13.2959 44.9189 14.4912V25.5063C44.9189 26.6934 44.2632 27.3076 43.3833 27.3076H30.874C29.7119 27.3076 29.0811 26.6934 29.0811 25.5063Z" fill="#5A5A5A" style="mix-blend-mode:color-burn"/>
<path d="M27.6118 25.5811C27.6118 27.7061 28.6992 28.7769 30.8408 28.7769H43.4082C45.3091 28.7769 46.3882 27.6978 46.3882 25.5811V14.4082C46.3882 12.2998 45.3008 11.2124 43.1592 11.2124H41.3164C41.2583 9.0625 39.4238 7.16992 37 7.16992C34.5762 7.16992 32.7417 9.0625 32.6836 11.2124H30.8408C28.6992 11.2124 27.6118 12.2832 27.6118 14.4082V25.5811ZM34.1528 11.2124C34.2026 9.80127 35.3564 8.56445 37 8.56445C38.6436 8.56445 39.7974 9.80127 39.8472 11.2124H34.1528ZM29.0811 25.5063V14.4912C29.0811 13.2959 29.7119 12.6816 30.874 12.6816H43.126C44.2632 12.6816 44.9189 13.2959 44.9189 14.4912V25.5063C44.9189 26.6934 44.2632 27.3076 43.3833 27.3076H30.874C29.7119 27.3076 29.0811 26.6934 29.0811 25.5063Z" fill="#717171" fill-opacity="0.5"/>
<path d="M18.2918 42.53C18.2318 43.35 18.0818 44.07 17.8618 44.71L18.4918 44.9C18.7018 44.23 18.8318 43.46 18.8918 42.6L18.2918 42.53ZM19.9118 42.4L19.3518 42.52C19.4318 43.12 19.5118 43.81 19.5818 44.59L20.2018 44.44C20.1218 43.71 20.0218 43.03 19.9118 42.4ZM20.7918 39.9L20.2318 40.08C20.3318 40.35 20.4218 40.64 20.5018 40.94C19.9818 41.08 19.4618 41.19 18.9418 41.29C19.5418 40.59 20.3018 39.41 21.2218 37.75L20.5718 37.51C20.3418 37.94 20.1218 38.34 19.9218 38.71C19.5018 38.79 19.0818 38.85 18.6718 38.9C19.1618 38.2 19.6418 37.27 20.1118 36.12L19.4318 35.84C19.0718 36.91 18.6418 37.86 18.1418 38.68C18.0518 38.81 17.9518 38.9 17.8518 38.95L18.0218 39.61L19.5418 39.37C19.0418 40.21 18.6018 40.82 18.2418 41.18C18.1518 41.26 18.0418 41.33 17.9118 41.39L18.1018 42.04C18.9018 41.94 19.7518 41.76 20.6418 41.48L20.7418 41.95L21.3318 41.8C21.1718 41.08 20.9918 40.45 20.7918 39.9ZM20.9118 42.16L20.3918 42.33C20.5618 42.75 20.7218 43.24 20.8818 43.8L21.4018 43.56C21.2618 43.06 21.1018 42.59 20.9118 42.16ZM21.8318 36.71V40.29H23.8118V44.02C23.8118 44.26 23.6918 44.39 23.4718 44.39C23.2518 44.39 23.0218 44.37 22.7818 44.35L22.9318 44.99H23.7018C24.2218 44.99 24.4918 44.72 24.4918 44.18V42.14C24.9718 43.05 25.6518 43.9 26.5418 44.68L26.9818 44.14C26.2718 43.6 25.6918 43.02 25.2518 42.39C25.8518 42.05 26.3718 41.68 26.8118 41.29L26.4018 40.8C25.9918 41.2 25.5018 41.57 24.9318 41.91C24.7518 41.61 24.6118 41.31 24.4918 41V40.29H26.2318V36.71H23.9718C24.1018 36.47 24.2018 36.21 24.2818 35.93L23.5618 35.83C23.5018 36.13 23.4018 36.42 23.2718 36.71H21.8318ZM25.5718 39.65H22.4918V38.8H25.5718V39.65ZM22.4918 38.2V37.35H25.5718V38.2H22.4918ZM21.5518 41.23V41.83H22.6918C22.4018 42.83 21.8918 43.61 21.1718 44.16L21.5618 44.69C22.4418 44.01 23.0318 43.03 23.3318 41.73V41.23H21.5518ZM31.2806 35.83V43.9H27.6806V44.6H36.5806V43.9H32.0206V39.62H35.7306V38.92H32.0206V35.83H31.2806ZM41.9694 35.72L41.1894 35.85C41.3094 36.09 41.4294 36.36 41.5294 36.64H37.5194V37.32H46.2394V36.64H42.2894C42.1894 36.3 42.0794 35.99 41.9694 35.72ZM40.1794 37.35L39.5094 37.6C39.7294 37.95 39.9194 38.32 40.0694 38.72H37.9094V44.93H38.6094V39.36H40.4394C40.3594 39.8 40.2194 40.15 40.0094 40.41C39.7494 40.71 39.3394 40.96 38.7794 41.14L39.0994 41.71C39.7694 41.48 40.2594 41.17 40.5794 40.79C40.8594 40.45 41.0294 39.97 41.1094 39.36H42.6594V40.48C42.6594 40.9 42.8794 41.11 43.3394 41.11H44.8094V40.52H43.6394C43.4194 40.52 43.3194 40.4 43.3194 40.18V39.36H45.1294V43.9C45.1294 44.18 44.9894 44.32 44.7294 44.32L43.7394 44.29L43.9194 44.95H44.9494C45.5294 44.95 45.8294 44.65 45.8294 44.06V38.72H43.5994C43.8394 38.4 44.0694 38.03 44.2694 37.61L43.5794 37.38C43.3694 37.85 43.1194 38.3 42.8294 38.72H40.7894C40.6094 38.19 40.3994 37.73 40.1794 37.35ZM39.9894 41.58V44.11H43.7694V41.58H39.9894ZM43.0794 43.48H40.6794V42.2H43.0794V43.48ZM47.0782 38.41V39.09H47.9782V42.44C47.6582 42.56 47.3182 42.67 46.9782 42.76L47.1582 43.44C47.9982 43.16 48.7782 42.8 49.4982 42.38V41.68C49.2282 41.84 48.9582 41.99 48.6782 42.13V39.09H49.5682V38.41H48.6782V35.88H47.9782V38.41H47.0782ZM50.8082 40.06H51.8882C51.8782 41.21 51.8482 41.94 51.7882 42.26C51.7282 42.57 51.5982 42.74 51.3782 42.76H50.6882L50.8682 43.35H51.5482C51.9182 43.33 52.1782 43.13 52.3182 42.75C52.4582 42.35 52.5382 41.25 52.5382 39.45H50.8082V38.01H53.0282C53.0882 39.29 53.1982 40.35 53.3682 41.2C53.4482 41.6 53.5382 41.97 53.6482 42.31C53.0682 43.19 52.3382 43.85 51.4682 44.3L51.8982 44.85C52.6582 44.44 53.3282 43.85 53.8982 43.07C54.0282 43.41 54.1682 43.7 54.3282 43.95C54.6982 44.55 55.0482 44.85 55.3882 44.85C55.7482 44.85 56.0282 44.18 56.2282 42.84L55.6282 42.51C55.5182 43.47 55.3982 43.96 55.2582 43.97C55.1182 43.97 54.9182 43.73 54.6782 43.26C54.5582 43.03 54.4382 42.75 54.3382 42.41C54.8582 41.53 55.2682 40.45 55.5682 39.19L54.9782 38.94C54.7582 39.91 54.4682 40.77 54.0982 41.52C54.0582 41.34 54.0182 41.16 53.9882 40.96C53.8482 40.24 53.7582 39.25 53.6982 38.01H55.9282V37.36H53.6782C53.6582 36.89 53.6482 36.38 53.6482 35.84H52.9882C52.9882 36.37 52.9882 36.88 53.0082 37.36H50.1082V40.08C50.0682 41.94 49.6682 43.38 48.8982 44.42L49.4282 44.89C50.3082 43.69 50.7682 42.08 50.8082 40.08V40.06ZM54.8482 35.76L54.3182 35.97C54.5682 36.33 54.7982 36.75 55.0182 37.23L55.5482 37C55.3482 36.56 55.1182 36.15 54.8482 35.76Z" fill="#5A5A5A" style="mix-blend-mode:color-burn"/>
<path d="M18.2918 42.53C18.2318 43.35 18.0818 44.07 17.8618 44.71L18.4918 44.9C18.7018 44.23 18.8318 43.46 18.8918 42.6L18.2918 42.53ZM19.9118 42.4L19.3518 42.52C19.4318 43.12 19.5118 43.81 19.5818 44.59L20.2018 44.44C20.1218 43.71 20.0218 43.03 19.9118 42.4ZM20.7918 39.9L20.2318 40.08C20.3318 40.35 20.4218 40.64 20.5018 40.94C19.9818 41.08 19.4618 41.19 18.9418 41.29C19.5418 40.59 20.3018 39.41 21.2218 37.75L20.5718 37.51C20.3418 37.94 20.1218 38.34 19.9218 38.71C19.5018 38.79 19.0818 38.85 18.6718 38.9C19.1618 38.2 19.6418 37.27 20.1118 36.12L19.4318 35.84C19.0718 36.91 18.6418 37.86 18.1418 38.68C18.0518 38.81 17.9518 38.9 17.8518 38.95L18.0218 39.61L19.5418 39.37C19.0418 40.21 18.6018 40.82 18.2418 41.18C18.1518 41.26 18.0418 41.33 17.9118 41.39L18.1018 42.04C18.9018 41.94 19.7518 41.76 20.6418 41.48L20.7418 41.95L21.3318 41.8C21.1718 41.08 20.9918 40.45 20.7918 39.9ZM20.9118 42.16L20.3918 42.33C20.5618 42.75 20.7218 43.24 20.8818 43.8L21.4018 43.56C21.2618 43.06 21.1018 42.59 20.9118 42.16ZM21.8318 36.71V40.29H23.8118V44.02C23.8118 44.26 23.6918 44.39 23.4718 44.39C23.2518 44.39 23.0218 44.37 22.7818 44.35L22.9318 44.99H23.7018C24.2218 44.99 24.4918 44.72 24.4918 44.18V42.14C24.9718 43.05 25.6518 43.9 26.5418 44.68L26.9818 44.14C26.2718 43.6 25.6918 43.02 25.2518 42.39C25.8518 42.05 26.3718 41.68 26.8118 41.29L26.4018 40.8C25.9918 41.2 25.5018 41.57 24.9318 41.91C24.7518 41.61 24.6118 41.31 24.4918 41V40.29H26.2318V36.71H23.9718C24.1018 36.47 24.2018 36.21 24.2818 35.93L23.5618 35.83C23.5018 36.13 23.4018 36.42 23.2718 36.71H21.8318ZM25.5718 39.65H22.4918V38.8H25.5718V39.65ZM22.4918 38.2V37.35H25.5718V38.2H22.4918ZM21.5518 41.23V41.83H22.6918C22.4018 42.83 21.8918 43.61 21.1718 44.16L21.5618 44.69C22.4418 44.01 23.0318 43.03 23.3318 41.73V41.23H21.5518ZM31.2806 35.83V43.9H27.6806V44.6H36.5806V43.9H32.0206V39.62H35.7306V38.92H32.0206V35.83H31.2806ZM41.9694 35.72L41.1894 35.85C41.3094 36.09 41.4294 36.36 41.5294 36.64H37.5194V37.32H46.2394V36.64H42.2894C42.1894 36.3 42.0794 35.99 41.9694 35.72ZM40.1794 37.35L39.5094 37.6C39.7294 37.95 39.9194 38.32 40.0694 38.72H37.9094V44.93H38.6094V39.36H40.4394C40.3594 39.8 40.2194 40.15 40.0094 40.41C39.7494 40.71 39.3394 40.96 38.7794 41.14L39.0994 41.71C39.7694 41.48 40.2594 41.17 40.5794 40.79C40.8594 40.45 41.0294 39.97 41.1094 39.36H42.6594V40.48C42.6594 40.9 42.8794 41.11 43.3394 41.11H44.8094V40.52H43.6394C43.4194 40.52 43.3194 40.4 43.3194 40.18V39.36H45.1294V43.9C45.1294 44.18 44.9894 44.32 44.7294 44.32L43.7394 44.29L43.9194 44.95H44.9494C45.5294 44.95 45.8294 44.65 45.8294 44.06V38.72H43.5994C43.8394 38.4 44.0694 38.03 44.2694 37.61L43.5794 37.38C43.3694 37.85 43.1194 38.3 42.8294 38.72H40.7894C40.6094 38.19 40.3994 37.73 40.1794 37.35ZM39.9894 41.58V44.11H43.7694V41.58H39.9894ZM43.0794 43.48H40.6794V42.2H43.0794V43.48ZM47.0782 38.41V39.09H47.9782V42.44C47.6582 42.56 47.3182 42.67 46.9782 42.76L47.1582 43.44C47.9982 43.16 48.7782 42.8 49.4982 42.38V41.68C49.2282 41.84 48.9582 41.99 48.6782 42.13V39.09H49.5682V38.41H48.6782V35.88H47.9782V38.41H47.0782ZM50.8082 40.06H51.8882C51.8782 41.21 51.8482 41.94 51.7882 42.26C51.7282 42.57 51.5982 42.74 51.3782 42.76H50.6882L50.8682 43.35H51.5482C51.9182 43.33 52.1782 43.13 52.3182 42.75C52.4582 42.35 52.5382 41.25 52.5382 39.45H50.8082V38.01H53.0282C53.0882 39.29 53.1982 40.35 53.3682 41.2C53.4482 41.6 53.5382 41.97 53.6482 42.31C53.0682 43.19 52.3382 43.85 51.4682 44.3L51.8982 44.85C52.6582 44.44 53.3282 43.85 53.8982 43.07C54.0282 43.41 54.1682 43.7 54.3282 43.95C54.6982 44.55 55.0482 44.85 55.3882 44.85C55.7482 44.85 56.0282 44.18 56.2282 42.84L55.6282 42.51C55.5182 43.47 55.3982 43.96 55.2582 43.97C55.1182 43.97 54.9182 43.73 54.6782 43.26C54.5582 43.03 54.4382 42.75 54.3382 42.41C54.8582 41.53 55.2682 40.45 55.5682 39.19L54.9782 38.94C54.7582 39.91 54.4682 40.77 54.0982 41.52C54.0582 41.34 54.0182 41.16 53.9882 40.96C53.8482 40.24 53.7582 39.25 53.6982 38.01H55.9282V37.36H53.6782C53.6582 36.89 53.6482 36.38 53.6482 35.84H52.9882C52.9882 36.37 52.9882 36.88 53.0082 37.36H50.1082V40.08C50.0682 41.94 49.6682 43.38 48.8982 44.42L49.4282 44.89C50.3082 43.69 50.7682 42.08 50.8082 40.08V40.06ZM54.8482 35.76L54.3182 35.97C54.5682 36.33 54.7982 36.75 55.0182 37.23L55.5482 37C55.3482 36.56 55.1182 36.15 54.8482 35.76Z" fill="#717171" fill-opacity="0.5"/>
</svg>
