<svg width="74" height="49" viewBox="0 0 74 49" fill="none" xmlns="http://www.w3.org/2000/svg">
<path d="M36.9917 29.8145C42.9102 29.8145 47.8076 24.917 47.8076 19.0068C47.8076 13.0884 42.9019 8.19092 36.9834 8.19092C31.0732 8.19092 26.1841 13.0884 26.1841 19.0068C26.1841 24.917 31.0815 29.8145 36.9917 29.8145ZM36.9917 28.2705C31.8618 28.2705 27.7363 24.1367 27.7363 19.0068C27.7363 13.8687 31.8535 9.74316 36.9834 9.74316C42.1216 9.74316 46.2471 13.8687 46.2554 19.0068C46.2637 24.1367 42.1299 28.2705 36.9917 28.2705ZM34.4268 14.2588C32.6172 14.2588 31.314 15.6284 31.314 17.4961C31.314 20.3848 34.3936 22.9995 36.502 24.3276C36.6763 24.4355 36.8838 24.5601 37.0083 24.5601C37.1328 24.5601 37.332 24.4355 37.4814 24.3276C39.5566 22.9414 42.6777 20.3848 42.6777 17.4961C42.6777 15.6284 41.3662 14.2588 39.5649 14.2588C38.436 14.2588 37.5146 14.9312 36.9917 15.8857C36.4688 14.9312 35.564 14.2588 34.4268 14.2588Z" fill="#5A5A5A" style="mix-blend-mode:color-burn"/>
<path d="M36.9917 29.8145C42.9102 29.8145 47.8076 24.917 47.8076 19.0068C47.8076 13.0884 42.9019 8.19092 36.9834 8.19092C31.0732 8.19092 26.1841 13.0884 26.1841 19.0068C26.1841 24.917 31.0815 29.8145 36.9917 29.8145ZM36.9917 28.2705C31.8618 28.2705 27.7363 24.1367 27.7363 19.0068C27.7363 13.8687 31.8535 9.74316 36.9834 9.74316C42.1216 9.74316 46.2471 13.8687 46.2554 19.0068C46.2637 24.1367 42.1299 28.2705 36.9917 28.2705ZM34.4268 14.2588C32.6172 14.2588 31.314 15.6284 31.314 17.4961C31.314 20.3848 34.3936 22.9995 36.502 24.3276C36.6763 24.4355 36.8838 24.5601 37.0083 24.5601C37.1328 24.5601 37.332 24.4355 37.4814 24.3276C39.5566 22.9414 42.6777 20.3848 42.6777 17.4961C42.6777 15.6284 41.3662 14.2588 39.5649 14.2588C38.436 14.2588 37.5146 14.9312 36.9917 15.8857C36.4688 14.9312 35.564 14.2588 34.4268 14.2588Z" fill="#717171" fill-opacity="0.5"/>
<path d="M18.6018 35.97L18.1118 36.44C18.8518 36.96 19.4418 37.46 19.8718 37.94L20.3518 37.46C19.8718 36.96 19.2918 36.47 18.6018 35.97ZM18.3318 38.37L17.8518 38.83C18.5918 39.37 19.1718 39.87 19.5918 40.35L20.0618 39.87C19.6018 39.37 19.0218 38.87 18.3318 38.37ZM19.4618 41.04C19.0418 42.25 18.5518 43.43 17.9718 44.59L18.6418 44.88C19.1718 43.75 19.6518 42.55 20.0718 41.27L19.4618 41.04ZM26.3718 40.83H20.6918V44.12H20.0518V44.79H26.9718V44.12H26.3718V40.83ZM21.3618 44.12V41.45H22.3718V44.12H21.3618ZM22.9918 44.12V41.45H24.0318V44.12H22.9918ZM24.6518 44.12V41.45H25.7018V44.12H24.6518ZM23.4818 38.25C23.9418 38.56 24.3118 38.86 24.6118 39.16L25.0318 38.74C24.6818 38.44 24.2618 38.14 23.7618 37.84C23.8818 37.62 23.9918 37.39 24.0818 37.14L23.4918 37.04C23.2318 37.74 22.7518 38.29 22.0518 38.7L22.4118 39.16C22.8318 38.91 23.1918 38.61 23.4818 38.25ZM21.0418 36.21V40.07H26.0318V36.21H21.0418ZM25.3718 39.48H21.6918V36.81H25.3718V39.48ZM27.7006 40.98V41.52H30.7606C30.0806 42.01 29.0106 42.42 27.5506 42.74L27.8706 43.27C28.3306 43.14 28.7706 43 29.1706 42.85V45.04H29.8506V44.72H34.4306V45.03H35.1106V42.57C35.5506 42.73 35.9906 42.91 36.4406 43.11L36.6706 42.58C35.9006 42.31 35.2706 42.12 34.7906 42C34.2706 41.86 33.5706 41.7 32.6706 41.52H36.5306V40.98H32.4506V40.55C33.5106 40.51 34.4406 40.46 35.2406 40.39L34.9706 39.91C33.4106 40.05 31.4506 40.13 29.0906 40.14L29.2506 40.6C30.1406 40.6 30.9806 40.59 31.7706 40.57V40.98H27.7006ZM34.7406 42.44H32.4506V41.84C33.1306 41.96 33.8006 42.12 34.4506 42.34C34.5406 42.37 34.6406 42.4 34.7406 42.44ZM31.4706 41.52H31.7706V42.44H30.1206C30.6806 42.16 31.1306 41.86 31.4706 41.52ZM29.8506 44.26V43.78H34.4306V44.26H29.8506ZM29.8506 43.38V42.89H34.4306V43.38H29.8506ZM27.6806 36.27V36.79H29.6806V37.27H27.9806V37.77H31.9406V37.27H30.3506V36.79H32.1806V36.27H30.3506V35.85H29.6806V36.27H27.6806ZM29.7706 38.6V39.2H28.7506C28.7606 39.11 28.7706 39.02 28.7706 38.92V38.6H29.7706ZM30.3206 39.2V38.6H31.2906V39.2H30.3206ZM32.3506 37.73V38.19H32.6606C32.8306 38.55 33.1106 38.85 33.5006 39.11C33.1106 39.19 32.6606 39.27 32.1506 39.33L32.4606 39.8C33.1206 39.72 33.6906 39.6 34.1806 39.44C34.7306 39.66 35.4306 39.8 36.2806 39.88L36.5506 39.38C35.9306 39.34 35.3906 39.26 34.9206 39.14C35.4206 38.88 35.7706 38.55 35.9506 38.17V37.73H32.3506ZM33.2106 38.19H35.3306C35.1006 38.47 34.7206 38.7 34.2006 38.9C33.7606 38.71 33.4306 38.47 33.2106 38.19ZM32.9306 36.05C32.9306 36.4 32.8806 36.66 32.8006 36.82C32.7006 36.98 32.5006 37.15 32.1906 37.33L32.6206 37.7C33.0106 37.49 33.2606 37.32 33.3606 37.18C33.4506 37.03 33.5006 36.82 33.5006 36.55H34.8706V36.93C34.8706 37.28 35.0606 37.46 35.4406 37.46H36.3806V36.99H35.6106C35.5006 36.99 35.4506 36.93 35.4506 36.81V36.05H32.9306ZM28.6706 39.63H31.9206V38.16H28.1506V38.92C28.1406 39.48 27.9406 39.94 27.5406 40.3L28.0506 40.76C28.3506 40.43 28.5606 40.05 28.6706 39.63ZM38.6994 39.25H40.3094V40.92H38.6994V39.25ZM40.3094 38.6H38.6994V36.91H40.3094V38.6ZM38.6894 41.57H40.3094V43.83C40.3094 44.19 40.1794 44.37 39.9294 44.37C39.6894 44.37 39.4394 44.35 39.1594 44.33L39.3294 44.97H40.1294C40.6894 44.97 40.9694 44.66 40.9694 44.06V36.26H38.0494V41.06C38.0394 42.46 37.8394 43.62 37.4394 44.52L37.9794 45.02C38.3894 44.12 38.6294 42.97 38.6894 41.57ZM42.4894 40.58H42.7294C42.9494 41.56 43.3794 42.44 44.0194 43.22C43.6194 43.7 43.1394 44.09 42.5694 44.4L42.9494 44.98C43.5494 44.66 44.0594 44.25 44.4994 43.74C44.9594 44.19 45.4994 44.6 46.1394 44.97L46.4994 44.36C45.8894 44.01 45.3594 43.62 44.9094 43.18C45.3694 42.46 45.6994 41.58 45.8894 40.55V39.94H42.4894V36.91H45.1594C45.1394 37.67 45.0994 38.16 45.0294 38.38C44.9694 38.53 44.8794 38.63 44.7594 38.67C44.6394 38.7 44.4694 38.72 44.2294 38.72C43.9494 38.72 43.7294 38.71 43.5594 38.71L43.7494 39.33H44.5594C45.1894 39.33 45.5594 39.12 45.6794 38.71C45.7994 38.31 45.8594 37.49 45.8594 36.25H41.8094V45.01H42.4894V40.58ZM43.3494 40.58H45.2494C45.0694 41.37 44.7994 42.06 44.4294 42.66C43.9194 42.04 43.5594 41.35 43.3494 40.58ZM48.1682 37.43L47.7282 37.85C48.4082 38.35 48.9582 38.83 49.3982 39.29H47.1982V39.97H48.4682C48.1182 41.06 47.6382 42.01 47.0282 42.83L47.2982 43.5C48.0082 42.45 48.5482 41.27 48.9182 39.97H48.9282V44.01C48.9282 44.24 48.8182 44.36 48.5982 44.36C48.3382 44.36 48.0682 44.34 47.7882 44.32L47.9282 44.95H48.8182C49.3182 44.95 49.5782 44.68 49.5782 44.16V39.97H50.5082C50.2882 40.53 50.0682 41 49.8382 41.38L50.2882 41.78C50.6182 41.23 50.9082 40.6 51.1482 39.9V39.29H49.7382L50.0082 39.03C49.8682 38.87 49.7082 38.72 49.5482 38.57C50.0682 38.08 50.5382 37.49 50.9782 36.81V36.25H47.3582V36.91H50.1582C49.8382 37.38 49.4782 37.8 49.0882 38.16C48.8082 37.92 48.4982 37.67 48.1682 37.43ZM52.4782 35.84C52.2182 36.73 51.7082 37.48 50.9682 38.09L51.3782 38.63C51.8382 38.25 52.2182 37.82 52.5282 37.34H54.5782C54.3582 37.9 54.0582 38.36 53.6682 38.73C53.2682 38.46 52.9382 38.17 52.6882 37.86L52.1682 38.15C52.4082 38.49 52.7282 38.81 53.1282 39.12C52.6982 39.38 52.1482 39.64 51.4682 39.88L51.8782 40.4C52.5982 40.12 53.1982 39.82 53.6782 39.5C54.2182 39.82 54.8682 40.12 55.6382 40.39L56.0982 39.84C55.3782 39.61 54.7482 39.35 54.2182 39.06C54.2182 39.06 54.2282 39.05 54.2482 39.04C54.6682 38.61 55.0082 38.04 55.2482 37.34H55.9482V36.68H52.8882C52.9982 36.44 53.0882 36.18 53.1682 35.92L52.4782 35.84ZM55.7082 41.01H53.6282C53.6582 40.73 53.6782 40.43 53.6982 40.11H53.0182C52.9982 40.43 52.9782 40.73 52.9482 41.01H51.2382V41.68H52.8382C52.7282 42.18 52.5782 42.59 52.3882 42.9C52.0082 43.48 51.3682 43.98 50.4882 44.41L50.9282 44.97C51.9082 44.47 52.5982 43.88 53.0182 43.19C53.2382 42.82 53.4082 42.32 53.5282 41.68H55.0382C55.0182 42.81 54.9882 43.49 54.9282 43.72C54.8482 44.1 54.5582 44.29 54.0582 44.29C53.7882 44.29 53.4682 44.28 53.0982 44.26L53.2482 44.86C53.6682 44.88 53.9682 44.89 54.1482 44.89C54.9982 44.89 55.4682 44.58 55.5682 43.97C55.6582 43.59 55.7082 42.61 55.7082 41.01Z" fill="#5A5A5A" style="mix-blend-mode:color-burn"/>
<path d="M18.6018 35.97L18.1118 36.44C18.8518 36.96 19.4418 37.46 19.8718 37.94L20.3518 37.46C19.8718 36.96 19.2918 36.47 18.6018 35.97ZM18.3318 38.37L17.8518 38.83C18.5918 39.37 19.1718 39.87 19.5918 40.35L20.0618 39.87C19.6018 39.37 19.0218 38.87 18.3318 38.37ZM19.4618 41.04C19.0418 42.25 18.5518 43.43 17.9718 44.59L18.6418 44.88C19.1718 43.75 19.6518 42.55 20.0718 41.27L19.4618 41.04ZM26.3718 40.83H20.6918V44.12H20.0518V44.79H26.9718V44.12H26.3718V40.83ZM21.3618 44.12V41.45H22.3718V44.12H21.3618ZM22.9918 44.12V41.45H24.0318V44.12H22.9918ZM24.6518 44.12V41.45H25.7018V44.12H24.6518ZM23.4818 38.25C23.9418 38.56 24.3118 38.86 24.6118 39.16L25.0318 38.74C24.6818 38.44 24.2618 38.14 23.7618 37.84C23.8818 37.62 23.9918 37.39 24.0818 37.14L23.4918 37.04C23.2318 37.74 22.7518 38.29 22.0518 38.7L22.4118 39.16C22.8318 38.91 23.1918 38.61 23.4818 38.25ZM21.0418 36.21V40.07H26.0318V36.21H21.0418ZM25.3718 39.48H21.6918V36.81H25.3718V39.48ZM27.7006 40.98V41.52H30.7606C30.0806 42.01 29.0106 42.42 27.5506 42.74L27.8706 43.27C28.3306 43.14 28.7706 43 29.1706 42.85V45.04H29.8506V44.72H34.4306V45.03H35.1106V42.57C35.5506 42.73 35.9906 42.91 36.4406 43.11L36.6706 42.58C35.9006 42.31 35.2706 42.12 34.7906 42C34.2706 41.86 33.5706 41.7 32.6706 41.52H36.5306V40.98H32.4506V40.55C33.5106 40.51 34.4406 40.46 35.2406 40.39L34.9706 39.91C33.4106 40.05 31.4506 40.13 29.0906 40.14L29.2506 40.6C30.1406 40.6 30.9806 40.59 31.7706 40.57V40.98H27.7006ZM34.7406 42.44H32.4506V41.84C33.1306 41.96 33.8006 42.12 34.4506 42.34C34.5406 42.37 34.6406 42.4 34.7406 42.44ZM31.4706 41.52H31.7706V42.44H30.1206C30.6806 42.16 31.1306 41.86 31.4706 41.52ZM29.8506 44.26V43.78H34.4306V44.26H29.8506ZM29.8506 43.38V42.89H34.4306V43.38H29.8506ZM27.6806 36.27V36.79H29.6806V37.27H27.9806V37.77H31.9406V37.27H30.3506V36.79H32.1806V36.27H30.3506V35.85H29.6806V36.27H27.6806ZM29.7706 38.6V39.2H28.7506C28.7606 39.11 28.7706 39.02 28.7706 38.92V38.6H29.7706ZM30.3206 39.2V38.6H31.2906V39.2H30.3206ZM32.3506 37.73V38.19H32.6606C32.8306 38.55 33.1106 38.85 33.5006 39.11C33.1106 39.19 32.6606 39.27 32.1506 39.33L32.4606 39.8C33.1206 39.72 33.6906 39.6 34.1806 39.44C34.7306 39.66 35.4306 39.8 36.2806 39.88L36.5506 39.38C35.9306 39.34 35.3906 39.26 34.9206 39.14C35.4206 38.88 35.7706 38.55 35.9506 38.17V37.73H32.3506ZM33.2106 38.19H35.3306C35.1006 38.47 34.7206 38.7 34.2006 38.9C33.7606 38.71 33.4306 38.47 33.2106 38.19ZM32.9306 36.05C32.9306 36.4 32.8806 36.66 32.8006 36.82C32.7006 36.98 32.5006 37.15 32.1906 37.33L32.6206 37.7C33.0106 37.49 33.2606 37.32 33.3606 37.18C33.4506 37.03 33.5006 36.82 33.5006 36.55H34.8706V36.93C34.8706 37.28 35.0606 37.46 35.4406 37.46H36.3806V36.99H35.6106C35.5006 36.99 35.4506 36.93 35.4506 36.81V36.05H32.9306ZM28.6706 39.63H31.9206V38.16H28.1506V38.92C28.1406 39.48 27.9406 39.94 27.5406 40.3L28.0506 40.76C28.3506 40.43 28.5606 40.05 28.6706 39.63ZM38.6994 39.25H40.3094V40.92H38.6994V39.25ZM40.3094 38.6H38.6994V36.91H40.3094V38.6ZM38.6894 41.57H40.3094V43.83C40.3094 44.19 40.1794 44.37 39.9294 44.37C39.6894 44.37 39.4394 44.35 39.1594 44.33L39.3294 44.97H40.1294C40.6894 44.97 40.9694 44.66 40.9694 44.06V36.26H38.0494V41.06C38.0394 42.46 37.8394 43.62 37.4394 44.52L37.9794 45.02C38.3894 44.12 38.6294 42.97 38.6894 41.57ZM42.4894 40.58H42.7294C42.9494 41.56 43.3794 42.44 44.0194 43.22C43.6194 43.7 43.1394 44.09 42.5694 44.4L42.9494 44.98C43.5494 44.66 44.0594 44.25 44.4994 43.74C44.9594 44.19 45.4994 44.6 46.1394 44.97L46.4994 44.36C45.8894 44.01 45.3594 43.62 44.9094 43.18C45.3694 42.46 45.6994 41.58 45.8894 40.55V39.94H42.4894V36.91H45.1594C45.1394 37.67 45.0994 38.16 45.0294 38.38C44.9694 38.53 44.8794 38.63 44.7594 38.67C44.6394 38.7 44.4694 38.72 44.2294 38.72C43.9494 38.72 43.7294 38.71 43.5594 38.71L43.7494 39.33H44.5594C45.1894 39.33 45.5594 39.12 45.6794 38.71C45.7994 38.31 45.8594 37.49 45.8594 36.25H41.8094V45.01H42.4894V40.58ZM43.3494 40.58H45.2494C45.0694 41.37 44.7994 42.06 44.4294 42.66C43.9194 42.04 43.5594 41.35 43.3494 40.58ZM48.1682 37.43L47.7282 37.85C48.4082 38.35 48.9582 38.83 49.3982 39.29H47.1982V39.97H48.4682C48.1182 41.06 47.6382 42.01 47.0282 42.83L47.2982 43.5C48.0082 42.45 48.5482 41.27 48.9182 39.97H48.9282V44.01C48.9282 44.24 48.8182 44.36 48.5982 44.36C48.3382 44.36 48.0682 44.34 47.7882 44.32L47.9282 44.95H48.8182C49.3182 44.95 49.5782 44.68 49.5782 44.16V39.97H50.5082C50.2882 40.53 50.0682 41 49.8382 41.38L50.2882 41.78C50.6182 41.23 50.9082 40.6 51.1482 39.9V39.29H49.7382L50.0082 39.03C49.8682 38.87 49.7082 38.72 49.5482 38.57C50.0682 38.08 50.5382 37.49 50.9782 36.81V36.25H47.3582V36.91H50.1582C49.8382 37.38 49.4782 37.8 49.0882 38.16C48.8082 37.92 48.4982 37.67 48.1682 37.43ZM52.4782 35.84C52.2182 36.73 51.7082 37.48 50.9682 38.09L51.3782 38.63C51.8382 38.25 52.2182 37.82 52.5282 37.34H54.5782C54.3582 37.9 54.0582 38.36 53.6682 38.73C53.2682 38.46 52.9382 38.17 52.6882 37.86L52.1682 38.15C52.4082 38.49 52.7282 38.81 53.1282 39.12C52.6982 39.38 52.1482 39.64 51.4682 39.88L51.8782 40.4C52.5982 40.12 53.1982 39.82 53.6782 39.5C54.2182 39.82 54.8682 40.12 55.6382 40.39L56.0982 39.84C55.3782 39.61 54.7482 39.35 54.2182 39.06C54.2182 39.06 54.2282 39.05 54.2482 39.04C54.6682 38.61 55.0082 38.04 55.2482 37.34H55.9482V36.68H52.8882C52.9982 36.44 53.0882 36.18 53.1682 35.92L52.4782 35.84ZM55.7082 41.01H53.6282C53.6582 40.73 53.6782 40.43 53.6982 40.11H53.0182C52.9982 40.43 52.9782 40.73 52.9482 41.01H51.2382V41.68H52.8382C52.7282 42.18 52.5782 42.59 52.3882 42.9C52.0082 43.48 51.3682 43.98 50.4882 44.41L50.9282 44.97C51.9082 44.47 52.5982 43.88 53.0182 43.19C53.2382 42.82 53.4082 42.32 53.5282 41.68H55.0382C55.0182 42.81 54.9882 43.49 54.9282 43.72C54.8482 44.1 54.5582 44.29 54.0582 44.29C53.7882 44.29 53.4682 44.28 53.0982 44.26L53.2482 44.86C53.6682 44.88 53.9682 44.89 54.1482 44.89C54.9982 44.89 55.4682 44.58 55.5682 43.97C55.6582 43.59 55.7082 42.61 55.7082 41.01Z" fill="#717171" fill-opacity="0.5"/>
</svg>
