<svg width="21" height="20" viewBox="0 0 21 20" fill="none" xmlns="http://www.w3.org/2000/svg">
<path d="M1.81836 6.94141C2.53125 6.94141 2.91211 6.55078 2.91211 5.83789V3.70898C2.91211 2.81055 3.37109 2.38086 4.23047 2.38086H6.39844C7.11133 2.38086 7.50195 1.99023 7.50195 1.28711C7.50195 0.583984 7.11133 0.203125 6.39844 0.203125H4.04492C1.88672 0.203125 0.734375 1.33594 0.734375 3.48438V5.83789C0.734375 6.55078 1.125 6.94141 1.81836 6.94141ZM19.1719 6.94141C19.875 6.94141 20.2559 6.55078 20.2559 5.83789V3.48438C20.2559 1.3457 19.1133 0.203125 16.9453 0.203125H14.5918C13.8789 0.203125 13.4883 0.583984 13.4883 1.28711C13.4883 1.99023 13.8789 2.38086 14.5918 2.38086H16.7598C17.6094 2.38086 18.0781 2.81055 18.0781 3.70898V5.83789C18.0781 6.55078 18.4688 6.94141 19.1719 6.94141ZM6.33008 14.3047H14.6797C15.7148 14.3047 16.2812 13.7578 16.2812 12.7227V7.72266C16.2812 6.6875 15.7148 6.13086 14.6797 6.13086H13.5762C13.2051 6.13086 13.0781 6.08203 12.8438 5.82812L12.4727 5.4375C12.209 5.18359 11.9648 5.05664 11.4863 5.05664H9.49414C9.01562 5.05664 8.76172 5.18359 8.50781 5.4375L8.13672 5.82812C7.89258 6.07227 7.77539 6.13086 7.4043 6.13086H6.33008C5.28516 6.13086 4.71875 6.6875 4.71875 7.72266V12.7227C4.71875 13.7578 5.28516 14.3047 6.33008 14.3047ZM10.5098 12.9668C8.9668 12.9668 7.72656 11.7363 7.72656 10.1738C7.72656 8.63086 8.9668 7.40039 10.5098 7.40039C12.0527 7.40039 13.2832 8.63086 13.2832 10.1738C13.2832 11.7559 12.0527 12.9668 10.5098 12.9668ZM14.2988 8.96289C13.9277 8.96289 13.625 8.66992 13.625 8.28906C13.625 7.91797 13.9277 7.61523 14.2988 7.61523C14.6797 7.61523 14.9727 7.91797 14.9727 8.28906C14.9727 8.66992 14.6797 8.96289 14.2988 8.96289ZM10.5 11.9316C11.4668 11.9316 12.2578 11.1602 12.2578 10.1738C12.2578 9.20703 11.4668 8.42578 10.5 8.42578C9.5332 8.42578 8.75195 9.20703 8.75195 10.1738C8.75195 11.1602 9.5332 11.9316 10.5 11.9316ZM4.04492 19.7246H6.39844C7.11133 19.7246 7.50195 19.334 7.50195 18.6309C7.50195 17.9375 7.11133 17.5469 6.39844 17.5469H4.23047C3.37109 17.5469 2.91211 17.1172 2.91211 16.2188V14.0801C2.91211 13.377 2.52148 12.9863 1.81836 12.9863C1.11523 12.9863 0.734375 13.377 0.734375 14.0801V16.4434C0.734375 18.582 1.88672 19.7246 4.04492 19.7246ZM14.5918 19.7246H16.9453C19.1133 19.7246 20.2559 18.582 20.2559 16.4434V14.0801C20.2559 13.377 19.8652 12.9863 19.1719 12.9863C18.459 12.9863 18.0781 13.377 18.0781 14.0801V16.2188C18.0781 17.1172 17.6094 17.5469 16.7598 17.5469H14.5918C13.8789 17.5469 13.4883 17.9375 13.4883 18.6309C13.4883 19.334 13.8789 19.7246 14.5918 19.7246Z" fill="black"/>
</svg>
