<svg width="358" height="100" viewBox="0 0 358 100" fill="none" xmlns="http://www.w3.org/2000/svg">
<path d="M0 8C0 3.58172 3.58172 0 8 0H350C354.418 0 358 3.58172 358 8V92C358 96.4183 354.418 100 350 100H8C3.58173 100 0 96.4183 0 92V8Z" fill="white"/>
<path d="M110.076 55.48H105.48C105.336 55 105.18 54.58 105.024 54.196L104.052 54.364C104.22 54.7 104.364 55.072 104.508 55.48H99.9V58.168H100.776V56.32H109.2V58.168H110.076V55.48ZM101.616 57.712V58.552H108.336V57.712H101.616ZM99.78 59.968V60.796H103.104V60.88C103.068 61.816 102.816 62.572 102.336 63.148C101.808 63.712 100.896 64.156 99.588 64.492L100.08 65.26C101.424 64.888 102.396 64.372 102.996 63.724C103.596 63.004 103.92 62.056 103.956 60.88V60.796H105.972V63.82C105.972 64.612 106.332 65.02 107.076 65.02H109.104C109.512 65.02 109.8 64.9 109.992 64.684C110.208 64.444 110.352 63.736 110.424 62.584L109.608 62.32C109.56 63.232 109.488 63.772 109.392 63.952C109.308 64.108 109.164 64.192 108.948 64.192H107.352C107.004 64.192 106.836 64 106.836 63.64V60.796H110.232V59.968H99.78ZM119.52 54.16L118.968 54.688C119.58 55.156 120.06 55.6 120.42 56.032H118.176C118.152 55.456 118.14 54.844 118.14 54.172H117.252C117.252 54.82 117.264 55.432 117.288 56.032H112.332V60.028C112.296 61.984 111.9 63.508 111.132 64.612L111.792 65.2C112.68 63.904 113.16 62.176 113.208 60.028V59.668H115.284C115.26 60.988 115.224 61.852 115.152 62.26C115.08 62.596 114.912 62.776 114.648 62.788C114.324 62.788 113.928 62.776 113.46 62.752L113.724 63.532C114.108 63.556 114.456 63.58 114.744 63.58C115.344 63.556 115.716 63.292 115.872 62.776C116.028 62.188 116.124 60.88 116.148 58.852H113.208V56.86H117.324C117.42 58.36 117.588 59.62 117.852 60.628C117.984 61.144 118.14 61.624 118.308 62.068C117.48 63.112 116.46 63.904 115.26 64.444L115.74 65.164C116.868 64.66 117.852 63.928 118.692 62.944C118.872 63.316 119.076 63.652 119.292 63.94C119.868 64.66 120.408 65.02 120.912 65.02C121.452 65.02 121.86 64.216 122.148 62.62L121.368 62.188C121.188 63.424 120.984 64.048 120.768 64.06C120.528 64.06 120.204 63.772 119.808 63.196C119.616 62.92 119.436 62.584 119.268 62.2C120.036 61.12 120.66 59.776 121.14 58.192L120.36 57.856C119.988 59.14 119.508 60.268 118.908 61.228C118.824 60.964 118.74 60.688 118.668 60.388C118.452 59.524 118.296 58.348 118.212 56.86H121.908V56.032H120.444L120.996 55.48C120.588 55.036 120.096 54.592 119.52 54.16ZM126.828 60.508H129.048V59.68H126.828V58.192H129.288V54.676H125.988V65.212H126.828V62.872H129.06V62.068H126.828V60.508ZM133.116 58.192V54.676H129.9V55.48H132.276V57.388H129.876V58.192H133.116ZM129.492 59.308V60.112H129.828C129.996 61.192 130.356 62.152 130.908 63.004L130.92 63.016C130.344 63.64 129.636 64.144 128.796 64.54L129.264 65.272C130.116 64.876 130.848 64.36 131.448 63.712C131.976 64.324 132.624 64.828 133.416 65.236L133.824 64.504C133.152 64.156 132.54 63.676 131.976 63.064C132.576 62.236 132.996 61.24 133.26 60.064V59.308H129.492ZM130.584 60.112H132.48C132.24 60.964 131.892 61.72 131.436 62.38C131.004 61.744 130.716 60.988 130.584 60.112ZM126.828 57.4V55.48H128.472V57.4H126.828ZM123.828 58.564V65.224H124.692V56.884C125.016 56.14 125.292 55.336 125.52 54.484L124.716 54.112C124.272 55.972 123.564 57.616 122.58 59.056L122.868 59.98C123.204 59.524 123.528 59.056 123.828 58.564ZM143.604 54.676H136.188V65.152H137.052V64.228H142.728V65.14H143.604V54.676ZM137.052 63.388V59.776H142.728V63.388H137.052ZM137.052 58.936V55.516H142.728V58.936H137.052ZM146.412 54.736V55.384H150.936V56.008H146.94V56.644H155.736V56.008H151.8V55.384H156.3V54.736H151.8V54.148H150.936V54.736H146.412ZM147.624 57.208V58.936H155.148V57.208H147.624ZM154.344 58.36H148.416V57.772H154.344V58.36ZM156.396 59.428H146.34V60.916H147.168V60.028H155.568V60.604H147.252V61.204H148.944C148.464 61.636 148.02 61.876 147.612 61.9L147.768 62.428L151.02 62.356V62.992H147.216V63.616H151.02V64.3H146.28V64.972H156.624V64.3H151.812V63.616H155.556V62.992H151.812V62.332C152.604 62.308 153.396 62.272 154.188 62.224L154.692 62.764L155.292 62.344C154.992 62.008 154.584 61.624 154.08 61.204H155.568V60.952H156.396V59.428ZM153.06 61.204C153.264 61.372 153.468 61.54 153.66 61.72C152.184 61.792 150.648 61.852 149.052 61.876C149.304 61.696 149.568 61.468 149.832 61.204H153.06ZM160.92 54.232V57.556H157.812V58.384H160.92V63.508C159.84 63.76 158.736 63.964 157.596 64.108L157.8 64.924C159.576 64.636 161.22 64.288 162.756 63.856V63.028C162.444 63.124 162.12 63.208 161.784 63.292V54.232H160.92ZM166.656 64.744C167.256 64.744 167.676 64.612 167.904 64.348C168.132 64.084 168.288 63.328 168.36 62.08L167.568 61.804C167.52 62.86 167.412 63.484 167.268 63.664C167.112 63.832 166.86 63.928 166.512 63.928H165.276C164.928 63.928 164.76 63.784 164.76 63.496V58.48L168.06 58.252V57.436L164.76 57.652V54.232H163.896V63.616C163.896 64.36 164.292 64.744 165.084 64.744H166.656ZM173.1 54.124C172.092 55.156 170.796 55.996 169.2 56.644L169.74 57.292C170.004 57.172 170.28 57.04 170.556 56.908V59.248H173.784C172.848 59.776 171.432 60.232 169.536 60.592L169.98 61.324C171.636 60.916 172.968 60.424 173.964 59.86C174.156 60.028 174.324 60.196 174.492 60.388C173.34 61.168 171.72 61.804 169.656 62.284L170.076 63.028C172.104 62.476 173.712 61.78 174.9 60.916C175.056 61.156 175.188 61.408 175.284 61.672C173.928 62.668 172.008 63.484 169.524 64.108L169.956 64.852C172.26 64.228 174.108 63.436 175.476 62.452C175.5 62.596 175.524 62.764 175.524 62.932C175.524 63.52 175.404 63.916 175.176 64.12C174.936 64.312 174.612 64.42 174.228 64.444C173.964 64.444 173.628 64.456 173.232 64.456L173.496 65.248C173.796 65.248 174.072 65.236 174.324 65.212C175.08 65.14 175.608 64.96 175.908 64.696C176.244 64.36 176.412 63.772 176.412 62.932C176.4 62.764 176.388 62.608 176.364 62.44C177.24 63.28 178.344 64.012 179.664 64.636L180.084 63.904C178.644 63.268 177.444 62.512 176.484 61.624C177.636 61.24 178.632 60.76 179.46 60.208L178.896 59.56C178.092 60.148 177.096 60.64 175.896 61.036L175.86 61C175.572 60.448 175.164 59.932 174.612 59.452C174.696 59.38 174.78 59.32 174.876 59.248H179.148V56.584H176.016C176.412 56.296 176.808 55.948 177.192 55.552V54.976H173.364C173.58 54.76 173.796 54.544 174 54.328L173.1 54.124ZM171.156 56.584C171.648 56.296 172.116 55.996 172.56 55.66H176.1C175.692 55.996 175.284 56.308 174.876 56.584H171.156ZM178.296 58.528H175.236V57.316H178.296V58.528ZM174.384 58.528H171.408V57.316H174.384V58.528ZM190.008 56.236V63.34H186.588V54.268H185.7V63.34H182.268V56.2H181.404V64.96H182.268V64.168H190.008V64.972H190.872V56.236H190.008ZM202.452 59.236V57.568H203.22V56.86H202.452V55.192H200.46V54.268H199.632V55.192H198.12V55.888H199.632V56.86H197.628V57.568H199.632V58.54H198.12V59.236H199.632V60.172H198V60.856H199.632V61.744H197.628V62.464H199.632V63.688H200.46V62.464H203.052V61.744H200.46V60.856H202.68V60.172H200.46V59.236H202.452ZM200.46 55.888H201.684V56.86H200.46V55.888ZM200.46 57.568H201.684V58.54H200.46V57.568ZM195.036 55.336V56.152H196.5C196.056 57.088 195.552 57.952 194.988 58.744V59.368H196.728C196.68 60.412 196.5 61.324 196.212 62.116C195.84 61.528 195.552 60.832 195.36 60.028L194.664 60.292C194.952 61.348 195.336 62.224 195.828 62.92C195.468 63.52 195.012 64.024 194.46 64.42L194.88 65.152C195.468 64.744 195.96 64.216 196.368 63.58C196.656 63.868 196.968 64.12 197.328 64.312C198.072 64.756 199.488 64.984 201.564 64.996H203.1L203.256 64.192C202.704 64.216 201.96 64.228 201.024 64.228C199.656 64.192 198.66 64.036 198.024 63.76C197.556 63.556 197.136 63.244 196.764 62.836C197.208 61.828 197.448 60.592 197.484 59.128V58.636H195.996C196.452 57.94 196.92 57.076 197.412 56.044V55.336H195.036ZM193.344 58.54V65.212H194.184V56.932C194.508 56.188 194.784 55.408 195.012 54.568L194.232 54.208C193.8 55.984 193.116 57.568 192.156 58.96L192.432 59.872C192.756 59.452 193.056 59.008 193.344 58.54ZM205.08 55.576V56.368H208.908V58.228H204.168V59.044H208.908V64C208.668 63.94 208.464 63.868 208.296 63.796C207.624 63.508 207.036 62.812 206.508 61.732C206.676 61.168 206.772 60.58 206.82 59.968L205.956 59.86C205.824 61.6 205.104 63.172 203.808 64.576L204.468 65.152C205.224 64.348 205.8 63.484 206.208 62.548C206.712 63.52 207.276 64.168 207.912 64.504C208.644 64.876 210.036 65.068 212.088 65.08C212.796 65.08 213.6 65.092 214.488 65.092L214.728 64.228C213.996 64.264 213.096 64.288 212.028 64.288C211.14 64.288 210.384 64.24 209.76 64.156V61.828H213.432V61.024H209.76V59.044H214.512V58.228H209.76V56.368H213.576V55.576H209.76V54.22H208.908V55.576H205.08ZM218.616 57.688V58.516H222.048V60.376H219.42V65.212H220.272V64.552H224.772V65.188H225.624V60.376H222.924V58.516H226.38V57.688H222.924V55.696C224.016 55.54 224.976 55.312 225.816 55.012L225.396 54.268C223.668 54.856 221.484 55.156 218.868 55.156L219.132 55.936C220.164 55.936 221.136 55.888 222.048 55.804V57.688H218.616ZM220.272 63.736V61.192H224.772V63.736H220.272ZM216.444 54.364L215.856 54.928C216.72 55.504 217.404 56.032 217.896 56.536L218.484 55.948C217.932 55.42 217.248 54.892 216.444 54.364ZM216.168 57.232L215.568 57.82C216.444 58.444 217.128 59.044 217.632 59.608L218.232 59.008C217.68 58.408 216.984 57.82 216.168 57.232ZM217.584 60.424C217.08 61.876 216.468 63.292 215.772 64.684L216.636 65.056C217.26 63.712 217.836 62.26 218.364 60.724L217.584 60.424ZM234.312 54.232V56.512H233.124V57.292H234.312V57.868C234.288 60.748 233.7 62.896 232.548 64.336V63.7C231.876 63.796 231.144 63.88 230.364 63.952V62.956H232.536V62.236H230.364V61.408H232.524V57.748H230.364V56.98H232.752V56.26H230.364V55.36C231.216 55.264 231.972 55.132 232.62 54.964L232.236 54.304C230.892 54.628 229.2 54.796 227.16 54.796L227.4 55.492C228.156 55.492 228.876 55.468 229.548 55.42V56.26H227.1V56.98H229.548V57.748H227.4V61.408H229.548V62.236H227.388V62.956H229.548V64.024C228.744 64.084 227.892 64.144 227.004 64.192L227.112 64.96C229.092 64.828 230.868 64.672 232.428 64.48C232.392 64.528 232.356 64.564 232.32 64.612L232.944 65.152C234.36 63.616 235.092 61.18 235.116 57.868V57.292H236.724C236.7 60.748 236.652 62.824 236.568 63.496C236.496 64.048 236.232 64.324 235.776 64.324C235.416 64.324 234.984 64.3 234.504 64.276L234.708 65.044C235.26 65.068 235.656 65.08 235.884 65.08C236.772 65.08 237.264 64.66 237.372 63.832C237.48 62.896 237.54 60.46 237.54 56.512H235.116V54.232H234.312ZM231.744 60.76H230.316V59.872H231.744V60.76ZM229.596 60.76H228.18V59.872H229.596V60.76ZM228.18 59.272V58.384H229.596V59.272H228.18ZM230.316 58.384H231.744V59.272H230.316V58.384ZM244.092 58.852C243.852 58.852 243.66 58.912 243.528 59.056C243.384 59.188 243.312 59.368 243.312 59.596C243.312 59.8 243.372 59.98 243.516 60.124C243.66 60.268 243.828 60.34 244.032 60.34C244.152 60.34 244.248 60.316 244.296 60.292C244.296 60.58 244.212 60.844 244.044 61.096C243.84 61.336 243.588 61.516 243.276 61.624V62.212C243.78 62.08 244.2 61.816 244.512 61.432C244.824 61.024 244.98 60.556 244.98 60.028C244.98 59.68 244.896 59.404 244.74 59.188C244.572 58.96 244.356 58.852 244.092 58.852ZM255.648 54.16C254.592 55.312 252.996 56.08 250.86 56.488L251.364 57.28C252.648 56.992 253.752 56.572 254.688 56.02H258.192C257.52 57.004 256.548 57.76 255.3 58.264C254.916 57.784 254.508 57.352 254.076 56.944L253.32 57.304C253.728 57.676 254.124 58.096 254.496 58.552C253.632 58.804 252.672 58.96 251.592 59.032L251.964 59.812C255.468 59.536 257.88 58.24 259.176 55.936V55.252H255.732C255.972 55.036 256.2 54.808 256.416 54.568L255.648 54.16ZM255.192 61.66L254.424 62.02C254.868 62.452 255.288 62.944 255.696 63.484C254.34 63.94 252.72 64.168 250.848 64.18L251.196 65.008C255.852 64.9 259.02 63.436 260.724 60.604V59.92H257.436C257.772 59.668 258.072 59.392 258.36 59.104L257.616 58.696C256.368 60.016 254.436 60.82 251.82 61.084L252.336 61.852C253.788 61.6 255.036 61.216 256.092 60.712H259.644C258.876 61.768 257.832 62.596 256.5 63.172C256.092 62.632 255.648 62.128 255.192 61.66ZM272.364 54.664H265.32V56.572H266.004V56.98H268.452V57.688H265.884V61.216H268.452V61.972H265.248V62.692H268.452V63.88H269.28V62.692H272.484V61.972H269.28V61.216H271.836V57.688H269.28V56.98H271.74V56.524H272.364V54.664ZM266.148 56.296V55.372H268.452V56.296H266.148ZM269.28 55.372H271.536V56.296H269.28V55.372ZM271.008 60.556H269.28V59.776H271.008V60.556ZM268.452 60.556H266.724V59.776H268.452V60.556ZM266.724 59.152V58.36H268.452V59.152H266.724ZM269.28 58.36H271.008V59.152H269.28V58.36ZM262.812 54.304L262.248 54.844C263.028 55.468 263.64 56.044 264.096 56.584L264.66 56.02C264.156 55.444 263.532 54.88 262.812 54.304ZM261.96 57.196V57.988H263.76C263.352 58.66 262.836 59.332 262.236 60.016V60.676H264.024C263.868 61.456 263.664 62.164 263.4 62.788C262.896 62.932 262.356 63.532 261.804 64.612L262.44 65.176C262.968 64.12 263.376 63.592 263.664 63.592C263.76 63.592 263.868 63.628 263.964 63.712C264.372 64.12 264.828 64.432 265.332 64.624C265.776 64.804 266.412 64.9 267.24 64.924C267.936 64.948 268.752 64.96 269.664 64.96H272.592L272.784 64.132C271.464 64.18 270.384 64.204 269.556 64.204C268.704 64.204 267.948 64.192 267.288 64.192C266.592 64.168 266.052 64.084 265.656 63.94C265.26 63.76 264.876 63.496 264.492 63.148C264.384 63.052 264.276 62.968 264.18 62.92C264.444 62.272 264.66 61.48 264.84 60.52V59.944H263.256C263.808 59.272 264.288 58.588 264.72 57.88V57.196H261.96ZM280.68 54.232V56.512H279.492V57.292H280.68V57.868C280.656 60.748 280.068 62.896 278.916 64.336V63.7C278.244 63.796 277.512 63.88 276.732 63.952V62.956H278.904V62.236H276.732V61.408H278.892V57.748H276.732V56.98H279.12V56.26H276.732V55.36C277.584 55.264 278.34 55.132 278.988 54.964L278.604 54.304C277.26 54.628 275.568 54.796 273.528 54.796L273.768 55.492C274.524 55.492 275.244 55.468 275.916 55.42V56.26H273.468V56.98H275.916V57.748H273.768V61.408H275.916V62.236H273.756V62.956H275.916V64.024C275.112 64.084 274.26 64.144 273.372 64.192L273.48 64.96C275.46 64.828 277.236 64.672 278.796 64.48C278.76 64.528 278.724 64.564 278.688 64.612L279.312 65.152C280.728 63.616 281.46 61.18 281.484 57.868V57.292H283.092C283.068 60.748 283.02 62.824 282.936 63.496C282.864 64.048 282.6 64.324 282.144 64.324C281.784 64.324 281.352 64.3 280.872 64.276L281.076 65.044C281.628 65.068 282.024 65.08 282.252 65.08C283.14 65.08 283.632 64.66 283.74 63.832C283.848 62.896 283.908 60.46 283.908 56.512H281.484V54.232H280.68ZM278.112 60.76H276.684V59.872H278.112V60.76ZM275.964 60.76H274.548V59.872H275.964V60.76ZM274.548 59.272V58.384H275.964V59.272H274.548ZM276.684 58.384H278.112V59.272H276.684V58.384ZM287.748 57.832H292.86V58.912H287.748V57.832ZM292.86 57.1H287.748V55.972H292.86V57.1ZM287.748 59.656H292.86V60.736C291.444 60.904 289.74 61.024 287.748 61.12V59.656ZM286.896 61.156L285.336 61.204L285.468 62.02C288.504 61.888 290.904 61.72 292.656 61.504L292.296 61.792C290.904 62.836 288.648 63.64 285.516 64.192L285.9 64.972C288.372 64.54 290.436 63.844 292.08 62.872C292.344 62.704 292.596 62.524 292.86 62.332V64.036C292.86 64.3 292.716 64.432 292.452 64.432L291.24 64.396L291.468 65.224H292.74C293.388 65.224 293.712 64.888 293.712 64.216V61.624C294.552 60.844 295.26 59.896 295.836 58.792L295.092 58.324C294.792 59.08 294.336 59.8 293.712 60.496V55.204H290.196C290.34 54.892 290.46 54.568 290.556 54.208L289.656 54.088C289.572 54.472 289.452 54.844 289.296 55.204H286.896V61.156ZM103.716 72.628H100.212V75.832H99.744V77.776H100.356V80.428C100.344 81.316 100.128 82.06 99.708 82.648L100.284 83.176C100.8 82.456 101.064 81.52 101.076 80.368V79.444C101.52 79.528 101.964 79.636 102.408 79.78L102.636 79.204C102.132 79.06 101.604 78.94 101.076 78.856V78.064H102.84V80.284C102.312 80.452 101.724 80.608 101.088 80.74L101.268 81.4C101.844 81.268 102.372 81.124 102.84 80.968V82.072C102.84 82.312 102.708 82.432 102.468 82.432C102.228 82.432 101.964 82.42 101.676 82.408L101.868 83.104H102.696C103.272 83.104 103.572 82.84 103.572 82.324V77.74H104.172V75.832H103.716V72.628ZM100.464 77.404V76.492H103.464V77.404H100.464ZM100.932 75.832V73.3H102.996V74.236H101.64V75.832H100.932ZM102.216 75.832V74.848H102.996V75.832H102.216ZM104.712 73.096V76.72H110.04V73.096H108.564V72.232H107.82V73.096H106.908V72.232H106.164V73.096H104.712ZM109.38 76.12H108.408V75.208H109.38V76.12ZM107.82 76.12H106.908V75.208H107.82V76.12ZM106.32 76.12H105.384V75.208H106.32V76.12ZM105.384 74.644V73.732H106.32V74.644H105.384ZM106.908 73.732H107.82V74.644H106.908V73.732ZM108.408 73.732H109.38V74.644H108.408V73.732ZM104.4 77.356V78.052H110.364V77.356H104.4ZM104.916 78.724V80.992H105.648L105.984 82.096H104.148V82.828H110.448V82.096H108.756L109.056 80.992H109.812V78.724H104.916ZM106.752 82.096L106.416 80.992H108.3L108 82.096H106.752ZM109.068 80.332H105.66V79.348H109.068V80.332ZM113.148 72.064C113.016 72.892 112.872 73.696 112.704 74.488H111.252V75.316H112.524C112.236 76.54 111.912 77.68 111.54 78.736C112.212 79.228 112.836 79.696 113.388 80.14C112.824 81.076 112.092 81.868 111.18 82.528L111.768 83.248C112.692 82.54 113.46 81.688 114.06 80.692C114.66 81.196 115.176 81.652 115.584 82.084L116.172 81.4C115.728 80.968 115.164 80.476 114.468 79.936C115.14 78.532 115.536 76.876 115.644 74.98V74.488H113.568C113.712 73.768 113.856 72.976 114 72.136L113.148 72.064ZM113.772 79.408C113.376 79.12 112.944 78.808 112.488 78.484C112.8 77.644 113.1 76.588 113.388 75.316H114.792C114.684 76.852 114.348 78.22 113.772 79.408ZM116.052 77.236V78.076H118.764V81.652C118.764 82.06 118.62 82.264 118.344 82.264C117.768 82.264 117.228 82.252 116.736 82.252L116.964 83.068H118.692C119.316 83.068 119.64 82.684 119.64 81.916V78.076H122.088V77.236H119.64V75.988C120.36 75.268 121.02 74.488 121.596 73.66V72.82H116.4V73.66H120.612C120.024 74.476 119.412 75.16 118.764 75.724V77.236H116.052ZM132.9 77.236V75.568H133.668V74.86H132.9V73.192H130.908V72.268H130.08V73.192H128.568V73.888H130.08V74.86H128.076V75.568H130.08V76.54H128.568V77.236H130.08V78.172H128.448V78.856H130.08V79.744H128.076V80.464H130.08V81.688H130.908V80.464H133.5V79.744H130.908V78.856H133.128V78.172H130.908V77.236H132.9ZM130.908 73.888H132.132V74.86H130.908V73.888ZM130.908 75.568H132.132V76.54H130.908V75.568ZM125.484 73.336V74.152H126.948C126.504 75.088 126 75.952 125.436 76.744V77.368H127.176C127.128 78.412 126.948 79.324 126.66 80.116C126.288 79.528 126 78.832 125.808 78.028L125.112 78.292C125.4 79.348 125.784 80.224 126.276 80.92C125.916 81.52 125.46 82.024 124.908 82.42L125.328 83.152C125.916 82.744 126.408 82.216 126.816 81.58C127.104 81.868 127.416 82.12 127.776 82.312C128.52 82.756 129.936 82.984 132.012 82.996H133.548L133.704 82.192C133.152 82.216 132.408 82.228 131.472 82.228C130.104 82.192 129.108 82.036 128.472 81.76C128.004 81.556 127.584 81.244 127.212 80.836C127.656 79.828 127.896 78.592 127.932 77.128V76.636H126.444C126.9 75.94 127.368 75.076 127.86 74.044V73.336H125.484ZM123.792 76.54V83.212H124.632V74.932C124.956 74.188 125.232 73.408 125.46 72.568L124.68 72.208C124.248 73.984 123.564 75.568 122.604 76.96L122.88 77.872C123.204 77.452 123.504 77.008 123.792 76.54ZM143.88 78.76V77.092H145.056V76.372H143.88V74.68H140.904V73.804H144.924V73.024H140.748C140.616 72.688 140.472 72.388 140.328 72.124L139.44 72.268C139.584 72.496 139.728 72.748 139.872 73.024H135.288V76.9C135.252 79.336 134.892 81.232 134.22 82.588L134.868 83.164C135.636 81.628 136.056 79.612 136.128 77.092H140.076V78.04H137.04V78.76H140.076V82.012C140.076 82.264 139.932 82.396 139.668 82.396C139.308 82.396 138.924 82.372 138.516 82.336L138.696 83.14H139.956C140.58 83.14 140.904 82.828 140.904 82.216V78.76H143.88ZM136.128 76.372V73.804H140.076V74.68H137.052V75.412H140.076V76.372H136.128ZM140.904 75.412H143.052V76.372H140.904V75.412ZM143.052 77.092V78.04H140.904V77.092H143.052ZM137.064 79.12L136.644 79.744C137.316 79.96 137.988 80.272 138.636 80.656L139.032 80.032C138.432 79.672 137.784 79.372 137.064 79.12ZM143.664 79.048C143.208 79.456 142.668 79.84 142.044 80.2L142.572 80.704C143.148 80.368 143.712 79.972 144.24 79.504L143.664 79.048ZM141.804 80.836L141.396 81.436C142.5 81.82 143.592 82.324 144.648 82.972L145.104 82.276C144.108 81.712 143.004 81.232 141.804 80.836ZM139.152 80.728C138.3 81.256 137.28 81.712 136.092 82.072L136.428 82.852C137.592 82.444 138.564 81.976 139.356 81.448L139.152 80.728ZM150.816 73.432L150.996 79.696H151.74L151.932 73.432H150.816ZM151.368 80.572C151.164 80.572 150.996 80.632 150.852 80.776C150.708 80.908 150.648 81.076 150.648 81.28C150.648 81.484 150.708 81.652 150.852 81.796C150.996 81.928 151.164 82 151.368 82C151.572 82 151.752 81.928 151.896 81.796C152.028 81.664 152.1 81.496 152.1 81.28C152.1 81.076 152.028 80.908 151.896 80.776C151.752 80.632 151.572 80.572 151.368 80.572Z" fill="#3C3C43" fill-opacity="0.6"/>
<path d="M114.304 32.792V30.568H115.216V29.352H114.304V27.112H111.6V25.976H110.16V27.112H108.304V28.328H110.16V29.352H107.664V30.568H110.16V31.576H108.304V32.792H110.16V33.768H108.176V34.952H110.16V35.848H107.664V37.096H110.16V38.504H111.6V37.096H114.992V35.848H111.6V34.952H114.496V33.768H111.6V32.792H114.304ZM111.6 28.328H112.96V29.352H111.6V28.328ZM111.6 30.568H112.96V31.576H111.6V30.568ZM104.208 27.272V28.712H105.936C105.376 29.848 104.752 30.904 104.048 31.864V32.952H106.336C106.272 34.104 106.08 35.144 105.776 36.072C105.344 35.368 105.024 34.552 104.816 33.64L103.584 34.104C103.968 35.448 104.464 36.6 105.104 37.528C104.656 38.248 104.112 38.84 103.44 39.32L104.176 40.616C104.912 40.088 105.552 39.432 106.064 38.648C106.416 38.968 106.784 39.24 107.2 39.464C108.24 40.056 110.192 40.36 113.072 40.392H114.992L115.264 38.968C114.272 39 113.232 39.032 112.128 39.032C110.384 38.968 109.088 38.76 108.256 38.408C107.712 38.168 107.2 37.816 106.736 37.368C107.296 36.024 107.6 34.408 107.648 32.52V31.672H105.808C106.368 30.808 106.944 29.768 107.552 28.52V27.272H104.208ZM101.824 32.28V40.68H103.296V29.592C103.728 28.616 104.08 27.592 104.368 26.52L102.992 25.88C102.432 28.216 101.552 30.28 100.336 32.04L100.832 33.672C101.184 33.224 101.504 32.76 101.824 32.28ZM117.672 27.592V28.968H122.712V31.096H116.52V32.52H122.712V38.648C122.488 38.584 122.296 38.52 122.12 38.456C121.288 38.12 120.536 37.32 119.864 36.04C120.088 35.272 120.216 34.488 120.28 33.672L118.776 33.48C118.584 35.72 117.672 37.752 116.024 39.592L117.176 40.6C118.088 39.608 118.808 38.552 119.336 37.416C119.976 38.552 120.696 39.32 121.48 39.736C122.504 40.232 124.376 40.488 127.128 40.504C128.056 40.52 129.112 40.536 130.28 40.536L130.728 39C129.72 39.064 128.488 39.096 127.032 39.096C125.944 39.096 125 39.032 124.2 38.936V36.248H128.92V34.84H124.2V32.52H130.408V31.096H124.2V28.968H129.224V27.592H124.2V25.912H122.712V27.592H117.672ZM136.928 25.752C135.52 27.16 133.808 28.248 131.792 29.048L132.736 30.2C133.024 30.072 133.296 29.928 133.584 29.8V32.792H137.52C136.288 33.368 134.528 33.864 132.24 34.28L133.024 35.56C135.136 35.032 136.864 34.408 138.208 33.672C138.384 33.832 138.56 33.992 138.72 34.168C137.184 35.128 135.088 35.928 132.4 36.536L133.136 37.816C135.76 37.112 137.856 36.2 139.424 35.096C139.568 35.32 139.696 35.576 139.808 35.832C138.016 37.096 135.488 38.136 132.224 38.968L132.992 40.264C135.952 39.464 138.336 38.44 140.144 37.208C140.144 37.32 140.16 37.448 140.16 37.576C140.16 38.248 140.016 38.712 139.744 38.952C139.456 39.16 139.072 39.288 138.608 39.32C138.224 39.32 137.744 39.336 137.168 39.336L137.648 40.728C138.064 40.728 138.432 40.712 138.784 40.68C139.84 40.568 140.576 40.328 140.992 39.976C141.456 39.528 141.696 38.728 141.696 37.576C141.696 37.48 141.68 37.384 141.68 37.288C142.8 38.312 144.16 39.208 145.792 39.976L146.544 38.68C144.72 37.896 143.2 36.984 141.968 35.928C143.376 35.448 144.624 34.872 145.712 34.184L144.72 33.032C143.696 33.768 142.432 34.392 140.928 34.904C140.544 34.216 140.016 33.56 139.344 32.936L139.536 32.792H145.296V28.984H141.424C141.856 28.648 142.288 28.264 142.704 27.816V26.84H137.808C138.048 26.616 138.288 26.36 138.528 26.104L136.928 25.752ZM135.04 28.984C135.52 28.68 135.984 28.36 136.432 28.024H140.752C140.336 28.376 139.904 28.696 139.488 28.984H135.04ZM143.792 31.528H140.128V30.248H143.792V31.528ZM138.64 31.528H135.088V30.248H138.64V31.528ZM159.56 28.648V37.912H155.4V26.008H153.864V37.912H149.688V28.568H148.168V40.296H149.688V39.368H159.56V40.312H161.08V28.648H159.56ZM162.976 32.376V33.88H177.456V32.376H162.976ZM181.64 26.344V32.312C181.608 35.672 180.76 38.104 179.064 39.624L180.232 40.648C181.64 39.368 182.536 37.56 182.952 35.192H189.288V40.68H190.808V33.72H183.128C183.16 33.272 183.192 32.792 183.192 32.312V31.464H190.472V25.896H188.968V30.008H183.192V26.344H181.64ZM200.688 27.704V31.048C200.272 31.016 199.952 30.968 199.728 30.92C199.056 30.76 198.48 30.408 197.968 29.88C198.16 29.464 198.368 29.032 198.56 28.552L197.232 28.024C196.56 29.784 195.552 31.192 194.176 32.264L195.392 33.32C196.096 32.712 196.72 31.96 197.296 31.064C197.76 31.576 198.288 31.928 198.88 32.152C199.648 32.424 201.584 32.568 204.688 32.568H208.368L208.624 31.048C207.68 31.112 206.256 31.144 204.336 31.144C203.52 31.144 202.8 31.128 202.192 31.112V30.152H206.384V28.84H202.192V27.704H206.304C206.16 27.992 206 28.28 205.808 28.536L207.088 28.888C207.44 28.344 207.712 27.8 207.92 27.256V26.312H194.768V27.704H200.688ZM195.632 33.656V37.56H200.656V38.904C198.944 38.952 196.992 39 194.8 39.032L195.232 40.488C200.304 40.296 204.064 40.04 206.512 39.72C206.736 40.056 206.944 40.424 207.168 40.824L208.352 39.928C207.824 39.096 207.248 38.296 206.608 37.56H207.232V33.656H202.16V32.744H200.656V33.656H195.632ZM205.808 38.632C204.8 38.696 203.584 38.776 202.16 38.84V37.56H205.872L205.328 37.976C205.488 38.184 205.648 38.408 205.808 38.632ZM205.728 36.2H202.16V35.032H205.728V36.2ZM200.656 36.2H197.136V35.032H200.656V36.2ZM215.704 28.616V29.96H219.048V31.704H216.088V33.048H219.048V34.872H215.64V36.2H224.312V34.872H220.488V33.048H223.544V31.704H220.488V29.96H224.024V28.616H221.832C222.296 27.928 222.712 27.16 223.08 26.312L221.736 25.848C221.352 26.824 220.888 27.752 220.36 28.616H218.088L219.064 28.136C218.616 27.336 218.152 26.6 217.672 25.928L216.472 26.488C216.952 27.128 217.416 27.832 217.848 28.616H215.704ZM216.024 36.92C215.592 38.056 215.096 39.032 214.52 39.848L215.656 40.664C216.232 39.768 216.744 38.696 217.16 37.464L216.024 36.92ZM218.888 37.224L217.656 37.368C217.88 38.12 218.024 39.192 218.088 40.584L219.416 40.408C219.32 39.064 219.144 37.992 218.888 37.224ZM223.16 36.904L221.896 37.32C222.376 38.28 222.824 39.368 223.24 40.6L224.424 40.056C224.072 38.936 223.64 37.88 223.16 36.904ZM220.984 37.192L219.768 37.336C220.088 38.088 220.28 39.16 220.376 40.552L221.688 40.376C221.56 39.032 221.336 37.96 220.984 37.192ZM209.768 31.416V32.84H211.88V40.648H213.336V32.84H215.224V31.416H213.336V25.912H211.88V31.416H209.768ZM214.2 26.984C214.136 28.264 213.944 29.384 213.656 30.344L214.808 30.712C215.128 29.672 215.32 28.488 215.416 27.144L214.2 26.984ZM210.904 27.208L209.736 27.576C209.992 28.616 210.184 29.704 210.344 30.824L211.528 30.504C211.352 29.256 211.144 28.168 210.904 27.208ZM210.472 33.96C210.248 35.624 209.992 37 209.704 38.088L210.824 38.488C211.112 37.272 211.368 35.864 211.56 34.248L210.472 33.96ZM214.728 33.896L213.72 34.216C213.928 35.416 214.104 36.664 214.232 37.944L215.384 37.656C215.192 36.248 214.968 34.984 214.728 33.896Z" fill="#3179AA"/>
<g clip-path="url(#clip0_707_3560)">
<path d="M23.892 18H72.108C73.1641 18 74.185 18.2176 75.1195 18.6048C76.0796 19.0048 76.9469 19.5904 77.6734 20.3168L77.683 20.3264C78.4095 21.0528 78.9983 21.9232 79.3984 22.8832C79.7856 23.8176 80.0032 24.8352 80.0032 25.8944V74.1088C80.0032 75.168 79.7856 76.1888 79.3984 77.12C78.9951 78.0896 78.4095 78.96 77.6862 79.6832C76.9693 80.4 76.102 80.9856 75.1355 81.3888C74.2234 81.7696 73.2089 81.9872 72.1464 81.9904C72.124 82.0128 28.0076 81.9968 23.8952 81.9968C22.8391 81.9968 21.8214 81.7824 20.8869 81.392C19.9268 80.992 19.0595 80.4064 18.333 79.68C18.157 79.504 17.9906 79.3248 17.8306 79.136C17.2545 78.4352 16.7905 77.6384 16.48 76.7776C16.1664 75.9296 16 75.0304 16 74.1056V25.8912C16 24.832 16.2176 23.8112 16.6049 22.8768C17.0081 21.9072 17.5938 21.0368 18.317 20.3136C19.0403 19.5904 19.9108 19.0048 20.8805 18.6016C21.8118 18.2176 22.8327 18 23.892 18Z" fill="#DDDDDD"/>
<path fill-rule="evenodd" clip-rule="evenodd" d="M72.108 79.0532C57.2937 79.0532 44.1148 62.4964 20.6276 77.8148C21.5013 78.586 22.6438 79.0532 23.892 79.0532H72.108Z" fill="#B4DAA3"/>
<path fill-rule="evenodd" clip-rule="evenodd" d="M20.6277 77.8147C44.1148 62.4963 57.2937 79.0531 72.108 79.0531C74.8283 79.0531 77.0525 76.8291 77.0525 74.1091V63.5459C71.804 67.5683 67.2499 68.9507 62.9711 69.1299C61.0829 69.2067 59.2491 69.0531 57.4345 68.7843C46.8095 67.2163 36.7829 61.8435 20.1284 77.3059C20.282 77.4851 20.4485 77.6547 20.6277 77.8147Z" fill="#7D9F8B"/>
<path fill-rule="evenodd" clip-rule="evenodd" d="M20.1284 77.306C36.786 61.8436 46.8126 67.2164 57.4345 68.7812C43.5739 66.0004 37.5605 51.4436 18.9474 59.6068V74.106C18.9474 75.3252 19.3923 76.442 20.1284 77.306Z" fill="#3179AA"/>
<path fill-rule="evenodd" clip-rule="evenodd" d="M62.9711 64.8993H59.7355L62.9711 52.8193L66.2066 64.8993H62.9711ZM18.9475 59.6065C37.5605 51.4433 43.5739 66.0001 57.4345 68.7809C59.2491 69.0497 61.0829 69.2033 62.9711 69.1265C67.2499 68.9505 71.804 67.5681 77.0525 63.5425V55.8497L74.6458 53.4433L67.6275 46.4257L64.68 43.4817L61.2397 46.9281L54.3718 40.0609L48 33.6865L41.6249 40.0609L34.7571 46.9281L31.3135 43.4849L28.366 46.4289L21.6998 53.0977L18.9443 55.8529V59.6065H18.9475Z" fill="#00ADA2"/>
<path fill-rule="evenodd" clip-rule="evenodd" d="M62.9711 52.8193L59.7355 64.8993H62.9711H66.2066L62.9711 52.8193Z" fill="#D0E0D5"/>
<path fill-rule="evenodd" clip-rule="evenodd" d="M67.6307 46.4287L74.6458 53.4463L77.0525 55.8495L77.0493 46.4287H67.6307Z" fill="#F7C08A"/>
<path fill-rule="evenodd" clip-rule="evenodd" d="M67.6307 46.4285H77.0525L77.0461 40.0605H54.375L61.2397 46.9277L64.6832 43.4845L67.6307 46.4285Z" fill="#F9C304"/>
<path fill-rule="evenodd" clip-rule="evenodd" d="M54.375 40.0609H77.0525V33.6865H48L54.375 40.0609Z" fill="#FDAF27"/>
<path fill-rule="evenodd" clip-rule="evenodd" d="M41.6249 40.0609L48 33.6865H18.9474L18.9506 40.0609H41.6249Z" fill="#FDAF27"/>
<path fill-rule="evenodd" clip-rule="evenodd" d="M41.6249 40.0605H18.9474V46.4285H28.3692L31.3135 43.4845L34.757 46.9277L41.6249 40.0605Z" fill="#F9C304"/>
<path fill-rule="evenodd" clip-rule="evenodd" d="M28.3692 46.4287H18.9474V55.8495L21.6997 53.0975L28.3692 46.4287Z" fill="#F7C08A"/>
<path fill-rule="evenodd" clip-rule="evenodd" d="M18.9474 33.6862H48H77.0525V25.8942C77.0525 23.1742 74.8282 20.9502 72.108 20.9502H23.8919C21.1717 20.9502 18.9474 23.1742 18.9474 25.8942V33.6862Z" fill="#D0E0D5"/>
<path d="M23.892 19.9678H72.108C73.737 19.9678 75.2187 20.6334 76.2909 21.7086C77.3694 22.787 78.035 24.2686 78.035 25.8942V74.1086C78.035 75.7374 77.3694 77.2222 76.2941 78.2942C75.2187 79.3694 73.737 80.035 72.108 80.035H23.892C22.2663 80.035 20.7845 79.3694 19.7092 78.2942C18.6307 77.2158 17.965 75.7342 17.965 74.1086V25.8942C17.965 24.2654 18.6307 22.7806 19.706 21.7086C20.7781 20.6334 22.2631 19.9678 23.892 19.9678ZM63.9184 52.5662L67.1539 64.6462C67.2948 65.1678 66.9811 65.7054 66.4595 65.8462C66.3763 65.8686 66.2899 65.8782 66.2066 65.8782H63.9536V68.0606C67.6692 67.7214 71.6184 66.3742 76.07 63.0558V56.2558L64.6833 44.8702L61.9342 47.6222C61.5502 48.0062 60.9293 48.0062 60.5453 47.6222L48 35.075L35.4516 47.6222C35.0675 48.0062 34.4467 48.0062 34.0626 47.6222L31.3136 44.8702L19.9268 56.2558V58.1374C31.592 53.5454 38.3255 57.7534 45.3118 62.1214C49.0497 64.4606 52.8677 66.8478 57.5402 67.8046C59.0027 68.019 60.4813 68.1566 61.9854 68.1534V65.8782H59.7324C59.1915 65.8782 58.7499 65.4366 58.7499 64.8958C58.7499 64.787 58.7691 64.6814 58.8011 64.5854L62.0206 52.563C62.1614 52.0414 62.6991 51.7278 63.2207 51.8686C63.5728 51.9646 63.8288 52.2366 63.9184 52.5662ZM76.07 65.4686C66.8915 71.7854 59.79 70.3454 52.4613 68.8574C44.8765 67.3182 37.0325 65.7278 26.1354 73.603C39.2856 67.4718 49.1105 71.1646 58.1386 74.5598C62.9199 76.3582 67.4708 78.0702 72.1048 78.0702H72.1304C73.2089 78.0638 74.1914 77.619 74.9051 76.9054C75.622 76.1886 76.07 75.1966 76.07 74.1086V65.4686ZM62.0622 78.0702C60.5389 77.555 59.0059 76.979 57.4506 76.3934C47.8144 72.771 37.2342 68.7934 22.4711 77.8046C22.9127 77.9742 23.3928 78.0702 23.892 78.0702H62.0622ZM20.3141 75.8078C31.8768 65.4174 40.3033 64.8766 47.9808 66.0382C46.7167 65.3118 45.491 64.547 44.2749 63.7854C37.5798 59.5998 31.1343 55.5678 19.9268 60.2494V74.1054C19.93 74.7166 20.0676 75.2926 20.3141 75.8078ZM50.3715 34.6686L54.7815 39.0782H76.07V34.6686H50.3715ZM76.07 41.043H56.7433L61.2397 45.539L63.9888 42.7902C64.3697 42.4062 64.9905 42.4062 65.3746 42.787L68.034 45.4462H76.07V41.043ZM76.07 47.411H69.999L76.07 53.4814V47.411ZM19.93 53.4814L26.001 47.411H19.93V53.4814ZM19.93 45.4462H27.9628L30.6223 42.787C31.0095 42.4062 31.6304 42.4062 32.0112 42.7902L34.7603 45.539L39.2568 41.043H19.93V45.4462ZM19.93 39.0782H41.2185L45.6286 34.6686H19.93V39.0782ZM19.93 32.7038H76.07V25.8942C76.07 24.803 75.6252 23.811 74.9083 23.0942C74.1914 22.3774 73.1993 21.9326 72.108 21.9326H23.892C22.8039 21.9326 21.8118 22.3774 21.0949 23.0974C20.3749 23.8174 19.93 24.8062 19.93 25.8974V32.7038ZM64.9297 63.9166L62.9711 56.6078L61.0157 63.9166H64.9297Z" fill="#2E3B4F"/>
<path d="M24.6191 30H25.4658V27.2959H25.5127L27.4697 30H28.2021V25.7725H27.3555V28.4648H27.3086L25.3574 25.7725H24.6191V30Z" fill="#2E3B4F"/>
<path d="M28.9287 30H29.8574L30.1709 28.9746H31.6621L31.9756 30H32.9072L31.4365 25.7725H30.3965L28.9287 30ZM30.8916 26.6162H30.9443L31.46 28.3125H30.373L30.8916 26.6162Z" fill="#2E3B4F"/>
<path d="M34.1934 30H35.0781V26.502H36.3467V25.7725H32.9248V26.502H34.1934V30Z" fill="#2E3B4F"/>
<path d="M38.8984 30.1084C39.9883 30.1084 40.668 29.4785 40.668 28.541V25.7725H39.7832V28.4619C39.7832 29.0098 39.4668 29.3584 38.8984 29.3584C38.3301 29.3584 38.0107 29.0098 38.0107 28.4619V25.7725H37.126V28.541C37.126 29.4814 37.8145 30.1084 38.8984 30.1084Z" fill="#2E3B4F"/>
<path d="M41.6934 30H42.5781V28.4531H43.3018L44.0898 30H45.0918L44.2012 28.3213C44.6846 28.1309 44.9658 27.665 44.9658 27.123V27.1172C44.9658 26.2852 44.415 25.7725 43.4541 25.7725H41.6934V30ZM42.5781 27.8086V26.4639H43.3457C43.7881 26.4639 44.0605 26.7275 44.0605 27.1348V27.1406C44.0605 27.5566 43.7998 27.8086 43.3574 27.8086H42.5781Z" fill="#2E3B4F"/>
<path d="M45.8594 30H48.6602V29.2705H46.7441V28.2012H48.5518V27.5215H46.7441V26.502H48.6602V25.7725H45.8594V30Z" fill="#2E3B4F"/>
<path d="M51.1387 30H53.9043V29.2705H52.0234V25.7725H51.1387V30Z" fill="#2E3B4F"/>
<path d="M56.4385 30.1084C57.6865 30.1084 58.4717 29.2529 58.4717 27.8877V27.8818C58.4717 26.5166 57.6836 25.6641 56.4385 25.6641C55.1934 25.6641 54.4023 26.5137 54.4023 27.8818V27.8877C54.4023 29.2529 55.1816 30.1084 56.4385 30.1084ZM56.4385 29.3584C55.7412 29.3584 55.3047 28.7812 55.3047 27.8877V27.8818C55.3047 26.9854 55.75 26.4141 56.4385 26.4141C57.124 26.4141 57.5693 26.9854 57.5693 27.8818V27.8877C57.5693 28.7812 57.127 29.3584 56.4385 29.3584Z" fill="#2E3B4F"/>
<path d="M60.2852 30H61.375L62.7842 25.7725H61.7881L60.8564 29.0156H60.8037L59.8691 25.7725H58.876L60.2852 30Z" fill="#2E3B4F"/>
<path d="M63.5078 30H66.3086V29.2705H64.3926V28.2012H66.2002V27.5215H64.3926V26.502H66.3086V25.7725H63.5078V30Z" fill="#2E3B4F"/>
<path d="M67.2402 30H68.125V28.4531H68.8486L69.6367 30H70.6387L69.748 28.3213C70.2314 28.1309 70.5127 27.665 70.5127 27.123V27.1172C70.5127 26.2852 69.9619 25.7725 69.001 25.7725H67.2402V30ZM68.125 27.8086V26.4639H68.8926C69.335 26.4639 69.6074 26.7275 69.6074 27.1348V27.1406C69.6074 27.5566 69.3467 27.8086 68.9043 27.8086H68.125Z" fill="#2E3B4F"/>
</g>
<path d="M340.304 50.0645C340.304 49.8936 340.235 49.7363 340.105 49.6133L334.691 44.3086C334.568 44.1924 334.418 44.1309 334.24 44.1309C333.892 44.1309 333.618 44.3975 333.618 44.7529C333.618 44.9238 333.687 45.0811 333.796 45.1973L338.772 50.0645L333.796 54.9316C333.687 55.0479 333.618 55.1982 333.618 55.376C333.618 55.7314 333.892 55.998 334.24 55.998C334.418 55.998 334.568 55.9365 334.691 55.8135L340.105 50.5156C340.235 50.3857 340.304 50.2354 340.304 50.0645Z" fill="#696969"/>
<defs>
<clipPath id="clip0_707_3560">
<rect width="64" height="64" fill="white" transform="translate(16 18)"/>
</clipPath>
</defs>
</svg>
