<svg width="358" height="100" viewBox="0 0 358 100" fill="none" xmlns="http://www.w3.org/2000/svg">
<path d="M0 8C0 3.58172 3.58172 0 8 0H350C354.418 0 358 3.58172 358 8V92C358 96.4183 354.418 100 350 100H8C3.58173 100 0 96.4183 0 92V8Z" fill="white"/>
<path d="M101.12 56.056H108.98V55.228H101.588C101.732 54.94 101.876 54.628 102.02 54.316L101.144 54.112C100.484 55.624 99.644 56.836 98.612 57.772L99.164 58.444C99.908 57.772 100.556 56.968 101.12 56.056ZM103.052 60.868L102.656 61.432C103.472 61.72 104.276 62.116 105.068 62.62L105.476 61.996C104.744 61.552 103.94 61.18 103.052 60.868ZM99.992 63.484H107C106.976 63.652 106.964 63.772 106.94 63.82C106.832 64.084 106.664 64.264 106.448 64.348C106.232 64.408 105.98 64.444 105.692 64.444C105.236 64.444 104.72 64.42 104.144 64.396L104.408 65.2C104.936 65.2 105.416 65.188 105.824 65.188C106.4 65.188 106.844 65.104 107.132 64.936C107.444 64.744 107.648 64.468 107.756 64.096C107.78 64 107.816 63.796 107.84 63.484H109.22V62.68H107.9C107.924 62.152 107.96 61.468 107.996 60.628H109.544V59.812H108.032L108.116 57.052H100.664C100.64 57.976 100.592 58.9 100.508 59.812H98.48V60.628H100.424C100.316 61.588 100.172 62.548 99.992 63.484ZM107.072 62.68H100.988C101.108 62.056 101.204 61.372 101.288 60.628H107.168C107.132 61.468 107.096 62.152 107.072 62.68ZM101.372 59.812C101.42 59.2 101.456 58.552 101.48 57.856H107.252C107.228 58.564 107.216 59.212 107.192 59.812H105.152L105.548 59.212C104.828 58.768 104.024 58.396 103.148 58.084L102.752 58.66C103.544 58.948 104.336 59.332 105.104 59.812H101.372ZM113.348 58.408H118.472V60.568H113.348V58.408ZM118.472 57.604H113.348V55.504H118.472V57.604ZM113.3 61.372H118.472V63.76C118.472 64.108 118.328 64.288 118.052 64.288C117.596 64.288 117.092 64.264 116.54 64.24L116.78 65.092H118.328C119 65.092 119.348 64.744 119.348 64.06V54.676H112.472V60.532C112.448 62.188 112.052 63.556 111.26 64.636L111.92 65.236C112.7 64.216 113.156 62.932 113.3 61.372ZM123.14 65.116C123.812 65.116 124.148 64.744 124.148 64.024V60.424C124.412 60.292 124.688 60.16 124.952 60.016L125.312 60.58C125.864 60.316 126.404 60.004 126.908 59.644V60.136H130.844V59.692C131.276 60.004 131.768 60.292 132.32 60.58L132.788 59.86C131.108 59.032 129.932 58.084 129.248 57.004H128.552C127.736 58.072 126.608 58.96 125.168 59.668V59.068C124.832 59.26 124.484 59.428 124.148 59.596V57.316H125.144V56.488H124.148V54.268H123.308V56.488H121.868V57.316H123.308V59.956C122.768 60.172 122.216 60.352 121.652 60.496L121.868 61.312C122.348 61.156 122.828 60.988 123.308 60.796V63.808C123.308 64.168 123.152 64.36 122.852 64.36C122.564 64.36 122.252 64.336 121.94 64.3L122.12 65.116H123.14ZM130.424 59.368H127.268C127.856 58.888 128.396 58.336 128.9 57.7C129.284 58.3 129.8 58.852 130.424 59.368ZM131.636 61.216H126.236V65.14H127.076V64.552H130.796V65.14H131.636V61.216ZM127.076 63.748V62.008H130.796V63.748H127.076ZM125.18 55.264V56.032H126.74V57.088H127.532V56.032H128.492V55.264H127.532V54.184H126.74V55.264H125.18ZM130.172 54.184V55.264H129.2V56.032H130.172V57.088H130.964V56.032H132.512V55.264H130.964V54.184H130.172ZM133.484 56.404V57.196H138.344V60.364C137.168 61.708 135.5 62.86 133.352 63.808L133.88 64.6C135.632 63.76 137.12 62.692 138.344 61.408V65.212H139.208V61.396C140.48 62.74 141.98 63.796 143.732 64.588L144.212 63.76C142.148 62.944 140.48 61.804 139.208 60.352V57.196H144.056V56.404H139.208V55.36C140.624 55.264 141.86 55.108 142.916 54.904L142.508 54.184C140.372 54.544 137.684 54.736 134.456 54.736L134.72 55.504C136.016 55.504 137.228 55.468 138.344 55.408V56.404H133.484ZM136.268 57.616V58.396H133.868V59.152H136.268V60.148C135.452 60.292 134.564 60.412 133.616 60.532L133.844 61.324C135.332 61.084 136.652 60.832 137.78 60.568V59.872C137.564 59.908 137.336 59.956 137.108 60.004V57.616H136.268ZM140.396 57.64V60.196C140.396 60.784 140.744 61.084 141.464 61.084H143.756V60.328H141.704C141.392 60.328 141.236 60.22 141.236 60.004V59.2L143.708 59.008V58.252L141.236 58.444V57.64H140.396ZM154.376 60.208H146.36V65.212H147.236V64.612H153.5V65.212H154.376V60.208ZM147.236 63.784V61.036H153.5V63.784H147.236ZM145.508 58.972C148.628 58.852 151.448 58.684 153.98 58.456C154.268 58.912 154.568 59.38 154.868 59.884L155.708 59.476C154.82 58.024 153.86 56.692 152.828 55.492L152.048 55.864C152.528 56.416 152.996 57.028 153.452 57.676C151.388 57.868 149.204 58.024 146.9 58.12C147.98 57.232 149.072 56.008 150.152 54.472L149.264 54.172C147.704 56.464 146.396 57.796 145.34 58.156L145.508 58.972ZM159.92 54.232V57.556H156.812V58.384H159.92V63.508C158.84 63.76 157.736 63.964 156.596 64.108L156.8 64.924C158.576 64.636 160.22 64.288 161.756 63.856V63.028C161.444 63.124 161.12 63.208 160.784 63.292V54.232H159.92ZM165.656 64.744C166.256 64.744 166.676 64.612 166.904 64.348C167.132 64.084 167.288 63.328 167.36 62.08L166.568 61.804C166.52 62.86 166.412 63.484 166.268 63.664C166.112 63.832 165.86 63.928 165.512 63.928H164.276C163.928 63.928 163.76 63.784 163.76 63.496V58.48L167.06 58.252V57.436L163.76 57.652V54.232H162.896V63.616C162.896 64.36 163.292 64.744 164.084 64.744H165.656ZM178.064 60.928V59.176H178.844V58.432H178.064V56.692H175.7V55.804H178.736V55.048H175.7V54.208H174.872V55.048H172.088V55.804H174.872V56.692H172.64V57.436H174.872V58.432H172.16V59.176H174.872V60.184H172.556V60.928H174.872V63.964C174.728 63.916 174.608 63.88 174.488 63.832C174.032 63.628 173.624 63.172 173.264 62.452C173.324 62.176 173.384 61.876 173.432 61.54L172.628 61.42C172.436 62.824 171.98 63.928 171.26 64.72L171.956 65.2C172.388 64.72 172.748 64.096 173.024 63.304C173.36 63.916 173.744 64.336 174.164 64.552C174.692 64.816 175.7 64.96 177.188 64.972C177.668 64.984 178.196 64.996 178.796 64.996L179.048 64.12C178.52 64.156 177.884 64.18 177.128 64.18C176.588 64.18 176.108 64.156 175.7 64.108V62.764H178.34V62.008H175.7V60.928H178.064ZM175.7 57.436H177.284V58.432H175.7V57.436ZM177.284 59.176V60.184H175.7V59.176H177.284ZM169.568 65.068C170.24 65.068 170.576 64.732 170.576 64.06V60.448C170.96 60.256 171.356 60.052 171.752 59.836V58.972C171.368 59.188 170.984 59.404 170.576 59.596V57.232H171.86V56.404H170.576V54.22H169.712V56.404H168.236V57.232H169.712V59.98C169.172 60.196 168.62 60.376 168.068 60.52L168.284 61.384C168.764 61.216 169.232 61.036 169.712 60.844V63.844C169.712 64.144 169.556 64.3 169.268 64.3C168.968 64.3 168.656 64.276 168.332 64.24L168.512 65.068H169.568ZM190.22 54.664H183.176V56.572H183.86V56.98H186.308V57.688H183.74V61.216H186.308V61.972H183.104V62.692H186.308V63.88H187.136V62.692H190.34V61.972H187.136V61.216H189.692V57.688H187.136V56.98H189.596V56.524H190.22V54.664ZM184.004 56.296V55.372H186.308V56.296H184.004ZM187.136 55.372H189.392V56.296H187.136V55.372ZM188.864 60.556H187.136V59.776H188.864V60.556ZM186.308 60.556H184.58V59.776H186.308V60.556ZM184.58 59.152V58.36H186.308V59.152H184.58ZM187.136 58.36H188.864V59.152H187.136V58.36ZM180.668 54.304L180.104 54.844C180.884 55.468 181.496 56.044 181.952 56.584L182.516 56.02C182.012 55.444 181.388 54.88 180.668 54.304ZM179.816 57.196V57.988H181.616C181.208 58.66 180.692 59.332 180.092 60.016V60.676H181.88C181.724 61.456 181.52 62.164 181.256 62.788C180.752 62.932 180.212 63.532 179.66 64.612L180.296 65.176C180.824 64.12 181.232 63.592 181.52 63.592C181.616 63.592 181.724 63.628 181.82 63.712C182.228 64.12 182.684 64.432 183.188 64.624C183.632 64.804 184.268 64.9 185.096 64.924C185.792 64.948 186.608 64.96 187.52 64.96H190.448L190.64 64.132C189.32 64.18 188.24 64.204 187.412 64.204C186.56 64.204 185.804 64.192 185.144 64.192C184.448 64.168 183.908 64.084 183.512 63.94C183.116 63.76 182.732 63.496 182.348 63.148C182.24 63.052 182.132 62.968 182.036 62.92C182.3 62.272 182.516 61.48 182.696 60.52V59.944H181.112C181.664 59.272 182.144 58.588 182.576 57.88V57.196H179.816ZM196.916 59.704V63.436H201.524V59.704H196.916ZM200.732 62.68H197.684V60.472H200.732V62.68ZM191.744 55.816V56.584H193.568V58.36H191.6V59.152H193.82V63.208C193.412 62.86 193.052 62.392 192.74 61.804C192.812 61.228 192.86 60.628 192.884 60.004L192.14 59.92C192.092 61.648 191.792 63.22 191.264 64.612L191.888 65.176C192.176 64.468 192.392 63.712 192.56 62.896C193.064 63.652 193.652 64.18 194.3 64.48C195.044 64.816 196.916 64.996 199.904 64.996H202.04L202.184 64.132C201.644 64.156 200.816 64.168 199.712 64.18C197.168 64.18 195.536 64.048 194.828 63.808C194.768 63.784 194.708 63.76 194.636 63.724V61.636H196.184V60.844H194.636V59.152H196.172V58.36H194.396V56.584H196.196V55.816H194.396V54.184H193.568V55.816H191.744ZM198.26 55.576C198.14 56.248 197.948 56.788 197.696 57.208C197.408 57.664 196.976 58.084 196.4 58.468L196.964 59.176C197.612 58.72 198.104 58.192 198.44 57.604C198.704 57.1 198.908 56.428 199.064 55.576H200.864C200.852 56.812 200.792 57.568 200.696 57.856C200.6 58.156 200.372 58.312 200 58.324L199.124 58.264L199.34 59.02C199.676 59.044 199.952 59.068 200.192 59.068C200.744 59.068 201.128 58.864 201.344 58.456C201.572 58.048 201.692 56.824 201.692 54.784H196.604V55.576H198.26ZM211.712 56.368H209.456V58.12H208.136V55.348H211.712V56.368ZM210.176 58.12V57.04H211.712V58.12H210.176ZM212.54 58.12V54.592H207.32V58.12H206.492V63.436H207.332V58.888H212.552V62.428C212.552 62.668 212.408 62.8 212.12 62.8L211.088 62.764L211.292 63.496H212.36C213.032 63.496 213.38 63.196 213.38 62.608V58.12H212.54ZM203.912 54.328L203.348 54.88C204.14 55.48 204.764 56.044 205.232 56.572L205.784 56.008C205.28 55.456 204.656 54.892 203.912 54.328ZM203 57.196V57.988H204.836C204.404 58.66 203.876 59.332 203.252 60.016V60.676H205.088C204.932 61.456 204.716 62.164 204.452 62.788C203.948 62.932 203.408 63.532 202.844 64.612L203.48 65.176C204.02 64.12 204.44 63.592 204.728 63.592C204.824 63.592 204.932 63.628 205.028 63.712C205.436 64.12 205.88 64.432 206.384 64.624C206.816 64.804 207.44 64.9 208.256 64.924C208.952 64.948 209.756 64.96 210.656 64.96H213.704L213.896 64.132C212.528 64.18 211.412 64.204 210.548 64.204C209.708 64.204 208.952 64.192 208.304 64.192C207.62 64.168 207.08 64.084 206.696 63.94C206.3 63.76 205.916 63.496 205.544 63.148C205.448 63.052 205.34 62.98 205.244 62.92C205.508 62.272 205.724 61.48 205.904 60.52V59.944H204.284C204.86 59.272 205.364 58.588 205.796 57.88V57.196H203ZM208.352 59.572V62.128H211.496V59.572H208.352ZM210.764 61.456H209.084V60.244H210.764V61.456ZM217.64 55.264C216.776 55.264 216.068 55.552 215.54 56.128C215.012 56.692 214.736 57.46 214.736 58.42H215.72C215.732 57.664 215.912 57.088 216.248 56.704C216.56 56.296 217.016 56.104 217.604 56.104C218.156 56.104 218.6 56.248 218.912 56.536C219.224 56.824 219.38 57.22 219.38 57.748C219.38 58.3 219.152 58.816 218.72 59.284C218.492 59.524 218.048 59.872 217.376 60.352C216.464 60.976 215.852 61.492 215.516 61.876C214.94 62.512 214.664 63.22 214.664 64H220.376V63.124H215.876C216.032 62.548 216.656 61.888 217.748 61.156C218.636 60.556 219.224 60.088 219.524 59.776C220.076 59.176 220.364 58.504 220.364 57.76C220.364 57.016 220.1 56.404 219.596 55.948C219.08 55.492 218.432 55.264 217.64 55.264ZM224.307 55.264C223.275 55.264 222.507 55.708 221.991 56.62C221.535 57.388 221.307 58.42 221.307 59.716C221.307 61.012 221.535 62.044 221.991 62.812C222.507 63.712 223.275 64.168 224.307 64.168C225.327 64.168 226.095 63.712 226.623 62.812C227.079 62.044 227.307 61.012 227.307 59.716C227.307 58.42 227.079 57.388 226.623 56.62C226.095 55.708 225.327 55.264 224.307 55.264ZM224.307 56.104C225.075 56.104 225.627 56.512 225.963 57.34C226.203 57.916 226.335 58.708 226.335 59.716C226.335 60.712 226.203 61.504 225.963 62.092C225.627 62.908 225.075 63.328 224.307 63.328C223.539 63.328 222.987 62.908 222.651 62.092C222.411 61.504 222.291 60.712 222.291 59.716C222.291 58.708 222.411 57.916 222.651 57.34C222.987 56.512 223.539 56.104 224.307 56.104ZM233.363 56.824H237.647C237.407 57.76 237.107 58.6 236.735 59.344L237.587 59.584C237.995 58.588 238.319 57.58 238.571 56.56V55.996H233.603C233.735 55.468 233.855 54.892 233.951 54.268L233.087 54.136C232.799 56.272 232.139 57.94 231.107 59.14L231.827 59.644C232.463 58.924 232.979 57.988 233.363 56.824ZM234.587 57.64C234.563 59.212 234.359 60.508 233.951 61.528C233.411 62.728 232.307 63.736 230.651 64.54L231.215 65.224C233.087 64.3 234.287 63.112 234.815 61.672C234.911 61.42 234.995 61.156 235.067 60.868C235.835 62.596 236.975 64.048 238.499 65.2L239.063 64.54C237.287 63.316 236.039 61.648 235.319 59.536C235.391 58.948 235.427 58.312 235.427 57.64H234.587ZM228.287 56.404V57.232H231.431V56.404H228.287ZM231.671 60.988L227.999 61.24V62.092L231.671 61.828V60.988ZM245.075 58.852C244.835 58.852 244.643 58.912 244.511 59.056C244.367 59.188 244.295 59.368 244.295 59.596C244.295 59.8 244.355 59.98 244.499 60.124C244.643 60.268 244.811 60.34 245.015 60.34C245.135 60.34 245.231 60.316 245.279 60.292C245.279 60.58 245.195 60.844 245.027 61.096C244.823 61.336 244.571 61.516 244.259 61.624V62.212C244.763 62.08 245.183 61.816 245.495 61.432C245.807 61.024 245.963 60.556 245.963 60.028C245.963 59.68 245.879 59.404 245.723 59.188C245.555 58.96 245.339 58.852 245.075 58.852ZM252.743 57.412V60.88H253.583V56.284C253.967 55.696 254.315 55.06 254.627 54.364L253.787 54.184C253.091 55.708 252.191 56.932 251.111 57.868L251.663 58.528C252.047 58.192 252.407 57.82 252.743 57.412ZM256.487 54.172C255.923 55.432 255.191 56.452 254.303 57.244L254.831 57.892C255.407 57.364 255.923 56.764 256.379 56.068H260.807C260.675 56.548 260.507 56.98 260.303 57.376L261.083 57.58C261.323 57.004 261.515 56.416 261.671 55.816V55.276H256.859C257.003 54.988 257.159 54.676 257.303 54.352L256.487 54.172ZM252.527 61.492C252.299 62.476 251.939 63.388 251.447 64.216L252.167 64.684C252.683 63.832 253.079 62.824 253.367 61.66L252.527 61.492ZM258.395 65.02C258.851 65.02 259.175 64.924 259.391 64.732C259.631 64.504 259.799 63.868 259.883 62.812L259.067 62.548C259.019 63.34 258.923 63.82 258.779 63.988C258.671 64.132 258.491 64.204 258.239 64.204H255.611C255.299 64.204 255.143 64.024 255.143 63.688V61.336H254.267V63.868C254.267 64.636 254.627 65.02 255.347 65.02H258.395ZM260.483 61.12L259.775 61.552C260.519 62.584 261.095 63.532 261.527 64.396L262.247 63.892C261.839 63.1 261.251 62.176 260.483 61.12ZM256.163 57.772C255.731 58.636 255.215 59.392 254.615 60.04L255.275 60.496C255.875 59.824 256.403 59.02 256.859 58.096L256.163 57.772ZM260.183 57.76L259.451 58.072C259.991 58.792 260.483 59.608 260.939 60.544L261.671 60.172C261.239 59.284 260.735 58.48 260.183 57.76ZM256.763 61.012L256.091 61.432C256.667 62.104 257.123 62.728 257.459 63.28L258.143 62.812C257.831 62.296 257.363 61.696 256.763 61.012ZM257.711 56.632V60.904H258.575V56.632H257.711ZM263.411 55.072V55.828H267.863C267.815 56.092 267.755 56.356 267.695 56.62H264.743V62.272H262.967V63.052H266.495C265.655 63.652 264.575 64.132 263.255 64.504L263.615 65.236C264.983 64.816 266.111 64.276 267.023 63.628L266.519 63.052H269.951L269.567 63.628C270.731 64.012 271.859 64.552 272.963 65.248L273.407 64.564C272.387 63.976 271.247 63.472 269.999 63.052H273.575V62.272H271.991V56.62H268.571C268.631 56.356 268.691 56.092 268.739 55.828H273.131V55.072H268.871C268.907 54.808 268.943 54.544 268.967 54.28L268.091 54.16L267.983 55.072H263.411ZM265.571 62.272V61.504H271.163V62.272H265.571ZM265.571 60.844V60.112H271.163V60.844H265.571ZM265.571 59.464V58.732H271.163V59.464H265.571ZM265.571 58.072V57.316H271.163V58.072H265.571ZM276.263 54.604V58.768H283.559V54.604H276.263ZM282.707 58.036H277.115V57.052H282.707V58.036ZM277.115 56.344V55.348H282.707V56.344H277.115ZM279.563 60.448V64.036C279.311 63.988 279.095 63.928 278.903 63.868C278.279 63.64 277.703 63.112 277.199 62.272C277.355 61.876 277.487 61.456 277.607 61.012L276.791 60.868C276.395 62.368 275.639 63.568 274.535 64.456L275.099 65.164C275.819 64.576 276.419 63.844 276.887 62.956C277.367 63.748 277.919 64.276 278.531 64.552C279.239 64.852 280.583 65.008 282.563 65.008C283.247 65.02 284.015 65.032 284.879 65.032L285.119 64.216C284.411 64.24 283.535 64.252 282.503 64.252C281.711 64.252 281.015 64.216 280.439 64.168V62.572H283.895V61.804H280.439V60.448H285.179V59.656H274.559V60.448H279.563ZM292.799 60.436C293.195 60.436 293.483 60.376 293.675 60.256C293.891 60.112 294.023 59.716 294.095 59.068L293.303 58.816C293.255 59.26 293.183 59.524 293.087 59.62C292.991 59.692 292.847 59.728 292.643 59.728H290.459C290.207 59.728 290.087 59.596 290.087 59.344V58.048H289.259V59.524C289.259 60.076 289.535 60.376 290.087 60.424C289.787 60.784 289.403 61.12 288.935 61.456C288.659 61.228 288.395 61 288.143 60.76L287.531 61.192C287.759 61.42 287.999 61.648 288.263 61.864C287.783 62.128 287.231 62.368 286.607 62.608L287.123 63.292C287.771 63.004 288.371 62.704 288.899 62.38C289.451 62.8 290.027 63.184 290.651 63.52C289.391 63.904 287.843 64.192 286.007 64.408L286.331 65.224C288.455 64.936 290.219 64.516 291.635 63.988C293.135 64.648 294.827 65.056 296.711 65.2L296.927 64.372C295.403 64.264 293.999 63.976 292.703 63.52C293.687 63.04 294.419 62.464 294.911 61.804V61.18H290.399C290.627 60.94 290.831 60.7 291.011 60.436H292.799ZM291.719 63.136C290.951 62.8 290.231 62.392 289.559 61.924C289.571 61.9 289.595 61.888 289.619 61.876H293.807C293.303 62.356 292.607 62.776 291.719 63.136ZM294.743 58.096L294.107 58.504C294.755 59.296 295.283 60.016 295.667 60.676L296.387 60.172C296.003 59.584 295.463 58.888 294.743 58.096ZM291.227 57.7L290.699 58.204C291.251 58.6 291.695 58.972 292.019 59.332L292.559 58.78C292.199 58.42 291.755 58.06 291.227 57.7ZM287.975 58.24C287.663 59.032 287.207 59.668 286.595 60.148L287.207 60.688C287.831 60.184 288.323 59.464 288.707 58.528L287.975 58.24ZM296.447 56.788H294.551C294.767 56.476 294.959 56.116 295.139 55.72L294.311 55.432C294.119 55.9 293.891 56.356 293.639 56.788H291.971C291.839 56.392 291.707 56.032 291.563 55.708L290.723 55.852C290.867 56.128 290.999 56.44 291.119 56.788H289.091C288.971 56.428 288.839 56.104 288.695 55.804L287.855 55.936C287.999 56.2 288.119 56.476 288.239 56.788H286.463V58.876H287.303V57.556H295.607V58.876H296.447V56.788ZM295.715 54.256C293.327 54.616 290.327 54.796 286.715 54.808L286.967 55.54C290.771 55.54 293.819 55.336 296.123 54.952L295.715 54.256ZM105.704 72.196V75.244L104.168 75.7V73.42H103.34V75.952L102.476 76.204V77.044L103.34 76.792V81.712C103.34 82.552 103.712 82.984 104.48 82.984H107.984C108.44 82.984 108.764 82.864 108.98 82.636C109.22 82.372 109.376 81.616 109.46 80.38L108.656 80.128C108.608 81.112 108.524 81.712 108.38 81.916C108.272 82.084 108.092 82.168 107.828 82.168H104.744C104.36 82.168 104.168 81.952 104.168 81.544V76.54L105.704 76.084V80.62H106.532V75.844L108.224 75.34C108.116 76.564 107.948 77.692 107.72 78.748L108.512 78.988C108.848 77.32 109.028 75.736 109.052 74.248L106.532 74.992V72.196H105.704ZM98.636 75.436V76.276H100.052V80.512C99.536 80.656 99.008 80.788 98.48 80.908L98.696 81.772C100.064 81.412 101.324 80.968 102.5 80.44V79.588C101.984 79.828 101.456 80.032 100.916 80.224V76.276H102.26V75.436H100.916V72.244H100.052V75.436H98.636ZM110.204 73.012V73.816H111.704V76.624H110.324V77.44H111.704V80.224C111.152 80.416 110.6 80.572 110.024 80.704L110.24 81.568C111.596 81.16 112.856 80.656 114.032 80.056V79.216C113.552 79.456 113.072 79.684 112.592 79.888V77.44H113.756V76.624H112.592V73.816H114.008V73.012H110.204ZM114.188 74.272V75.112H116.912V81.892C116.912 82.18 116.756 82.336 116.468 82.336C116.072 82.336 115.664 82.312 115.244 82.276L115.412 83.092H116.756C117.416 83.092 117.752 82.756 117.752 82.108V78.148C118.412 79.744 119.336 81.1 120.512 82.228L121.076 81.556C120.152 80.728 119.384 79.756 118.772 78.652C119.372 78.052 119.948 77.308 120.524 76.42L119.876 75.94C119.42 76.66 118.928 77.32 118.4 77.92C118.148 77.392 117.932 76.84 117.752 76.264V75.112H120.596V74.272H119.876L120.356 73.78C119.948 73.312 119.432 72.844 118.82 72.376L118.328 72.856C118.928 73.348 119.408 73.816 119.792 74.272H117.752V72.22H116.912V74.272H114.188ZM114.884 76.072L114.212 76.492C114.776 77.236 115.22 77.908 115.556 78.52L116.156 78.1C115.856 77.524 115.436 76.84 114.884 76.072ZM116.204 78.88C115.46 79.792 114.56 80.572 113.528 81.196L113.876 82C114.884 81.304 115.724 80.5 116.396 79.612L116.204 78.88ZM126.032 74.272H124.1C124.34 73.672 124.52 73.012 124.664 72.304L123.8 72.184C123.692 72.904 123.524 73.6 123.284 74.272H122.168V82.804H123.008V81.772H125.192V82.456H126.032V74.272ZM123.008 80.968V78.34H125.192V80.968H123.008ZM123.008 77.56V75.088H125.192V77.56H123.008ZM128.12 77.056L127.424 77.488C128.252 78.472 128.912 79.36 129.404 80.152L130.088 79.672C129.632 78.928 128.984 78.052 128.12 77.056ZM132.236 74.284H128.408C128.624 73.66 128.792 72.988 128.936 72.28L128.084 72.172C127.772 73.876 127.208 75.316 126.368 76.492L126.884 77.176C127.352 76.564 127.748 75.88 128.084 75.124H131.384C131.36 78.58 131.312 80.656 131.24 81.328C131.144 81.94 130.82 82.252 130.256 82.252C129.884 82.252 129.452 82.24 128.948 82.216L129.152 83.008C129.728 83.032 130.136 83.056 130.376 83.056C131.384 83.056 131.936 82.588 132.056 81.676C132.176 80.74 132.236 78.268 132.236 74.284ZM139.664 74.752H140.672V75.352H138.548V75.916H140.672V76.672H139.592V76.204H138.896V77.188H143.24V76.204H142.544V76.672H141.464V75.916H143.492V75.352H141.464V74.752H142.916V74.212H139.952C140 74.092 140.036 73.96 140.072 73.816L139.412 73.708C139.28 74.224 138.992 74.632 138.56 74.932L139.088 75.316C139.304 75.16 139.496 74.968 139.664 74.752ZM143.852 72.868H139.208C139.088 72.58 138.968 72.328 138.848 72.1L137.984 72.244C138.104 72.436 138.224 72.64 138.332 72.868H133.7V74.632H134.372V74.704H135.896V75.328H134.588V75.904H135.896V76.588L134.144 76.624L134.24 77.26C136.016 77.212 137.36 77.14 138.26 77.056V76.456C137.792 76.492 137.264 76.528 136.664 76.552V75.904H137.96V75.328H136.664V74.704H138.2V74.116H134.504V73.528H143.06V74.632H143.852V72.868ZM135.044 77.68V81.772H142.568V77.68H135.044ZM141.74 81.16H135.872V80.5H141.74V81.16ZM135.872 79.972V79.36H141.74V79.972H135.872ZM135.872 78.832V78.244H141.74V78.832H135.872ZM140.108 81.832L139.856 82.324C141.236 82.54 142.568 82.852 143.84 83.248L144.104 82.612C142.832 82.264 141.5 82 140.108 81.832ZM137.276 81.784C136.388 82.132 135.104 82.42 133.412 82.648L133.76 83.248C135.452 83.008 136.748 82.684 137.66 82.288L137.276 81.784ZM151.256 74.752H152.264V75.352H150.14V75.916H152.264V76.672H151.184V76.204H150.488V77.188H154.832V76.204H154.136V76.672H153.056V75.916H155.084V75.352H153.056V74.752H154.508V74.212H151.544C151.592 74.092 151.628 73.96 151.664 73.816L151.004 73.708C150.872 74.224 150.584 74.632 150.152 74.932L150.68 75.316C150.896 75.16 151.088 74.968 151.256 74.752ZM155.444 72.868H150.8C150.68 72.58 150.56 72.328 150.44 72.1L149.576 72.244C149.696 72.436 149.816 72.64 149.924 72.868H145.292V74.632H145.964V74.704H147.488V75.328H146.18V75.904H147.488V76.588L145.736 76.624L145.832 77.26C147.608 77.212 148.952 77.14 149.852 77.056V76.456C149.384 76.492 148.856 76.528 148.256 76.552V75.904H149.552V75.328H148.256V74.704H149.792V74.116H146.096V73.528H154.652V74.632H155.444V72.868ZM146.636 77.68V81.772H154.16V77.68H146.636ZM153.332 81.16H147.464V80.5H153.332V81.16ZM147.464 79.972V79.36H153.332V79.972H147.464ZM147.464 78.832V78.244H153.332V78.832H147.464ZM151.7 81.832L151.448 82.324C152.828 82.54 154.16 82.852 155.432 83.248L155.696 82.612C154.424 82.264 153.092 82 151.7 81.832ZM148.868 81.784C147.98 82.132 146.696 82.42 145.004 82.648L145.352 83.248C147.044 83.008 148.34 82.684 149.252 82.288L148.868 81.784ZM161.408 73.432L161.588 79.696H162.332L162.524 73.432H161.408ZM161.96 80.572C161.756 80.572 161.588 80.632 161.444 80.776C161.3 80.908 161.24 81.076 161.24 81.28C161.24 81.484 161.3 81.652 161.444 81.796C161.588 81.928 161.756 82 161.96 82C162.164 82 162.344 81.928 162.488 81.796C162.62 81.664 162.692 81.496 162.692 81.28C162.692 81.076 162.62 80.908 162.488 80.776C162.344 80.632 162.164 80.572 161.96 80.572Z" fill="#3C3C43" fill-opacity="0.6"/>
<path d="M108.728 35.72V38.92H105.208V40.28H113.64V38.92H110.248V35.72H113.224V34.344H105.848V35.72H108.728ZM105.576 26.456V27.832H113.432V26.456H105.576ZM106.824 28.168C106.44 29.16 105.944 30.136 105.32 31.08C105.96 31.944 106.552 32.952 107.08 34.072L108.248 33.384C107.736 32.392 107.224 31.624 106.744 31.048C107.208 30.424 107.656 29.64 108.088 28.68L106.824 28.168ZM109.368 28.2C109.016 29.192 108.536 30.152 107.944 31.08C108.552 31.912 109.112 32.872 109.608 33.944L110.776 33.256C110.28 32.328 109.816 31.592 109.368 31.048C109.784 30.44 110.216 29.656 110.632 28.712L109.368 28.2ZM112.024 28.232C111.64 29.208 111.144 30.152 110.536 31.08C111.176 31.912 111.768 32.872 112.296 33.944L113.464 33.256C112.936 32.328 112.424 31.592 111.944 31.048C112.392 30.44 112.84 29.672 113.272 28.744L112.024 28.232ZM99.048 27.272V28.568H101.4V29.56H99.384V36.12H101.4V37.16H98.904V38.44H101.4V40.648H102.904V38.44H105.128V37.16H102.904V36.12H104.888V29.56H102.904V28.568H105.112V27.272H102.904V25.896H101.4V27.272H99.048ZM103.624 34.888H102.76V33.416H103.624V34.888ZM101.544 34.888H100.648V33.416H101.544V34.888ZM100.648 32.264V30.792H101.544V32.264H100.648ZM102.76 30.792H103.624V32.264H102.76V30.792ZM117.984 34.664V35.96H119.056C119.728 36.824 120.56 37.576 121.568 38.248C120.192 38.776 118.608 39.16 116.832 39.416L117.488 40.744C119.6 40.392 121.472 39.848 123.072 39.096C124.592 39.832 126.416 40.392 128.544 40.744L129.2 39.432C127.44 39.208 125.872 38.824 124.512 38.312C125.664 37.608 126.64 36.776 127.456 35.784V34.664H117.984ZM120.688 35.96H125.408C124.704 36.584 123.888 37.144 122.96 37.624C122.08 37.144 121.328 36.6 120.688 35.96ZM117.28 31.32H119.68V33.784H126.384V31.32H128.784V29.912H126.384V28.824H124.912V29.912H121.152V28.84H119.68V29.912H117.28V28.44H128.784V27H123.408C123.248 26.552 123.072 26.136 122.896 25.768L121.28 26.024C121.472 26.312 121.664 26.648 121.84 27H115.776V32.216C115.744 35.352 115.28 37.816 114.416 39.576L115.568 40.6C116.656 38.488 117.216 35.704 117.28 32.216V31.32ZM121.152 31.32H124.912V32.52H121.152V31.32ZM136.472 30.488V31.736H139.8V30.488H136.472ZM136.536 32.856V37.48H139.768V32.856H136.536ZM138.696 36.456H137.656V33.864H138.696V36.456ZM143.176 30.856C142.872 32.52 142.44 33.992 141.88 35.256C141.752 33.88 141.656 31.912 141.624 29.384H144.616V28.008H143.896C143.704 27.4 143.512 26.856 143.32 26.36L142.104 26.552C142.328 27 142.536 27.48 142.728 28.008H141.608V26.04H140.232V28.008H134.488V34.232C134.456 36.568 134.056 38.376 133.288 39.688L134.408 40.712C135.368 39.08 135.864 36.92 135.912 34.232V29.384H140.248C140.312 33.064 140.456 35.544 140.712 36.808C140.728 36.92 140.76 37.048 140.792 37.176C140.12 38.088 139.352 38.808 138.456 39.352L139.288 40.44C140.008 39.992 140.664 39.4 141.272 38.68C141.432 39.064 141.608 39.4 141.832 39.72C142.232 40.264 142.664 40.536 143.128 40.536C144.024 40.536 144.632 39.4 144.952 37.144L143.784 36.328C143.576 38.088 143.336 39 143.064 39.032C142.744 38.936 142.456 38.392 142.2 37.368C143.144 35.8 143.88 33.8 144.392 31.368L143.176 30.856ZM131.432 26.072L130.408 27.064C131.576 27.96 132.488 28.808 133.144 29.592L134.2 28.536C133.448 27.72 132.52 26.904 131.432 26.072ZM131.032 29.848L129.992 30.856C131.128 31.784 132.008 32.648 132.616 33.48L133.688 32.408C132.952 31.56 132.072 30.712 131.032 29.848ZM132.408 34.184C131.752 36.136 130.984 38.04 130.12 39.896L131.56 40.52C132.376 38.712 133.112 36.776 133.784 34.728L132.408 34.184ZM158.32 28.344H156.624V26.072H155.2V28.344H153.456V26.6H152.064V29.656H159.712V26.6H158.32V28.344ZM147.472 27.896C147.136 30.2 146.48 32.296 145.504 34.152L146.304 35.448C146.56 35.032 146.8 34.584 147.024 34.136V39.992H148.4V39.096H150.912C150.816 39.224 150.72 39.368 150.624 39.512L151.76 40.504C152.752 39.144 153.28 37.336 153.312 35.096V32.136H160.064V30.664H151.872V35.096C151.84 36.696 151.52 38.024 150.928 39.064V31.272H148.176C148.496 30.216 148.752 29.096 148.944 27.896H151.168V26.424H145.936V27.896H147.472ZM148.4 37.768V32.584H149.584V37.768H148.4ZM158.896 33.64C158.672 34.792 158.416 35.72 158.112 36.456L159.296 36.888C159.616 36.04 159.872 35.064 160.08 33.96L158.896 33.64ZM157.472 32.84H156.08C156.08 33.512 156.064 34.216 156.064 34.968C156.048 36.904 155.04 38.456 153.04 39.64L154.032 40.744C155.376 39.848 156.336 38.792 156.88 37.56C157.392 38.776 158.272 39.848 159.552 40.744L160.56 39.64C159.04 38.728 157.984 37.432 157.376 35.768C157.408 35.512 157.424 35.272 157.424 35.016C157.456 34.296 157.472 33.576 157.472 32.84ZM154.736 33.848L153.6 34.216C153.92 35.016 154.192 35.928 154.432 36.968L155.52 36.472C155.296 35.544 155.04 34.664 154.736 33.848ZM170.44 34.28C170.984 34.28 171.4 34.2 171.672 34.04C171.96 33.864 172.168 33.336 172.264 32.456L170.872 32.008C170.824 32.52 170.744 32.84 170.632 32.936C170.536 33.016 170.376 33.064 170.168 33.064H167.432C167.16 33.064 167.032 32.888 167.032 32.568V31.048H165.56V32.888C165.56 33.64 165.88 34.088 166.552 34.232C166.184 34.616 165.72 35 165.176 35.368C164.856 35.112 164.552 34.856 164.264 34.568L163.192 35.304C163.432 35.56 163.688 35.8 163.976 36.056C163.432 36.344 162.808 36.616 162.104 36.872L163 38.072C163.752 37.736 164.456 37.384 165.112 37C165.72 37.464 166.36 37.88 167.048 38.264C165.448 38.696 163.528 39.032 161.288 39.272L161.848 40.712C164.632 40.328 166.968 39.8 168.824 39.128C170.84 39.992 173.096 40.504 175.624 40.664L175.992 39.208C174.104 39.112 172.344 38.808 170.712 38.296C171.864 37.688 172.728 36.984 173.32 36.184V35.112H167.496C167.752 34.84 167.976 34.568 168.184 34.28H170.44ZM168.952 37.64C168.088 37.256 167.256 36.824 166.472 36.312H171.336C170.728 36.792 169.928 37.24 168.952 37.64ZM173.16 31.08L172.056 31.784C172.888 32.84 173.544 33.784 174.04 34.648L175.304 33.752C175 33.288 174.6 32.76 174.12 32.184H175.432V29.224H173.048C173.288 28.856 173.512 28.456 173.72 28.024L172.264 27.512C172.008 28.104 171.736 28.68 171.432 29.224H169.464C169.304 28.744 169.144 28.312 168.984 27.928L167.512 28.152C167.672 28.472 167.816 28.84 167.96 29.224H165.608C165.464 28.808 165.32 28.408 165.192 28.056L163.704 28.264C163.832 28.552 163.976 28.872 164.104 29.224H161.832V32.184H163.288V30.568H168.472L167.576 31.432C168.312 31.928 168.872 32.392 169.288 32.824L170.232 31.864C169.784 31.432 169.208 31 168.52 30.568H173.976V32.008C173.736 31.72 173.464 31.416 173.16 31.08ZM163.816 31.24C163.416 32.28 162.808 33.112 162.008 33.72L163.096 34.68C163.912 33.992 164.568 33.016 165.08 31.752L163.816 31.24ZM174.296 25.928C171 26.36 166.968 26.584 162.2 26.584L162.632 27.864C167.768 27.864 171.896 27.624 175 27.144L174.296 25.928ZM186.352 25.88V29.832L184.672 30.312V27.512H183.2V30.744L182.208 31.032V32.504L183.2 32.216V38.424C183.2 39.704 183.792 40.36 184.976 40.36H189.648C190.256 40.36 190.704 40.2 191.008 39.896C191.328 39.576 191.536 38.568 191.664 36.888L190.256 36.44C190.192 37.656 190.096 38.376 189.952 38.6C189.824 38.824 189.632 38.936 189.36 38.936H185.424C184.912 38.936 184.672 38.664 184.672 38.12V31.784L186.352 31.304V37.208H187.792V30.888L189.664 30.344C189.488 31.96 189.248 33.384 188.944 34.616L190.352 35.048C190.832 32.744 191.088 30.536 191.12 28.44L187.792 29.416V25.88H186.352ZM177.024 30.024V31.512H178.784V36.824C178.128 37.016 177.472 37.176 176.8 37.304L177.184 38.84C178.976 38.36 180.656 37.752 182.224 37.048V35.544C181.584 35.832 180.944 36.104 180.288 36.344V31.512H181.952V30.024H180.288V25.944H178.784V30.024H177.024ZM192.584 26.84V28.264H194.456V31.656H192.744V33.096H194.456V36.472C193.752 36.696 193.032 36.888 192.312 37.048L192.696 38.568C194.488 38.024 196.184 37.352 197.752 36.552V35.08C197.176 35.368 196.584 35.64 195.992 35.896V33.096H197.416V31.656H195.992V28.264H197.752V26.84H192.584ZM197.896 28.52V29.992H201.4V38.616C201.4 38.984 201.192 39.176 200.808 39.176C200.328 39.176 199.816 39.128 199.304 39.064L199.608 40.504H201.32C202.344 40.504 202.872 39.992 202.872 38.984V34.552C203.704 36.408 204.808 38.008 206.184 39.368L207.192 38.168C206.024 37.144 205.048 35.928 204.264 34.552C205.016 33.784 205.768 32.824 206.504 31.688L205.352 30.84C204.824 31.72 204.248 32.536 203.608 33.288C203.32 32.68 203.08 32.056 202.872 31.416V29.992H206.536V28.52H205.624L206.232 27.896C205.688 27.288 205.032 26.696 204.232 26.088L203.384 26.92C204.056 27.48 204.616 28.008 205.064 28.52H202.872V25.912H201.4V28.52H197.896ZM199.032 30.984L197.864 31.736C198.6 32.728 199.176 33.624 199.624 34.44L200.68 33.72C200.28 32.936 199.736 32.024 199.032 30.984ZM200.568 34.728C199.576 35.912 198.376 36.904 197 37.72L197.608 39.128C198.936 38.216 200.04 37.176 200.92 36.008L200.568 34.728ZM216.672 29.48H217.792V30.056H216.096C216.288 29.896 216.48 29.704 216.672 29.48ZM215.872 30.056H215.088V31H217.792V31.8H216.688V31.288H215.488V32.664H221.472V31.288H220.272V31.8H219.168V31H221.728V30.056H219.168V29.48H220.912V29.176H222.256V26.696H216.128C215.984 26.344 215.84 26.024 215.696 25.752L214.176 26.008C214.32 26.216 214.448 26.44 214.576 26.696H208.56V29.176H209.456V29.4H211.392V29.992H209.76V30.984H211.392V31.64L209.12 31.688L209.28 32.776C211.824 32.696 213.648 32.616 214.768 32.52V31.496C214.192 31.528 213.504 31.576 212.72 31.608V30.984H214.336V29.992H212.72V29.4H214.704V28.408H209.952V27.816H220.864V28.568H217.136C217.184 28.44 217.232 28.296 217.264 28.152L216.144 27.96C215.968 28.6 215.616 29.112 215.072 29.48L215.872 30.056ZM210.32 33.192V38.808H212.928C211.792 39.16 210.224 39.464 208.208 39.72L208.8 40.76C211.072 40.44 212.8 40.04 214.016 39.528L213.472 38.808H217.152L216.768 39.576C218.624 39.864 220.4 40.248 222.096 40.744L222.56 39.64C221.056 39.288 219.472 39 217.824 38.808H220.576V33.192H210.32ZM219.12 37.768H211.776V37.112H219.12V37.768ZM211.776 36.232V35.592H219.12V36.232H211.776ZM211.776 34.728V34.136H219.12V34.728H211.776ZM232.264 29.48H233.384V30.056H231.688C231.88 29.896 232.072 29.704 232.264 29.48ZM231.464 30.056H230.68V31H233.384V31.8H232.28V31.288H231.08V32.664H237.064V31.288H235.864V31.8H234.76V31H237.32V30.056H234.76V29.48H236.504V29.176H237.848V26.696H231.72C231.576 26.344 231.432 26.024 231.288 25.752L229.768 26.008C229.912 26.216 230.04 26.44 230.168 26.696H224.152V29.176H225.048V29.4H226.984V29.992H225.352V30.984H226.984V31.64L224.712 31.688L224.872 32.776C227.416 32.696 229.24 32.616 230.36 32.52V31.496C229.784 31.528 229.096 31.576 228.312 31.608V30.984H229.928V29.992H228.312V29.4H230.296V28.408H225.544V27.816H236.456V28.568H232.728C232.776 28.44 232.824 28.296 232.856 28.152L231.736 27.96C231.56 28.6 231.208 29.112 230.664 29.48L231.464 30.056ZM225.912 33.192V38.808H228.52C227.384 39.16 225.816 39.464 223.8 39.72L224.392 40.76C226.664 40.44 228.392 40.04 229.608 39.528L229.064 38.808H232.744L232.36 39.576C234.216 39.864 235.992 40.248 237.688 40.744L238.152 39.64C236.648 39.288 235.064 39 233.416 38.808H236.168V33.192H225.912ZM234.712 37.768H227.368V37.112H234.712V37.768ZM227.368 36.232V35.592H234.712V36.232H227.368ZM227.368 34.728V34.136H234.712V34.728H227.368Z" fill="#3179AA"/>
<g clip-path="url(#clip0_707_3554)">
<path d="M17.4484 43.3184C17.4484 35.6272 20.534 28.6643 25.5173 23.6233C30.504 18.5823 37.3921 15.4668 45.0005 15.4668C52.609 15.4668 59.497 18.5859 64.4838 23.6233C69.4706 28.6643 72.5526 35.6272 72.5526 43.3184L72.5491 83.5895C54.1834 83.5753 35.8177 83.5895 17.4519 83.5895L17.4484 43.3184Z" fill="#6ECBD5"/>
<path d="M16 43.3188C15.9965 39.3577 16.7802 35.5708 18.1964 32.1142C19.6689 28.5155 21.8232 25.2863 24.4906 22.5899C27.1579 19.8936 30.3524 17.7159 33.9124 16.2274C37.3353 14.7922 41.078 14 45 14C48.9184 14 52.6647 14.7922 56.0841 16.2239C59.6406 17.7124 62.8386 19.89 65.5059 22.5864C68.1733 25.2827 70.3276 28.5155 71.8001 32.1106C73.2163 35.5672 74 39.3542 74 43.3152L73.9895 85.0464H72.5451C60.1291 85.0393 47.713 85.0393 35.297 85.0429L16.0035 85.0464L16 43.3188Z" fill="#DDCBB8"/>
<path fill-rule="evenodd" clip-rule="evenodd" d="M18.1758 69.7285V82.8586H71.8251L71.8216 69.7285H44.997H18.1758Z" fill="#EC6442"/>
<path fill-rule="evenodd" clip-rule="evenodd" d="M18.1723 69.7274H44.9969V56.6045C44.9969 60.228 42.0906 63.166 38.506 63.166H21.9185L18.1723 69.7274Z" fill="#4C7263"/>
<path fill-rule="evenodd" clip-rule="evenodd" d="M44.9969 56.6045V69.7274H71.8215L68.0718 63.166H51.4878C47.9032 63.166 44.9969 60.228 44.9969 56.6045Z" fill="#4C7263"/>
<path fill-rule="evenodd" clip-rule="evenodd" d="M44.9969 56.6054C44.9969 60.229 47.9032 63.1669 51.4878 63.1669H68.0718L64.3255 56.6054H51.4878C47.9032 56.6054 44.9969 53.6675 44.9969 50.0439V56.6054Z" fill="#00ADA2"/>
<path fill-rule="evenodd" clip-rule="evenodd" d="M38.5061 63.1669C42.0907 63.1669 44.997 60.229 44.997 56.6054V50.0439C44.997 53.6675 42.0907 56.6054 38.5061 56.6054H25.6684L21.9221 63.1669H38.5061Z" fill="#00ADA2"/>
<path fill-rule="evenodd" clip-rule="evenodd" d="M38.5061 56.6054C42.0907 56.6054 44.997 53.6674 44.997 50.0439V43.4824C44.997 47.106 42.0907 50.0439 38.5061 50.0439H29.4146L25.6683 56.6054H38.5061Z" fill="#A9C5B2"/>
<path fill-rule="evenodd" clip-rule="evenodd" d="M44.9969 50.0439C44.9969 53.6674 47.9032 56.6054 51.4878 56.6054H64.3255L60.5793 50.0439H51.4878C47.9032 50.0439 44.9969 47.106 44.9969 43.4824V50.0439Z" fill="#A9C5B2"/>
<path fill-rule="evenodd" clip-rule="evenodd" d="M60.5794 50.0427L64.3256 56.6042L68.0719 63.1656L71.8251 69.7271V55.716L58.4111 32.2305L54.4083 39.2395L60.5794 50.0427Z" fill="#61AB48"/>
<path fill-rule="evenodd" clip-rule="evenodd" d="M58.411 32.2316L71.8251 55.7137V43.3154C71.8251 28.3381 59.8133 16.1992 45.0005 16.1992C30.1842 16.1992 18.1758 28.3417 18.1758 43.3154V55.7137L31.5864 32.2316L35.5857 39.2372L39.5885 32.2316L44.997 22.7607L50.4055 32.2316L54.4083 39.2407L58.411 32.2316Z" fill="#DDCBB8"/>
<path fill-rule="evenodd" clip-rule="evenodd" d="M60.5793 50.0427L54.4082 39.2395L50.4054 32.2305L48.6026 35.3851L46.7997 32.2305L44.9969 35.3886L43.1941 32.234L41.3912 35.3886L39.5884 32.2305L35.5856 39.236L29.4145 50.0427H38.506C42.0906 50.0427 44.9969 47.1048 44.9969 43.4812C44.9969 47.1048 47.9032 50.0427 51.4878 50.0427H60.5793Z" fill="#61AB48"/>
<path fill-rule="evenodd" clip-rule="evenodd" d="M29.4145 50.0427L35.5857 39.236L31.5864 32.2305L18.1758 55.7125L18.1723 69.7271L21.9221 63.1656L25.6683 56.6042L29.4145 50.0427Z" fill="#61AB48"/>
<path fill-rule="evenodd" clip-rule="evenodd" d="M43.1941 32.2307L44.9969 35.3889L46.7998 32.2307L48.6026 35.3889L50.4054 32.2307L44.9969 22.7598L39.5884 32.2307L41.3913 35.3889L43.1941 32.2307Z" fill="#B4DAA3"/>
<path d="M70.5671 68.9959L67.6572 63.898H51.4879C49.4988 63.898 47.6925 63.081 46.3887 61.763C46.1497 61.5214 45.9248 61.2656 45.7245 60.9921V68.9959H70.5671ZM66.8208 62.4308L63.911 57.3366H51.4879C49.4988 57.3366 47.6925 56.5195 46.3887 55.2015C46.1497 54.9599 45.9248 54.7042 45.7245 54.4306V56.6047C45.7245 58.214 46.3711 59.6706 47.4113 60.7256C48.4516 61.7807 49.8959 62.4308 51.4879 62.4308H66.8208ZM63.0746 55.8694L60.1647 50.7751H51.4879C49.4988 50.7751 47.6925 49.958 46.3887 48.64C46.1497 48.3985 45.9248 48.1427 45.7245 47.8691V50.0433C45.7245 51.6526 46.3711 53.1091 47.4113 54.1642C48.4516 55.2193 49.8959 55.8694 51.4879 55.8694H63.0746ZM59.3248 49.3115L50.4055 33.6911L48.6027 36.8493L46.7998 33.6947L44.997 36.8528L43.1942 33.6947L41.3913 36.8528L39.5885 33.6947L30.6692 49.3115H38.5096C40.1016 49.3115 41.5425 48.6578 42.5862 47.6063C43.63 46.5512 44.2731 45.0946 44.2731 43.4854H45.7245C45.7245 45.0946 46.3711 46.5512 47.4113 47.6063C48.4516 48.6614 49.8959 49.3115 51.4879 49.3115H59.3248ZM49.5726 32.231L44.997 24.2202L40.4214 32.231L41.3913 33.9291L43.1942 30.7745L44.997 33.9291L46.7998 30.7745L48.6027 33.9327L49.5726 32.231ZM45.6226 22.3977L54.4083 37.7836L58.4111 30.7745L71.1012 52.9954V43.3184C71.0977 36.0322 68.1773 29.4352 63.4541 24.6607C58.7309 19.8861 52.2084 16.934 45.0005 16.934C37.7927 16.934 31.2666 19.8897 26.5434 24.6607C21.8202 29.4352 18.8998 36.0322 18.8998 43.3184V52.9847L31.5864 30.7745L35.5857 37.7801L44.997 21.3036L45.6226 22.3977ZM55.2447 39.2401L71.1047 67.01V55.912L58.4146 33.6911L55.2447 39.2401ZM29.8293 50.7751L26.9195 55.8694H38.5061C40.0981 55.8694 41.5389 55.2157 42.5827 54.1642C43.6264 53.1091 44.2696 51.6526 44.2696 50.0433V47.8691C44.0657 48.1427 43.8443 48.3985 43.6054 48.64C42.3015 49.958 40.4952 50.7751 38.5026 50.7751H29.8293ZM26.0831 57.3366L23.1732 62.4308H38.5061C40.0981 62.4308 41.5389 61.7772 42.5827 60.7256C43.6264 59.6706 44.2696 58.214 44.2696 56.6047V54.4306C44.0657 54.7042 43.8443 54.9599 43.6054 55.2015C42.3015 56.5195 40.4952 57.3366 38.5026 57.3366H26.0831ZM22.3368 63.898L19.427 68.9959H44.2731V60.9921C44.0692 61.2656 43.8478 61.5214 43.6089 61.763C42.3051 63.081 40.4987 63.898 38.5061 63.898H22.3368ZM18.8998 66.9958L34.7528 39.2366L31.5864 33.6911L18.8998 55.9013V66.9958ZM17.4484 43.3184C17.4484 35.6272 20.534 28.6643 25.5173 23.6233C30.504 18.5823 37.3921 15.4668 45.0005 15.4668C52.609 15.4668 59.497 18.5859 64.4838 23.6233C69.4706 28.6643 72.5526 35.6272 72.5526 43.3184L72.5491 83.5895C54.1834 83.5753 35.8177 83.5895 17.4519 83.5895L17.4484 43.3184ZM71.1012 82.1259V70.4631H18.8998V82.1259H71.1012Z" fill="#2E3B4F"/>
<path d="M22.5179 78.7669H25.6765V77.9442H23.5157V76.7382H25.5543V75.9717H23.5157V74.8219H25.6765V73.9992H22.5179V78.7669Z" fill="white"/>
<path d="M26.1897 78.7669H27.2371L27.5906 77.6105H29.2724L29.6259 78.7669H30.6766L29.018 73.9992H27.845L26.1897 78.7669ZM28.4034 74.9508H28.4629L29.0444 76.8638H27.8186L28.4034 74.9508Z" fill="white"/>
<path d="M31.2889 78.7669H32.2867V77.0224H33.1028L33.9916 78.7669H35.1216L34.1171 76.8737C34.6623 76.659 34.9795 76.1336 34.9795 75.5224V75.5158C34.9795 74.5774 34.3583 73.9992 33.2746 73.9992H31.2889V78.7669ZM32.2867 76.2955V74.779H33.1524C33.6513 74.779 33.9585 75.0763 33.9585 75.5356V75.5422C33.9585 76.0114 33.6645 76.2955 33.1656 76.2955H32.2867Z" fill="white"/>
<path d="M36.9464 78.7669H37.9443V74.8219H39.3749V73.9992H35.5158V74.8219H36.9464V78.7669Z" fill="white"/>
<path d="M40.0599 78.7669H41.0577V76.7581H43.2053V78.7669H44.2031V73.9992H43.2053V75.9354H41.0577V73.9992H40.0599V78.7669Z" fill="white"/>
<path d="M46.7097 78.7669H49.8287V77.9442H47.7075V73.9992H46.7097V78.7669Z" fill="white"/>
<path d="M52.4895 78.8892C53.897 78.8892 54.7825 77.9244 54.7825 76.3847V76.3781C54.7825 74.8384 53.8937 73.877 52.4895 73.877C51.0853 73.877 50.1932 74.8351 50.1932 76.3781V76.3847C50.1932 77.9244 51.0721 78.8892 52.4895 78.8892ZM52.4895 78.0433C51.7031 78.0433 51.2108 77.3924 51.2108 76.3847V76.3781C51.2108 75.3671 51.713 74.7228 52.4895 74.7228C53.2626 74.7228 53.7648 75.3671 53.7648 76.3781V76.3847C53.7648 77.3924 53.2659 78.0433 52.4895 78.0433Z" fill="white"/>
<path d="M56.6305 78.7669H57.8596L59.4488 73.9992H58.3255L57.2748 77.6568H57.2153L56.1613 73.9992H55.0412L56.6305 78.7669Z" fill="white"/>
<path d="M60.0677 78.7669H63.2264V77.9442H61.0655V76.7382H63.1041V75.9717H61.0655V74.8219H63.2264V73.9992H60.0677V78.7669Z" fill="white"/>
<path d="M64.0799 78.7669H65.0777V77.0224H65.8938L66.7826 78.7669H67.9125L66.9081 76.8737C67.4533 76.659 67.7705 76.1336 67.7705 75.5224V75.5158C67.7705 74.5774 67.1493 73.9992 66.0656 73.9992H64.0799V78.7669ZM65.0777 76.2955V74.779H65.9433C66.4423 74.779 66.7495 75.0763 66.7495 75.5356V75.5422C66.7495 76.0114 66.4555 76.2955 65.9566 76.2955H65.0777Z" fill="white"/>
</g>
<defs>
<clipPath id="clip0_707_3554">
<rect width="58" height="71.05" fill="white" transform="translate(16 14)"/>
</clipPath>
</defs>
</svg>
