<svg width="248" height="68" viewBox="0 0 248 68" fill="none" xmlns="http://www.w3.org/2000/svg">
<g filter="url(#filter0_d_707_3523)">
<rect x="11" y="10" width="220" height="40" rx="20" fill="#3179AA"/>
<path d="M69.722 28.168V34.608C69.722 34.916 69.554 35.084 69.232 35.084C68.434 35.084 67.692 35.042 67.006 34.958L67.37 36.246C68 36.302 68.742 36.33 69.596 36.33C70.562 36.33 71.052 35.84 71.052 34.86V28.84C72.676 27.79 74.132 26.684 75.42 25.522V24.234H64.626V25.522H73.586C72.368 26.502 71.08 27.384 69.722 28.168ZM85.936 31.22H87.434V32.634H84.452V33.852H87.434V36.484H88.736V33.852H90.962V32.634H88.736V31.22H90.654V30.03H88.736V28.826H87.434V30.03H86.412C86.496 29.736 86.58 29.414 86.65 29.078L85.558 28.882C85.348 29.946 84.942 30.8 84.354 31.444L85.124 32.382C85.432 32.046 85.712 31.668 85.936 31.22ZM86.272 25.438C86.16 25.844 86.02 26.194 85.824 26.502C85.53 26.964 85.082 27.356 84.494 27.692L85.278 28.686C85.992 28.196 86.538 27.65 86.916 27.048C87.168 26.572 87.378 26.04 87.518 25.438H89.296C89.268 26.306 89.226 26.838 89.142 27.034C89.058 27.23 88.834 27.342 88.498 27.356C88.176 27.328 87.77 27.3 87.28 27.272L87.588 28.364C88.05 28.392 88.442 28.42 88.778 28.42C89.422 28.42 89.884 28.224 90.15 27.832C90.416 27.44 90.556 26.25 90.57 24.262H84.536V25.438H86.272ZM79.986 30.478H80.966V32.06H79.986V30.478ZM82.016 30.478H83.024V32.06H82.016V30.478ZM83.024 29.386H82.016V27.902H83.024V29.386ZM80.966 29.386H79.986V27.902H80.966V29.386ZM79.916 33.166H83.024V34.846C83.024 35.14 82.884 35.294 82.604 35.294C82.338 35.294 82.058 35.266 81.75 35.238L82.044 36.33H82.968C83.738 36.33 84.13 35.966 84.13 35.238V26.768H82.646C82.912 26.376 83.178 25.914 83.444 25.396V24.486H81.064C81.162 24.248 81.26 23.996 81.358 23.744L80.154 23.464C79.594 24.92 78.922 26.068 78.138 26.894L78.852 27.762V31.934C78.838 33.474 78.586 34.734 78.082 35.728L78.978 36.554C79.482 35.63 79.79 34.51 79.916 33.166ZM81.302 26.768H79.832C80.084 26.404 80.322 25.998 80.546 25.564H82.03C81.778 26.012 81.54 26.418 81.302 26.768ZM92.868 23.996V25.242H98.272V26.208H94.03V31.962H98.048C97.908 32.522 97.698 33.012 97.446 33.404C96.746 33.04 96.088 32.634 95.486 32.158L94.464 32.858C95.08 33.376 95.766 33.852 96.522 34.272C95.626 34.818 94.282 35.14 92.49 35.252L93.064 36.47C95.234 36.218 96.816 35.7 97.824 34.916C99.896 35.84 102.332 36.358 105.132 36.484L105.468 35.196C102.864 35.112 100.61 34.706 98.678 33.95C99 33.432 99.238 32.774 99.392 31.962H103.872V26.208H99.588V25.242H105.006V23.996H92.868ZM102.556 30.8H99.546C99.574 30.534 99.588 30.254 99.588 29.946V29.61H102.556V30.8ZM98.23 30.8H95.346V29.61H98.272V29.946C98.272 30.226 98.258 30.52 98.23 30.8ZM95.346 28.518V27.342H98.272V28.518H95.346ZM99.588 27.342H102.556V28.518H99.588V27.342ZM113.114 23.45C111.896 24.738 110.048 25.606 107.57 26.054L108.354 27.272C109.824 26.95 111.098 26.474 112.19 25.83H115.956C115.214 26.824 114.192 27.594 112.904 28.14C112.484 27.636 112.036 27.16 111.574 26.712L110.426 27.258C110.846 27.65 111.266 28.084 111.658 28.56C110.734 28.812 109.684 28.966 108.508 29.036L109.068 30.24C113.17 29.904 115.97 28.378 117.482 25.69V24.654H113.744C113.926 24.472 114.108 24.276 114.304 24.066L113.114 23.45ZM112.89 32.2L111.714 32.76C112.176 33.208 112.624 33.726 113.058 34.286C111.532 34.762 109.712 35 107.598 35L108.13 36.274C113.59 36.134 117.314 34.426 119.316 31.15V30.114H115.746C116.026 29.89 116.306 29.638 116.558 29.372L115.424 28.756C113.996 30.268 111.742 31.164 108.69 31.458L109.488 32.648C111.126 32.326 112.554 31.878 113.772 31.318H117.608C116.796 32.368 115.69 33.194 114.318 33.81C113.87 33.236 113.394 32.704 112.89 32.2ZM131.26 23.422L130.42 24.234C131.008 24.682 131.484 25.13 131.862 25.55H129.706C129.678 24.906 129.65 24.22 129.65 23.492H128.306C128.306 24.206 128.306 24.892 128.334 25.55H122.566V30.212C122.524 32.494 122.062 34.272 121.194 35.546L122.202 36.442C123.266 34.874 123.84 32.802 123.896 30.212V30.128H126.01C125.982 31.584 125.94 32.508 125.856 32.872C125.772 33.18 125.618 33.334 125.366 33.348C124.974 33.348 124.512 33.32 123.952 33.292L124.358 34.496C124.792 34.538 125.184 34.566 125.52 34.566C126.248 34.552 126.724 34.258 126.948 33.67C127.172 32.998 127.298 31.402 127.326 28.868H123.896V26.824H128.404C128.502 28.532 128.698 29.946 129.006 31.08C129.16 31.668 129.328 32.214 129.524 32.718C128.6 33.866 127.466 34.734 126.122 35.336L126.878 36.456C128.11 35.91 129.202 35.112 130.14 34.062C130.322 34.398 130.518 34.706 130.742 34.986C131.414 35.812 132.058 36.232 132.674 36.232C133.346 36.232 133.864 35.252 134.214 33.32L133.01 32.676C132.828 34.048 132.646 34.734 132.464 34.734C132.24 34.734 131.904 34.412 131.484 33.796C131.33 33.558 131.176 33.278 131.022 32.942C131.89 31.682 132.59 30.142 133.15 28.35L131.932 27.832C131.54 29.162 131.05 30.338 130.462 31.374C130.392 31.15 130.322 30.912 130.266 30.674C130.028 29.764 129.86 28.476 129.762 26.824H133.934V25.55H132.254L132.898 24.906C132.45 24.402 131.904 23.912 131.26 23.422ZM135.84 24.85V26.054H142.294V24.85H139.802C139.62 24.36 139.438 23.912 139.27 23.52L137.842 23.744C138.066 24.08 138.262 24.444 138.444 24.85H135.84ZM136.386 26.95V30.66H138.416V34.748C138.416 35.042 138.276 35.196 138.024 35.196C137.744 35.196 137.436 35.168 137.128 35.112L137.394 36.316H138.444C139.256 36.316 139.676 35.896 139.676 35.056V30.66H141.622V26.95H136.386ZM140.404 29.54H137.604V28.07H140.404V29.54ZM136.652 31.29C136.33 32.592 135.952 33.67 135.518 34.524L136.61 34.916C137.072 33.964 137.45 32.844 137.744 31.584L136.652 31.29ZM141.16 31.262L140.082 31.542C140.446 32.424 140.754 33.32 140.992 34.23L142.056 33.824C141.832 33.04 141.538 32.186 141.16 31.262ZM146.312 23.716L145.332 24.332C145.976 25.074 146.48 25.746 146.844 26.362L147.81 25.69C147.46 25.13 146.956 24.472 146.312 23.716ZM143.442 23.534V26.698H142.154V27.944H143.428C143.33 31.332 142.588 33.838 141.202 35.448L142.14 36.274C143.708 34.482 144.548 31.71 144.66 27.944H148.118V26.698H144.674V23.534H143.442ZM147.194 36.218C147.614 36.218 147.936 36.078 148.146 35.812C148.37 35.532 148.524 34.636 148.622 33.152L147.46 32.788C147.432 33.88 147.376 34.524 147.292 34.734C147.222 34.93 147.124 35.028 146.984 35.028H146.522C146.34 35.028 146.256 34.93 146.256 34.748V28.672H145.038V35C145.038 35.812 145.402 36.218 146.144 36.218H147.194ZM152.46 23.45C151.9 24.738 151.06 25.872 149.912 26.838L150.304 28.098C151.844 26.866 152.936 25.494 153.594 23.968L152.46 23.45ZM152.866 26.656C152.264 28.21 151.312 29.568 150.024 30.744L150.402 31.948C150.822 31.584 151.214 31.206 151.592 30.814V36.428H152.852V29.246C153.286 28.588 153.65 27.888 153.944 27.16L152.866 26.656ZM155.638 23.52V25.858H154.966V24.066H153.93V26.908H158.424V24.066H157.388V25.858H156.702V23.52H155.638ZM153.762 27.678V28.812H155.4C154.882 29.442 154.28 30.002 153.608 30.492L153.832 31.318C154.364 31.29 154.91 31.234 155.47 31.164C154.882 31.654 154.252 32.116 153.566 32.55L153.818 33.418C154.448 33.362 155.078 33.278 155.722 33.18V35C155.722 35.21 155.638 35.322 155.47 35.322C155.218 35.322 154.966 35.294 154.714 35.252L154.952 36.33H155.848C156.52 36.33 156.87 35.98 156.87 35.28V32.97C157.136 32.914 157.416 32.844 157.696 32.788C157.766 32.97 157.85 33.18 157.934 33.404L158.83 32.998C158.578 32.326 158.284 31.696 157.948 31.108L157.038 31.416C157.15 31.612 157.262 31.822 157.374 32.046C156.702 32.172 156.03 32.284 155.344 32.368C156.352 31.682 157.234 30.912 158.004 30.058L156.996 29.68L156.408 30.31C155.96 30.352 155.512 30.394 155.064 30.422C155.596 30.016 156.072 29.568 156.506 29.064L155.862 28.812H158.046C157.99 28.938 157.92 29.064 157.85 29.204L158.55 30.086C158.69 29.862 158.844 29.61 158.984 29.358C159.264 30.576 159.614 31.71 160.062 32.746C159.712 33.572 159.278 34.286 158.746 34.888C158.536 34.426 158.326 33.992 158.102 33.6L157.248 34.02C157.514 34.538 157.766 35.126 157.99 35.784L158.494 35.532L159.026 36.372C159.67 35.728 160.23 34.972 160.692 34.076C161.126 34.888 161.63 35.644 162.19 36.344L163.002 35.406C162.344 34.622 161.77 33.726 161.266 32.732C161.854 31.108 162.176 29.148 162.232 26.852H162.75V25.634H160.286C160.412 25.046 160.524 24.416 160.622 23.758L159.418 23.562C159.194 25.494 158.802 27.132 158.214 28.448V27.678H153.762ZM159.376 28.574C159.6 28.042 159.81 27.468 159.992 26.852H161.14C161.084 28.476 160.902 29.918 160.58 31.178C160.244 30.31 159.978 29.372 159.754 28.364L159.376 28.574ZM154.14 33.74C153.86 34.356 153.538 34.902 153.146 35.364L154 35.98C154.392 35.462 154.742 34.86 155.022 34.174L154.14 33.74ZM170.186 32.844V33.558H164.628V34.734H170.186V36.358H171.53V34.734H177.032V33.558H171.53V32.844H175.394V28.336H166.294V32.844H170.186ZM167.61 31.094H174.078V31.752H167.61V31.094ZM174.078 30.086H167.61V29.428H174.078V30.086ZM167.582 25.55L168.016 26.6H164.824V27.72H176.85V26.6H173.756L174.134 25.55H176.122V24.416H171.446C171.334 24.052 171.222 23.716 171.096 23.408L169.668 23.632C169.78 23.87 169.892 24.136 169.99 24.416H165.538V25.55H167.582ZM169.346 26.6L168.912 25.55H172.748L172.37 26.6H169.346Z" fill="white"/>
</g>
<defs>
<filter id="filter0_d_707_3523" x="0" y="0" width="248" height="68" filterUnits="userSpaceOnUse" color-interpolation-filters="sRGB">
<feFlood flood-opacity="0" result="BackgroundImageFix"/>
<feColorMatrix in="SourceAlpha" type="matrix" values="0 0 0 0 0 0 0 0 0 0 0 0 0 0 0 0 0 0 127 0" result="hardAlpha"/>
<feOffset dx="3" dy="4"/>
<feGaussianBlur stdDeviation="7"/>
<feComposite in2="hardAlpha" operator="out"/>
<feColorMatrix type="matrix" values="0 0 0 0 0 0 0 0 0 0 0 0 0 0 0 0 0 0 0.14 0"/>
<feBlend mode="normal" in2="BackgroundImageFix" result="effect1_dropShadow_707_3523"/>
<feBlend mode="normal" in="SourceGraphic" in2="effect1_dropShadow_707_3523" result="shape"/>
</filter>
</defs>
</svg>
