<svg width="358" height="100" viewBox="0 0 358 100" fill="none" xmlns="http://www.w3.org/2000/svg">
<path d="M0 8C0 3.58172 3.58172 0 8 0H350C354.418 0 358 3.58172 358 8V92C358 96.4183 354.418 100 350 100H8C3.58173 100 0 96.4183 0 92V8Z" fill="white"/>
<path d="M105.12 56.056H112.98V55.228H105.588C105.732 54.94 105.876 54.628 106.02 54.316L105.144 54.112C104.484 55.624 103.644 56.836 102.612 57.772L103.164 58.444C103.908 57.772 104.556 56.968 105.12 56.056ZM107.052 60.868L106.656 61.432C107.472 61.72 108.276 62.116 109.068 62.62L109.476 61.996C108.744 61.552 107.94 61.18 107.052 60.868ZM103.992 63.484H111C110.976 63.652 110.964 63.772 110.94 63.82C110.832 64.084 110.664 64.264 110.448 64.348C110.232 64.408 109.98 64.444 109.692 64.444C109.236 64.444 108.72 64.42 108.144 64.396L108.408 65.2C108.936 65.2 109.416 65.188 109.824 65.188C110.4 65.188 110.844 65.104 111.132 64.936C111.444 64.744 111.648 64.468 111.756 64.096C111.78 64 111.816 63.796 111.84 63.484H113.22V62.68H111.9C111.924 62.152 111.96 61.468 111.996 60.628H113.544V59.812H112.032L112.116 57.052H104.664C104.64 57.976 104.592 58.9 104.508 59.812H102.48V60.628H104.424C104.316 61.588 104.172 62.548 103.992 63.484ZM111.072 62.68H104.988C105.108 62.056 105.204 61.372 105.288 60.628H111.168C111.132 61.468 111.096 62.152 111.072 62.68ZM105.372 59.812C105.42 59.2 105.456 58.552 105.48 57.856H111.252C111.228 58.564 111.216 59.212 111.192 59.812H109.152L109.548 59.212C108.828 58.768 108.024 58.396 107.148 58.084L106.752 58.66C107.544 58.948 108.336 59.332 109.104 59.812H105.372ZM117.348 58.408H122.472V60.568H117.348V58.408ZM122.472 57.604H117.348V55.504H122.472V57.604ZM117.3 61.372H122.472V63.76C122.472 64.108 122.328 64.288 122.052 64.288C121.596 64.288 121.092 64.264 120.54 64.24L120.78 65.092H122.328C123 65.092 123.348 64.744 123.348 64.06V54.676H116.472V60.532C116.448 62.188 116.052 63.556 115.26 64.636L115.92 65.236C116.7 64.216 117.156 62.932 117.3 61.372ZM126.792 54.316L126.228 54.868C126.984 55.468 127.584 56.044 128.04 56.596L128.604 56.032C128.112 55.456 127.512 54.892 126.792 54.316ZM125.856 57.196V57.988H127.668C127.272 58.66 126.792 59.344 126.228 60.016V60.676H128.136C127.944 61.456 127.68 62.152 127.344 62.752C126.828 62.872 126.276 63.484 125.7 64.612L126.336 65.176C126.864 64.108 127.284 63.58 127.572 63.58C127.668 63.58 127.764 63.616 127.86 63.7C128.268 64.12 128.724 64.432 129.228 64.636C129.66 64.816 130.296 64.924 131.124 64.948C131.832 64.972 132.636 64.984 133.548 64.984H136.584L136.776 64.156C135.408 64.192 134.292 64.216 133.44 64.216H131.172C130.476 64.192 129.936 64.108 129.552 63.952C129.156 63.772 128.772 63.508 128.388 63.148C128.292 63.064 128.208 62.992 128.112 62.932C128.46 62.296 128.748 61.492 128.964 60.52V59.944H127.236C127.764 59.272 128.22 58.588 128.616 57.88V57.196H125.856ZM130.116 57.592V63.052H136.356V62.272H134.028V60.856H135.888V60.1H134.028V58.756H135.876V57.988H134.028V56.596H136.188V55.816H133.92L134.136 55.732C133.98 55.264 133.764 54.748 133.476 54.196L132.684 54.412C132.948 54.856 133.176 55.324 133.368 55.816H131.136C131.328 55.372 131.496 54.916 131.64 54.436L130.848 54.304C130.476 55.6 129.84 56.8 128.952 57.904L129.216 58.72C129.54 58.36 129.84 57.976 130.116 57.592ZM133.212 62.272H130.944V60.856H133.212V62.272ZM133.212 60.1H130.944V58.756H133.212V60.1ZM133.212 57.988H130.944V56.596H133.212V57.988ZM146.028 58.372H143.22V54.184H142.332V58.372H139.524V55.096H138.66V59.212H142.332V63.616H138.948V60.34H138.072V65.116H138.948V64.444H146.604V65.116H147.48V60.34H146.604V63.616H143.22V59.212H146.892V55.096H146.028V58.372ZM153.084 54.664L152.364 54.964C152.7 55.576 153.012 56.296 153.3 57.124L154.032 56.812C153.768 56.056 153.444 55.336 153.084 54.664ZM153.12 60.136L152.424 60.412C152.7 61 152.952 61.684 153.192 62.476L153.924 62.164C153.696 61.444 153.432 60.76 153.12 60.136ZM155.712 57.664C156.888 58.192 158.028 58.888 159.144 59.74L159.624 58.996C158.532 58.216 157.332 57.544 156.024 56.968C156.168 56.512 156.252 56.008 156.276 55.432V54.196H155.436V55.432C155.4 56.344 155.148 57.088 154.68 57.664C154.176 58.216 153.276 58.66 151.992 58.996L152.448 59.728C153.78 59.368 154.74 58.864 155.328 58.216C155.472 58.048 155.592 57.856 155.712 57.664ZM155.352 59.068V60.004C155.328 61.132 155.064 62.032 154.584 62.728C154.056 63.4 153.132 63.94 151.812 64.348L152.28 65.08C153.648 64.648 154.632 64.06 155.232 63.304C155.472 62.968 155.676 62.596 155.844 62.176C156.42 63.496 157.608 64.48 159.408 65.104L159.924 64.336C157.668 63.676 156.42 62.452 156.18 60.652L156.216 60.004V59.068H155.352ZM158.412 54.604C158.124 55.42 157.764 56.14 157.332 56.74L158.04 57.136C158.496 56.488 158.868 55.744 159.168 54.88L158.412 54.604ZM158.376 60.088C158.088 60.88 157.728 61.564 157.296 62.14L158.004 62.548C158.46 61.924 158.832 61.192 159.132 60.364L158.376 60.088ZM149.976 54.376L149.376 54.964C150.264 55.564 150.948 56.14 151.452 56.692L152.052 56.092C151.5 55.516 150.804 54.952 149.976 54.376ZM149.652 57.268L149.04 57.856C149.928 58.468 150.624 59.044 151.128 59.596L151.728 58.996C151.164 58.42 150.468 57.844 149.652 57.268ZM150.996 60.424C150.492 61.888 149.904 63.316 149.208 64.708L150 65.056C150.636 63.712 151.224 62.26 151.752 60.712L150.996 60.424ZM160.776 57.244V58.084H163.824C163.2 60.316 162.072 62.044 160.428 63.256L160.98 63.964C162.828 62.596 164.052 60.58 164.676 57.928V57.244H160.776ZM170.064 56.092C169.272 57.124 168.396 58.048 167.424 58.852C167.064 58.18 166.752 57.46 166.5 56.692V54.148H165.612V63.808C165.612 64.168 165.444 64.36 165.132 64.36C164.676 64.36 164.184 64.336 163.68 64.3L163.86 65.152H165.432C166.14 65.152 166.5 64.768 166.5 64.024V58.564C167.388 60.652 168.888 62.5 170.976 64.108L171.504 63.328C169.992 62.32 168.756 61.06 167.82 59.536C168.84 58.744 169.824 57.76 170.76 56.608L170.064 56.092ZM182.064 60.928V59.176H182.844V58.432H182.064V56.692H179.7V55.804H182.736V55.048H179.7V54.208H178.872V55.048H176.088V55.804H178.872V56.692H176.64V57.436H178.872V58.432H176.16V59.176H178.872V60.184H176.556V60.928H178.872V63.964C178.728 63.916 178.608 63.88 178.488 63.832C178.032 63.628 177.624 63.172 177.264 62.452C177.324 62.176 177.384 61.876 177.432 61.54L176.628 61.42C176.436 62.824 175.98 63.928 175.26 64.72L175.956 65.2C176.388 64.72 176.748 64.096 177.024 63.304C177.36 63.916 177.744 64.336 178.164 64.552C178.692 64.816 179.7 64.96 181.188 64.972C181.668 64.984 182.196 64.996 182.796 64.996L183.048 64.12C182.52 64.156 181.884 64.18 181.128 64.18C180.588 64.18 180.108 64.156 179.7 64.108V62.764H182.34V62.008H179.7V60.928H182.064ZM179.7 57.436H181.284V58.432H179.7V57.436ZM181.284 59.176V60.184H179.7V59.176H181.284ZM173.568 65.068C174.24 65.068 174.576 64.732 174.576 64.06V60.448C174.96 60.256 175.356 60.052 175.752 59.836V58.972C175.368 59.188 174.984 59.404 174.576 59.596V57.232H175.86V56.404H174.576V54.22H173.712V56.404H172.236V57.232H173.712V59.98C173.172 60.196 172.62 60.376 172.068 60.52L172.284 61.384C172.764 61.216 173.232 61.036 173.712 60.844V63.844C173.712 64.144 173.556 64.3 173.268 64.3C172.968 64.3 172.656 64.276 172.332 64.24L172.512 65.068H173.568ZM194.22 54.664H187.176V56.572H187.86V56.98H190.308V57.688H187.74V61.216H190.308V61.972H187.104V62.692H190.308V63.88H191.136V62.692H194.34V61.972H191.136V61.216H193.692V57.688H191.136V56.98H193.596V56.524H194.22V54.664ZM188.004 56.296V55.372H190.308V56.296H188.004ZM191.136 55.372H193.392V56.296H191.136V55.372ZM192.864 60.556H191.136V59.776H192.864V60.556ZM190.308 60.556H188.58V59.776H190.308V60.556ZM188.58 59.152V58.36H190.308V59.152H188.58ZM191.136 58.36H192.864V59.152H191.136V58.36ZM184.668 54.304L184.104 54.844C184.884 55.468 185.496 56.044 185.952 56.584L186.516 56.02C186.012 55.444 185.388 54.88 184.668 54.304ZM183.816 57.196V57.988H185.616C185.208 58.66 184.692 59.332 184.092 60.016V60.676H185.88C185.724 61.456 185.52 62.164 185.256 62.788C184.752 62.932 184.212 63.532 183.66 64.612L184.296 65.176C184.824 64.12 185.232 63.592 185.52 63.592C185.616 63.592 185.724 63.628 185.82 63.712C186.228 64.12 186.684 64.432 187.188 64.624C187.632 64.804 188.268 64.9 189.096 64.924C189.792 64.948 190.608 64.96 191.52 64.96H194.448L194.64 64.132C193.32 64.18 192.24 64.204 191.412 64.204C190.56 64.204 189.804 64.192 189.144 64.192C188.448 64.168 187.908 64.084 187.512 63.94C187.116 63.76 186.732 63.496 186.348 63.148C186.24 63.052 186.132 62.968 186.036 62.92C186.3 62.272 186.516 61.48 186.696 60.52V59.944H185.112C185.664 59.272 186.144 58.588 186.576 57.88V57.196H183.816ZM202.212 54.184V59.476H200.472V65.14H201.3V64.336H204.684V65.128H205.524V59.476H203.1V57.136H206.112V56.296H203.1V54.184H202.212ZM201.3 63.532V60.232H204.684V63.532H201.3ZM195.408 56.188V57.028H200.124V56.188H198.18C198.036 55.468 197.88 54.832 197.712 54.28L196.836 54.424C197.028 54.952 197.208 55.54 197.352 56.188H195.408ZM196.5 57.748L195.744 57.988C196.068 59.5 196.344 61.084 196.56 62.728L197.28 62.548C197.052 60.748 196.788 59.14 196.5 57.748ZM199.932 62.56C199.536 62.68 199.14 62.788 198.732 62.896C199.116 61.324 199.392 59.62 199.584 57.772L198.744 57.652C198.576 59.572 198.312 61.384 197.928 63.088C197.076 63.28 196.212 63.436 195.324 63.556L195.528 64.384C197.1 64.12 198.564 63.796 199.932 63.4V62.56ZM213.54 54.196V55.048H210.984V55.804H213.54V56.728H210.252V57.484H211.68C211.872 57.82 212.064 58.204 212.232 58.624H210.816V59.368H213.54V60.244H211.152V60.964H213.54V61.876H210.48V62.644H213.54V63.808H214.356V62.644H217.488V61.876H214.356V60.964H216.72V60.244H214.356V59.368H217.08V58.624H215.676C215.88 58.252 216.048 57.868 216.18 57.484H217.668V56.728H214.356V55.804H217.008V55.048H214.356V54.196H213.54ZM214.884 58.624H213.024C212.868 58.216 212.7 57.844 212.52 57.484H215.376C215.256 57.88 215.1 58.264 214.884 58.624ZM207.852 54.316L207.288 54.856C208.068 55.48 208.68 56.056 209.124 56.596L209.688 56.032C209.184 55.456 208.572 54.892 207.852 54.316ZM207 57.196V57.988H208.8C208.392 58.66 207.876 59.332 207.276 60.016V60.676H209.064C208.908 61.456 208.704 62.164 208.452 62.788C207.948 62.932 207.408 63.532 206.844 64.612L207.48 65.176C208.02 64.12 208.44 63.592 208.728 63.592C208.824 63.592 208.932 63.628 209.028 63.712C209.436 64.12 209.904 64.432 210.408 64.624C210.84 64.804 211.488 64.9 212.328 64.924C213.036 64.948 213.852 64.96 214.764 64.96H217.632L217.824 64.132C216.528 64.18 215.472 64.204 214.656 64.204C213.804 64.204 213.048 64.192 212.376 64.192C211.68 64.168 211.128 64.084 210.72 63.94C210.324 63.76 209.94 63.496 209.556 63.148C209.448 63.052 209.34 62.968 209.244 62.908C209.496 62.272 209.712 61.48 209.88 60.52V59.944H208.296C208.848 59.272 209.328 58.588 209.76 57.88V57.196H207ZM220.68 55.432C220.392 55.756 220.056 56.044 219.648 56.308C219.24 56.548 218.832 56.716 218.448 56.824V57.808C219.252 57.568 219.924 57.184 220.464 56.632V64H221.448V55.432H220.68ZM225.928 55.264C224.896 55.264 224.128 55.708 223.612 56.62C223.156 57.388 222.928 58.42 222.928 59.716C222.928 61.012 223.156 62.044 223.612 62.812C224.128 63.712 224.896 64.168 225.928 64.168C226.948 64.168 227.716 63.712 228.244 62.812C228.7 62.044 228.928 61.012 228.928 59.716C228.928 58.42 228.7 57.388 228.244 56.62C227.716 55.708 226.948 55.264 225.928 55.264ZM225.928 56.104C226.696 56.104 227.248 56.512 227.584 57.34C227.824 57.916 227.956 58.708 227.956 59.716C227.956 60.712 227.824 61.504 227.584 62.092C227.248 62.908 226.696 63.328 225.928 63.328C225.16 63.328 224.608 62.908 224.272 62.092C224.032 61.504 223.912 60.712 223.912 59.716C223.912 58.708 224.032 57.916 224.272 57.34C224.608 56.512 225.16 56.104 225.928 56.104ZM234.984 56.824H239.268C239.028 57.76 238.728 58.6 238.356 59.344L239.208 59.584C239.616 58.588 239.94 57.58 240.192 56.56V55.996H235.224C235.356 55.468 235.476 54.892 235.572 54.268L234.708 54.136C234.42 56.272 233.76 57.94 232.728 59.14L233.448 59.644C234.084 58.924 234.6 57.988 234.984 56.824ZM236.208 57.64C236.184 59.212 235.98 60.508 235.572 61.528C235.032 62.728 233.928 63.736 232.272 64.54L232.836 65.224C234.708 64.3 235.908 63.112 236.436 61.672C236.532 61.42 236.616 61.156 236.688 60.868C237.456 62.596 238.596 64.048 240.12 65.2L240.684 64.54C238.908 63.316 237.66 61.648 236.94 59.536C237.012 58.948 237.048 58.312 237.048 57.64H236.208ZM229.908 56.404V57.232H233.052V56.404H229.908ZM233.292 60.988L229.62 61.24V62.092L233.292 61.828V60.988ZM242.388 54.34V62.86C242.064 62.98 241.74 63.088 241.404 63.208L241.704 64.048C243.312 63.472 244.788 62.8 246.156 62.032L245.904 61.204C245.04 61.684 244.164 62.128 243.252 62.512V54.34H242.388ZM245.256 55.492L244.524 55.936C245.58 57.172 246.396 58.288 246.996 59.296L247.728 58.804C247.152 57.856 246.336 56.752 245.256 55.492ZM249.372 61.384C250.284 62.632 251.016 63.82 251.568 64.936L252.228 64.276C251.556 63.04 250.728 61.804 249.744 60.568C249.816 60.388 249.876 60.208 249.936 60.028C250.416 58.444 250.668 56.524 250.668 54.256H249.78C249.768 56.56 249.516 58.468 249.024 59.98C248.376 61.756 247.032 63.22 245.016 64.396L245.592 65.104C247.332 64.096 248.592 62.848 249.372 61.384ZM257.292 54.196V63.88H252.972V64.72H263.652V63.88H258.18V58.744H262.632V57.904H258.18V54.196H257.292ZM269.88 58.852C269.64 58.852 269.448 58.912 269.316 59.056C269.172 59.188 269.1 59.368 269.1 59.596C269.1 59.8 269.16 59.98 269.304 60.124C269.448 60.268 269.616 60.34 269.82 60.34C269.94 60.34 270.036 60.316 270.084 60.292C270.084 60.58 270 60.844 269.832 61.096C269.628 61.336 269.376 61.516 269.064 61.624V62.212C269.568 62.08 269.988 61.816 270.3 61.432C270.612 61.024 270.768 60.556 270.768 60.028C270.768 59.68 270.684 59.404 270.528 59.188C270.36 58.96 270.144 58.852 269.88 58.852ZM280.2 54.664L279.48 54.964C279.816 55.576 280.128 56.296 280.416 57.124L281.148 56.812C280.884 56.056 280.56 55.336 280.2 54.664ZM280.236 60.136L279.54 60.412C279.816 61 280.068 61.684 280.308 62.476L281.04 62.164C280.812 61.444 280.548 60.76 280.236 60.136ZM282.828 57.664C284.004 58.192 285.144 58.888 286.26 59.74L286.74 58.996C285.648 58.216 284.448 57.544 283.14 56.968C283.284 56.512 283.368 56.008 283.392 55.432V54.196H282.552V55.432C282.516 56.344 282.264 57.088 281.796 57.664C281.292 58.216 280.392 58.66 279.108 58.996L279.564 59.728C280.896 59.368 281.856 58.864 282.444 58.216C282.588 58.048 282.708 57.856 282.828 57.664ZM282.468 59.068V60.004C282.444 61.132 282.18 62.032 281.7 62.728C281.172 63.4 280.248 63.94 278.928 64.348L279.396 65.08C280.764 64.648 281.748 64.06 282.348 63.304C282.588 62.968 282.792 62.596 282.96 62.176C283.536 63.496 284.724 64.48 286.524 65.104L287.04 64.336C284.784 63.676 283.536 62.452 283.296 60.652L283.332 60.004V59.068H282.468ZM285.528 54.604C285.24 55.42 284.88 56.14 284.448 56.74L285.156 57.136C285.612 56.488 285.984 55.744 286.284 54.88L285.528 54.604ZM285.492 60.088C285.204 60.88 284.844 61.564 284.412 62.14L285.12 62.548C285.576 61.924 285.948 61.192 286.248 60.364L285.492 60.088ZM277.092 54.376L276.492 54.964C277.38 55.564 278.064 56.14 278.568 56.692L279.168 56.092C278.616 55.516 277.92 54.952 277.092 54.376ZM276.768 57.268L276.156 57.856C277.044 58.468 277.74 59.044 278.244 59.596L278.844 58.996C278.28 58.42 277.584 57.844 276.768 57.268ZM278.112 60.424C277.608 61.888 277.02 63.316 276.324 64.708L277.116 65.056C277.752 63.712 278.34 62.26 278.868 60.712L278.112 60.424ZM287.892 57.244V58.084H290.94C290.316 60.316 289.188 62.044 287.544 63.256L288.096 63.964C289.944 62.596 291.168 60.58 291.792 57.928V57.244H287.892ZM297.18 56.092C296.388 57.124 295.512 58.048 294.54 58.852C294.18 58.18 293.868 57.46 293.616 56.692V54.148H292.728V63.808C292.728 64.168 292.56 64.36 292.248 64.36C291.792 64.36 291.3 64.336 290.796 64.3L290.976 65.152H292.548C293.256 65.152 293.616 64.768 293.616 64.024V58.564C294.504 60.652 296.004 62.5 298.092 64.108L298.62 63.328C297.108 62.32 295.872 61.06 294.936 59.536C295.956 58.744 296.94 57.76 297.876 56.608L297.18 56.092ZM106.848 74.272H104.916C105.156 73.672 105.336 73.012 105.48 72.304L104.616 72.184C104.508 72.904 104.34 73.6 104.1 74.272H102.984V82.804H103.824V81.772H106.008V82.456H106.848V74.272ZM103.824 80.968V78.34H106.008V80.968H103.824ZM103.824 77.56V75.088H106.008V77.56H103.824ZM108.936 77.056L108.24 77.488C109.068 78.472 109.728 79.36 110.22 80.152L110.904 79.672C110.448 78.928 109.8 78.052 108.936 77.056ZM113.052 74.284H109.224C109.44 73.66 109.608 72.988 109.752 72.28L108.9 72.172C108.588 73.876 108.024 75.316 107.184 76.492L107.7 77.176C108.168 76.564 108.564 75.88 108.9 75.124H112.2C112.176 78.58 112.128 80.656 112.056 81.328C111.96 81.94 111.636 82.252 111.072 82.252C110.7 82.252 110.268 82.24 109.764 82.216L109.968 83.008C110.544 83.032 110.952 83.056 111.192 83.056C112.2 83.056 112.752 82.588 112.872 81.676C112.992 80.74 113.052 78.268 113.052 74.284ZM118.62 74.656H123.228C122.772 76.204 122.016 77.584 120.936 78.808C120.12 78.088 119.148 77.356 118.008 76.624L117.396 77.212C118.584 77.992 119.556 78.736 120.324 79.444C119.076 80.656 117.444 81.664 115.452 82.456L115.956 83.236C120.36 81.448 123.084 78.568 124.116 74.608V73.816H119.088C119.352 73.312 119.568 72.796 119.748 72.244L118.884 72.136C118.152 74.236 116.748 76.012 114.66 77.452L115.212 78.172C116.64 77.152 117.78 75.976 118.62 74.656ZM130.404 72.628V76.216H135.804V72.628H130.404ZM135 75.544H131.196V74.74H135V75.544ZM131.196 74.116V73.324H135V74.116H131.196ZM129.612 76.924V77.68H131.34C130.932 78.328 130.284 78.904 129.396 79.384L129.888 80.032C130.332 79.756 130.728 79.456 131.076 79.132H132.252C131.7 79.924 130.8 80.572 129.552 81.076L130.056 81.688C131.448 81.064 132.456 80.212 133.056 79.132H134.04C133.296 80.788 132.072 81.904 130.368 82.48L130.824 83.176C132.672 82.516 134.004 81.172 134.82 79.132H135.444C135.396 80.488 135.288 81.376 135.132 81.784C134.988 82.192 134.688 82.396 134.22 82.396C133.98 82.396 133.716 82.384 133.452 82.36L133.668 83.14H134.616C135.072 83.116 135.408 82.972 135.624 82.708C135.84 82.42 135.984 81.928 136.08 81.22C136.176 80.5 136.236 79.576 136.26 78.424H131.7C131.868 78.184 132.024 77.944 132.156 77.68H136.68V76.924H129.612ZM126.192 72.676V83.188H127.008V73.444H128.688C128.448 74.428 128.1 75.544 127.668 76.768C128.292 77.812 128.604 78.748 128.604 79.588C128.604 79.852 128.544 80.032 128.424 80.14C128.304 80.248 128.052 80.308 127.692 80.332C127.572 80.332 127.428 80.32 127.248 80.296L127.512 81.124C128.256 81.112 128.772 80.968 129.084 80.692C129.288 80.464 129.396 80.092 129.396 79.588C129.348 78.7 129.048 77.728 128.472 76.648C128.868 75.496 129.204 74.392 129.492 73.312V72.676H126.192ZM139.176 72.604V76.768H146.472V72.604H139.176ZM145.62 76.036H140.028V75.052H145.62V76.036ZM140.028 74.344V73.348H145.62V74.344H140.028ZM142.476 78.448V82.036C142.224 81.988 142.008 81.928 141.816 81.868C141.192 81.64 140.616 81.112 140.112 80.272C140.268 79.876 140.4 79.456 140.52 79.012L139.704 78.868C139.308 80.368 138.552 81.568 137.448 82.456L138.012 83.164C138.732 82.576 139.332 81.844 139.8 80.956C140.28 81.748 140.832 82.276 141.444 82.552C142.152 82.852 143.496 83.008 145.476 83.008C146.16 83.02 146.928 83.032 147.792 83.032L148.032 82.216C147.324 82.24 146.448 82.252 145.416 82.252C144.624 82.252 143.928 82.216 143.352 82.168V80.572H146.808V79.804H143.352V78.448H148.092V77.656H137.472V78.448H142.476ZM149.088 76.852V77.596H150.192V81.784C149.844 81.808 149.484 81.82 149.1 81.844L149.208 82.588C150.984 82.468 152.4 82.312 153.432 82.132V83.224H154.272V77.596H159.672V76.852H149.088ZM151.008 81.724V80.656H153.432V81.436C152.736 81.556 151.92 81.652 151.008 81.724ZM151.008 80.02V79.12H153.432V80.02H151.008ZM151.008 78.472V77.596H153.432V78.472H151.008ZM155.28 79.084C155.508 79.936 155.94 80.704 156.588 81.388C156.036 81.844 155.364 82.228 154.572 82.54L155.016 83.224C155.856 82.888 156.576 82.456 157.176 81.94C157.74 82.42 158.436 82.852 159.264 83.236L159.708 82.516C158.94 82.192 158.28 81.82 157.728 81.4C158.316 80.74 158.736 79.96 158.976 79.048V78.364H154.908V79.084H155.28ZM157.128 80.884C156.6 80.356 156.24 79.756 156.024 79.084H158.184C157.968 79.744 157.62 80.344 157.128 80.884ZM158.172 72.628H150.624V76.252H151.464V73.3H157.332V76.216H158.172V72.628ZM151.956 74.092V74.704H156.852V74.092H151.956ZM151.932 75.4V76H156.876V75.4H151.932ZM161.112 73.408V74.2H165.528V75.352H161.784V76.096H165.528V77.272H160.716V78.064H171.204V77.272H166.392V76.096H170.172V75.352H166.392V74.2H170.808V73.408H168.132C168.348 73.036 168.516 72.64 168.636 72.22L167.736 72.1C167.628 72.544 167.472 72.976 167.256 73.408H164.7C164.532 72.94 164.34 72.52 164.148 72.148L163.26 72.292C163.464 72.628 163.656 73 163.824 73.408H161.112ZM165.66 78.4C165.612 78.736 165.528 79.048 165.42 79.36H160.992V80.152H165.036C164.82 80.488 164.544 80.776 164.232 81.04C163.464 81.652 162.192 82.12 160.44 82.432L160.8 83.272C162.768 82.864 164.148 82.312 164.928 81.616C165.384 81.196 165.756 80.704 166.032 80.152H170.94V79.36H166.332C166.404 79.084 166.464 78.796 166.512 78.496L165.66 78.4ZM166.8 80.608L166.344 81.292C167.928 81.772 169.476 82.444 170.988 83.284L171.48 82.54C170.076 81.784 168.516 81.136 166.8 80.608ZM176.4 74.272H174.468C174.708 73.672 174.888 73.012 175.032 72.304L174.168 72.184C174.06 72.904 173.892 73.6 173.652 74.272H172.536V82.804H173.376V81.772H175.56V82.456H176.4V74.272ZM173.376 80.968V78.34H175.56V80.968H173.376ZM173.376 77.56V75.088H175.56V77.56H173.376ZM178.488 77.056L177.792 77.488C178.62 78.472 179.28 79.36 179.772 80.152L180.456 79.672C180 78.928 179.352 78.052 178.488 77.056ZM182.604 74.284H178.776C178.992 73.66 179.16 72.988 179.304 72.28L178.452 72.172C178.14 73.876 177.576 75.316 176.736 76.492L177.252 77.176C177.72 76.564 178.116 75.88 178.452 75.124H181.752C181.728 78.58 181.68 80.656 181.608 81.328C181.512 81.94 181.188 82.252 180.624 82.252C180.252 82.252 179.82 82.24 179.316 82.216L179.52 83.008C180.096 83.032 180.504 83.056 180.744 83.056C181.752 83.056 182.304 82.588 182.424 81.676C182.544 80.74 182.604 78.268 182.604 74.284ZM188.04 75.652V78.928H190.224C190.164 79.132 190.104 79.336 190.032 79.54C189.528 80.728 188.52 81.712 186.984 82.504L187.548 83.188C189.276 82.276 190.392 81.1 190.884 79.684C190.956 79.444 191.028 79.192 191.1 78.928H191.232V82.012C191.232 82.66 191.544 82.984 192.168 82.984H193.308C193.716 82.984 194.028 82.864 194.22 82.648C194.436 82.396 194.58 81.676 194.664 80.5L193.908 80.26C193.86 81.196 193.776 81.772 193.644 81.964C193.56 82.12 193.392 82.204 193.152 82.204H192.408C192.168 82.204 192.048 82.072 192.048 81.832V78.928H193.968V75.376H191.892C192.3 74.956 192.696 74.44 193.104 73.828V73.192H190.116C190.284 72.904 190.44 72.616 190.596 72.304L189.732 72.124C189.096 73.384 188.28 74.404 187.272 75.196L187.812 75.844L188.04 75.652ZM190.92 75.376H188.352C188.808 74.956 189.228 74.488 189.612 73.96H192.084C191.7 74.5 191.316 74.968 190.92 75.376ZM193.176 78.16H191.256C191.352 77.56 191.412 76.888 191.436 76.144H193.176V78.16ZM190.404 78.16H188.82V76.144H190.596C190.572 76.864 190.512 77.536 190.404 78.16ZM187.104 73.108H184.128V82.288H184.956V81.316H187.104V73.108ZM184.956 80.512V77.512H186.276V80.512H184.956ZM184.956 76.72V73.912H186.276V76.72H184.956ZM199.368 77.164V77.704H202.056V77.164H199.368ZM200.412 75.496C199.188 76.576 197.448 77.452 195.192 78.124L195.648 78.82C196.212 78.64 196.752 78.448 197.268 78.232V82.132C197.268 82.36 197.184 82.504 197.028 82.552L197.244 83.188C198.612 83.02 199.74 82.828 200.652 82.612L200.52 81.964C199.752 82.132 198.948 82.288 198.108 82.42V81.1H203.892V78.22H197.292C198.612 77.668 199.764 76.972 200.724 76.144C201.828 77.164 203.508 78.028 205.764 78.724L206.22 78.028C203.772 77.296 202.056 76.456 201.048 75.496H200.412ZM198.024 72.112V73.924H197.196C197.292 73.708 197.388 73.492 197.46 73.252L196.692 73.156C196.428 73.9 195.948 74.524 195.24 75.04L195.72 75.664C195.948 75.484 196.164 75.292 196.368 75.088C196.728 75.34 197.064 75.592 197.364 75.844C196.74 76.108 196.044 76.312 195.276 76.468L195.648 77.104C197.76 76.624 199.332 75.736 200.34 74.428V73.924H198.78V73.216H200.436V72.58H198.78V72.112H198.024ZM197.976 75.544C197.628 75.244 197.22 74.944 196.752 74.644C196.776 74.608 196.8 74.572 196.836 74.524H199.356C198.972 74.908 198.504 75.244 197.976 75.544ZM201.492 73.456L201.12 74.008C201.624 74.224 202.116 74.488 202.62 74.776C202.26 74.968 201.864 75.136 201.432 75.292L201.9 75.928C202.428 75.724 202.92 75.484 203.364 75.22C204.084 75.664 204.792 76.18 205.5 76.756L205.956 76.048C205.344 75.592 204.696 75.16 204.024 74.752C204.6 74.272 205.032 73.72 205.332 73.084V72.52H201.132V73.216H204.396C204.132 73.624 203.76 74.008 203.304 74.344C202.728 74.032 202.128 73.732 201.492 73.456ZM198.108 79.9H203.088V80.5H198.108V79.9ZM203.088 79.384H198.108V78.784H203.088V79.384ZM204.804 80.44C204.384 80.92 203.904 81.364 203.376 81.784C202.656 81.568 201.912 81.376 201.12 81.196L200.748 81.748C202.308 82.108 203.82 82.612 205.296 83.26L205.728 82.588C205.224 82.396 204.696 82.204 204.144 82.024C204.624 81.652 205.08 81.244 205.512 80.788L204.804 80.44Z" fill="#3C3C43" fill-opacity="0.6"/>
<path d="M112.664 34.28C113.208 34.28 113.624 34.2 113.896 34.04C114.184 33.864 114.392 33.336 114.488 32.456L113.096 32.008C113.048 32.52 112.968 32.84 112.856 32.936C112.76 33.016 112.6 33.064 112.392 33.064H109.656C109.384 33.064 109.256 32.888 109.256 32.568V31.048H107.784V32.888C107.784 33.64 108.104 34.088 108.776 34.232C108.408 34.616 107.944 35 107.4 35.368C107.08 35.112 106.776 34.856 106.488 34.568L105.416 35.304C105.656 35.56 105.912 35.8 106.2 36.056C105.656 36.344 105.032 36.616 104.328 36.872L105.224 38.072C105.976 37.736 106.68 37.384 107.336 37C107.944 37.464 108.584 37.88 109.272 38.264C107.672 38.696 105.752 39.032 103.512 39.272L104.072 40.712C106.856 40.328 109.192 39.8 111.048 39.128C113.064 39.992 115.32 40.504 117.848 40.664L118.216 39.208C116.328 39.112 114.568 38.808 112.936 38.296C114.088 37.688 114.952 36.984 115.544 36.184V35.112H109.72C109.976 34.84 110.2 34.568 110.408 34.28H112.664ZM111.176 37.64C110.312 37.256 109.48 36.824 108.696 36.312H113.56C112.952 36.792 112.152 37.24 111.176 37.64ZM115.384 31.08L114.28 31.784C115.112 32.84 115.768 33.784 116.264 34.648L117.528 33.752C117.224 33.288 116.824 32.76 116.344 32.184H117.656V29.224H115.272C115.512 28.856 115.736 28.456 115.944 28.024L114.488 27.512C114.232 28.104 113.96 28.68 113.656 29.224H111.688C111.528 28.744 111.368 28.312 111.208 27.928L109.736 28.152C109.896 28.472 110.04 28.84 110.184 29.224H107.832C107.688 28.808 107.544 28.408 107.416 28.056L105.928 28.264C106.056 28.552 106.2 28.872 106.328 29.224H104.056V32.184H105.512V30.568H110.696L109.8 31.432C110.536 31.928 111.096 32.392 111.512 32.824L112.456 31.864C112.008 31.432 111.432 31 110.744 30.568H116.2V32.008C115.96 31.72 115.688 31.416 115.384 31.08ZM106.04 31.24C105.64 32.28 105.032 33.112 104.232 33.72L105.32 34.68C106.136 33.992 106.792 33.016 107.304 31.752L106.04 31.24ZM116.52 25.928C113.224 26.36 109.192 26.584 104.424 26.584L104.856 27.864C109.992 27.864 114.12 27.624 117.224 27.144L116.52 25.928ZM124.912 25.88V38.6H119.296V40.072H133.632V38.6H126.48V32.168H132.4V30.696H126.48V25.88H124.912ZM140.84 29.416H146.68C146.136 31.304 145.208 33 143.912 34.504C142.856 33.576 141.608 32.648 140.168 31.704L139.096 32.76C140.632 33.752 141.88 34.712 142.84 35.608C141.24 37.08 139.208 38.312 136.728 39.304L137.624 40.68C143.432 38.344 146.968 34.568 148.232 29.32V27.928H141.672C141.96 27.304 142.232 26.664 142.456 25.992L140.936 25.8C139.976 28.536 138.136 30.84 135.416 32.728L136.408 34.008C138.248 32.664 139.72 31.144 140.84 29.416ZM156.48 26.392V31.4H163.904V26.392H156.48ZM162.496 30.248H157.872V29.464H162.496V30.248ZM157.872 28.376V27.608H162.496V28.376H157.872ZM155.488 32.104V33.416H157.552C157.04 34.104 156.304 34.712 155.328 35.256C155.184 34.232 154.8 33.096 154.192 31.816C154.672 30.312 155.088 28.888 155.44 27.528V26.424H150.8V40.632H152.24V27.736H154.048C153.744 29.016 153.328 30.44 152.784 32.024C153.584 33.416 153.984 34.664 153.984 35.784C153.984 36.072 153.92 36.28 153.808 36.392C153.68 36.504 153.456 36.568 153.104 36.6C152.896 36.6 152.64 36.568 152.32 36.536L152.784 37.976C153.808 37.96 154.544 37.752 154.96 37.368C155.232 37.048 155.376 36.52 155.376 35.784C155.376 35.72 155.36 35.64 155.36 35.56L156.032 36.456C156.56 36.12 157.04 35.752 157.488 35.352H158.704C158 36.248 156.88 36.984 155.376 37.592L156.256 38.664C158.032 37.864 159.328 36.76 160.144 35.352H161.152C160.192 37.336 158.64 38.696 156.512 39.4L157.328 40.616C159.696 39.768 161.424 38.008 162.512 35.352H163.072C163.008 36.968 162.896 38.024 162.72 38.536C162.544 39.016 162.176 39.256 161.632 39.256C161.296 39.256 160.944 39.224 160.576 39.192L160.944 40.568H162.32C162.928 40.536 163.376 40.328 163.664 39.96C163.952 39.576 164.144 38.904 164.272 37.944C164.4 36.968 164.48 35.688 164.512 34.12H158.56C158.72 33.896 158.864 33.656 158.992 33.416H165.008V32.104H155.488ZM171.832 28.52H169.368C169.672 27.752 169.912 26.936 170.072 26.056L168.552 25.848C168.424 26.776 168.2 27.656 167.912 28.52H166.392V40.12H167.848V38.824H170.376V39.656H171.832V28.52ZM167.848 37.416V34.264H170.376V37.416H167.848ZM167.848 32.904V29.96H170.376V32.904H167.848ZM174.712 32.36L173.48 33.128C174.504 34.424 175.336 35.592 175.944 36.648L177.144 35.8C176.584 34.808 175.768 33.672 174.712 32.36ZM180.088 28.536H175.144C175.4 27.752 175.624 26.92 175.784 26.024L174.28 25.832C173.896 28.04 173.16 29.912 172.104 31.448L173.016 32.648C173.624 31.848 174.136 30.968 174.584 30.008H178.6C178.568 34.568 178.52 37.256 178.424 38.056C178.328 38.728 177.96 39.064 177.32 39.064C176.808 39.064 176.2 39.032 175.496 39L175.864 40.392C176.664 40.44 177.24 40.472 177.56 40.472C178.92 40.472 179.688 39.896 179.848 38.744C180.008 37.464 180.088 34.056 180.088 28.536ZM181.936 30.056V31.496H184.048V31.656C184.032 32.36 183.984 33.048 183.92 33.704H181.936V35.144H183.696C183.296 37.016 182.544 38.488 181.44 39.56L182.56 40.536C183.856 39.256 184.72 37.448 185.152 35.144H187.376C187.344 36.392 187.296 37.208 187.264 37.624C187.168 38.536 186.784 39 186.144 39C185.696 39 185.184 38.968 184.576 38.92L184.944 40.312C185.616 40.36 186.112 40.392 186.4 40.392C187.744 40.392 188.512 39.656 188.672 38.184C188.832 36.712 188.912 32.808 188.912 26.472H181.904V27.944H184.048V30.056H181.936ZM187.408 33.704H185.36C185.424 33.064 185.456 32.376 185.472 31.656V31.496H187.44L187.408 33.704ZM187.44 30.056H185.472V27.944H187.456C187.44 28.68 187.44 29.384 187.44 30.056ZM190.128 26.472V40.664H191.616V27.912H194.208C193.664 29.576 193.104 31.016 192.544 32.216C193.84 33.688 194.496 34.888 194.512 35.8C194.512 36.344 194.448 36.696 194.336 36.856C194.24 37.032 194 37.128 193.616 37.16C193.232 37.16 192.752 37.128 192.176 37.064L192.64 38.648C194 38.648 194.912 38.424 195.36 38.008C195.776 37.608 196 36.872 196 35.8C195.984 34.872 195.36 33.672 194.128 32.216C194.752 30.808 195.328 29.288 195.84 27.656V26.472H190.128ZM200.488 25.848C199.72 28.296 198.552 30.44 196.952 32.264L197.432 33.848C197.944 33.304 198.424 32.744 198.872 32.168V40.664H200.376V29.88C200.984 28.808 201.464 27.672 201.848 26.488L200.488 25.848ZM211.368 26.392H202.008V40.632H203.368V39.72H209.992V40.632H211.368V26.392ZM203.368 38.376V27.704H209.992V38.376H203.368ZM203.928 30.024V31.32H206.056V32.936H204.52V37.592H208.936V32.936H207.352V31.32H209.464V30.024H207.352V28.376H206.056V30.024H203.928ZM207.752 36.44H205.688V34.088H207.752V36.44ZM220.72 25.912H219.184C219.184 26.52 219.168 27.352 219.168 28.424C219.04 33.016 216.816 36.616 212.496 39.24L213.424 40.6C216.784 38.424 218.992 35.672 220.048 32.344C221.264 35.768 223.408 38.52 226.48 40.568L227.488 39.24C223.84 37 221.536 33.752 220.608 29.496C220.672 28.504 220.72 27.32 220.72 25.912Z" fill="#3179AA"/>
<path d="M10.3963 48.6134L52.9963 24C68 32.661 83 41.3296 98 49.9981L74.9113 63.3274L53 76L52.415 75.6623C38.5363 67.6317 28.5875 61.8864 18.5338 56.0849L8 49.9981L10.3963 48.6134Z" fill="#D0E0D5"/>
<path fill-rule="evenodd" clip-rule="evenodd" d="M58.5387 39.2243C58.055 38.7402 57.5112 38.32 56.915 37.9785C56.33 37.6407 55.6962 37.3743 55.025 37.1942C54.3762 37.0216 53.6975 36.9277 52.9963 36.9277C52.295 36.9277 51.6163 37.0216 50.9675 37.1942C50.2963 37.3743 49.6625 37.637 49.0775 37.9785C48.4813 38.3237 47.9375 38.744 47.4538 39.2243C46.97 39.7084 46.55 40.2526 46.2088 40.8492C45.8713 41.4346 45.605 42.0688 45.425 42.7405C45.2525 43.3897 45.1588 44.069 45.1588 44.7707H60.8337C60.8337 44.069 60.74 43.386 60.5675 42.7405C60.3875 42.0688 60.1212 41.4346 59.7837 40.8492C59.4425 40.2526 59.0225 39.7084 58.5387 39.2243Z" fill="#F47920"/>
<path fill-rule="evenodd" clip-rule="evenodd" d="M75.365 38.7744L60.5675 42.7409C60.74 43.3901 60.8338 44.0694 60.8338 44.7711H77.7688H85.7488L75.365 38.7744Z" fill="#FDAF27"/>
<path fill-rule="evenodd" clip-rule="evenodd" d="M60.5712 42.7407L75.3687 38.7742L69.3762 35.3105L59.7875 40.8494C60.125 41.4348 60.3912 42.069 60.5712 42.7407Z" fill="#D3B491"/>
<path fill-rule="evenodd" clip-rule="evenodd" d="M59.7875 40.8492L69.3762 35.3104L64.9887 32.7773L58.5425 39.2281C59.0225 39.7084 59.4425 40.2526 59.7875 40.8492Z" fill="#D3B491"/>
<path fill-rule="evenodd" clip-rule="evenodd" d="M58.5388 39.2242L64.985 32.7734L61.1863 30.5781L56.9188 37.9745C57.5113 38.3235 58.0588 38.7438 58.5388 39.2242Z" fill="#F9C304"/>
<path fill-rule="evenodd" clip-rule="evenodd" d="M56.9187 37.9784L61.1863 30.5782L57.3875 28.3867L55.0287 37.1941C55.6962 37.3742 56.33 37.6407 56.9187 37.9784Z" fill="#D3B491"/>
<path fill-rule="evenodd" clip-rule="evenodd" d="M55.0287 37.1946L57.3875 28.3834L53 25.8467V36.9244C53.7012 36.9282 54.38 37.022 55.0287 37.1946Z" fill="#D3B491"/>
<path fill-rule="evenodd" clip-rule="evenodd" d="M53 36.9273V25.8496L48.6125 28.3864L50.9712 37.1938C51.6162 37.0211 52.2987 36.9273 53 36.9273Z" fill="#D3B491"/>
<path fill-rule="evenodd" clip-rule="evenodd" d="M50.9713 37.1941L48.6125 28.3867L44.8138 30.582L49.0813 37.9784C49.6663 37.6369 50.3 37.3742 50.9713 37.1941Z" fill="#D3B491"/>
<path fill-rule="evenodd" clip-rule="evenodd" d="M49.0812 37.9783L44.81 30.5781L41.0112 32.7734L47.4575 39.2242C47.9412 38.7438 48.485 38.3235 49.0812 37.9783Z" fill="#F9C304"/>
<path fill-rule="evenodd" clip-rule="evenodd" d="M47.4575 39.2242L41.0112 32.7734L36.6237 35.3102L46.2125 40.8491C46.5537 40.2524 46.9737 39.7083 47.4575 39.2242Z" fill="#D3B491"/>
<path fill-rule="evenodd" clip-rule="evenodd" d="M46.2125 40.8494L36.6237 35.3105L30.6312 38.7742L45.4287 42.7407C45.605 42.069 45.8712 41.4348 46.2125 40.8494Z" fill="#D3B491"/>
<path fill-rule="evenodd" clip-rule="evenodd" d="M45.4287 42.7409L30.6312 38.7744L20.2475 44.7711H28.2275H45.1625C45.1625 44.0694 45.2562 43.3901 45.4287 42.7409Z" fill="#FDAF27"/>
<path fill-rule="evenodd" clip-rule="evenodd" d="M25.6175 47.3861C27.0613 47.3861 28.2313 46.2153 28.2313 44.7705H20.2513L15.725 47.3861H25.6175Z" fill="#74C9BC"/>
<path fill-rule="evenodd" clip-rule="evenodd" d="M28.2313 44.7705C28.2313 46.2153 29.4013 47.3861 30.8413 47.3861H33.455H72.545H75.1587C76.6025 47.3861 77.7725 46.2153 77.7725 44.7705H60.8375H45.1625H28.2313Z" fill="#74C9BC"/>
<path fill-rule="evenodd" clip-rule="evenodd" d="M72.545 47.3867H33.455C33.455 48.8315 34.625 50.0023 36.065 50.0023H69.9312C71.375 49.9985 72.545 48.8277 72.545 47.3867Z" fill="#00ADA2"/>
<path fill-rule="evenodd" clip-rule="evenodd" d="M77.7687 44.7705C77.7687 46.2153 78.9387 47.3861 80.3825 47.3861H90.275L85.7487 44.7705H77.7687Z" fill="#74C9BC"/>
<path fill-rule="evenodd" clip-rule="evenodd" d="M80.3825 47.3861C78.9387 47.3861 77.7687 46.2153 77.7687 44.7705V47.3861C77.7687 48.8308 78.9387 50.0017 80.3825 50.0017H94.8012L90.275 47.3861H80.3825Z" fill="#00ADA2"/>
<path fill-rule="evenodd" clip-rule="evenodd" d="M75.155 49.9977C76.5987 49.9977 77.7687 48.8269 77.7687 47.3822V44.7666C77.7687 46.2114 76.5987 47.3822 75.155 47.3822H72.5413C72.545 48.8269 73.715 49.9977 75.155 49.9977Z" fill="#00ADA2"/>
<path fill-rule="evenodd" clip-rule="evenodd" d="M77.7687 47.3867C77.7687 48.8315 76.5987 50.0023 75.155 50.0023C73.7113 50.0023 72.5413 48.8315 72.5413 47.3867V50.0023C72.5413 51.447 73.7113 52.6179 75.155 52.6179C76.5987 52.6179 77.7687 51.447 77.7687 50.0023V47.3867Z" fill="#00ADA2"/>
<path fill-rule="evenodd" clip-rule="evenodd" d="M77.7687 47.3867V50.0023C77.7687 51.447 78.9387 52.6179 80.3825 52.6179H90.275L94.8012 50.0023H80.3825C78.9387 49.9985 77.7687 48.8277 77.7687 47.3867Z" fill="#00ADA2"/>
<path fill-rule="evenodd" clip-rule="evenodd" d="M80.3825 52.6136C78.9387 52.6136 77.7687 51.4428 77.7687 49.998V52.6136C77.7687 54.0584 78.9387 55.2292 80.3825 55.2292H85.7487L90.275 52.6136H80.3825Z" fill="#38878A"/>
<path fill-rule="evenodd" clip-rule="evenodd" d="M77.7687 58.3585V52.6133C77.7687 54.058 76.5987 55.2289 75.155 55.2289C73.7113 55.2289 72.5413 54.058 72.5413 52.6133V55.2289V62.8579L77.765 59.8408V58.3585H77.7687Z" fill="#38878A"/>
<path fill-rule="evenodd" clip-rule="evenodd" d="M77.7687 52.6133V58.3585V59.8371L85.7487 55.2251H80.3825C78.9387 55.2289 77.7687 54.058 77.7687 52.6133Z" fill="#38878A"/>
<path fill-rule="evenodd" clip-rule="evenodd" d="M75.155 55.2292C76.5987 55.2292 77.7687 54.0584 77.7687 52.6136V49.998C77.7687 51.4428 76.5987 52.6136 75.155 52.6136C73.7113 52.6136 72.5413 51.4428 72.5413 49.998V52.6136C72.545 54.0584 73.715 55.2292 75.155 55.2292Z" fill="#38878A"/>
<path fill-rule="evenodd" clip-rule="evenodd" d="M72.545 62.8586V55.2295V52.614V49.9984V47.3828C72.545 48.8276 71.375 49.9984 69.9312 49.9984H36.065C34.6212 49.9984 33.455 48.8276 33.455 47.3828V49.9984V52.614V55.2295V62.8586L38.3637 65.6956H67.6325L72.545 62.8586Z" fill="#38878A"/>
<path fill-rule="evenodd" clip-rule="evenodd" d="M67.6325 65.6953H38.3638L42.89 68.3071H63.11L67.6325 65.6953Z" fill="#8C7F75"/>
<path fill-rule="evenodd" clip-rule="evenodd" d="M63.11 68.3066H42.89L47.4163 70.9222H58.58L63.11 68.3066Z" fill="#8C7F75"/>
<path fill-rule="evenodd" clip-rule="evenodd" d="M58.58 70.9229H47.4163L53 74.1501L58.58 70.9229Z" fill="#8C7F75"/>
<path fill-rule="evenodd" clip-rule="evenodd" d="M30.8413 55.2292C32.285 55.2292 33.455 54.0584 33.455 52.6136V49.998C33.455 51.4428 32.285 52.6136 30.8413 52.6136C29.3975 52.6136 28.2275 51.4428 28.2275 49.998V52.6136C28.2313 54.0584 29.4013 55.2292 30.8413 55.2292Z" fill="#38878A"/>
<path fill-rule="evenodd" clip-rule="evenodd" d="M30.8413 52.614C32.285 52.614 33.455 51.4431 33.455 49.9984V47.3828C33.455 48.8276 32.285 49.9984 30.8413 49.9984C29.3975 49.9984 28.2275 48.8276 28.2275 47.3828V49.9984C28.2313 51.4431 29.4013 52.614 30.8413 52.614Z" fill="#00ADA2"/>
<path fill-rule="evenodd" clip-rule="evenodd" d="M30.8413 49.9977C32.285 49.9977 33.455 48.8269 33.455 47.3822H30.8413C29.3975 47.3822 28.2313 46.2114 28.2313 44.7666V47.3822C28.2313 48.8269 29.4013 49.9977 30.8413 49.9977Z" fill="#00ADA2"/>
<path fill-rule="evenodd" clip-rule="evenodd" d="M25.6175 49.9977C27.0613 49.9977 28.2313 48.8269 28.2313 47.3822V44.7666C28.2313 46.2114 27.0613 47.3822 25.6175 47.3822H15.725L11.2025 49.9977H25.6175Z" fill="#00ADA2"/>
<path fill-rule="evenodd" clip-rule="evenodd" d="M28.2313 47.3867C28.2313 48.8315 27.0613 50.0023 25.6175 50.0023H11.2025L15.725 52.6141H25.6175C27.0613 52.6141 28.2313 51.4433 28.2313 49.9985V47.3867Z" fill="#00ADA2"/>
<path fill-rule="evenodd" clip-rule="evenodd" d="M28.2313 49.998C28.2313 51.4428 27.0613 52.6136 25.6175 52.6136H15.725L20.2513 55.2292H25.6175C27.0613 55.2292 28.2313 54.0584 28.2313 52.6136V49.998Z" fill="#38878A"/>
<path fill-rule="evenodd" clip-rule="evenodd" d="M28.2313 52.6133C28.2313 54.058 27.0613 55.2289 25.6175 55.2289H20.2513L28.2313 59.8371V58.8914V52.6133Z" fill="#38878A"/>
<path fill-rule="evenodd" clip-rule="evenodd" d="M28.2313 52.6133V58.8952V59.8371L33.455 62.8542V55.2289V52.6133C33.455 54.058 32.285 55.2289 30.8413 55.2289C29.4013 55.2289 28.2313 54.058 28.2313 52.6133Z" fill="#38878A"/>
<path d="M10.9812 49.6194L53 25.3438C67.2275 33.5582 81.4474 41.7802 95.6712 49.9984C81.4437 58.2092 67.2162 66.4274 53 74.6531C38.78 66.4274 24.5525 58.2167 10.3287 49.9984L10.9812 49.6194ZM52.5612 26.6084L49.1225 28.5973L51.2825 36.6691C51.6987 36.5828 52.1262 36.5265 52.5612 36.5003V26.6084ZM48.335 29.0476L45.4062 30.74L49.2425 37.3896C49.625 37.1945 50.0225 37.0294 50.435 36.8943L48.335 29.0476ZM44.6525 31.1791L41.7237 32.8715L47.465 38.6168C47.7837 38.3278 48.125 38.0651 48.4887 37.8287L44.6525 31.1791ZM40.94 33.3218L37.4975 35.3107L46.0625 40.2566C46.2987 39.8964 46.5612 39.5512 46.85 39.2322L40.94 33.3218ZM36.6237 35.8173L31.7637 38.6243L45.1287 42.208C45.2637 41.7952 45.4287 41.3974 45.6237 41.0147L36.6237 35.8173ZM30.6912 39.2434L21.8825 44.332H44.735C44.7575 43.8967 44.8137 43.4689 44.9037 43.0523L30.6912 39.2434ZM20.3675 45.2101L17.36 46.9476H25.6212C26.2212 46.9476 26.765 46.7036 27.1587 46.3096C27.455 46.0132 27.665 45.6341 27.7512 45.2101H20.3675ZM15.8412 47.8219L12.8337 49.5594H25.6175C26.2175 49.5594 26.7612 49.3155 27.155 48.9214C27.5487 48.5274 27.7925 47.9833 27.7925 47.3829V46.9063L27.7737 46.925C27.2187 47.4804 26.4575 47.8219 25.6175 47.8219H15.8412ZM93.1662 49.5631L90.1587 47.8257H80.3825C79.5387 47.8257 78.7775 47.4842 78.2262 46.9326L78.2075 46.9138V47.3904C78.2075 47.9908 78.4512 48.5349 78.8412 48.9289C79.235 49.323 79.7787 49.5669 80.3787 49.5669H86.7725H93.1662V49.5631ZM88.6399 46.9476L85.6325 45.2101H78.2487C78.335 45.6341 78.545 46.0169 78.8412 46.3096C79.235 46.7036 79.7787 46.9476 80.3787 46.9476H88.6399ZM84.1175 44.332L75.3087 39.2434L61.0962 43.0523C61.1825 43.4689 61.2425 43.8967 61.265 44.332H84.1175ZM74.2362 38.6243L69.3725 35.8135L60.3725 41.0109C60.5675 41.3937 60.7325 41.7915 60.8675 42.2043L74.2362 38.6243ZM68.5025 35.3107L65.06 33.3218L59.15 39.2359C59.4387 39.5549 59.7012 39.9001 59.9375 40.2604L68.5025 35.3107ZM64.2725 32.8677L61.3437 31.1753L57.5075 37.825C57.8675 38.0614 58.2125 38.324 58.5312 38.613L64.2725 32.8677ZM60.59 30.74L57.6612 29.0476L55.5612 36.8943C55.9737 37.0294 56.3712 37.1945 56.7537 37.3896L60.59 30.74ZM56.8775 28.5973L53.4387 26.6084V36.504C53.8737 36.5265 54.3012 36.5828 54.7175 36.6729L56.8775 28.5973ZM53 73.6437L56.9525 71.3621H49.0512L53 73.6437ZM58.4675 70.484L61.4787 68.7465H44.5212L47.5325 70.484H58.4675ZM62.9937 67.8684L66.0012 66.1309H39.9987L43.0062 67.8684H62.9937ZM67.52 65.2566L72.1062 62.6072V57.3686L72.0875 57.3873C71.5325 57.9427 70.7712 58.2842 69.9312 58.2842V57.4061C70.5312 57.4061 71.075 57.1622 71.4687 56.7682C71.8625 56.3741 72.1062 55.83 72.1062 55.2296V54.753L72.0875 54.7718C71.5325 55.3272 70.7712 55.6686 69.9312 55.6686V54.7905C70.5312 54.7905 71.075 54.5466 71.4687 54.1526C71.8625 53.7586 72.1062 53.2144 72.1062 52.614V52.1374L72.0875 52.1562C71.5325 52.7116 70.7712 53.0531 69.9312 53.0531V52.175C70.5312 52.175 71.075 51.931 71.4687 51.537C71.8625 51.143 72.1062 50.5989 72.1062 49.9984V49.5219L72.0875 49.5406C71.5325 50.096 70.7712 50.4375 69.9312 50.4375H36.065C35.225 50.4375 34.4637 50.096 33.9087 49.5406L33.89 49.5256V49.9984C33.89 50.5989 34.1337 51.143 34.5237 51.537C34.9175 51.931 35.4612 52.175 36.0612 52.175V53.0531C35.2175 53.0531 34.4562 52.7116 33.905 52.1599L33.8862 52.1412V52.6178C33.8862 53.2182 34.13 53.7623 34.52 54.1563C34.9137 54.5504 35.4575 54.7943 36.0575 54.7943V55.6724C35.2137 55.6724 34.4525 55.3309 33.9012 54.7793L33.8825 54.7605V55.2371C33.8825 55.8375 34.1262 56.3816 34.5162 56.7757C34.91 57.1697 35.4537 57.4136 36.0537 57.4136V58.2917C35.21 58.2917 34.4487 57.9502 33.8975 57.3986L33.8787 57.3798V62.6185L38.465 65.2678H67.52V65.2566ZM72.9837 62.1006L77.3337 59.5864V54.753L77.315 54.7718C76.76 55.3272 75.9987 55.6686 75.1587 55.6686C74.315 55.6686 73.5537 55.3272 73.0025 54.7755L72.9837 54.7568V55.2333C72.9837 55.8338 73.2275 56.3779 73.6175 56.7719C74.0112 57.1659 74.555 57.4099 75.155 57.4099V58.288C74.3112 58.288 73.55 57.9465 72.9987 57.3948L72.98 57.3761V62.1006H72.9837ZM78.2075 59.0798L84.1175 55.6649H80.3787C79.535 55.6649 78.7737 55.3234 78.2225 54.7718L78.2037 54.753V59.0798H78.2075ZM85.6362 54.7905L88.6437 53.0531H80.3825C79.5387 53.0531 78.7775 52.7116 78.2262 52.1599L78.2075 52.1412V52.6178C78.2075 53.2182 78.4512 53.7623 78.8412 54.1563C79.235 54.5504 79.7787 54.7943 80.3787 54.7943H85.6362V54.7905ZM90.1587 52.175L93.1662 50.4375H80.3787C79.535 50.4375 78.7737 50.096 78.2225 49.5444L78.2037 49.5256V50.0022C78.2037 50.6026 78.4475 51.1467 78.8375 51.5408C79.2312 51.9348 79.775 52.1787 80.375 52.1787H90.1587V52.175ZM12.8337 50.4375L15.8412 52.175H25.6175C26.2175 52.175 26.7612 51.931 27.155 51.537C27.5487 51.143 27.7925 50.5989 27.7925 49.9984V49.5219L27.7737 49.5406C27.2187 50.096 26.4575 50.4375 25.6175 50.4375H12.8337ZM17.3562 53.0531L20.3637 54.7905H25.6175C26.2175 54.7905 26.7612 54.5466 27.155 54.1526C27.5487 53.7586 27.7925 53.2144 27.7925 52.614V52.1374L27.7737 52.1562C27.2187 52.7116 26.4575 53.0531 25.6175 53.0531H17.3562ZM21.8825 55.6649L27.7925 59.0798V54.753L27.7737 54.7718C27.2187 55.3272 26.4575 55.6686 25.6175 55.6686H21.8825V55.6649ZM28.6662 59.5864L33.0162 62.1006V57.3686L32.9975 57.3873C32.4425 57.9427 31.6812 58.2842 30.8412 58.2842V57.4061C31.4412 57.4061 31.985 57.1622 32.3787 56.7682C32.7725 56.3741 33.0162 55.83 33.0162 55.2296V54.753L32.9975 54.7718C32.4425 55.3272 31.6812 55.6686 30.8412 55.6686C29.9975 55.6686 29.2362 55.3272 28.685 54.7755L28.6662 54.7568V59.5864ZM36.065 49.5631H69.9312C70.5312 49.5631 71.075 49.3192 71.4687 48.9252C71.765 48.6287 71.975 48.2497 72.0612 47.8219H33.935C34.0212 48.246 34.2312 48.6287 34.5275 48.9214C34.9212 49.3192 35.465 49.5631 36.065 49.5631ZM75.155 47.8219H73.025C73.1112 48.246 73.3212 48.6287 73.6175 48.9252C74.0112 49.3192 74.555 49.5631 75.155 49.5631C75.755 49.5631 76.2987 49.3192 76.6925 48.9252C77.0862 48.5312 77.33 47.987 77.33 47.3866V46.91L77.3112 46.9288C76.76 47.4804 75.9987 47.8219 75.155 47.8219ZM32.9712 47.8219H30.8412C30.0012 47.8219 29.24 47.4804 28.685 46.925L28.6662 46.91V47.3829C28.6662 47.9833 28.91 48.5274 29.3 48.9214C29.6937 49.3155 30.2375 49.5594 30.8375 49.5594C31.4375 49.5594 31.9812 49.3155 32.375 48.9214C32.675 48.6287 32.885 48.2497 32.9712 47.8219ZM30.8412 46.9476H75.155C75.755 46.9476 76.2987 46.7036 76.6925 46.3096C76.9887 46.0132 77.1987 45.6341 77.285 45.2101H28.7112C28.7975 45.6341 29.0075 46.0169 29.3037 46.3096C29.6975 46.7036 30.2412 46.9476 30.8412 46.9476ZM45.6125 44.332H60.3837C60.275 42.4632 59.4725 40.7783 58.2312 39.5361C56.8925 38.1965 55.0437 37.3671 53 37.3671C50.9562 37.3671 49.1075 38.1965 47.7687 39.5361C46.5237 40.7783 45.7212 42.4632 45.6125 44.332ZM77.33 52.614V52.1374L77.3112 52.1562C76.7562 52.7116 75.995 53.0531 75.155 53.0531C74.3112 53.0531 73.55 52.7116 72.9987 52.1599L72.98 52.1412V52.6178C72.98 53.2182 73.2237 53.7623 73.6137 54.1563C74.0075 54.5504 74.5512 54.7943 75.1512 54.7943C75.7512 54.7943 76.295 54.5504 76.6887 54.1563C77.0862 53.7586 77.33 53.2144 77.33 52.614ZM77.33 49.9984V49.5219L77.3112 49.5406C76.7562 50.096 75.995 50.4375 75.155 50.4375C74.3112 50.4375 73.55 50.096 72.9987 49.5444L72.98 49.5256V50.0022C72.98 50.6026 73.2237 51.1467 73.6137 51.5408C74.0075 51.9348 74.5512 52.1787 75.1512 52.1787C75.7512 52.1787 76.295 51.9348 76.6887 51.5408C77.0862 51.1467 77.33 50.6026 77.33 49.9984ZM28.6662 49.5256V50.0022C28.6662 50.6026 28.91 51.1467 29.3 51.5408C29.6937 51.9348 30.2375 52.1787 30.8375 52.1787C31.4375 52.1787 31.9812 51.9348 32.375 51.5408C32.7687 51.1467 33.0125 50.6026 33.0125 50.0022V49.5256L32.9937 49.5444C32.4387 50.0998 31.6775 50.4412 30.8375 50.4412C29.9937 50.4412 29.2325 50.0998 28.6812 49.5481L28.6662 49.5256ZM28.6662 52.1374V52.614C28.6662 53.2144 28.91 53.7586 29.3 54.1526C29.6937 54.5466 30.2375 54.7905 30.8375 54.7905C31.4375 54.7905 31.9812 54.5466 32.375 54.1526C32.7687 53.7586 33.0125 53.2144 33.0125 52.614V52.1374L32.9937 52.1562C32.4387 52.7116 31.6775 53.0531 30.8375 53.0531C29.9937 53.0531 29.2325 52.7116 28.6812 52.1599L28.6662 52.1374Z" fill="#2E3B4F"/>
<path d="M43.6749 56.5404C44.6147 56.5404 45.1943 56.069 45.1943 55.3242V55.3216C45.1943 54.7357 44.8471 54.418 44.0508 54.2539L43.6514 54.1732C43.2076 54.082 43.0249 53.9362 43.0249 53.6914V53.6888C43.0249 53.4076 43.2833 53.2305 43.6723 53.2279C44.0691 53.2279 44.3302 53.4154 44.3746 53.6836L44.3798 53.7148H45.1212L45.1186 53.681C45.069 53.0534 44.5521 52.5898 43.6723 52.5898C42.8369 52.5898 42.2365 53.0508 42.2365 53.7487V53.7513C42.2365 54.3216 42.5732 54.6862 43.3564 54.8451L43.7532 54.9258C44.2205 55.0221 44.4059 55.1602 44.4059 55.4076V55.4102C44.4059 55.6992 44.1161 55.8997 43.6958 55.8997C43.2546 55.8997 42.9492 55.7096 42.9204 55.4284L42.9178 55.4023H42.1581L42.1608 55.444C42.2051 56.1107 42.7742 56.5404 43.6749 56.5404Z" fill="#D0E0D5"/>
<path d="M47.5177 56.5404C48.4889 56.5404 49.0945 55.9805 49.0945 55.1471V52.6862H48.3061V55.0768C48.3061 55.5638 48.0242 55.8737 47.5177 55.8737C47.0113 55.8737 46.7267 55.5638 46.7267 55.0768V52.6862H45.9383V55.1471C45.9383 55.9831 46.5518 56.5404 47.5177 56.5404Z" fill="#D0E0D5"/>
<path d="M50.0083 56.444H50.7627V54.0404H50.8045L52.5484 56.444H53.201V52.6862H52.4466V55.0794H52.4048L50.6661 52.6862H50.0083V56.444Z" fill="#D0E0D5"/>
<path d="M55.4644 56.5404C56.4043 56.5404 56.9838 56.069 56.9838 55.3242V55.3216C56.9838 54.7357 56.6366 54.418 55.8404 54.2539L55.4409 54.1732C54.9971 54.082 54.8144 53.9362 54.8144 53.6914V53.6888C54.8144 53.4076 55.0728 53.2305 55.4618 53.2279C55.8586 53.2279 56.1197 53.4154 56.1641 53.6836L56.1693 53.7148H56.9107L56.9081 53.681C56.8585 53.0534 56.3416 52.5898 55.4618 52.5898C54.6264 52.5898 54.026 53.0508 54.026 53.7487V53.7513C54.026 54.3216 54.3628 54.6862 55.1459 54.8451L55.5428 54.9258C56.0101 55.0221 56.1954 55.1602 56.1954 55.4076V55.4102C56.1954 55.6992 55.9056 55.8997 55.4853 55.8997C55.0441 55.8997 54.7387 55.7096 54.71 55.4284L54.7074 55.4023H53.9477L53.9503 55.444C53.9947 56.1107 54.5638 56.5404 55.4644 56.5404Z" fill="#D0E0D5"/>
<path d="M57.7304 56.444H60.2262V55.7956H58.5189V54.8451H60.1296V54.2409H58.5189V53.3346H60.2262V52.6862H57.7304V56.444Z" fill="#D0E0D5"/>
<path d="M61.9701 56.444H62.7585V53.3346H63.8889V52.6862H60.8397V53.3346H61.9701V56.444Z" fill="#D0E0D5"/>
<path d="M44.4268 62.6662H46.8912V62.0178H45.2152V58.9084H44.4268V62.6662Z" fill="#D0E0D5"/>
<path d="M49.1494 62.7626C50.2615 62.7626 50.9611 62.0022 50.9611 60.7886V60.7834C50.9611 59.5699 50.2589 58.8121 49.1494 58.8121C48.0399 58.8121 47.335 59.5673 47.335 60.7834V60.7886C47.335 62.0022 48.0294 62.7626 49.1494 62.7626ZM49.1494 62.0959C48.528 62.0959 48.1391 61.5829 48.1391 60.7886V60.7834C48.1391 59.9865 48.5359 59.4787 49.1494 59.4787C49.7602 59.4787 50.1571 59.9865 50.1571 60.7834V60.7886C50.1571 61.5829 49.7629 62.0959 49.1494 62.0959Z" fill="#D0E0D5"/>
<path d="M52.5771 62.6662H53.5482L54.804 58.9084H53.9163L53.0862 61.7912H53.0392L52.2064 58.9084H51.3214L52.5771 62.6662Z" fill="#D0E0D5"/>
<path d="M55.4488 62.6662H57.9445V62.0178H56.2372V61.0673H57.8479V60.4631H56.2372V59.5569H57.9445V58.9084H55.4488V62.6662Z" fill="#D0E0D5"/>
<path d="M58.7747 62.6662H59.5631V61.2912H60.2079L60.9102 62.6662H61.803L61.0094 61.174C61.4401 61.0048 61.6907 60.5907 61.6907 60.1089V60.1037C61.6907 59.3641 61.2 58.9084 60.3437 58.9084H58.7747V62.6662ZM59.5631 60.7183V59.523H60.2471C60.6413 59.523 60.8841 59.7574 60.8841 60.1194V60.1246C60.8841 60.4944 60.6517 60.7183 60.2575 60.7183H59.5631Z" fill="#D0E0D5"/>
<path d="M340.304 50.0645C340.304 49.8936 340.235 49.7363 340.105 49.6133L334.691 44.3086C334.568 44.1924 334.418 44.1309 334.24 44.1309C333.892 44.1309 333.618 44.3975 333.618 44.7529C333.618 44.9238 333.687 45.0811 333.796 45.1973L338.772 50.0645L333.796 54.9316C333.687 55.0479 333.618 55.1982 333.618 55.376C333.618 55.7314 333.892 55.998 334.24 55.998C334.418 55.998 334.568 55.9365 334.691 55.8135L340.105 50.5156C340.235 50.3857 340.304 50.2354 340.304 50.0645Z" fill="#696969"/>
</svg>
