<svg width="389" height="220" viewBox="0 0 389 220" fill="none" xmlns="http://www.w3.org/2000/svg">
<g filter="url(#filter0_d_648_3623)">
<g clip-path="url(#clip0_648_3623)">
<rect x="11" y="10" width="366" height="192" rx="6" fill="white"/>
<path d="M149.04 10.5H301.238L281.903 32.7814C281.885 32.8024 281.865 32.822 281.843 32.8397L262.63 48.6544C262.182 49.0228 261.62 49.2242 261.041 49.2242H222.31C221.915 49.2242 221.536 49.3797 221.256 49.657L141.697 128.24C141.416 128.517 141.038 128.673 140.643 128.673H-4.78228L33.9846 90.3812C34.2654 90.1039 34.6441 89.9484 35.0387 89.9484H73.5625C74.258 89.9484 74.922 89.6587 75.395 89.149L147.94 10.9796L147.574 10.6395L147.94 10.9796C148.224 10.6738 148.622 10.5 149.04 10.5Z" fill="url(#paint0_linear_648_3623)" fill-opacity="0.03" stroke="white"/>
<path d="M242.881 83.3276H395.079L375.744 105.609C375.725 105.63 375.705 105.65 375.684 105.667L356.471 121.482C356.023 121.85 355.461 122.052 354.882 122.052H316.151C315.756 122.052 315.377 122.207 315.097 122.485L235.538 201.067C235.257 201.345 234.879 201.5 234.484 201.5H89.0587L127.826 163.209C128.106 162.932 128.485 162.776 128.88 162.776H167.403C168.099 162.776 168.763 162.486 169.236 161.977L241.781 83.8073L241.415 83.4671L241.781 83.8073C242.065 83.5014 242.463 83.3276 242.881 83.3276Z" fill="url(#paint1_linear_648_3623)" fill-opacity="0.03" stroke="white"/>
<path d="M161.828 56.5781C166.891 56.5781 170.391 53.3438 170.391 48.5938V48.5625C170.391 44.2656 167.359 41.1719 163.156 41.1719C161 41.1719 159.25 42.1094 158.344 43.625H158.062L158.625 37.2031H169.047V33.4531H154.953L153.906 46.7969H157.953C158.203 46.3125 158.578 45.8906 159 45.5469C159.75 44.9062 160.719 44.5781 161.859 44.5781C164.25 44.5781 165.953 46.25 165.953 48.6562V48.6875C165.953 51.1094 164.266 52.8125 161.844 52.8125C159.719 52.8125 158.172 51.4844 157.844 49.8281L157.812 49.7188H153.531L153.547 49.9375C153.812 53.7031 157 56.5781 161.828 56.5781ZM183.359 56.5C188.781 56.5 192.516 53.7969 192.516 49.8906V49.8594C192.516 46.9219 190.312 44.7344 187.25 44.1406V44.0469C189.875 43.3906 191.688 41.5 191.688 39.0469V39.0156C191.688 35.5156 188.25 32.9531 183.359 32.9531C178.453 32.9531 175.031 35.5156 175.031 39.0156V39.0469C175.031 41.5 176.828 43.4062 179.469 44.0469V44.1406C176.391 44.75 174.203 46.9219 174.203 49.8594V49.8906C174.203 53.7969 177.938 56.5 183.359 56.5ZM183.359 42.625C181.188 42.625 179.688 41.3438 179.688 39.5V39.4688C179.688 37.625 181.203 36.3594 183.359 36.3594C185.5 36.3594 187.016 37.625 187.016 39.4688V39.5C187.016 41.3438 185.516 42.625 183.359 42.625ZM183.359 53.0625C180.875 53.0625 179.125 51.6094 179.125 49.5781V49.5469C179.125 47.5156 180.859 46.0469 183.359 46.0469C185.859 46.0469 187.578 47.5156 187.578 49.5469V49.5781C187.578 51.6094 185.828 53.0625 183.359 53.0625ZM205.266 56.5781C210.844 56.5781 214.219 52.0156 214.219 44.7344V44.7031C214.219 37.4062 210.844 32.875 205.266 32.875C199.703 32.875 196.312 37.4062 196.312 44.7031V44.7344C196.312 52.0156 199.703 56.5781 205.266 56.5781ZM205.266 52.8438C202.609 52.8438 201.094 49.8281 201.094 44.7344V44.7031C201.094 39.5938 202.609 36.6094 205.266 36.6094C207.938 36.6094 209.453 39.5938 209.453 44.7031V44.7344C209.453 49.8281 207.938 52.8438 205.266 52.8438Z" fill="#3179AA"/>
<path d="M353 139L35 139" stroke="#DDDDDD" stroke-width="8" stroke-linecap="round"/>
<path d="M38.0778 157.772V158.444H40.7058V159.896H36.5178V160.952H40.7058V163.892H39.5538C39.2658 162.992 38.9538 162.224 38.6178 161.576L37.5978 161.948C37.9338 162.56 38.2218 163.208 38.4498 163.892H36.0978V164.972H46.4298V163.892H44.1138C44.4258 163.292 44.7138 162.62 44.9778 161.864L43.9458 161.492C43.6578 162.344 43.3338 163.148 42.9618 163.892H41.8338V160.952H46.0098V159.896H41.8338V158.444H44.4618V157.82C44.9658 158.108 45.5178 158.372 46.0938 158.612L46.7418 157.664C44.5098 156.74 42.8418 155.588 41.7258 154.196H40.8138C39.5178 155.612 37.8378 156.776 35.7618 157.688L36.4218 158.636C36.9978 158.372 37.5498 158.084 38.0778 157.772ZM43.8018 157.424H38.6418C39.6018 156.8 40.4778 156.08 41.2698 155.264C41.9778 156.08 42.8178 156.8 43.8018 157.424ZM52.0938 154.196V158.204H47.8818V159.308H52.0938V165.224H53.2458V161.492C54.2058 161.948 55.4058 162.608 56.8218 163.472L57.4698 162.5C56.0298 161.696 54.6258 160.988 53.2458 160.364V159.308H58.6218V158.204H53.2458V156.656H57.0618V155.564H53.2458V154.196H52.0938ZM67.0338 158.42C66.8658 158.864 66.6858 159.224 66.4818 159.512L67.2258 159.788C67.4538 159.452 67.6458 159.056 67.7898 158.612L67.0338 158.42ZM63.4578 158.408L62.7018 158.648C62.9298 159.008 63.1218 159.392 63.2778 159.788L64.0338 159.596C63.8658 159.152 63.6738 158.756 63.4578 158.408ZM60.9498 157.532V160.712H69.5658V157.52C69.7818 157.616 69.9978 157.724 70.2258 157.832L70.8258 156.872C68.9058 156.092 67.1658 155.192 65.6058 154.172H64.9098C63.3498 155.192 61.6098 156.092 59.6898 156.884L60.2898 157.832C60.5058 157.724 60.7338 157.628 60.9498 157.532ZM69.5178 157.496H61.0218C61.6578 157.184 62.2698 156.884 62.8458 156.584V157.004H67.6578V156.56C68.2218 156.872 68.8458 157.184 69.5178 157.496ZM68.5218 159.872H65.7738V158.348H68.5218V159.872ZM64.7418 159.872H61.9938V158.348H64.7418V159.872ZM69.1218 161.204H61.4058V165.272H62.4978V164.876H68.0298V165.26H69.1218V161.204ZM62.4978 163.976V163.388H68.0298V163.976H62.4978ZM62.4978 162.608V162.044H68.0298V162.608H62.4978ZM66.9378 156.164H63.6018C64.1898 155.816 64.7418 155.468 65.2578 155.132C65.7618 155.468 66.3138 155.804 66.9378 156.164ZM73.6938 154.532V157.052H80.8338V154.532H73.6938ZM79.7418 156.2H74.7858V155.396H79.7418V156.2ZM73.1178 157.592V163.1H75.3258C74.4258 163.604 73.3218 164.06 72.0258 164.456L72.6858 165.308C74.1498 164.816 75.3738 164.252 76.3698 163.604L75.7818 163.1H78.7098L78.1938 163.592C79.6698 164.204 80.8098 164.78 81.6138 165.32L82.4058 164.528C81.5418 164.048 80.5098 163.58 79.2858 163.1H81.4338V157.592H73.1178ZM80.3418 162.14H74.2098V161.468H80.3418V162.14ZM74.2098 160.604V159.98H80.3418V160.604H74.2098ZM74.2098 159.116V158.492H80.3418V159.116H74.2098ZM93.6406 165.822C96.9512 165.822 99.6934 163.086 99.6934 159.77C99.6934 156.459 96.9512 153.717 93.6348 153.717C90.3242 153.717 87.5879 156.459 87.5879 159.77C87.5879 163.086 90.3301 165.822 93.6406 165.822ZM93.6406 164.633C90.9453 164.633 88.7832 162.465 88.7832 159.77C88.7832 157.074 90.9395 154.912 93.6348 154.912C96.3301 154.912 98.498 157.074 98.5039 159.77C98.5039 162.465 96.3359 164.633 93.6406 164.633ZM93.6055 157.777C94.0508 157.777 94.4023 157.42 94.4023 156.98C94.4023 156.529 94.0508 156.172 93.6055 156.172C93.166 156.172 92.8086 156.529 92.8086 156.98C92.8086 157.42 93.166 157.777 93.6055 157.777ZM92.6035 162.957H94.9824C95.2461 162.957 95.4512 162.77 95.4512 162.506C95.4512 162.254 95.2461 162.055 94.9824 162.055H94.3262V159.271C94.3262 158.92 94.1504 158.691 93.8223 158.691H92.709C92.4512 158.691 92.2402 158.891 92.2402 159.143C92.2402 159.406 92.4512 159.594 92.709 159.594H93.3066V162.055H92.6035C92.3457 162.055 92.1406 162.254 92.1406 162.506C92.1406 162.77 92.3457 162.957 92.6035 162.957Z" fill="black"/>
<path d="M39.1133 183.158C40.9062 183.158 42.1777 182.115 42.1777 180.662V180.65C42.1777 179.467 41.3457 178.717 40.1035 178.605V178.576C41.1348 178.359 41.8848 177.656 41.8848 176.607V176.596C41.8848 175.289 40.7832 174.387 39.1016 174.387C37.4492 174.387 36.3242 175.33 36.1953 176.754L36.1895 176.818H37.4199L37.4258 176.76C37.5078 175.963 38.1641 175.465 39.1016 175.465C40.0566 175.465 40.6074 175.945 40.6074 176.766V176.777C40.6074 177.562 39.9512 178.131 38.9844 178.131H37.9941V179.15H39.0254C40.1504 179.15 40.8418 179.684 40.8418 180.639V180.65C40.8418 181.482 40.1445 182.062 39.1133 182.062C38.0645 182.062 37.3555 181.523 37.2734 180.756L37.2676 180.697H36.0137L36.0195 180.768C36.1309 182.168 37.3086 183.158 39.1133 183.158ZM46.8066 183.205C48.752 183.205 49.9297 181.5 49.9297 178.775V178.764C49.9297 176.039 48.752 174.34 46.8066 174.34C44.8555 174.34 43.6836 176.039 43.6836 178.764V178.775C43.6836 181.5 44.8555 183.205 46.8066 183.205ZM46.8066 182.115C45.6699 182.115 45.0078 180.844 45.0078 178.775V178.764C45.0078 176.695 45.6699 175.436 46.8066 175.436C47.9375 175.436 48.6055 176.695 48.6055 178.764V178.775C48.6055 180.844 47.9375 182.115 46.8066 182.115ZM54.5996 183.205C56.5449 183.205 57.7227 181.5 57.7227 178.775V178.764C57.7227 176.039 56.5449 174.34 54.5996 174.34C52.6484 174.34 51.4766 176.039 51.4766 178.764V178.775C51.4766 181.5 52.6484 183.205 54.5996 183.205ZM54.5996 182.115C53.4629 182.115 52.8008 180.844 52.8008 178.775V178.764C52.8008 176.695 53.4629 175.436 54.5996 175.436C55.7305 175.436 56.3984 176.695 56.3984 178.764V178.775C56.3984 180.844 55.7305 182.115 54.5996 182.115ZM68.1133 178.632V183.96H68.9413V179.46H71.9653V183.912H72.8293V178.632H68.1133ZM69.8533 172.944V178.896H70.7413V172.944H69.8533ZM70.3693 175.548V176.388H73.3093V175.548H70.3693ZM68.5453 182.568V183.396H72.3853V182.568H68.5453ZM63.4093 174.024H66.7093V176.928H63.4093V174.024ZM62.7013 173.364V177.588H67.4413V173.364H62.7013ZM63.5773 174.612C63.7813 175.2 63.9373 175.956 63.9613 176.46L64.4293 176.316C64.3933 175.836 64.2373 175.08 64.0333 174.492L63.5773 174.612ZM63.9853 181.488C64.1533 182.148 64.2733 183.012 64.2733 183.576L64.8973 183.492C64.8853 182.928 64.7653 182.064 64.5733 181.404L63.9853 181.488ZM65.1373 181.416C65.4013 182.028 65.6533 182.832 65.7253 183.36L66.3373 183.228C66.2533 182.7 65.9893 181.896 65.7133 181.296L65.1373 181.416ZM66.2773 181.248C66.6853 181.812 67.1053 182.58 67.2853 183.096L67.8853 182.82C67.7053 182.328 67.2733 181.584 66.8413 181.032L66.2773 181.248ZM62.9653 181.44C62.8573 182.268 62.6293 183.144 62.1613 183.636L62.7733 183.972C63.2893 183.432 63.4813 182.496 63.6013 181.608L62.9653 181.44ZM66.0373 174.456C65.9293 175.008 65.6893 175.86 65.5093 176.376L65.9053 176.532C66.1093 176.052 66.3493 175.272 66.5653 174.66L66.0373 174.456ZM62.3533 180.168L62.4013 180.96C63.7813 180.876 65.7733 180.756 67.6933 180.612L67.7173 179.892C65.7253 180.012 63.6853 180.108 62.3533 180.168ZM62.6173 178.404V179.136H67.5253V178.404H62.6173ZM64.7173 173.676V177.276H64.6213V180.372H65.4253V177.276H65.3293V173.676H64.7173Z" fill="#A0A0A0"/>
<path d="M293.346 157.94V159.008H292.038V160.04H293.346V163.556C292.842 163.652 292.338 163.724 291.822 163.784L292.098 164.912C293.418 164.684 294.666 164.408 295.83 164.072V163.004C295.374 163.124 294.906 163.244 294.438 163.34V160.04H295.746V159.008H294.438V157.94H295.278V157.244C295.278 157.244 295.29 157.256 295.302 157.28L295.95 156.572V157.076H296.538C296.502 157.436 296.43 157.7 296.322 157.892C296.154 158.144 295.902 158.36 295.554 158.54L296.082 159.224C296.514 158.96 296.826 158.648 297.018 158.288C297.15 158.024 297.246 157.616 297.294 157.076H297.678V157.916C297.678 158.024 297.618 158.12 297.51 158.204L297.846 158.912C298.302 158.72 298.758 158.48 299.214 158.204L299.07 157.52C298.878 157.628 298.674 157.736 298.47 157.832V157.076H298.926V156.284H298.218V155.648H298.842V154.856H298.218V154.22H297.294V154.856H296.946L296.994 154.52L296.322 154.412C296.25 155.048 296.106 155.552 295.878 155.912L296.406 156.284H295.95V156.428C295.398 155.66 294.822 154.928 294.198 154.208H293.442C292.866 155.36 292.23 156.344 291.546 157.184L292.158 158.036C292.29 157.856 292.422 157.676 292.566 157.496V157.94H293.346ZM296.79 155.648H297.294V156.284H296.502C296.61 156.116 296.706 155.912 296.79 155.648ZM292.638 160.592L291.846 160.868C292.062 161.564 292.254 162.296 292.398 163.064L293.178 162.872C293.022 162.008 292.842 161.252 292.638 160.592ZM295.146 160.448C295.002 161.3 294.822 162.008 294.618 162.56L295.374 162.848C295.614 162.224 295.806 161.504 295.974 160.676L295.146 160.448ZM292.938 156.968C293.286 156.44 293.61 155.888 293.922 155.3C294.246 155.684 294.642 156.248 295.098 156.968H292.938ZM296.622 159.056V163.604H297.942C297.39 163.94 296.634 164.228 295.65 164.444L296.13 165.272C297.234 165.008 298.086 164.672 298.674 164.24L298.194 163.604H300.21L299.862 164.276C300.75 164.516 301.602 164.864 302.418 165.296L302.778 164.396C302.07 164.06 301.338 163.796 300.57 163.604H302.01V159.056H296.622ZM300.942 162.74H297.702V162.236H300.942V162.74ZM297.702 161.528V161.084H300.942V161.528H297.702ZM297.702 160.388V159.896H300.942V160.388H297.702ZM299.934 155.648H300.522V156.284H299.67C299.766 156.116 299.862 155.912 299.934 155.648ZM299.598 156.284H299.214V157.076H299.802C299.766 157.352 299.718 157.568 299.646 157.724C299.55 157.94 299.382 158.132 299.142 158.3L299.658 158.96C299.994 158.72 300.234 158.432 300.378 158.12C300.474 157.88 300.546 157.532 300.582 157.076H300.906V158.144C300.906 158.336 300.966 158.504 301.086 158.648C301.206 158.768 301.374 158.84 301.602 158.84H302.034C302.274 158.828 302.442 158.768 302.526 158.672C302.622 158.564 302.694 158.204 302.754 157.604L302.106 157.388C302.082 157.808 302.058 158.048 302.034 158.096C301.998 158.132 301.95 158.156 301.902 158.156H301.842C301.746 158.156 301.71 158.096 301.71 157.976V157.076H302.526V156.284H301.434V155.648H302.262V154.856H301.434V154.22H300.522V154.856H300.102C300.126 154.736 300.138 154.592 300.162 154.448L299.49 154.352C299.418 155.012 299.274 155.528 299.034 155.9L299.598 156.284ZM308.094 154.196V158.204H303.882V159.308H308.094V165.224H309.246V161.492C310.206 161.948 311.406 162.608 312.822 163.472L313.47 162.5C312.03 161.696 310.626 160.988 309.246 160.364V159.308H314.622V158.204H309.246V156.656H313.062V155.564H309.246V154.196H308.094ZM323.034 158.42C322.866 158.864 322.686 159.224 322.482 159.512L323.226 159.788C323.454 159.452 323.646 159.056 323.79 158.612L323.034 158.42ZM319.458 158.408L318.702 158.648C318.93 159.008 319.122 159.392 319.278 159.788L320.034 159.596C319.866 159.152 319.674 158.756 319.458 158.408ZM316.95 157.532V160.712H325.566V157.52C325.782 157.616 325.998 157.724 326.226 157.832L326.826 156.872C324.906 156.092 323.166 155.192 321.606 154.172H320.91C319.35 155.192 317.61 156.092 315.69 156.884L316.29 157.832C316.506 157.724 316.734 157.628 316.95 157.532ZM325.518 157.496H317.022C317.658 157.184 318.27 156.884 318.846 156.584V157.004H323.658V156.56C324.222 156.872 324.846 157.184 325.518 157.496ZM324.522 159.872H321.774V158.348H324.522V159.872ZM320.742 159.872H317.994V158.348H320.742V159.872ZM325.122 161.204H317.406V165.272H318.498V164.876H324.03V165.26H325.122V161.204ZM318.498 163.976V163.388H324.03V163.976H318.498ZM318.498 162.608V162.044H324.03V162.608H318.498ZM322.938 156.164H319.602C320.19 155.816 320.742 155.468 321.258 155.132C321.762 155.468 322.314 155.804 322.938 156.164ZM329.694 154.532V157.052H336.834V154.532H329.694ZM335.742 156.2H330.786V155.396H335.742V156.2ZM329.118 157.592V163.1H331.326C330.426 163.604 329.322 164.06 328.026 164.456L328.686 165.308C330.15 164.816 331.374 164.252 332.37 163.604L331.782 163.1H334.71L334.194 163.592C335.67 164.204 336.81 164.78 337.614 165.32L338.406 164.528C337.542 164.048 336.51 163.58 335.286 163.1H337.434V157.592H329.118ZM336.342 162.14H330.21V161.468H336.342V162.14ZM330.21 160.604V159.98H336.342V160.604H330.21ZM330.21 159.116V158.492H336.342V159.116H330.21ZM349.641 165.822C352.951 165.822 355.693 163.086 355.693 159.77C355.693 156.459 352.951 153.717 349.635 153.717C346.324 153.717 343.588 156.459 343.588 159.77C343.588 163.086 346.33 165.822 349.641 165.822ZM349.641 164.633C346.945 164.633 344.783 162.465 344.783 159.77C344.783 157.074 346.939 154.912 349.635 154.912C352.33 154.912 354.498 157.074 354.504 159.77C354.504 162.465 352.336 164.633 349.641 164.633ZM349.605 157.777C350.051 157.777 350.402 157.42 350.402 156.98C350.402 156.529 350.051 156.172 349.605 156.172C349.166 156.172 348.809 156.529 348.809 156.98C348.809 157.42 349.166 157.777 349.605 157.777ZM348.604 162.957H350.982C351.246 162.957 351.451 162.77 351.451 162.506C351.451 162.254 351.246 162.055 350.982 162.055H350.326V159.271C350.326 158.92 350.15 158.691 349.822 158.691H348.709C348.451 158.691 348.24 158.891 348.24 159.143C348.24 159.406 348.451 159.594 348.709 159.594H349.307V162.055H348.604C348.346 162.055 348.141 162.254 348.141 162.506C348.141 162.77 348.346 162.957 348.604 162.957Z" fill="black"/>
<path d="M327.586 174.469V175.242L324.176 183H322.688L326.092 175.594H321.674V174.469H327.586ZM334.301 178.02V179.414C334.301 180.082 334.234 180.652 334.102 181.125C333.973 181.594 333.785 181.975 333.539 182.268C333.293 182.561 332.998 182.775 332.654 182.912C332.314 183.049 331.934 183.117 331.512 183.117C331.176 183.117 330.863 183.074 330.574 182.988C330.289 182.902 330.031 182.768 329.801 182.584C329.57 182.4 329.373 182.164 329.209 181.875C329.049 181.582 328.924 181.232 328.834 180.826C328.748 180.42 328.705 179.949 328.705 179.414V178.02C328.705 177.348 328.771 176.781 328.904 176.32C329.037 175.855 329.227 175.479 329.473 175.189C329.719 174.896 330.012 174.684 330.352 174.551C330.695 174.418 331.078 174.352 331.5 174.352C331.84 174.352 332.152 174.395 332.438 174.48C332.727 174.562 332.984 174.693 333.211 174.873C333.441 175.053 333.637 175.287 333.797 175.576C333.961 175.861 334.086 176.207 334.172 176.613C334.258 177.016 334.301 177.484 334.301 178.02ZM332.889 179.613V177.809C332.889 177.469 332.869 177.17 332.83 176.912C332.791 176.65 332.732 176.43 332.654 176.25C332.58 176.066 332.486 175.918 332.373 175.805C332.26 175.688 332.131 175.604 331.986 175.553C331.842 175.498 331.68 175.471 331.5 175.471C331.281 175.471 331.086 175.514 330.914 175.6C330.742 175.682 330.598 175.814 330.48 175.998C330.363 176.182 330.273 176.424 330.211 176.725C330.152 177.021 330.123 177.383 330.123 177.809V179.613C330.123 179.957 330.143 180.26 330.182 180.521C330.221 180.783 330.279 181.008 330.357 181.195C330.436 181.379 330.529 181.531 330.639 181.652C330.752 181.77 330.881 181.855 331.025 181.91C331.174 181.965 331.336 181.992 331.512 181.992C331.734 181.992 331.932 181.949 332.104 181.863C332.275 181.777 332.42 181.641 332.537 181.453C332.654 181.262 332.742 181.014 332.801 180.709C332.859 180.404 332.889 180.039 332.889 179.613ZM341.121 178.02V179.414C341.121 180.082 341.055 180.652 340.922 181.125C340.793 181.594 340.605 181.975 340.359 182.268C340.113 182.561 339.818 182.775 339.475 182.912C339.135 183.049 338.754 183.117 338.332 183.117C337.996 183.117 337.684 183.074 337.395 182.988C337.109 182.902 336.852 182.768 336.621 182.584C336.391 182.4 336.193 182.164 336.029 181.875C335.869 181.582 335.744 181.232 335.654 180.826C335.568 180.42 335.525 179.949 335.525 179.414V178.02C335.525 177.348 335.592 176.781 335.725 176.32C335.857 175.855 336.047 175.479 336.293 175.189C336.539 174.896 336.832 174.684 337.172 174.551C337.516 174.418 337.898 174.352 338.32 174.352C338.66 174.352 338.973 174.395 339.258 174.48C339.547 174.562 339.805 174.693 340.031 174.873C340.262 175.053 340.457 175.287 340.617 175.576C340.781 175.861 340.906 176.207 340.992 176.613C341.078 177.016 341.121 177.484 341.121 178.02ZM339.709 179.613V177.809C339.709 177.469 339.689 177.17 339.65 176.912C339.611 176.65 339.553 176.43 339.475 176.25C339.4 176.066 339.307 175.918 339.193 175.805C339.08 175.688 338.951 175.604 338.807 175.553C338.662 175.498 338.5 175.471 338.32 175.471C338.102 175.471 337.906 175.514 337.734 175.6C337.562 175.682 337.418 175.814 337.301 175.998C337.184 176.182 337.094 176.424 337.031 176.725C336.973 177.021 336.943 177.383 336.943 177.809V179.613C336.943 179.957 336.963 180.26 337.002 180.521C337.041 180.783 337.1 181.008 337.178 181.195C337.256 181.379 337.35 181.531 337.459 181.652C337.572 181.77 337.701 181.855 337.846 181.91C337.994 181.965 338.156 181.992 338.332 181.992C338.555 181.992 338.752 181.949 338.924 181.863C339.096 181.777 339.24 181.641 339.357 181.453C339.475 181.262 339.562 181.014 339.621 180.709C339.68 180.404 339.709 180.039 339.709 179.613ZM351.061 178.632V183.96H351.889V179.46H354.913V183.912H355.777V178.632H351.061ZM352.801 172.944V178.896H353.689V172.944H352.801ZM353.317 175.548V176.388H356.257V175.548H353.317ZM351.493 182.568V183.396H355.333V182.568H351.493ZM346.357 174.024H349.657V176.928H346.357V174.024ZM345.649 173.364V177.588H350.389V173.364H345.649ZM346.525 174.612C346.729 175.2 346.885 175.956 346.909 176.46L347.377 176.316C347.341 175.836 347.185 175.08 346.981 174.492L346.525 174.612ZM346.933 181.488C347.101 182.148 347.221 183.012 347.221 183.576L347.845 183.492C347.833 182.928 347.713 182.064 347.521 181.404L346.933 181.488ZM348.085 181.416C348.349 182.028 348.601 182.832 348.673 183.36L349.285 183.228C349.201 182.7 348.937 181.896 348.661 181.296L348.085 181.416ZM349.225 181.248C349.633 181.812 350.053 182.58 350.233 183.096L350.833 182.82C350.653 182.328 350.221 181.584 349.789 181.032L349.225 181.248ZM345.913 181.44C345.805 182.268 345.577 183.144 345.109 183.636L345.721 183.972C346.237 183.432 346.429 182.496 346.549 181.608L345.913 181.44ZM348.985 174.456C348.877 175.008 348.637 175.86 348.457 176.376L348.853 176.532C349.057 176.052 349.297 175.272 349.513 174.66L348.985 174.456ZM345.301 180.168L345.349 180.96C346.729 180.876 348.721 180.756 350.641 180.612L350.665 179.892C348.673 180.012 346.633 180.108 345.301 180.168ZM345.565 178.404V179.136H350.473V178.404H345.565ZM347.665 173.676V177.276H347.569V180.372H348.373V177.276H348.277V173.676H347.665Z" fill="#A0A0A0"/>
<path d="M221.232 50.208V51.408H223.696V52.336H220.864V53.68H227.824V52.336H225.024V51.408H227.456V50.208H225.024V49.328H227.68V43.392H221.024V49.328H223.696V50.208H221.232ZM221.152 54.32C221.088 55.424 220.896 56.4 220.592 57.264L221.824 57.632C222.08 56.704 222.256 55.648 222.32 54.464L221.152 54.32ZM223.92 54.416L222.816 54.56C222.864 55.248 222.896 56.224 222.928 57.472L224.16 57.328C224.112 56.096 224.032 55.12 223.92 54.416ZM227.296 54.128L226.224 54.432C226.48 55.264 226.688 56.128 226.864 57.024L227.968 56.624C227.808 55.856 227.584 55.024 227.296 54.128ZM225.6 54.336L224.512 54.56C224.672 55.344 224.816 56.256 224.944 57.28L226.16 57.008C226 56.048 225.808 55.152 225.6 54.336ZM226.48 48.176H224.88V44.544H226.48V48.176ZM223.792 48.176H222.24V44.544H223.792V48.176ZM225.456 44.992C225.36 45.856 225.216 46.672 225.024 47.44L225.824 47.712C226.048 46.912 226.192 46.08 226.288 45.216L225.456 44.992ZM223.088 45.152L222.304 45.392C222.528 46.128 222.72 46.896 222.88 47.696L223.664 47.488C223.504 46.592 223.312 45.824 223.088 45.152ZM230.608 42.96V49.744H228.416V57.648H229.856V56.864H233.296V57.648H234.72V49.744H232.08V47.184H235.36V45.792H232.08V42.96H230.608ZM229.856 55.488V51.12H233.296V55.488H229.856Z" fill="#3179AA"/>
<path d="M137.833 81.542V79.526H138.673V78.392H137.833V76.376H135.117V75.564H138.547V74.402H135.117V73.534H133.857V74.402H130.721V75.564H133.857V76.376H131.393V77.51H133.857V78.392H130.805V79.526H133.857V80.422H131.295V81.542H133.857V84.678C133.759 84.65 133.675 84.608 133.605 84.58C133.101 84.384 132.667 83.922 132.275 83.222C132.345 82.886 132.415 82.522 132.471 82.144L131.239 81.962C131.015 83.558 130.511 84.818 129.727 85.714L130.777 86.456C131.225 85.966 131.603 85.308 131.911 84.482C132.275 85.07 132.681 85.49 133.129 85.714C133.773 86.022 134.963 86.176 136.699 86.19C137.231 86.204 137.847 86.218 138.533 86.218L138.925 84.874C138.281 84.93 137.511 84.972 136.601 84.972C136.041 84.972 135.551 84.944 135.117 84.902V83.684H138.099V82.522H135.117V81.542H137.833ZM135.117 77.51H136.643V78.392H135.117V77.51ZM136.643 79.526V80.422H135.117V79.526H136.643ZM127.781 86.288C128.677 86.288 129.125 85.826 129.125 84.916V80.954C129.545 80.758 129.965 80.534 130.385 80.296V78.952C129.965 79.204 129.545 79.428 129.125 79.638V77.258H130.511V75.984H129.125V73.548H127.809V75.984H126.213V77.258H127.809V80.198C127.207 80.436 126.591 80.632 125.975 80.786L126.311 82.13C126.815 81.948 127.305 81.752 127.809 81.556V84.58C127.809 84.916 127.641 85.098 127.319 85.098C126.983 85.098 126.647 85.07 126.283 85.014L126.577 86.288H127.781ZM150.685 81.934H142.453V86.484H143.741V85.952H149.383V86.484H150.685V81.934ZM143.741 84.748V83.124H149.383V84.748H143.741ZM144.497 75.802C143.573 77.09 142.467 78.084 141.179 78.812L142.033 79.834C142.607 79.47 143.153 79.05 143.671 78.602C144.175 79.036 144.707 79.442 145.295 79.806C143.867 80.296 142.089 80.702 139.961 81.01L140.465 82.186C142.957 81.766 145.029 81.22 146.653 80.534C148.361 81.332 150.321 81.794 152.533 81.92L152.827 80.716C151.091 80.618 149.509 80.324 148.081 79.82C149.061 79.26 149.789 78.616 150.293 77.888V76.824H145.281C145.449 76.586 145.631 76.334 145.799 76.082L144.497 75.802ZM146.695 79.246C145.953 78.882 145.267 78.462 144.623 77.958H148.683C148.179 78.434 147.507 78.854 146.695 79.246ZM152.253 74.458H147.073C146.933 74.066 146.793 73.73 146.653 73.422L145.183 73.646C145.351 73.898 145.491 74.178 145.631 74.458H140.633V77.286H141.977V75.648H150.909V77.286H152.253V74.458ZM156.733 77.734V78.518H159.799V80.212H154.913V81.444H159.799V84.874H158.455C158.119 83.824 157.755 82.928 157.363 82.172L156.173 82.606C156.565 83.32 156.901 84.076 157.167 84.874H154.423V86.134H166.477V84.874H163.775C164.139 84.174 164.475 83.39 164.783 82.508L163.579 82.074C163.243 83.068 162.865 84.006 162.431 84.874H161.115V81.444H165.987V80.212H161.115V78.518H164.181V77.79C164.769 78.126 165.413 78.434 166.085 78.714L166.841 77.608C164.237 76.53 162.291 75.186 160.989 73.562H159.925C158.413 75.214 156.453 76.572 154.031 77.636L154.801 78.742C155.473 78.434 156.117 78.098 156.733 77.734ZM163.411 77.328H157.391C158.511 76.6 159.533 75.76 160.457 74.808C161.283 75.76 162.263 76.6 163.411 77.328ZM174.443 76.292C174.149 76.292 173.897 76.39 173.701 76.6C173.505 76.796 173.407 77.048 173.407 77.342C173.407 77.622 173.505 77.874 173.701 78.07C173.897 78.266 174.149 78.378 174.443 78.378C174.723 78.378 174.975 78.266 175.185 78.07C175.381 77.874 175.493 77.622 175.493 77.342C175.493 77.048 175.381 76.796 175.185 76.6C174.975 76.39 174.723 76.292 174.443 76.292ZM174.443 81.416C174.149 81.416 173.897 81.514 173.701 81.724C173.505 81.92 173.407 82.172 173.407 82.466C173.407 82.746 173.505 82.998 173.701 83.194C173.897 83.39 174.149 83.502 174.443 83.502C174.723 83.502 174.975 83.39 175.185 83.194C175.381 82.998 175.493 82.746 175.493 82.466C175.493 82.172 175.381 81.92 175.185 81.724C174.975 81.514 174.723 81.416 174.443 81.416ZM182.171 74.29V75.578H191.649V84.496C191.649 84.916 191.453 85.126 191.075 85.126C190.375 85.126 189.647 85.098 188.877 85.056L189.185 86.344H191.537C192.489 86.344 192.979 85.84 192.979 84.832V75.578H194.743V74.29H182.171ZM189.395 77.398H183.711V83.936H184.985V82.788H189.395V77.398ZM184.985 81.584V78.588H188.135V81.584H184.985ZM207.763 73.506C205.999 74.164 203.997 74.514 201.757 74.57V79.638C201.673 82.102 201.113 84.02 200.049 85.42L200.987 86.414C202.275 84.72 202.975 82.466 203.059 79.638V79.218H205.383V86.498H206.727V79.218H208.743V77.944H203.059V75.676C205.033 75.578 206.825 75.256 208.421 74.71L207.763 73.506ZM198.061 86.288C198.957 86.288 199.419 85.812 199.419 84.888V81.08C199.993 80.856 200.553 80.604 201.099 80.352V78.994C200.553 79.274 199.993 79.526 199.419 79.75V77.258H201.043V75.984H199.419V73.534H198.117V75.984H196.241V77.258H198.117V80.212C197.417 80.436 196.717 80.632 195.989 80.786L196.311 82.13C196.913 81.962 197.515 81.766 198.117 81.57V84.552C198.117 84.916 197.935 85.098 197.599 85.098C197.235 85.098 196.843 85.07 196.423 85.014L196.731 86.288H198.061ZM211.641 86.274C212.509 86.274 212.957 85.812 212.957 84.902V81.052C213.419 80.856 213.881 80.632 214.329 80.394V79.12C213.881 79.372 213.419 79.596 212.957 79.792V77.258H214.357V75.984H212.957V73.534H211.669V75.984H210.199V77.258H211.669V80.296C211.109 80.492 210.549 80.646 209.989 80.772L210.311 82.046C210.759 81.906 211.221 81.752 211.669 81.584V84.58C211.669 84.944 211.501 85.126 211.193 85.126C210.871 85.126 210.535 85.098 210.185 85.042L210.465 86.274H211.641ZM216.177 79.512H218.963C219.033 81.234 219.145 82.466 219.313 83.194C219.537 84.174 219.873 84.958 220.335 85.546C220.699 85.98 221.091 86.204 221.525 86.204C222.239 86.204 222.729 85.238 222.995 83.32L221.931 82.592C221.791 84.034 221.637 84.776 221.455 84.818C221.119 84.734 220.839 84.202 220.587 83.222C220.405 82.55 220.279 81.304 220.195 79.512H222.505V78.224H220.153C220.125 77.328 220.111 76.32 220.111 75.2C220.909 75.032 221.609 74.878 222.225 74.71L221.441 73.59C219.845 74.038 217.661 74.43 214.889 74.766V82.312C214.889 82.746 214.721 83.04 214.385 83.194L214.735 84.328C216.163 83.922 217.423 83.53 218.501 83.152L218.291 82.004C217.591 82.284 216.891 82.522 216.177 82.746V79.512ZM218.921 78.224H216.177V75.802C217.143 75.676 218.039 75.55 218.879 75.424C218.879 76.432 218.893 77.37 218.921 78.224ZM214.833 84.916V86.176H219.257V84.916H214.833ZM233.313 75.004L228.385 81.388V82.83H233.257V85H234.713V82.83H236.225V81.612H234.713V75.004H233.313ZM233.215 76.936H233.257V81.612H229.631L233.215 76.936ZM237.83 75.004L237.284 80.604H238.712C238.908 80.24 239.174 79.974 239.538 79.806C239.874 79.638 240.252 79.568 240.7 79.568C241.372 79.568 241.876 79.764 242.24 80.156C242.604 80.548 242.786 81.094 242.786 81.794C242.786 82.438 242.576 82.942 242.156 83.334C241.736 83.712 241.218 83.908 240.602 83.908C240.042 83.908 239.594 83.782 239.258 83.53C238.88 83.25 238.656 82.816 238.6 82.256H237.102C237.172 83.18 237.564 83.922 238.278 84.454C238.922 84.944 239.692 85.196 240.588 85.196C241.582 85.196 242.436 84.902 243.15 84.314C243.906 83.656 244.298 82.816 244.298 81.78C244.298 80.702 243.99 79.862 243.402 79.246C242.814 78.63 242.044 78.322 241.106 78.322C240.658 78.322 240.238 78.392 239.874 78.546C239.468 78.686 239.118 78.91 238.81 79.232H238.768L239.062 76.348H243.85V75.004H237.83ZM251.615 74.192V75.48H261.373V74.192H251.615ZM250.537 78.308V79.596H254.051V79.848C253.995 81.262 253.701 82.41 253.169 83.306C252.623 84.132 251.601 84.818 250.089 85.364L250.803 86.484C252.371 85.924 253.491 85.154 254.191 84.16C254.891 83.082 255.283 81.64 255.339 79.848V79.596H257.551V84.748C257.551 85.728 258.027 86.218 258.979 86.218H261.149C261.653 86.218 262.017 86.064 262.269 85.784C262.521 85.476 262.703 84.552 262.801 82.984L261.597 82.592C261.569 83.768 261.485 84.468 261.359 84.706C261.261 84.916 261.107 85.028 260.897 85.028H259.357C259.007 85.028 258.839 84.832 258.839 84.468V79.596H262.591V78.308H250.537Z" fill="#696969"/>
<path d="M158.797 122H216.129V143H155.262V125.585C155.262 123.605 156.845 122 158.797 122Z" fill="#F8F8F8"/>
<path d="M96.6667 122H150.463C152.416 122 153.999 123.605 153.999 125.585V143H93.1308V125.585C93.1308 123.605 94.7138 122 96.6667 122Z" fill="#F8F8F8"/>
<path d="M34.5359 122H88.3321C90.2849 122 91.8679 123.605 91.8679 125.585V143H31V125.585C31 123.605 32.5831 122 34.5359 122Z" fill="#F8F8F8"/>
<path d="M201.607 130.131V126.674C201.607 125.507 202.54 124.561 203.691 124.561C204.841 124.561 205.774 125.507 205.774 126.674V130.131C205.774 131.298 204.841 132.244 203.691 132.244C202.54 132.244 201.607 131.298 201.607 130.131Z" fill="#5B5B5B"/>
<path d="M140.613 130.195V126.61C140.613 125.478 141.517 124.561 142.633 124.561C143.749 124.561 144.654 125.478 144.654 126.61V130.195C144.654 131.327 143.749 132.244 142.633 132.244C141.517 132.244 140.613 131.327 140.613 130.195Z" fill="#5B5B5B"/>
<path d="M78.4821 130.195V126.61C78.4821 125.478 79.3867 124.561 80.5026 124.561C81.6185 124.561 82.5231 125.478 82.5231 126.61V130.195C82.5231 131.327 81.6185 132.244 80.5026 132.244C79.3867 132.244 78.4821 131.327 78.4821 130.195Z" fill="#5B5B5B"/>
<path d="M186.453 130.131V126.674C186.453 125.507 187.386 124.561 188.537 124.561C189.688 124.561 190.621 125.507 190.621 126.674V130.131C190.621 131.298 189.688 132.244 188.537 132.244C187.386 132.244 186.453 131.298 186.453 130.131Z" fill="#5B5B5B"/>
<path d="M125.459 130.195V126.61C125.459 125.478 126.364 124.561 127.479 124.561C128.595 124.561 129.5 125.478 129.5 126.61V130.195C129.5 131.327 128.595 132.244 127.479 132.244C126.364 132.244 125.459 131.327 125.459 130.195Z" fill="#5B5B5B"/>
<path d="M63.3282 130.195V126.61C63.3282 125.478 64.2328 124.561 65.3487 124.561C66.4646 124.561 67.3692 125.478 67.3692 126.61V130.195C67.3692 131.327 66.4646 132.244 65.3487 132.244C64.2328 132.244 63.3282 131.327 63.3282 130.195Z" fill="#5B5B5B"/>
<path d="M171.299 130.131V126.674C171.299 125.507 172.232 124.561 173.383 124.561C174.534 124.561 175.467 125.507 175.467 126.674V130.131C175.467 131.298 174.534 132.244 173.383 132.244C172.232 132.244 171.299 131.298 171.299 130.131Z" fill="#5B5B5B"/>
<path d="M110.305 130.195V126.61C110.305 125.478 111.21 124.561 112.326 124.561C113.442 124.561 114.346 125.478 114.346 126.61V130.195C114.346 131.327 113.442 132.244 112.326 132.244C111.21 132.244 110.305 131.327 110.305 130.195Z" fill="#5B5B5B"/>
<path d="M48.1744 130.195V126.61C48.1744 125.478 49.079 124.561 50.1949 124.561C51.3108 124.561 52.2154 125.478 52.2154 126.61V130.195C52.2154 131.327 51.3108 132.244 50.1949 132.244C49.079 132.244 48.1744 131.327 48.1744 130.195Z" fill="#5B5B5B"/>
<path d="M196.303 130.131V126.674C196.303 125.507 197.236 124.561 198.387 124.561C199.538 124.561 200.471 125.507 200.471 126.674V130.131C200.471 131.298 199.538 132.244 198.387 132.244C197.236 132.244 196.303 131.298 196.303 130.131Z" fill="#5B5B5B"/>
<path d="M135.309 130.195V126.61C135.309 125.478 136.214 124.561 137.329 124.561C138.445 124.561 139.35 125.478 139.35 126.61V130.195C139.35 131.327 138.445 132.244 137.329 132.244C136.214 132.244 135.309 131.327 135.309 130.195Z" fill="#5B5B5B"/>
<path d="M73.1782 130.195V126.61C73.1782 125.478 74.0828 124.561 75.1987 124.561C76.3146 124.561 77.2192 125.478 77.2192 126.61V130.195C77.2192 131.327 76.3146 132.244 75.1987 132.244C74.0828 132.244 73.1782 131.327 73.1782 130.195Z" fill="#5B5B5B"/>
<path d="M181.149 130.131V126.674C181.149 125.507 182.082 124.561 183.233 124.561C184.384 124.561 185.317 125.507 185.317 126.674V130.131C185.317 131.298 184.384 132.244 183.233 132.244C182.082 132.244 181.149 131.298 181.149 130.131Z" fill="#5B5B5B"/>
<path d="M120.155 130.195V126.61C120.155 125.478 121.06 124.561 122.176 124.561C123.292 124.561 124.196 125.478 124.196 126.61V130.195C124.196 131.327 123.292 132.244 122.176 132.244C121.06 132.244 120.155 131.327 120.155 130.195Z" fill="#5B5B5B"/>
<path d="M58.0244 130.195V126.61C58.0244 125.478 58.929 124.561 60.0449 124.561C61.1608 124.561 62.0654 125.478 62.0654 126.61V130.195C62.0654 131.327 61.1608 132.244 60.0449 132.244C58.929 132.244 58.0244 131.327 58.0244 130.195Z" fill="#5B5B5B"/>
<path d="M165.996 130.131V126.674C165.996 125.507 166.928 124.561 168.079 124.561C169.23 124.561 170.163 125.507 170.163 126.674V130.131C170.163 131.298 169.23 132.244 168.079 132.244C166.928 132.244 165.996 131.298 165.996 130.131Z" fill="#5B5B5B"/>
<path d="M105.001 130.195V126.61C105.001 125.478 105.906 124.561 107.022 124.561C108.138 124.561 109.042 125.478 109.042 126.61V130.195C109.042 131.327 108.138 132.244 107.022 132.244C105.906 132.244 105.001 131.327 105.001 130.195Z" fill="#5B5B5B"/>
<path d="M42.8705 130.195V126.61C42.8705 125.478 43.7751 124.561 44.891 124.561C46.0069 124.561 46.9115 125.478 46.9115 126.61V130.195C46.9115 131.327 46.0069 132.244 44.891 132.244C43.7751 132.244 42.8705 131.327 42.8705 130.195Z" fill="#5B5B5B"/>
<path d="M217.14 122H224.464C226.417 122 228 123.605 228 125.585V143H213.604V125.585C213.604 123.605 215.187 122 217.14 122Z" fill="#D9D9D9"/>
<path d="M217.14 124.561H224.717C225.275 124.561 225.727 125.02 225.727 125.585V132.372H216.129V125.585C216.129 125.02 216.582 124.561 217.14 124.561Z" fill="#5B5B5B"/>
<path d="M155.262 135.317H224.464V139.415H155.262V135.317Z" fill="#3179AA"/>
<path d="M93.1308 135.317H153.999V139.415H93.1308V135.317Z" fill="#3179AA"/>
<path d="M31 135.317H91.8679V139.415H31V135.317Z" fill="#3179AA"/>
<path d="M222.444 137.366C222.444 138.497 223.348 139.415 224.464 139.415C225.58 139.415 226.485 138.497 226.485 137.366C226.485 136.234 225.58 135.317 224.464 135.317C223.348 135.317 222.444 136.234 222.444 137.366Z" fill="white"/>
<path d="M215.372 137.366C215.372 138.497 216.276 139.415 217.392 139.415C218.508 139.415 219.413 138.497 219.413 137.366C219.413 136.234 218.508 135.317 217.392 135.317C216.276 135.317 215.372 136.234 215.372 137.366Z" fill="white"/>
<path d="M201.733 130.195V126.61C201.733 125.478 202.638 124.561 203.754 124.561C204.87 124.561 205.774 125.478 205.774 126.61V130.195C205.774 131.327 204.87 132.244 203.754 132.244C202.638 132.244 201.733 131.327 201.733 130.195Z" fill="#5B5B5B"/>
<path d="M186.579 130.195V126.61C186.579 125.478 187.484 124.561 188.6 124.561C189.716 124.561 190.621 125.478 190.621 126.61V130.195C190.621 131.327 189.716 132.244 188.6 132.244C187.484 132.244 186.579 131.327 186.579 130.195Z" fill="#5B5B5B"/>
<path d="M171.426 130.195V126.61C171.426 125.478 172.33 124.561 173.446 124.561C174.562 124.561 175.467 125.478 175.467 126.61V130.195C175.467 131.327 174.562 132.244 173.446 132.244C172.33 132.244 171.426 131.327 171.426 130.195Z" fill="#5B5B5B"/>
<path d="M196.429 130.195V126.61C196.429 125.478 197.334 124.561 198.45 124.561C199.566 124.561 200.471 125.478 200.471 126.61V130.195C200.471 131.327 199.566 132.244 198.45 132.244C197.334 132.244 196.429 131.327 196.429 130.195Z" fill="#5B5B5B"/>
<path d="M181.276 130.195V126.61C181.276 125.478 182.18 124.561 183.296 124.561C184.412 124.561 185.317 125.478 185.317 126.61V130.195C185.317 131.327 184.412 132.244 183.296 132.244C182.18 132.244 181.276 131.327 181.276 130.195Z" fill="#5B5B5B"/>
<path d="M166.122 130.195V126.61C166.122 125.478 167.026 124.561 168.142 124.561C169.258 124.561 170.163 125.478 170.163 126.61V130.195C170.163 131.327 169.258 132.244 168.142 132.244C167.026 132.244 166.122 131.327 166.122 130.195Z" fill="#5B5B5B"/>
<path d="M155.262 126.098H153.999V139.415H155.262V126.098Z" fill="#5B5B5B"/>
<path d="M93.1308 126.098H91.8679V139.415H93.1308V126.098Z" fill="#5B5B5B"/>
</g>
</g>
<defs>
<filter id="filter0_d_648_3623" x="0" y="0" width="394" height="220" filterUnits="userSpaceOnUse" color-interpolation-filters="sRGB">
<feFlood flood-opacity="0" result="BackgroundImageFix"/>
<feColorMatrix in="SourceAlpha" type="matrix" values="0 0 0 0 0 0 0 0 0 0 0 0 0 0 0 0 0 0 127 0" result="hardAlpha"/>
<feOffset dx="3" dy="4"/>
<feGaussianBlur stdDeviation="7"/>
<feComposite in2="hardAlpha" operator="out"/>
<feColorMatrix type="matrix" values="0 0 0 0 0 0 0 0 0 0 0 0 0 0 0 0 0 0 0.14 0"/>
<feBlend mode="normal" in2="BackgroundImageFix" result="effect1_dropShadow_648_3623"/>
<feBlend mode="normal" in="SourceGraphic" in2="effect1_dropShadow_648_3623" result="shape"/>
</filter>
<linearGradient id="paint0_linear_648_3623" x1="-6" y1="69.5863" x2="302.334" y2="69.5863" gradientUnits="userSpaceOnUse">
<stop stop-color="#1E4C75"/>
<stop offset="1" stop-color="#449979"/>
</linearGradient>
<linearGradient id="paint1_linear_648_3623" x1="87.8409" y1="142.414" x2="396.175" y2="142.414" gradientUnits="userSpaceOnUse">
<stop stop-color="#1E4C75"/>
<stop offset="1" stop-color="#449979"/>
</linearGradient>
<clipPath id="clip0_648_3623">
<rect x="11" y="10" width="366" height="192" rx="6" fill="white"/>
</clipPath>
</defs>
</svg>
