<svg width="366" height="40" viewBox="0 0 366 40" fill="none" xmlns="http://www.w3.org/2000/svg">
<rect width="366" height="40" rx="8" fill="#F8F8F8"/>
<path d="M334.664 27.5625H345.336C346.154 27.5625 346.766 27.3594 347.172 26.9531C347.578 26.5521 347.781 25.9479 347.781 25.1406V15.6016C347.781 14.7943 347.578 14.1901 347.172 13.7891C346.766 13.3828 346.154 13.1797 345.336 13.1797H334.664C333.846 13.1797 333.232 13.3828 332.82 13.7891C332.414 14.1901 332.211 14.7943 332.211 15.6016V25.1406C332.211 25.9479 332.414 26.5521 332.82 26.9531C333.232 27.3594 333.846 27.5625 334.664 27.5625ZM334.547 26.3047C334.203 26.3047 333.938 26.2109 333.75 26.0234C333.562 25.8411 333.469 25.5703 333.469 25.2109V17.8438C333.469 17.4844 333.562 17.2135 333.75 17.0312C333.938 16.8438 334.203 16.75 334.547 16.75H345.438C345.786 16.75 346.055 16.8438 346.242 17.0312C346.43 17.2135 346.523 17.4844 346.523 17.8438V25.2109C346.523 25.5703 346.43 25.8411 346.242 26.0234C346.055 26.2109 345.786 26.3047 345.438 26.3047H334.547ZM338.477 19.5625H338.938C339.073 19.5625 339.167 19.5365 339.219 19.4844C339.276 19.4323 339.305 19.3385 339.305 19.2031V18.7422C339.305 18.6068 339.276 18.5156 339.219 18.4688C339.167 18.4167 339.073 18.3906 338.938 18.3906H338.477C338.341 18.3906 338.245 18.4167 338.188 18.4688C338.135 18.5156 338.109 18.6068 338.109 18.7422V19.2031C338.109 19.3385 338.135 19.4323 338.188 19.4844C338.245 19.5365 338.341 19.5625 338.477 19.5625ZM341.07 19.5625H341.531C341.672 19.5625 341.768 19.5365 341.82 19.4844C341.872 19.4323 341.898 19.3385 341.898 19.2031V18.7422C341.898 18.6068 341.872 18.5156 341.82 18.4688C341.768 18.4167 341.672 18.3906 341.531 18.3906H341.07C340.935 18.3906 340.841 18.4167 340.789 18.4688C340.737 18.5156 340.711 18.6068 340.711 18.7422V19.2031C340.711 19.3385 340.737 19.4323 340.789 19.4844C340.841 19.5365 340.935 19.5625 341.07 19.5625ZM343.672 19.5625H344.125C344.266 19.5625 344.362 19.5365 344.414 19.4844C344.466 19.4323 344.492 19.3385 344.492 19.2031V18.7422C344.492 18.6068 344.466 18.5156 344.414 18.4688C344.362 18.4167 344.266 18.3906 344.125 18.3906H343.672C343.531 18.3906 343.435 18.4167 343.383 18.4688C343.331 18.5156 343.305 18.6068 343.305 18.7422V19.2031C343.305 19.3385 343.331 19.4323 343.383 19.4844C343.435 19.5365 343.531 19.5625 343.672 19.5625ZM335.883 22.1172H336.344C336.479 22.1172 336.573 22.0911 336.625 22.0391C336.677 21.987 336.703 21.8932 336.703 21.7578V21.3047C336.703 21.1641 336.677 21.0703 336.625 21.0234C336.573 20.9714 336.479 20.9453 336.344 20.9453H335.883C335.742 20.9453 335.646 20.9714 335.594 21.0234C335.542 21.0703 335.516 21.1641 335.516 21.3047V21.7578C335.516 21.8932 335.542 21.987 335.594 22.0391C335.646 22.0911 335.742 22.1172 335.883 22.1172ZM338.477 22.1172H338.938C339.073 22.1172 339.167 22.0911 339.219 22.0391C339.276 21.987 339.305 21.8932 339.305 21.7578V21.3047C339.305 21.1641 339.276 21.0703 339.219 21.0234C339.167 20.9714 339.073 20.9453 338.938 20.9453H338.477C338.341 20.9453 338.245 20.9714 338.188 21.0234C338.135 21.0703 338.109 21.1641 338.109 21.3047V21.7578C338.109 21.8932 338.135 21.987 338.188 22.0391C338.245 22.0911 338.341 22.1172 338.477 22.1172ZM341.07 22.1172H341.531C341.672 22.1172 341.768 22.0911 341.82 22.0391C341.872 21.987 341.898 21.8932 341.898 21.7578V21.3047C341.898 21.1641 341.872 21.0703 341.82 21.0234C341.768 20.9714 341.672 20.9453 341.531 20.9453H341.07C340.935 20.9453 340.841 20.9714 340.789 21.0234C340.737 21.0703 340.711 21.1641 340.711 21.3047V21.7578C340.711 21.8932 340.737 21.987 340.789 22.0391C340.841 22.0911 340.935 22.1172 341.07 22.1172ZM343.672 22.1172H344.125C344.266 22.1172 344.362 22.0911 344.414 22.0391C344.466 21.987 344.492 21.8932 344.492 21.7578V21.3047C344.492 21.1641 344.466 21.0703 344.414 21.0234C344.362 20.9714 344.266 20.9453 344.125 20.9453H343.672C343.531 20.9453 343.435 20.9714 343.383 21.0234C343.331 21.0703 343.305 21.1641 343.305 21.3047V21.7578C343.305 21.8932 343.331 21.987 343.383 22.0391C343.435 22.0911 343.531 22.1172 343.672 22.1172ZM335.883 24.6719H336.344C336.479 24.6719 336.573 24.6484 336.625 24.6016C336.677 24.5495 336.703 24.4531 336.703 24.3125V23.8594C336.703 23.7188 336.677 23.625 336.625 23.5781C336.573 23.526 336.479 23.5 336.344 23.5H335.883C335.742 23.5 335.646 23.526 335.594 23.5781C335.542 23.625 335.516 23.7188 335.516 23.8594V24.3125C335.516 24.4531 335.542 24.5495 335.594 24.6016C335.646 24.6484 335.742 24.6719 335.883 24.6719ZM338.477 24.6719H338.938C339.073 24.6719 339.167 24.6484 339.219 24.6016C339.276 24.5495 339.305 24.4531 339.305 24.3125V23.8594C339.305 23.7188 339.276 23.625 339.219 23.5781C339.167 23.526 339.073 23.5 338.938 23.5H338.477C338.341 23.5 338.245 23.526 338.188 23.5781C338.135 23.625 338.109 23.7188 338.109 23.8594V24.3125C338.109 24.4531 338.135 24.5495 338.188 24.6016C338.245 24.6484 338.341 24.6719 338.477 24.6719ZM341.07 24.6719H341.531C341.672 24.6719 341.768 24.6484 341.82 24.6016C341.872 24.5495 341.898 24.4531 341.898 24.3125V23.8594C341.898 23.7188 341.872 23.625 341.82 23.5781C341.768 23.526 341.672 23.5 341.531 23.5H341.07C340.935 23.5 340.841 23.526 340.789 23.5781C340.737 23.625 340.711 23.7188 340.711 23.8594V24.3125C340.711 24.4531 340.737 24.5495 340.789 24.6016C340.841 24.6484 340.935 24.6719 341.07 24.6719Z" fill="black"/>
<path d="M17.436 25H23.8208V23.8926H19.145V23.7832L21.3872 21.4658C23.1714 19.627 23.6567 18.8066 23.6567 17.6787V17.665C23.6567 16.0723 22.3374 14.9033 20.6147 14.9033C18.728 14.9033 17.3745 16.1611 17.3677 17.9111L17.3813 17.918L18.5571 17.9248L18.564 17.9111C18.564 16.749 19.3501 15.9766 20.5327 15.9766C21.6948 15.9766 22.3989 16.7559 22.3989 17.7949V17.8086C22.3989 18.6699 22.0298 19.1826 20.772 20.543L17.436 24.1523V25ZM28.779 25.2324C30.9597 25.2324 32.2722 23.2432 32.2722 20.0713V20.0576C32.2722 16.8857 30.9597 14.9033 28.779 14.9033C26.5983 14.9033 25.2995 16.8857 25.2995 20.0576V20.0713C25.2995 23.2432 26.5983 25.2324 28.779 25.2324ZM28.779 24.1592C27.364 24.1592 26.5368 22.5869 26.5368 20.0713V20.0576C26.5368 17.542 27.364 15.9834 28.779 15.9834C30.1941 15.9834 31.0349 17.542 31.0349 20.0576V20.0713C31.0349 22.5869 30.1941 24.1592 28.779 24.1592ZM33.8876 25H40.2724V23.8926H35.5966V23.7832L37.8388 21.4658C39.623 19.627 40.1083 18.8066 40.1083 17.6787V17.665C40.1083 16.0723 38.789 14.9033 37.0663 14.9033C35.1796 14.9033 33.8261 16.1611 33.8193 17.9111L33.8329 17.918L35.0087 17.9248L35.0155 17.9111C35.0155 16.749 35.8017 15.9766 36.9843 15.9766C38.1464 15.9766 38.8505 16.7559 38.8505 17.7949V17.8086C38.8505 18.6699 38.4814 19.1826 37.2236 20.543L33.8876 24.1523V25ZM41.9288 25H48.3136V23.8926H43.6378V23.7832L45.88 21.4658C47.6642 19.627 48.1495 18.8066 48.1495 17.6787V17.665C48.1495 16.0723 46.8302 14.9033 45.1075 14.9033C43.2208 14.9033 41.8673 16.1611 41.8605 17.9111L41.8741 17.918L43.0499 17.9248L43.0568 17.9111C43.0568 16.749 43.8429 15.9766 45.0255 15.9766C46.1876 15.9766 46.8917 16.7559 46.8917 17.7949V17.8086C46.8917 18.6699 46.5226 19.1826 45.2648 20.543L41.9288 24.1523V25ZM49.8743 21.582H54.4681V20.4746H49.8743V21.582ZM59.4673 25.2324C61.648 25.2324 62.9605 23.2432 62.9605 20.0713V20.0576C62.9605 16.8857 61.648 14.9033 59.4673 14.9033C57.2867 14.9033 55.9878 16.8857 55.9878 20.0576V20.0713C55.9878 23.2432 57.2867 25.2324 59.4673 25.2324ZM59.4673 24.1592C58.0523 24.1592 57.2251 22.5869 57.2251 20.0713V20.0576C57.2251 17.542 58.0523 15.9834 59.4673 15.9834C60.8824 15.9834 61.7232 17.542 61.7232 20.0576V20.0713C61.7232 22.5869 60.8824 24.1592 59.4673 24.1592ZM67.8162 25.2324C69.8191 25.2324 71.2478 23.8447 71.2478 21.8555V21.8418C71.2478 19.9346 69.9148 18.5469 68.0623 18.5469C67.1667 18.5469 66.3943 18.9092 65.9568 19.5723H65.8474L66.1824 16.2363H70.7009V15.1357H65.2117L64.6921 20.8027H65.7585C65.8816 20.5703 66.0388 20.3789 66.2097 20.2148C66.6335 19.8115 67.1941 19.6133 67.8503 19.6133C69.1287 19.6133 70.0447 20.5498 70.0447 21.8623V21.876C70.0447 23.209 69.1423 24.1455 67.8298 24.1455C66.6746 24.1455 65.8201 23.3936 65.7039 22.4502L65.697 22.3955H64.5144L64.5212 22.4707C64.6648 24.0498 65.9773 25.2324 67.8162 25.2324ZM72.7265 21.582H77.3203V20.4746H72.7265V21.582ZM79.0177 25H85.4025V23.8926H80.7267V23.7832L82.9689 21.4658C84.7531 19.627 85.2384 18.8066 85.2384 17.6787V17.665C85.2384 16.0723 83.9191 14.9033 82.1964 14.9033C80.3097 14.9033 78.9562 16.1611 78.9494 17.9111L78.9631 17.918L80.1388 17.9248L80.1457 17.9111C80.1457 16.749 80.9318 15.9766 82.1144 15.9766C83.2765 15.9766 83.9806 16.7559 83.9806 17.7949V17.8086C83.9806 18.6699 83.6115 19.1826 82.3537 20.543L79.0177 24.1523V25ZM89.472 25H90.7025V15.1357H89.4789L86.8539 17.0225V18.3213L89.3627 16.5029H89.472V25ZM99.2378 14.122V15.102H111.222V14.122H99.2378ZM100.162 20.954V21.934H110.27V20.954H100.162ZM98.9298 24.566V25.546H111.446V24.566H98.9298ZM104.572 19.218V25.252H105.664V19.218H104.572ZM99.4898 17.902L99.5318 18.966C102.01 18.882 105.902 18.714 109.556 18.546L109.612 17.594C105.846 17.734 101.912 17.86 99.4898 17.902ZM103.312 14.57C102.892 15.676 102.094 17.216 101.464 18.182L102.43 18.532C103.074 17.622 103.886 16.18 104.516 14.948L103.312 14.57ZM106.448 16.096C107.862 17.132 109.542 18.616 110.326 19.61L111.264 18.938C110.438 17.93 108.688 16.488 107.302 15.522L106.448 16.096ZM118.996 25H125.38V23.8926H120.705V23.7832L122.947 21.4658C124.731 19.627 125.216 18.8066 125.216 17.6787V17.665C125.216 16.0723 123.897 14.9033 122.174 14.9033C120.288 14.9033 118.934 16.1611 118.927 17.9111L118.941 17.918L120.117 17.9248L120.124 17.9111C120.124 16.749 120.91 15.9766 122.092 15.9766C123.255 15.9766 123.959 16.7559 123.959 17.7949V17.8086C123.959 18.6699 123.589 19.1826 122.332 20.543L118.996 24.1523V25ZM130.339 25.2324C132.519 25.2324 133.832 23.2432 133.832 20.0713V20.0576C133.832 16.8857 132.519 14.9033 130.339 14.9033C128.158 14.9033 126.859 16.8857 126.859 20.0576V20.0713C126.859 23.2432 128.158 25.2324 130.339 25.2324ZM130.339 24.1592C128.924 24.1592 128.097 22.5869 128.097 20.0713V20.0576C128.097 17.542 128.924 15.9834 130.339 15.9834C131.754 15.9834 132.595 17.542 132.595 20.0576V20.0713C132.595 22.5869 131.754 24.1592 130.339 24.1592ZM135.447 25H141.832V23.8926H137.156V23.7832L139.398 21.4658C141.183 19.627 141.668 18.8066 141.668 17.6787V17.665C141.668 16.0723 140.349 14.9033 138.626 14.9033C136.739 14.9033 135.386 16.1611 135.379 17.9111L135.393 17.918L136.568 17.9248L136.575 17.9111C136.575 16.749 137.361 15.9766 138.544 15.9766C139.706 15.9766 140.41 16.7559 140.41 17.7949V17.8086C140.41 18.6699 140.041 19.1826 138.783 20.543L135.447 24.1523V25ZM143.489 25H149.873V23.8926H145.198V23.7832L147.44 21.4658C149.224 19.627 149.709 18.8066 149.709 17.6787V17.665C149.709 16.0723 148.39 14.9033 146.667 14.9033C144.781 14.9033 143.427 16.1611 143.42 17.9111L143.434 17.918L144.61 17.9248L144.616 17.9111C144.616 16.749 145.403 15.9766 146.585 15.9766C147.747 15.9766 148.451 16.7559 148.451 17.7949V17.8086C148.451 18.6699 148.082 19.1826 146.824 20.543L143.489 24.1523V25ZM151.434 21.582H156.028V20.4746H151.434V21.582ZM161.027 25.2324C163.208 25.2324 164.52 23.2432 164.52 20.0713V20.0576C164.52 16.8857 163.208 14.9033 161.027 14.9033C158.846 14.9033 157.548 16.8857 157.548 20.0576V20.0713C157.548 23.2432 158.846 25.2324 161.027 25.2324ZM161.027 24.1592C159.612 24.1592 158.785 22.5869 158.785 20.0713V20.0576C158.785 17.542 159.612 15.9834 161.027 15.9834C162.442 15.9834 163.283 17.542 163.283 20.0576V20.0713C163.283 22.5869 162.442 24.1592 161.027 24.1592ZM169.376 25.2324C171.379 25.2324 172.807 23.8447 172.807 21.8555V21.8418C172.807 19.9346 171.474 18.5469 169.622 18.5469C168.726 18.5469 167.954 18.9092 167.516 19.5723H167.407L167.742 16.2363H172.261V15.1357H166.771L166.252 20.8027H167.318C167.441 20.5703 167.599 20.3789 167.769 20.2148C168.193 19.8115 168.754 19.6133 169.41 19.6133C170.688 19.6133 171.604 20.5498 171.604 21.8623V21.876C171.604 23.209 170.702 24.1455 169.39 24.1455C168.234 24.1455 167.38 23.3936 167.264 22.4502L167.257 22.3955H166.074L166.081 22.4707C166.224 24.0498 167.537 25.2324 169.376 25.2324ZM174.286 21.582H178.88V20.4746H174.286V21.582ZM183.934 25.1641C185.909 25.1641 187.359 23.9473 187.359 22.2998V22.2861C187.359 20.8848 186.381 19.9893 184.946 19.8662V19.8389C186.176 19.5791 187.037 18.7451 187.037 17.5283V17.5146C187.037 16.0176 185.8 14.9717 183.92 14.9717C182.074 14.9717 180.803 16.0449 180.646 17.6514L180.639 17.7197H181.822L181.828 17.6514C181.931 16.6533 182.758 16.0381 183.92 16.0381C185.123 16.0381 185.8 16.6328 185.8 17.665V17.6787C185.8 18.6631 184.98 19.3877 183.804 19.3877H182.621V20.4268H183.859C185.24 20.4268 186.108 21.1035 186.108 22.3135V22.3271C186.108 23.373 185.226 24.0977 183.934 24.0977C182.621 24.0977 181.726 23.4277 181.63 22.457L181.623 22.3887H180.441L180.448 22.4707C180.577 24.0293 181.897 25.1641 183.934 25.1641ZM192.249 25.2324C194.429 25.2324 195.742 23.2432 195.742 20.0713V20.0576C195.742 16.8857 194.429 14.9033 192.249 14.9033C190.068 14.9033 188.769 16.8857 188.769 20.0576V20.0713C188.769 23.2432 190.068 25.2324 192.249 25.2324ZM192.249 24.1592C190.833 24.1592 190.006 22.5869 190.006 20.0713V20.0576C190.006 17.542 190.833 15.9834 192.249 15.9834C193.664 15.9834 194.504 17.542 194.504 20.0576V20.0713C194.504 22.5869 193.664 24.1592 192.249 24.1592Z" fill="black"/>
</svg>
