<svg width="366" height="94" viewBox="0 0 366 94" fill="none" xmlns="http://www.w3.org/2000/svg">
<rect width="366" height="94" rx="8" fill="white"/>
<path d="M16.3799 26H22.7647V24.8926H18.0889V24.7832L20.3311 22.4658C22.1153 20.627 22.6006 19.8066 22.6006 18.6787V18.665C22.6006 17.0723 21.2813 15.9033 19.5587 15.9033C17.6719 15.9033 16.3184 17.1611 16.3116 18.9111L16.3253 18.918L17.501 18.9248L17.5079 18.9111C17.5079 17.749 18.294 16.9766 19.4766 16.9766C20.6387 16.9766 21.3428 17.7559 21.3428 18.7949V18.8086C21.3428 19.6699 20.9737 20.1826 19.7159 21.543L16.3799 25.1523V26ZM27.7229 26.2324C29.9036 26.2324 31.2161 24.2432 31.2161 21.0713V21.0576C31.2161 17.8857 29.9036 15.9033 27.7229 15.9033C25.5423 15.9033 24.2434 17.8857 24.2434 21.0576V21.0713C24.2434 24.2432 25.5423 26.2324 27.7229 26.2324ZM27.7229 25.1592C26.3079 25.1592 25.4807 23.5869 25.4807 21.0713V21.0576C25.4807 18.542 26.3079 16.9834 27.7229 16.9834C29.138 16.9834 29.9788 18.542 29.9788 21.0576V21.0713C29.9788 23.5869 29.138 25.1592 27.7229 25.1592ZM32.8315 26H39.2163V24.8926H34.5405V24.7832L36.7827 22.4658C38.5669 20.627 39.0522 19.8066 39.0522 18.6787V18.665C39.0522 17.0723 37.7329 15.9033 36.0102 15.9033C34.1235 15.9033 32.77 17.1611 32.7632 18.9111L32.7768 18.918L33.9526 18.9248L33.9595 18.9111C33.9595 17.749 34.7456 16.9766 35.9282 16.9766C37.0903 16.9766 37.7944 17.7559 37.7944 18.7949V18.8086C37.7944 19.6699 37.4253 20.1826 36.1675 21.543L32.8315 25.1523V26ZM40.8727 26H47.2575V24.8926H42.5817V24.7832L44.8239 22.4658C46.6081 20.627 47.0934 19.8066 47.0934 18.6787V18.665C47.0934 17.0723 45.7741 15.9033 44.0515 15.9033C42.1647 15.9033 40.8112 17.1611 40.8044 18.9111L40.8181 18.918L41.9938 18.9248L42.0007 18.9111C42.0007 17.749 42.7868 16.9766 43.9694 16.9766C45.1315 16.9766 45.8356 17.7559 45.8356 18.7949V18.8086C45.8356 19.6699 45.4665 20.1826 44.2087 21.543L40.8727 25.1523V26ZM48.8183 22.582H53.412V21.4746H48.8183V22.582ZM58.4112 26.2324C60.5919 26.2324 61.9044 24.2432 61.9044 21.0713V21.0576C61.9044 17.8857 60.5919 15.9033 58.4112 15.9033C56.2306 15.9033 54.9317 17.8857 54.9317 21.0576V21.0713C54.9317 24.2432 56.2306 26.2324 58.4112 26.2324ZM58.4112 25.1592C56.9962 25.1592 56.169 23.5869 56.169 21.0713V21.0576C56.169 18.542 56.9962 16.9834 58.4112 16.9834C59.8263 16.9834 60.6671 18.542 60.6671 21.0576V21.0713C60.6671 23.5869 59.8263 25.1592 58.4112 25.1592ZM66.7601 26.2324C68.763 26.2324 70.1917 24.8447 70.1917 22.8555V22.8418C70.1917 20.9346 68.8587 19.5469 67.0062 19.5469C66.1107 19.5469 65.3382 19.9092 64.9007 20.5723H64.7913L65.1263 17.2363H69.6448V16.1357H64.1556L63.636 21.8027H64.7025C64.8255 21.5703 64.9827 21.3789 65.1536 21.2148C65.5775 20.8115 66.138 20.6133 66.7943 20.6133C68.0726 20.6133 68.9886 21.5498 68.9886 22.8623V22.876C68.9886 24.209 68.0862 25.1455 66.7737 25.1455C65.6185 25.1455 64.764 24.3936 64.6478 23.4502L64.6409 23.3955H63.4583L63.4651 23.4707C63.6087 25.0498 64.9212 26.2324 66.7601 26.2324ZM71.6704 22.582H76.2642V21.4746H71.6704V22.582ZM77.9616 26H84.3464V24.8926H79.6706V24.7832L81.9128 22.4658C83.697 20.627 84.1824 19.8066 84.1824 18.6787V18.665C84.1824 17.0723 82.863 15.9033 81.1404 15.9033C79.2536 15.9033 77.9001 17.1611 77.8933 18.9111L77.907 18.918L79.0827 18.9248L79.0896 18.9111C79.0896 17.749 79.8757 16.9766 81.0583 16.9766C82.2204 16.9766 82.9245 17.7559 82.9245 18.7949V18.8086C82.9245 19.6699 82.5554 20.1826 81.2976 21.543L77.9616 25.1523V26ZM89.3046 26.2324C91.4853 26.2324 92.7978 24.2432 92.7978 21.0713V21.0576C92.7978 17.8857 91.4853 15.9033 89.3046 15.9033C87.124 15.9033 85.8251 17.8857 85.8251 21.0576V21.0713C85.8251 24.2432 87.124 26.2324 89.3046 26.2324ZM89.3046 25.1592C87.8896 25.1592 87.0624 23.5869 87.0624 21.0713V21.0576C87.0624 18.542 87.8896 16.9834 89.3046 16.9834C90.7197 16.9834 91.5605 18.542 91.5605 21.0576V21.0713C91.5605 23.5869 90.7197 25.1592 89.3046 25.1592Z" fill="#A0A0A0"/>
<path d="M22.53 73.254C21.326 74.206 19.702 74.864 17.658 75.2L18.19 75.928C20.178 75.592 21.872 74.864 23.272 73.744L22.53 73.254ZM24.14 74.318C22.558 75.606 20.43 76.46 17.742 76.908L18.274 77.65C20.878 77.23 23.076 76.278 24.896 74.822L24.14 74.318ZM26.03 75.312C24.014 76.992 21.284 78.126 17.84 78.714L18.4 79.456C21.69 78.91 24.49 77.692 26.814 75.816L26.03 75.312ZM21.116 71.798C19.772 72.722 17.966 73.478 15.684 74.08L16.244 74.934C18.568 74.29 20.5 73.394 22.04 72.218C23.314 73.282 25.246 74.178 27.85 74.906L28.41 74.052C26.128 73.436 24.378 72.736 23.174 71.952C24.35 71.868 25.498 71.728 26.632 71.518C26.856 71.798 27.052 72.092 27.234 72.386L27.976 71.868C27.57 71.28 26.996 70.58 26.24 69.782L25.54 70.216C25.736 70.44 25.932 70.664 26.128 70.902C25.4 71.014 24.644 71.098 23.874 71.154C24.378 70.706 24.826 70.16 25.218 69.502L24.392 69.236C23.86 70.16 23.202 70.846 22.404 71.294L22.446 71.42L22.432 71.406H21.886C21.522 70.958 21.046 70.44 20.458 69.88L19.772 70.314C20.01 70.552 20.248 70.79 20.472 71.042C19.604 71.21 18.722 71.35 17.826 71.434C18.386 70.958 18.876 70.37 19.324 69.67L18.498 69.404C17.91 70.398 17.168 71.126 16.272 71.602L16.51 72.302C18.05 72.19 19.548 71.966 21.004 71.658L21.116 71.798ZM24.154 66.772L23.426 67.234C23.818 67.514 24.182 67.794 24.532 68.074C23.468 68.158 21.872 68.256 19.744 68.382C20.346 67.976 20.976 67.43 21.634 66.758L20.696 66.506C19.352 67.822 18.19 68.48 17.21 68.48L17.378 69.278C19.912 69.166 22.586 69.012 25.414 68.83C25.694 69.068 25.946 69.306 26.17 69.558L26.968 68.998C26.324 68.368 25.386 67.626 24.154 66.772ZM33.28 66.786C32.384 67.164 31.376 67.444 30.27 67.626L30.592 75.27H29.416V76.222H41.834V75.27H40.714L41.05 67.318H38.264V68.27H40.084L40 69.978H38.362V70.888H39.958L39.874 72.596H38.264V73.52H39.818L39.734 75.27H31.558L31.474 73.492H33.294V72.568H31.432L31.348 70.874H33.392V69.964H31.306L31.222 68.41C32.356 68.158 33.168 67.92 33.658 67.696L33.28 66.786ZM37.55 76.348L37.046 77.104C38.502 77.65 39.93 78.392 41.33 79.344L41.89 78.476C40.588 77.636 39.146 76.936 37.55 76.348ZM33.56 76.404C32.454 77.202 31.096 77.902 29.486 78.504L30.116 79.316C31.768 78.672 33.168 77.916 34.288 77.048L33.56 76.404ZM35.45 68.718H37.704V67.822H35.59C35.632 67.458 35.674 67.094 35.73 66.702L34.834 66.618C34.68 67.85 34.456 69.264 34.148 70.874H36.668C36.64 72.554 36.584 73.492 36.486 73.688C36.402 73.87 36.22 73.968 35.94 73.968C35.716 73.968 35.464 73.954 35.198 73.954L35.464 74.864H35.912C36.57 74.864 36.99 74.71 37.186 74.416C37.41 74.08 37.536 72.61 37.564 70.006H35.212C35.296 69.6 35.366 69.166 35.45 68.718ZM34.12 71.448C34.064 72.554 33.854 73.604 33.49 74.598L34.302 74.836C34.68 73.772 34.89 72.666 34.946 71.504L34.12 71.448ZM47.642 73.926H50.232V72.96H47.642V71.224H50.512V67.122H46.662V79.414H47.642V76.684H50.246V75.746H47.642V73.926ZM54.978 71.224V67.122H51.226V68.06H53.998V70.286H51.198V71.224H54.978ZM50.75 72.526V73.464H51.142C51.338 74.724 51.758 75.844 52.402 76.838L52.416 76.852C51.744 77.58 50.918 78.168 49.938 78.63L50.484 79.484C51.478 79.022 52.332 78.42 53.032 77.664C53.648 78.378 54.404 78.966 55.328 79.442L55.804 78.588C55.02 78.182 54.306 77.622 53.648 76.908C54.348 75.942 54.838 74.78 55.146 73.408V72.526H50.75ZM52.024 73.464H54.236C53.956 74.458 53.55 75.34 53.018 76.11C52.514 75.368 52.178 74.486 52.024 73.464ZM47.642 70.3V68.06H49.56V70.3H47.642ZM44.142 71.658V79.428H45.15V69.698C45.528 68.83 45.85 67.892 46.116 66.898L45.178 66.464C44.66 68.634 43.834 70.552 42.686 72.232L43.022 73.31C43.414 72.778 43.792 72.232 44.142 71.658ZM67.282 67.122H58.63V79.344H59.638V78.266H66.26V79.33H67.282V67.122ZM59.638 77.286V73.072H66.26V77.286H59.638ZM59.638 72.092V68.102H66.26V72.092H59.638ZM81.672 74.416V72.372H82.582V71.504H81.672V69.474H78.914V68.438H82.456V67.556H78.914V66.576H77.948V67.556H74.7V68.438H77.948V69.474H75.344V70.342H77.948V71.504H74.784V72.372H77.948V73.548H75.246V74.416H77.948V77.958C77.78 77.902 77.64 77.86 77.5 77.804C76.968 77.566 76.492 77.034 76.072 76.194C76.142 75.872 76.212 75.522 76.268 75.13L75.33 74.99C75.106 76.628 74.574 77.916 73.734 78.84L74.546 79.4C75.05 78.84 75.47 78.112 75.792 77.188C76.184 77.902 76.632 78.392 77.122 78.644C77.738 78.952 78.914 79.12 80.65 79.134C81.21 79.148 81.826 79.162 82.526 79.162L82.82 78.14C82.204 78.182 81.462 78.21 80.58 78.21C79.95 78.21 79.39 78.182 78.914 78.126V76.558H81.994V75.676H78.914V74.416H81.672ZM78.914 70.342H80.762V71.504H78.914V70.342ZM80.762 72.372V73.548H78.914V72.372H80.762ZM71.76 79.246C72.544 79.246 72.936 78.854 72.936 78.07V73.856C73.384 73.632 73.846 73.394 74.308 73.142V72.134C73.86 72.386 73.412 72.638 72.936 72.862V70.104H74.434V69.138H72.936V66.59H71.928V69.138H70.206V70.104H71.928V73.31C71.298 73.562 70.654 73.772 70.01 73.94L70.262 74.948C70.822 74.752 71.368 74.542 71.928 74.318V77.818C71.928 78.168 71.746 78.35 71.41 78.35C71.06 78.35 70.696 78.322 70.318 78.28L70.528 79.246H71.76ZM94.116 75.06H86.136V79.442H87.116V78.84H93.136V79.442H94.116V75.06ZM87.116 77.93V75.97H93.136V77.93H87.116ZM88.236 68.816C87.34 70.118 86.206 71.168 84.82 71.966L85.464 72.75C86.08 72.358 86.668 71.924 87.214 71.434C87.816 71.966 88.474 72.442 89.188 72.862C87.704 73.45 85.828 73.912 83.574 74.276L83.952 75.172C86.472 74.738 88.558 74.15 90.21 73.394C91.946 74.234 93.92 74.724 96.16 74.892L96.384 73.982C94.494 73.842 92.786 73.478 91.26 72.876C92.338 72.26 93.164 71.56 93.738 70.762V69.95H88.572C88.796 69.656 89.006 69.348 89.216 69.026L88.236 68.816ZM90.224 72.414C89.356 71.98 88.544 71.462 87.802 70.846L87.844 70.804H92.534C91.96 71.392 91.19 71.938 90.224 72.414ZM95.684 67.612H90.518C90.35 67.192 90.196 66.8 90.028 66.464L88.922 66.632C89.104 66.926 89.272 67.248 89.44 67.612H84.316V70.258H85.338V68.522H94.662V70.258H95.684V67.612ZM97.824 67.164V71.504H99.742V77.51C99.392 77.594 99.028 77.692 98.664 77.79V72.904H97.796V77.986C97.586 78.028 97.376 78.07 97.152 78.126L97.418 79.064C99.21 78.644 100.792 78.182 102.136 77.678V76.74C101.66 76.908 101.17 77.062 100.666 77.23V74.626H102.29V73.702H100.666V71.504H102.038V67.164H97.824ZM101.128 70.622H98.748V68.046H101.128V70.622ZM105.72 67.094V68.032H106.938C107.092 73.422 107.89 77.202 109.318 79.386L110.074 78.714C108.632 76.446 107.89 72.568 107.848 67.094H105.72ZM103.998 67.724C103.998 69.698 103.942 71.322 103.844 72.61C103.648 75.102 103.032 77.146 102.01 78.728L102.766 79.428C103.858 77.706 104.516 75.592 104.754 73.086C104.866 71.784 104.936 70.034 104.936 67.836L103.998 67.724ZM111.416 67.164V71.504H113.334V77.51C112.984 77.594 112.62 77.692 112.256 77.79V72.904H111.388V77.986C111.178 78.028 110.968 78.07 110.744 78.126L111.01 79.064C112.802 78.644 114.384 78.182 115.728 77.678V76.74C115.252 76.908 114.762 77.062 114.258 77.23V74.626H115.882V73.702H114.258V71.504H115.63V67.164H111.416ZM114.72 70.622H112.34V68.046H114.72V70.622ZM119.312 67.094V68.032H120.53C120.684 73.422 121.482 77.202 122.91 79.386L123.666 78.714C122.224 76.446 121.482 72.568 121.44 67.094H119.312ZM117.59 67.724C117.59 69.698 117.534 71.322 117.436 72.61C117.24 75.102 116.624 77.146 115.602 78.728L116.358 79.428C117.45 77.706 118.108 75.592 118.346 73.086C118.458 71.784 118.528 70.034 118.528 67.836L117.59 67.724ZM125.82 68.172V69.096H130.286V71.266H124.756V72.218H130.286V78C130.006 77.93 129.768 77.846 129.572 77.762C128.788 77.426 128.102 76.614 127.486 75.354C127.682 74.696 127.794 74.01 127.85 73.296L126.842 73.17C126.688 75.2 125.848 77.034 124.336 78.672L125.106 79.344C125.988 78.406 126.66 77.398 127.136 76.306C127.724 77.44 128.382 78.196 129.124 78.588C129.978 79.022 131.602 79.246 133.996 79.26C134.822 79.26 135.76 79.274 136.796 79.274L137.076 78.266C136.222 78.308 135.172 78.336 133.926 78.336C132.89 78.336 132.008 78.28 131.28 78.182V75.466H135.564V74.528H131.28V72.218H136.824V71.266H131.28V69.096H135.732V68.172H131.28V66.59H130.286V68.172H125.82ZM141.68 70.636V71.602H145.684V73.772H142.618V79.414H143.612V78.644H148.862V79.386H149.856V73.772H146.706V71.602H150.738V70.636H146.706V68.312C147.98 68.13 149.1 67.864 150.08 67.514L149.59 66.646C147.574 67.332 145.026 67.682 141.974 67.682L142.282 68.592C143.486 68.592 144.62 68.536 145.684 68.438V70.636H141.68ZM143.612 77.692V74.724H148.862V77.692H143.612ZM139.146 66.758L138.46 67.416C139.468 68.088 140.266 68.704 140.84 69.292L141.526 68.606C140.882 67.99 140.084 67.374 139.146 66.758ZM138.824 70.104L138.124 70.79C139.146 71.518 139.944 72.218 140.532 72.876L141.232 72.176C140.588 71.476 139.776 70.79 138.824 70.104ZM140.476 73.828C139.888 75.522 139.174 77.174 138.362 78.798L139.37 79.232C140.098 77.664 140.77 75.97 141.386 74.178L140.476 73.828ZM160.06 66.604V69.264H158.674V70.174H160.06V70.846C160.032 74.206 159.346 76.712 158.002 78.392V77.65C157.218 77.762 156.364 77.86 155.454 77.944V76.782H157.988V75.942H155.454V74.976H157.974V70.706H155.454V69.81H158.24V68.97H155.454V67.92C156.448 67.808 157.33 67.654 158.086 67.458L157.638 66.688C156.07 67.066 154.096 67.262 151.716 67.262L151.996 68.074C152.878 68.074 153.718 68.046 154.502 67.99V68.97H151.646V69.81H154.502V70.706H151.996V74.976H154.502V75.942H151.982V76.782H154.502V78.028C153.564 78.098 152.57 78.168 151.534 78.224L151.66 79.12C153.97 78.966 156.042 78.784 157.862 78.56C157.82 78.616 157.778 78.658 157.736 78.714L158.464 79.344C160.116 77.552 160.97 74.71 160.998 70.846V70.174H162.874C162.846 74.206 162.79 76.628 162.692 77.412C162.608 78.056 162.3 78.378 161.768 78.378C161.348 78.378 160.844 78.35 160.284 78.322L160.522 79.218C161.166 79.246 161.628 79.26 161.894 79.26C162.93 79.26 163.504 78.77 163.63 77.804C163.756 76.712 163.826 73.87 163.826 69.264H160.998V66.604H160.06ZM157.064 74.22H155.398V73.184H157.064V74.22ZM154.558 74.22H152.906V73.184H154.558V74.22ZM152.906 72.484V71.448H154.558V72.484H152.906ZM155.398 71.448H157.064V72.484H155.398V71.448Z" fill="#696969"/>
<path d="M267.204 47.072V47.884H269.486V48.99H266.882V49.886H272.958V48.99H270.382V47.884H272.622V47.072H270.382V46.05H272.79V41.08H267.064V46.05H269.486V47.072H267.204ZM267.246 50.53C267.176 51.51 266.994 52.378 266.7 53.134L267.526 53.386C267.792 52.574 267.96 51.664 268.03 50.628L267.246 50.53ZM269.444 50.614L268.688 50.712C268.744 51.314 268.772 52.168 268.8 53.274L269.626 53.176C269.598 52.084 269.528 51.23 269.444 50.614ZM272.37 50.376L271.628 50.586C271.866 51.342 272.076 52.112 272.244 52.896L272.986 52.616C272.846 51.944 272.636 51.188 272.37 50.376ZM270.9 50.558L270.158 50.712C270.326 51.412 270.452 52.21 270.564 53.106L271.39 52.938C271.25 52.07 271.082 51.286 270.9 50.558ZM271.978 45.266H270.284V41.864H271.978V45.266ZM269.542 45.266H267.89V41.864H269.542V45.266ZM271.026 42.354C270.942 43.138 270.788 43.866 270.578 44.566L271.138 44.762C271.362 44.048 271.53 43.292 271.614 42.508L271.026 42.354ZM268.716 42.48L268.156 42.648C268.366 43.32 268.548 44.02 268.702 44.748L269.262 44.594C269.094 43.796 268.912 43.096 268.716 42.48ZM275.548 40.632V46.666H273.574V53.4H274.526V52.658H277.97V53.4H278.922V46.666H276.528V44.132H279.51V43.222H276.528V40.632H275.548ZM274.526 51.734V47.576H277.97V51.734H274.526ZM281.104 41.318V42.886H280.488V43.726H281.104V45.294H283.33V46.022H280.908V48.304H283.092C282.952 48.556 282.798 48.808 282.658 49.074H280.39V49.858H282.182C281.93 50.264 281.664 50.67 281.384 51.09C281.958 51.258 282.546 51.454 283.134 51.678C282.35 52.056 281.412 52.392 280.334 52.672L280.894 53.4C282.14 53.036 283.218 52.588 284.142 52.084C284.94 52.42 285.752 52.826 286.564 53.274L287.11 52.56C286.382 52.168 285.682 51.832 284.982 51.552C285.738 51.02 286.326 50.404 286.746 49.718V49.074H283.638C283.764 48.836 283.904 48.584 284.058 48.304H286.69V46.022H284.254V45.294H286.494V43.726H287.124V42.886H286.494V41.318H284.254V40.548H283.33V41.318H281.104ZM284.058 51.188C283.582 50.992 283.106 50.838 282.644 50.712C282.812 50.46 282.98 50.166 283.176 49.858H285.64C285.248 50.334 284.716 50.782 284.058 51.188ZM285.626 44.58H284.254V43.642H285.626V44.58ZM284.254 42.97V42.046H285.626V42.97H284.254ZM283.33 44.58H281.972V43.642H283.33V44.58ZM281.972 42.97V42.046H283.33V42.97H281.972ZM285.822 47.604H284.254V46.708H285.822V47.604ZM283.33 47.604H281.776V46.708H283.33V47.604ZM288.986 43.67H291.03C290.974 45.756 290.61 47.548 289.952 49.032C289.476 48.052 289.168 46.946 289.028 45.714L288.216 45.966C288.51 45.28 288.762 44.51 288.986 43.67ZM289.434 50.054C288.832 51.048 288.062 51.874 287.11 52.532L287.656 53.414C288.58 52.742 289.35 51.916 289.994 50.95C290.652 51.902 291.506 52.728 292.542 53.428L293.144 52.63C292.066 51.902 291.198 51.034 290.526 50.026C291.408 48.318 291.884 46.19 291.954 43.67H292.906V42.704H289.21C289.336 42.06 289.448 41.36 289.546 40.632L288.552 40.45C288.258 42.998 287.698 45.014 286.886 46.512L287.516 47.296C287.74 46.918 287.964 46.498 288.188 46.036C288.37 47.534 288.79 48.878 289.434 50.054ZM297.608 44.468V49.452H303.012V44.468H297.608ZM302.06 48.598H298.546V45.336H302.06V48.598ZM305.91 41.402H294.682V53.176H295.662V52.574H304.93V53.176H305.91V41.402ZM295.662 51.678V42.298H304.93V51.678H295.662ZM313.622 41.318V43.81H316.1V44.552H312.88V45.35H320.202V44.552H317.01V43.81H319.474V41.318H317.01V40.534H316.1V41.318H313.622ZM318.62 43.096H317.01V42.032H318.62V43.096ZM316.1 43.096H314.476V42.032H316.1V43.096ZM313.664 46.008V51.37H319.446V46.008H313.664ZM318.494 50.628H314.616V49.732H318.494V50.628ZM314.616 49.088V48.248H318.494V49.088H314.616ZM314.616 47.604V46.736H318.494V47.604H314.616ZM317.43 51.468L317.08 52.14C318.116 52.448 319.096 52.868 320.048 53.428L320.356 52.686C319.418 52.154 318.438 51.748 317.43 51.468ZM315.526 51.496C314.896 51.972 313.972 52.364 312.754 52.672L313.174 53.386C314.378 53.05 315.316 52.63 315.988 52.098L315.526 51.496ZM309.898 40.716C309.156 41.836 308.33 42.83 307.434 43.67L307.966 44.426C308.386 44.034 308.778 43.628 309.156 43.208V43.95H311.634V43.152H309.198C309.618 42.662 310.024 42.144 310.416 41.584C311.004 42.2 311.704 43.026 312.516 44.062L313.104 43.432C312.348 42.48 311.578 41.57 310.766 40.716H309.898ZM309.38 47.744H311.382V48.962H309.38V47.744ZM311.382 46.946H309.38V45.756H311.382V46.946ZM311.76 50.18L310.962 50.446C311.102 50.74 311.242 51.062 311.382 51.426C310.794 51.678 310.122 51.916 309.38 52.154V49.83H312.306V44.888H308.456V52.21C308.456 52.35 308.372 52.462 308.204 52.532L308.47 53.26C309.674 52.952 310.738 52.588 311.676 52.196C311.774 52.462 311.872 52.742 311.97 53.05L312.754 52.7C312.474 51.804 312.138 50.964 311.76 50.18Z" fill="#696969"/>
<path d="M329.985 49.4766H333.36V52.75H335.415V49.4766H338.798V47.4219H335.415V44.1484H333.36V47.4219H329.985V49.4766ZM344.773 53.2891C347.304 53.2891 349.054 51.6719 349.054 49.2969V49.2812C349.054 47.1328 347.538 45.5859 345.437 45.5859C344.359 45.5859 343.484 46.0547 343.03 46.8125H342.89L343.171 43.6016H348.382V41.7266H341.335L340.812 48.3984H342.835C342.96 48.1562 343.148 47.9453 343.359 47.7734C343.734 47.4531 344.218 47.2891 344.788 47.2891C345.984 47.2891 346.835 48.125 346.835 49.3281V49.3438C346.835 50.5547 345.991 51.4062 344.78 51.4062C343.718 51.4062 342.944 50.7422 342.78 49.9141L342.765 49.8594H340.624L340.632 49.9688C340.765 51.8516 342.359 53.2891 344.773 53.2891Z" fill="#3179AA"/>
<path d="M30.9667 44.09V45.378H36.1047C35.3627 48.654 33.5427 51.006 30.6587 52.406L31.5127 53.526C34.3547 52.028 36.2447 49.676 37.1687 46.47C38.2327 49.438 40.1227 51.748 42.8107 53.4L43.6367 52.322C40.8647 50.684 38.9747 48.374 37.9947 45.378H43.3427V44.09H37.6587C37.7707 43.25 37.8267 42.368 37.8267 41.444V40.534H36.4827V41.752C36.4687 42.564 36.4127 43.348 36.3287 44.09H30.9667ZM47.5267 46.652C47.8067 47.128 48.1427 47.716 48.5207 48.43L49.2627 47.324C48.6747 46.526 48.0867 45.812 47.5267 45.168V44.426H48.8987V43.152H47.5267V40.52H46.2527V43.152H44.4887V44.426H46.2527C45.8187 46.022 45.1187 47.436 44.1667 48.682L44.7407 50.138C45.3427 49.186 45.8467 48.136 46.2527 47.002V53.4H47.5267V46.652ZM49.1787 42.76V43.852H50.8447C50.2567 44.426 49.5147 44.916 48.5907 45.322L49.2067 46.414C49.6827 46.19 50.1447 45.938 50.5647 45.644V47.198H55.2547V45.49C55.6747 45.798 56.1647 46.078 56.7387 46.33L57.2987 45.154C56.3047 44.818 55.5347 44.384 54.9747 43.852H56.7807V42.76H53.0007C53.1127 42.522 53.2107 42.27 53.3087 41.99C54.4007 41.878 55.3667 41.724 56.2067 41.5L55.6187 40.492C53.9807 40.87 51.9647 41.066 49.5847 41.066L49.9347 42.13C50.6767 42.13 51.3767 42.102 52.0487 42.074C51.9507 42.298 51.8387 42.536 51.6987 42.76H49.1787ZM54.2607 44.622H51.7547C51.9787 44.384 52.1887 44.132 52.3847 43.852H53.6727C53.8267 44.104 54.0227 44.37 54.2607 44.622ZM54.1767 46.274H51.6427V45.546H54.1767V46.274ZM51.2647 49.382V52H54.6527V49.382H51.2647ZM53.6167 51.09H52.2867V50.292H53.6167V51.09ZM55.3667 53.428C56.1507 53.428 56.5427 53.036 56.5427 52.266V47.744H49.3887V53.428H50.5787V48.836H55.3667V52C55.3667 52.28 55.2407 52.42 55.0167 52.42L53.9807 52.364L54.2607 53.428H55.3667ZM64.1287 43.166V50.698H65.7387C65.1227 51.384 64.3527 52 63.4427 52.532L64.2267 53.54C65.1927 52.938 66.0047 52.252 66.6627 51.468L65.7947 50.698H68.5807L67.7967 51.454C68.7207 52.168 69.4487 52.84 69.9527 53.456L70.8487 52.574C70.2607 51.958 69.5327 51.328 68.6787 50.698H70.1907V43.166H67.6007C67.6707 42.844 67.7267 42.508 67.7827 42.172H70.7087V40.996H63.7087V42.172H66.5087C66.4527 42.508 66.3967 42.83 66.3267 43.166H64.1287ZM68.9307 49.536H65.3887V48.444H68.9307V49.536ZM65.3887 47.366V46.4H68.9307V47.366H65.3887ZM65.3887 45.322V44.258H68.9307V45.322H65.3887ZM58.0387 41.136V42.368H63.2747V41.136H58.0387ZM58.3327 43.488V47.758H63.0087V43.488H58.3327ZM61.8327 46.624H59.5087V44.622H61.8327V46.624ZM63.2747 50.936C62.9107 51.02 62.5187 51.09 62.1267 51.174C62.3927 50.404 62.6307 49.536 62.8547 48.57L61.7347 48.178C61.4827 49.326 61.1747 50.39 60.8387 51.384C59.9427 51.524 58.9627 51.636 57.9267 51.748L58.0947 52.966C60.0267 52.756 61.7627 52.476 63.2747 52.14V50.936ZM59.5087 48.304L58.4447 48.64C58.7247 49.452 58.9627 50.292 59.1447 51.16L60.2087 50.88C59.9987 49.914 59.7607 49.06 59.5087 48.304ZM79.4987 40.506V46.582H77.4687V53.372H78.7427V52.504H82.3827V53.358H83.6707V46.582H80.8427V44.146H84.2447V42.858H80.8427V40.506H79.4987ZM78.7427 51.272V47.744H82.3827V51.272H78.7427ZM71.6727 42.732V44.02H77.2587V42.732H75.0747C74.9067 41.948 74.7527 41.234 74.5847 40.618L73.2407 40.828C73.4367 41.402 73.6327 42.032 73.8007 42.732H71.6727ZM73.1427 44.65L71.9807 45.028C72.3587 46.764 72.6667 48.57 72.9187 50.446L74.0247 50.18C73.7587 48.108 73.4647 46.26 73.1427 44.65ZM76.9927 50.138C76.6007 50.25 76.1947 50.362 75.7747 50.474C76.1947 48.738 76.5167 46.834 76.7267 44.776L75.4387 44.594C75.2567 46.764 74.9627 48.822 74.5427 50.754C73.5767 50.964 72.5967 51.132 71.5887 51.258L71.8967 52.532C73.7167 52.238 75.4107 51.874 76.9927 51.44V50.138ZM89.4768 47.758V48.99H96.5468V47.758H89.4768Z" fill="black"/>
<path d="M117.942 47.38V50.362H121.932V51.734C121.932 52.07 121.806 52.238 121.582 52.238C121.092 52.238 120.574 52.21 120.028 52.154L120.308 53.386H122.016C122.828 53.386 123.248 52.938 123.248 52.042V50.362H127.014V47.38H117.942ZM125.712 49.326H119.23V48.402H125.712V49.326ZM117.662 40.87V45.084H121.4C121.526 45.28 121.652 45.476 121.764 45.7H116.178V46.806H128.638V45.7H123.206C123.122 45.49 123.024 45.28 122.926 45.084H127.168V40.87H117.662ZM125.866 44.048H118.964V43.446H125.866V44.048ZM118.964 42.508V41.906H125.866V42.508H118.964ZM124.886 50.684L124.34 51.734C125.726 52.112 127.056 52.644 128.344 53.316L128.82 52.098C127.56 51.482 126.244 51.006 124.886 50.684ZM119.44 50.586C118.67 51.23 117.522 51.79 116.01 52.238L116.752 53.33C118.18 52.84 119.342 52.21 120.266 51.44L119.44 50.586ZM130.302 41.836V43.04H135.342V44.118H131.086V45.238H135.342V46.33H129.84V47.562H142.16V46.33H136.658V45.238H140.956V44.118H136.658V43.04H141.698V41.836H138.772C138.996 41.444 139.164 41.038 139.276 40.618L137.89 40.436C137.778 40.912 137.61 41.388 137.414 41.836H134.642C134.46 41.332 134.278 40.884 134.082 40.478L132.696 40.702C132.92 41.052 133.116 41.43 133.284 41.836H130.302ZM135.496 47.842C135.44 48.15 135.37 48.458 135.272 48.766H130.162V49.998H134.586C134.376 50.264 134.138 50.502 133.858 50.726C132.962 51.398 131.52 51.902 129.504 52.252L130.05 53.54C132.388 53.064 134.012 52.42 134.936 51.608C135.454 51.16 135.874 50.614 136.196 49.998H141.852V48.766H136.644C136.7 48.514 136.756 48.262 136.798 47.982L135.496 47.842ZM137.302 50.32L136.602 51.356C138.352 51.888 140.06 52.63 141.74 53.554L142.496 52.392C140.928 51.58 139.206 50.894 137.302 50.32ZM151.16 40.506V46.582H149.13V53.372H150.404V52.504H154.044V53.358H155.332V46.582H152.504V44.146H155.906V42.858H152.504V40.506H151.16ZM150.404 51.272V47.744H154.044V51.272H150.404ZM143.334 42.732V44.02H148.92V42.732H146.736C146.568 41.948 146.414 41.234 146.246 40.618L144.902 40.828C145.098 41.402 145.294 42.032 145.462 42.732H143.334ZM144.804 44.65L143.642 45.028C144.02 46.764 144.328 48.57 144.58 50.446L145.686 50.18C145.42 48.108 145.126 46.26 144.804 44.65ZM148.654 50.138C148.262 50.25 147.856 50.362 147.436 50.474C147.856 48.738 148.178 46.834 148.388 44.776L147.1 44.594C146.918 46.764 146.624 48.822 146.204 50.754C145.238 50.964 144.258 51.132 143.25 51.258L143.558 52.532C145.378 52.238 147.072 51.874 148.654 51.44V50.138Z" fill="black"/>
<circle cx="21" cy="47" r="5" fill="#FDAF27"/>
<circle cx="106" cy="47" r="5" fill="#048459"/>
</svg>
