<svg width="366" height="94" viewBox="0 0 366 94" fill="none" xmlns="http://www.w3.org/2000/svg">
<rect width="366" height="94" rx="8" fill="white"/>
<path d="M17.3096 26H23.6944V24.8926H19.0186V24.7832L21.2608 22.4658C23.045 20.627 23.5303 19.8066 23.5303 18.6787V18.665C23.5303 17.0723 22.211 15.9033 20.4883 15.9033C18.6016 15.9033 17.2481 17.1611 17.2413 18.9111L17.2549 18.918L18.4307 18.9248L18.4376 18.9111C18.4376 17.749 19.2237 16.9766 20.4063 16.9766C21.5684 16.9766 22.2725 17.7559 22.2725 18.7949V18.8086C22.2725 19.6699 21.9034 20.1826 20.6456 21.543L17.3096 25.1523V26ZM28.6526 26.2324C30.8333 26.2324 32.1458 24.2432 32.1458 21.0713V21.0576C32.1458 17.8857 30.8333 15.9033 28.6526 15.9033C26.4719 15.9033 25.1731 17.8857 25.1731 21.0576V21.0713C25.1731 24.2432 26.4719 26.2324 28.6526 26.2324ZM28.6526 25.1592C27.2376 25.1592 26.4104 23.5869 26.4104 21.0713V21.0576C26.4104 18.542 27.2376 16.9834 28.6526 16.9834C30.0676 16.9834 30.9085 18.542 30.9085 21.0576V21.0713C30.9085 23.5869 30.0676 25.1592 28.6526 25.1592ZM33.7612 26H40.146V24.8926H35.4702V24.7832L37.7124 22.4658C39.4966 20.627 39.9819 19.8066 39.9819 18.6787V18.665C39.9819 17.0723 38.6626 15.9033 36.9399 15.9033C35.0532 15.9033 33.6997 17.1611 33.6929 18.9111L33.7065 18.918L34.8823 18.9248L34.8891 18.9111C34.8891 17.749 35.6753 16.9766 36.8579 16.9766C38.02 16.9766 38.7241 17.7559 38.7241 18.7949V18.8086C38.7241 19.6699 38.355 20.1826 37.0971 21.543L33.7612 25.1523V26ZM41.8024 26H48.1872V24.8926H43.5114V24.7832L45.7536 22.4658C47.5378 20.627 48.0231 19.8066 48.0231 18.6787V18.665C48.0231 17.0723 46.7038 15.9033 44.9811 15.9033C43.0944 15.9033 41.7409 17.1611 41.7341 18.9111L41.7477 18.918L42.9235 18.9248L42.9304 18.9111C42.9304 17.749 43.7165 16.9766 44.8991 16.9766C46.0612 16.9766 46.7653 17.7559 46.7653 18.7949V18.8086C46.7653 19.6699 46.3962 20.1826 45.1384 21.543L41.8024 25.1523V26ZM49.7479 22.582H54.3417V21.4746H49.7479V22.582ZM59.3409 26.2324C61.5216 26.2324 62.8341 24.2432 62.8341 21.0713V21.0576C62.8341 17.8857 61.5216 15.9033 59.3409 15.9033C57.1603 15.9033 55.8614 17.8857 55.8614 21.0576V21.0713C55.8614 24.2432 57.1603 26.2324 59.3409 26.2324ZM59.3409 25.1592C57.9259 25.1592 57.0987 23.5869 57.0987 21.0713V21.0576C57.0987 18.542 57.9259 16.9834 59.3409 16.9834C60.756 16.9834 61.5968 18.542 61.5968 21.0576V21.0713C61.5968 23.5869 60.756 25.1592 59.3409 25.1592ZM67.6898 26.2324C69.6927 26.2324 71.1214 24.8447 71.1214 22.8555V22.8418C71.1214 20.9346 69.7884 19.5469 67.9359 19.5469C67.0403 19.5469 66.2679 19.9092 65.8304 20.5723H65.721L66.056 17.2363H70.5745V16.1357H65.0853L64.5657 21.8027H65.6321C65.7552 21.5703 65.9124 21.3789 66.0833 21.2148C66.5071 20.8115 67.0677 20.6133 67.7239 20.6133C69.0023 20.6133 69.9183 21.5498 69.9183 22.8623V22.876C69.9183 24.209 69.0159 25.1455 67.7034 25.1455C66.5482 25.1455 65.6937 24.3936 65.5775 23.4502L65.5706 23.3955H64.388L64.3948 23.4707C64.5384 25.0498 65.8509 26.2324 67.6898 26.2324ZM72.6001 22.582H77.1939V21.4746H72.6001V22.582ZM81.3044 26H82.5349V16.1357H81.3113L78.6863 18.0225V19.3213L81.195 17.5029H81.3044V26ZM88.204 15.9033C86.2148 15.9033 84.7519 17.332 84.7519 19.3008V19.3145C84.7519 21.208 86.1328 22.6162 87.9853 22.6162C89.3183 22.6162 90.248 21.8984 90.6103 21.0918H90.7402C90.7402 21.167 90.7402 21.249 90.7333 21.3242C90.6581 23.3818 89.9267 25.1318 88.1357 25.1318C87.1376 25.1318 86.4472 24.6191 86.1464 23.792L86.1191 23.7168H84.8818L84.9023 23.8057C85.2372 25.2617 86.4677 26.2324 88.122 26.2324C90.5146 26.2324 91.916 24.2637 91.916 20.9004V20.8867C91.916 17.1748 90.0087 15.9033 88.204 15.9033ZM88.1972 21.543C86.9189 21.543 85.9892 20.5996 85.9892 19.2871V19.2734C85.9892 17.9951 86.9804 16.9902 88.2177 16.9902C89.4687 16.9902 90.4462 18.0156 90.4462 19.3145V19.3213C90.4462 20.6064 89.4755 21.543 88.1972 21.543Z" fill="#A0A0A0"/>
<path d="M28.8871 68.774H23.6511V66.52H22.6711V68.774H17.4351V71.434H18.4151V69.656H27.9071V71.434H28.8871V68.774ZM19.6751 70.566V73.366H26.6471V70.566H19.6751ZM25.7091 72.624H20.6131V71.35H25.7091V72.624ZM19.6891 66.59L18.8911 66.982C19.2831 67.486 19.6611 68.074 20.0111 68.718L20.8091 68.312C20.4591 67.696 20.0811 67.122 19.6891 66.59ZM26.5911 66.618C26.3111 67.164 25.9331 67.71 25.4571 68.27L26.2411 68.69C26.7171 68.144 27.1091 67.584 27.4171 66.996L26.5911 66.618ZM27.9771 74.164H18.3591V79.442H19.3391V78.84H27.0111V79.442H27.9771V74.164ZM19.3391 78.014V76.852H22.6991V78.014H19.3391ZM23.6791 78.014V76.852H27.0111V78.014H23.6791ZM19.3391 76.124V74.976H22.6991V76.124H19.3391ZM23.6791 74.976H27.0111V76.124H23.6791V74.976ZM41.2191 67.122H32.5671V79.344H33.5751V78.266H40.1971V79.33H41.2191V67.122ZM33.5751 77.286V73.072H40.1971V77.286H33.5751ZM33.5751 72.092V68.102H40.1971V72.092H33.5751ZM47.9791 67.108C47.1111 69.642 45.8231 71.658 44.1151 73.17L44.9131 73.856C46.5651 72.386 47.9091 70.258 48.9171 67.486L47.9791 67.108ZM52.7391 74.122L51.8151 74.416C52.4031 75.256 52.9631 76.18 53.5091 77.188C51.4931 77.51 49.3511 77.748 47.0831 77.888C48.3011 76.362 49.5051 74.276 50.6951 71.644L49.7011 71.308C48.0211 75.144 46.6211 77.356 45.5151 77.944L45.6971 78.924C48.7211 78.728 51.4791 78.434 53.9571 78.056C54.1671 78.476 54.3771 78.91 54.5871 79.386L55.5251 78.966C54.7411 77.258 53.8171 75.634 52.7391 74.122ZM50.1211 67.052V67.99H52.4731C53.0471 70.328 54.1811 72.26 55.8891 73.8L56.6871 73.072C54.8811 71.532 53.7331 69.53 53.2571 67.052H50.1211ZM60.0031 70.818H63.4191V72.68H60.0031V70.818ZM63.4191 73.604V75.242H58.3651V76.208H63.4191V77.944H57.7631V78.91H70.0971V77.944H64.4551V76.208H69.5091V75.242H64.4551V73.604H68.8231V67.08H59.0231V73.604H63.4191ZM64.4551 72.68V70.818H67.8291V72.68H64.4551ZM67.8291 69.894H64.4551V68.004H67.8291V69.894ZM63.4191 68.004V69.894H60.0031V68.004H63.4191ZM71.9291 67.318V68.886H71.3131V69.726H71.9291V71.294H74.1551V72.022H71.7331V74.304H73.9171C73.7771 74.556 73.6231 74.808 73.4831 75.074H71.2151V75.858H73.0071C72.7551 76.264 72.4891 76.67 72.2091 77.09C72.7831 77.258 73.3711 77.454 73.9591 77.678C73.1751 78.056 72.2371 78.392 71.1591 78.672L71.7191 79.4C72.9651 79.036 74.0431 78.588 74.9671 78.084C75.7651 78.42 76.5771 78.826 77.3891 79.274L77.9351 78.56C77.2071 78.168 76.5071 77.832 75.8071 77.552C76.5631 77.02 77.1511 76.404 77.5711 75.718V75.074H74.4631C74.5891 74.836 74.7291 74.584 74.8831 74.304H77.5151V72.022H75.0791V71.294H77.3191V69.726H77.9491V68.886H77.3191V67.318H75.0791V66.548H74.1551V67.318H71.9291ZM74.8831 77.188C74.4071 76.992 73.9311 76.838 73.4691 76.712C73.6371 76.46 73.8051 76.166 74.0011 75.858H76.4651C76.0731 76.334 75.5411 76.782 74.8831 77.188ZM76.4511 70.58H75.0791V69.642H76.4511V70.58ZM75.0791 68.97V68.046H76.4511V68.97H75.0791ZM74.1551 70.58H72.7971V69.642H74.1551V70.58ZM72.7971 68.97V68.046H74.1551V68.97H72.7971ZM76.6471 73.604H75.0791V72.708H76.6471V73.604ZM74.1551 73.604H72.6011V72.708H74.1551V73.604ZM79.8111 69.67H81.8551C81.7991 71.756 81.4351 73.548 80.7771 75.032C80.3011 74.052 79.9931 72.946 79.8531 71.714L79.0411 71.966C79.3351 71.28 79.5871 70.51 79.8111 69.67ZM80.2591 76.054C79.6571 77.048 78.8871 77.874 77.9351 78.532L78.4811 79.414C79.4051 78.742 80.1751 77.916 80.8191 76.95C81.4771 77.902 82.3311 78.728 83.3671 79.428L83.9691 78.63C82.8911 77.902 82.0231 77.034 81.3511 76.026C82.2331 74.318 82.7091 72.19 82.7791 69.67H83.7311V68.704H80.0351C80.1611 68.06 80.2731 67.36 80.3711 66.632L79.3771 66.45C79.0831 68.998 78.5231 71.014 77.7111 72.512L78.3411 73.296C78.5651 72.918 78.7891 72.498 79.0131 72.036C79.1951 73.534 79.6151 74.878 80.2591 76.054ZM92.5351 66.562V67.556H89.5531V68.438H92.5351V69.516H88.6991V70.398H90.3651C90.5891 70.79 90.8131 71.238 91.0091 71.728H89.3571V72.596H92.5351V73.618H89.7491V74.458H92.5351V75.522H88.9651V76.418H92.5351V77.776H93.4871V76.418H97.1411V75.522H93.4871V74.458H96.2451V73.618H93.4871V72.596H96.6651V71.728H95.0271C95.2651 71.294 95.4611 70.846 95.6151 70.398H97.3511V69.516H93.4871V68.438H96.5811V67.556H93.4871V66.562H92.5351ZM94.1031 71.728H91.9331C91.7511 71.252 91.5551 70.818 91.3451 70.398H94.6771C94.5371 70.86 94.3551 71.308 94.1031 71.728ZM85.8991 66.702L85.2411 67.332C86.1511 68.06 86.8651 68.732 87.3831 69.362L88.0411 68.704C87.4531 68.032 86.7391 67.374 85.8991 66.702ZM84.9051 70.062V70.986H87.0051C86.5291 71.77 85.9271 72.554 85.2271 73.352V74.122H87.3131C87.1311 75.032 86.8931 75.858 86.5991 76.586C86.0111 76.754 85.3811 77.454 84.7231 78.714L85.4651 79.372C86.0951 78.14 86.5851 77.524 86.9211 77.524C87.0331 77.524 87.1591 77.566 87.2711 77.664C87.7471 78.14 88.2931 78.504 88.8811 78.728C89.3851 78.938 90.1411 79.05 91.1211 79.078C91.9471 79.106 92.8991 79.12 93.9631 79.12H97.3091L97.5331 78.154C96.0211 78.21 94.7891 78.238 93.8371 78.238C92.8431 78.238 91.9611 78.224 91.1771 78.224C90.3651 78.196 89.7211 78.098 89.2451 77.93C88.7831 77.72 88.3351 77.412 87.8871 77.006C87.7611 76.894 87.6351 76.796 87.5231 76.726C87.8171 75.984 88.0691 75.06 88.2651 73.94V73.268H86.4171C87.0611 72.484 87.6211 71.686 88.1251 70.86V70.062H84.9051ZM105.481 78H106.711V68.1357H105.488L102.863 70.0225V71.3213L105.371 69.5029H105.481V78ZM112.456 78.2324C114.636 78.2324 115.949 76.2432 115.949 73.0713V73.0576C115.949 69.8857 114.636 67.9033 112.456 67.9033C110.275 67.9033 108.976 69.8857 108.976 73.0576V73.0713C108.976 76.2432 110.275 78.2324 112.456 78.2324ZM112.456 77.1592C111.041 77.1592 110.214 75.5869 110.214 73.0713V73.0576C110.214 70.542 111.041 68.9834 112.456 68.9834C113.871 68.9834 114.712 70.542 114.712 73.0576V73.0713C114.712 75.5869 113.871 77.1592 112.456 77.1592ZM117.639 78H118.829V75.2041L119.519 74.5342L122.281 78H123.778L120.353 73.7275L123.566 70.6309H122.124L118.938 73.8506H118.829V67.7051H117.639V78ZM124.765 78H125.954V73.4336C125.954 72.3945 126.686 71.5537 127.649 71.5537C128.579 71.5537 129.181 72.1211 129.181 72.9961V78H130.37V73.2627C130.37 72.3262 131.047 71.5537 132.072 71.5537C133.111 71.5537 133.61 72.0938 133.61 73.1807V78H134.8V72.9072C134.8 71.3623 133.959 70.501 132.455 70.501C131.437 70.501 130.596 71.0137 130.199 71.793H130.09C129.748 71.0273 129.051 70.501 128.053 70.501C127.089 70.501 126.392 70.959 126.064 71.752H125.954V70.6309H124.765V78Z" fill="#696969"/>
<path d="M267.204 47.072V47.884H269.486V48.99H266.882V49.886H272.958V48.99H270.382V47.884H272.622V47.072H270.382V46.05H272.79V41.08H267.064V46.05H269.486V47.072H267.204ZM267.246 50.53C267.176 51.51 266.994 52.378 266.7 53.134L267.526 53.386C267.792 52.574 267.96 51.664 268.03 50.628L267.246 50.53ZM269.444 50.614L268.688 50.712C268.744 51.314 268.772 52.168 268.8 53.274L269.626 53.176C269.598 52.084 269.528 51.23 269.444 50.614ZM272.37 50.376L271.628 50.586C271.866 51.342 272.076 52.112 272.244 52.896L272.986 52.616C272.846 51.944 272.636 51.188 272.37 50.376ZM270.9 50.558L270.158 50.712C270.326 51.412 270.452 52.21 270.564 53.106L271.39 52.938C271.25 52.07 271.082 51.286 270.9 50.558ZM271.978 45.266H270.284V41.864H271.978V45.266ZM269.542 45.266H267.89V41.864H269.542V45.266ZM271.026 42.354C270.942 43.138 270.788 43.866 270.578 44.566L271.138 44.762C271.362 44.048 271.53 43.292 271.614 42.508L271.026 42.354ZM268.716 42.48L268.156 42.648C268.366 43.32 268.548 44.02 268.702 44.748L269.262 44.594C269.094 43.796 268.912 43.096 268.716 42.48ZM275.548 40.632V46.666H273.574V53.4H274.526V52.658H277.97V53.4H278.922V46.666H276.528V44.132H279.51V43.222H276.528V40.632H275.548ZM274.526 51.734V47.576H277.97V51.734H274.526ZM281.104 41.318V42.886H280.488V43.726H281.104V45.294H283.33V46.022H280.908V48.304H283.092C282.952 48.556 282.798 48.808 282.658 49.074H280.39V49.858H282.182C281.93 50.264 281.664 50.67 281.384 51.09C281.958 51.258 282.546 51.454 283.134 51.678C282.35 52.056 281.412 52.392 280.334 52.672L280.894 53.4C282.14 53.036 283.218 52.588 284.142 52.084C284.94 52.42 285.752 52.826 286.564 53.274L287.11 52.56C286.382 52.168 285.682 51.832 284.982 51.552C285.738 51.02 286.326 50.404 286.746 49.718V49.074H283.638C283.764 48.836 283.904 48.584 284.058 48.304H286.69V46.022H284.254V45.294H286.494V43.726H287.124V42.886H286.494V41.318H284.254V40.548H283.33V41.318H281.104ZM284.058 51.188C283.582 50.992 283.106 50.838 282.644 50.712C282.812 50.46 282.98 50.166 283.176 49.858H285.64C285.248 50.334 284.716 50.782 284.058 51.188ZM285.626 44.58H284.254V43.642H285.626V44.58ZM284.254 42.97V42.046H285.626V42.97H284.254ZM283.33 44.58H281.972V43.642H283.33V44.58ZM281.972 42.97V42.046H283.33V42.97H281.972ZM285.822 47.604H284.254V46.708H285.822V47.604ZM283.33 47.604H281.776V46.708H283.33V47.604ZM288.986 43.67H291.03C290.974 45.756 290.61 47.548 289.952 49.032C289.476 48.052 289.168 46.946 289.028 45.714L288.216 45.966C288.51 45.28 288.762 44.51 288.986 43.67ZM289.434 50.054C288.832 51.048 288.062 51.874 287.11 52.532L287.656 53.414C288.58 52.742 289.35 51.916 289.994 50.95C290.652 51.902 291.506 52.728 292.542 53.428L293.144 52.63C292.066 51.902 291.198 51.034 290.526 50.026C291.408 48.318 291.884 46.19 291.954 43.67H292.906V42.704H289.21C289.336 42.06 289.448 41.36 289.546 40.632L288.552 40.45C288.258 42.998 287.698 45.014 286.886 46.512L287.516 47.296C287.74 46.918 287.964 46.498 288.188 46.036C288.37 47.534 288.79 48.878 289.434 50.054ZM297.608 44.468V49.452H303.012V44.468H297.608ZM302.06 48.598H298.546V45.336H302.06V48.598ZM305.91 41.402H294.682V53.176H295.662V52.574H304.93V53.176H305.91V41.402ZM295.662 51.678V42.298H304.93V51.678H295.662ZM313.622 41.318V43.81H316.1V44.552H312.88V45.35H320.202V44.552H317.01V43.81H319.474V41.318H317.01V40.534H316.1V41.318H313.622ZM318.62 43.096H317.01V42.032H318.62V43.096ZM316.1 43.096H314.476V42.032H316.1V43.096ZM313.664 46.008V51.37H319.446V46.008H313.664ZM318.494 50.628H314.616V49.732H318.494V50.628ZM314.616 49.088V48.248H318.494V49.088H314.616ZM314.616 47.604V46.736H318.494V47.604H314.616ZM317.43 51.468L317.08 52.14C318.116 52.448 319.096 52.868 320.048 53.428L320.356 52.686C319.418 52.154 318.438 51.748 317.43 51.468ZM315.526 51.496C314.896 51.972 313.972 52.364 312.754 52.672L313.174 53.386C314.378 53.05 315.316 52.63 315.988 52.098L315.526 51.496ZM309.898 40.716C309.156 41.836 308.33 42.83 307.434 43.67L307.966 44.426C308.386 44.034 308.778 43.628 309.156 43.208V43.95H311.634V43.152H309.198C309.618 42.662 310.024 42.144 310.416 41.584C311.004 42.2 311.704 43.026 312.516 44.062L313.104 43.432C312.348 42.48 311.578 41.57 310.766 40.716H309.898ZM309.38 47.744H311.382V48.962H309.38V47.744ZM311.382 46.946H309.38V45.756H311.382V46.946ZM311.76 50.18L310.962 50.446C311.102 50.74 311.242 51.062 311.382 51.426C310.794 51.678 310.122 51.916 309.38 52.154V49.83H312.306V44.888H308.456V52.21C308.456 52.35 308.372 52.462 308.204 52.532L308.47 53.26C309.674 52.952 310.738 52.588 311.676 52.196C311.774 52.462 311.872 52.742 311.97 53.05L312.754 52.7C312.474 51.804 312.138 50.964 311.76 50.18Z" fill="#696969"/>
<path d="M329.985 49.4766H333.36V52.75H335.415V49.4766H338.798V47.4219H335.415V44.1484H333.36V47.4219H329.985V49.4766ZM344.773 53.2891C347.304 53.2891 349.054 51.6719 349.054 49.2969V49.2812C349.054 47.1328 347.538 45.5859 345.437 45.5859C344.359 45.5859 343.484 46.0547 343.03 46.8125H342.89L343.171 43.6016H348.382V41.7266H341.335L340.812 48.3984H342.835C342.96 48.1562 343.148 47.9453 343.359 47.7734C343.734 47.4531 344.218 47.2891 344.788 47.2891C345.984 47.2891 346.835 48.125 346.835 49.3281V49.3438C346.835 50.5547 345.991 51.4062 344.78 51.4062C343.718 51.4062 342.944 50.7422 342.78 49.9141L342.765 49.8594H340.624L340.632 49.9688C340.765 51.8516 342.359 53.2891 344.773 53.2891Z" fill="#3179AA"/>
<path d="M30.9667 44.09V45.378H36.1047C35.3627 48.654 33.5427 51.006 30.6587 52.406L31.5127 53.526C34.3547 52.028 36.2447 49.676 37.1687 46.47C38.2327 49.438 40.1227 51.748 42.8107 53.4L43.6367 52.322C40.8647 50.684 38.9747 48.374 37.9947 45.378H43.3427V44.09H37.6587C37.7707 43.25 37.8267 42.368 37.8267 41.444V40.534H36.4827V41.752C36.4687 42.564 36.4127 43.348 36.3287 44.09H30.9667ZM47.5267 46.652C47.8067 47.128 48.1427 47.716 48.5207 48.43L49.2627 47.324C48.6747 46.526 48.0867 45.812 47.5267 45.168V44.426H48.8987V43.152H47.5267V40.52H46.2527V43.152H44.4887V44.426H46.2527C45.8187 46.022 45.1187 47.436 44.1667 48.682L44.7407 50.138C45.3427 49.186 45.8467 48.136 46.2527 47.002V53.4H47.5267V46.652ZM49.1787 42.76V43.852H50.8447C50.2567 44.426 49.5147 44.916 48.5907 45.322L49.2067 46.414C49.6827 46.19 50.1447 45.938 50.5647 45.644V47.198H55.2547V45.49C55.6747 45.798 56.1647 46.078 56.7387 46.33L57.2987 45.154C56.3047 44.818 55.5347 44.384 54.9747 43.852H56.7807V42.76H53.0007C53.1127 42.522 53.2107 42.27 53.3087 41.99C54.4007 41.878 55.3667 41.724 56.2067 41.5L55.6187 40.492C53.9807 40.87 51.9647 41.066 49.5847 41.066L49.9347 42.13C50.6767 42.13 51.3767 42.102 52.0487 42.074C51.9507 42.298 51.8387 42.536 51.6987 42.76H49.1787ZM54.2607 44.622H51.7547C51.9787 44.384 52.1887 44.132 52.3847 43.852H53.6727C53.8267 44.104 54.0227 44.37 54.2607 44.622ZM54.1767 46.274H51.6427V45.546H54.1767V46.274ZM51.2647 49.382V52H54.6527V49.382H51.2647ZM53.6167 51.09H52.2867V50.292H53.6167V51.09ZM55.3667 53.428C56.1507 53.428 56.5427 53.036 56.5427 52.266V47.744H49.3887V53.428H50.5787V48.836H55.3667V52C55.3667 52.28 55.2407 52.42 55.0167 52.42L53.9807 52.364L54.2607 53.428H55.3667ZM64.1287 43.166V50.698H65.7387C65.1227 51.384 64.3527 52 63.4427 52.532L64.2267 53.54C65.1927 52.938 66.0047 52.252 66.6627 51.468L65.7947 50.698H68.5807L67.7967 51.454C68.7207 52.168 69.4487 52.84 69.9527 53.456L70.8487 52.574C70.2607 51.958 69.5327 51.328 68.6787 50.698H70.1907V43.166H67.6007C67.6707 42.844 67.7267 42.508 67.7827 42.172H70.7087V40.996H63.7087V42.172H66.5087C66.4527 42.508 66.3967 42.83 66.3267 43.166H64.1287ZM68.9307 49.536H65.3887V48.444H68.9307V49.536ZM65.3887 47.366V46.4H68.9307V47.366H65.3887ZM65.3887 45.322V44.258H68.9307V45.322H65.3887ZM58.0387 41.136V42.368H63.2747V41.136H58.0387ZM58.3327 43.488V47.758H63.0087V43.488H58.3327ZM61.8327 46.624H59.5087V44.622H61.8327V46.624ZM63.2747 50.936C62.9107 51.02 62.5187 51.09 62.1267 51.174C62.3927 50.404 62.6307 49.536 62.8547 48.57L61.7347 48.178C61.4827 49.326 61.1747 50.39 60.8387 51.384C59.9427 51.524 58.9627 51.636 57.9267 51.748L58.0947 52.966C60.0267 52.756 61.7627 52.476 63.2747 52.14V50.936ZM59.5087 48.304L58.4447 48.64C58.7247 49.452 58.9627 50.292 59.1447 51.16L60.2087 50.88C59.9987 49.914 59.7607 49.06 59.5087 48.304ZM79.4987 40.506V46.582H77.4687V53.372H78.7427V52.504H82.3827V53.358H83.6707V46.582H80.8427V44.146H84.2447V42.858H80.8427V40.506H79.4987ZM78.7427 51.272V47.744H82.3827V51.272H78.7427ZM71.6727 42.732V44.02H77.2587V42.732H75.0747C74.9067 41.948 74.7527 41.234 74.5847 40.618L73.2407 40.828C73.4367 41.402 73.6327 42.032 73.8007 42.732H71.6727ZM73.1427 44.65L71.9807 45.028C72.3587 46.764 72.6667 48.57 72.9187 50.446L74.0247 50.18C73.7587 48.108 73.4647 46.26 73.1427 44.65ZM76.9927 50.138C76.6007 50.25 76.1947 50.362 75.7747 50.474C76.1947 48.738 76.5167 46.834 76.7267 44.776L75.4387 44.594C75.2567 46.764 74.9627 48.822 74.5427 50.754C73.5767 50.964 72.5967 51.132 71.5887 51.258L71.8967 52.532C73.7167 52.238 75.4107 51.874 76.9927 51.44V50.138ZM89.4768 47.758V48.99H96.5468V47.758H89.4768Z" fill="black"/>
<path d="M120.56 40.408C119.328 41.64 117.83 42.592 116.066 43.292L116.892 44.3C117.144 44.188 117.382 44.062 117.634 43.95V46.568H121.078C120 47.072 118.46 47.506 116.458 47.87L117.144 48.99C118.992 48.528 120.504 47.982 121.68 47.338C121.834 47.478 121.988 47.618 122.128 47.772C120.784 48.612 118.95 49.312 116.598 49.844L117.242 50.964C119.538 50.348 121.372 49.55 122.744 48.584C122.87 48.78 122.982 49.004 123.08 49.228C121.512 50.334 119.3 51.244 116.444 51.972L117.116 53.106C119.706 52.406 121.792 51.51 123.374 50.432C123.374 50.53 123.388 50.642 123.388 50.754C123.388 51.342 123.262 51.748 123.024 51.958C122.772 52.14 122.436 52.252 122.03 52.28C121.694 52.28 121.274 52.294 120.77 52.294L121.19 53.512C121.554 53.512 121.876 53.498 122.184 53.47C123.108 53.372 123.752 53.162 124.116 52.854C124.522 52.462 124.732 51.762 124.732 50.754C124.732 50.67 124.718 50.586 124.718 50.502C125.698 51.398 126.888 52.182 128.316 52.854L128.974 51.72C127.378 51.034 126.048 50.236 124.97 49.312C126.202 48.892 127.294 48.388 128.246 47.786L127.378 46.778C126.482 47.422 125.376 47.968 124.06 48.416C123.724 47.814 123.262 47.24 122.674 46.694L122.842 46.568H127.882V43.236H124.494C124.872 42.942 125.25 42.606 125.614 42.214V41.36H121.33C121.54 41.164 121.75 40.94 121.96 40.716L120.56 40.408ZM118.908 43.236C119.328 42.97 119.734 42.69 120.126 42.396H123.906C123.542 42.704 123.164 42.984 122.8 43.236H118.908ZM126.566 45.462H123.36V44.342H126.566V45.462ZM122.058 45.462H118.95V44.342H122.058V45.462ZM140.312 42.942V51.048H136.672V40.632H135.328V51.048H131.674V42.872H130.344V53.134H131.674V52.322H140.312V53.148H141.642V42.942H140.312ZM151.16 40.506V46.582H149.13V53.372H150.404V52.504H154.044V53.358H155.332V46.582H152.504V44.146H155.906V42.858H152.504V40.506H151.16ZM150.404 51.272V47.744H154.044V51.272H150.404ZM143.334 42.732V44.02H148.92V42.732H146.736C146.568 41.948 146.414 41.234 146.246 40.618L144.902 40.828C145.098 41.402 145.294 42.032 145.462 42.732H143.334ZM144.804 44.65L143.642 45.028C144.02 46.764 144.328 48.57 144.58 50.446L145.686 50.18C145.42 48.108 145.126 46.26 144.804 44.65ZM148.654 50.138C148.262 50.25 147.856 50.362 147.436 50.474C147.856 48.738 148.178 46.834 148.388 44.776L147.1 44.594C146.918 46.764 146.624 48.822 146.204 50.754C145.238 50.964 144.258 51.132 143.25 51.258L143.558 52.532C145.378 52.238 147.072 51.874 148.654 51.44V50.138Z" fill="black"/>
<circle cx="21" cy="47" r="5" fill="#FDAF27"/>
<circle cx="106" cy="47" r="5" fill="#D20428"/>
</svg>
