<svg width="26" height="24" viewBox="0 0 26 24" fill="none" xmlns="http://www.w3.org/2000/svg">
<path d="M9.94531 22.2666H16.0464V14.3809C16.0464 14.1484 15.9772 13.9631 15.8389 13.8247C15.7005 13.6864 15.5151 13.6172 15.2827 13.6172H10.7173C10.4849 13.6172 10.2967 13.6864 10.1528 13.8247C10.0145 13.9631 9.94531 14.1484 9.94531 14.3809V22.2666ZM5.75342 23.188H20.2051C20.9355 23.188 21.5 22.9915 21.8984 22.5986C22.2969 22.2057 22.4961 21.6496 22.4961 20.9302V9.11816L21.0269 8.10547V20.5732C21.0269 20.9495 20.93 21.2345 20.7363 21.4282C20.5482 21.6219 20.266 21.7188 19.8896 21.7188H6.06055C5.68978 21.7188 5.40755 21.6219 5.21387 21.4282C5.02572 21.2345 4.93164 20.9495 4.93164 20.5732V8.11377L3.4624 9.11816V20.9302C3.4624 21.6551 3.66162 22.2113 4.06006 22.5986C4.4585 22.9915 5.02295 23.188 5.75342 23.188ZM0.490723 11.2847C0.490723 11.4728 0.559896 11.6416 0.698242 11.791C0.836589 11.9404 1.03027 12.0151 1.2793 12.0151C1.40658 12.0151 1.52002 11.9847 1.61963 11.9238C1.72477 11.863 1.82438 11.7938 1.91846 11.7163L12.6099 2.75146C12.7371 2.64079 12.87 2.58545 13.0083 2.58545C13.1522 2.57992 13.2905 2.63525 13.4233 2.75146L24.0898 11.7163C24.1839 11.7938 24.2835 11.863 24.3887 11.9238C24.4938 11.9847 24.61 12.0151 24.7373 12.0151C24.9531 12.0151 25.1357 11.9515 25.2852 11.8242C25.4346 11.6969 25.5093 11.5254 25.5093 11.3096C25.5093 11.055 25.4124 10.8447 25.2188 10.6787L14.2202 1.43164C13.8494 1.11068 13.4482 0.950195 13.0166 0.950195C12.5905 0.950195 12.1893 1.11068 11.813 1.43164L0.789551 10.6787C0.590332 10.8447 0.490723 11.0467 0.490723 11.2847ZM20.0557 6.81885L22.4961 8.87744V3.93848C22.4961 3.73372 22.4325 3.57048 22.3052 3.44873C22.1834 3.32145 22.0174 3.25781 21.8071 3.25781H20.7529C20.5482 3.25781 20.3794 3.32145 20.2466 3.44873C20.1193 3.57048 20.0557 3.73372 20.0557 3.93848V6.81885Z" fill="#0A7AFF"/>
</svg>
