<svg width="16" height="26" viewBox="0 0 16 26" fill="none" xmlns="http://www.w3.org/2000/svg">
<path d="M4.37256 25.5864C4.8042 25.5864 5.15007 25.4674 5.41016 25.2295C5.67025 24.9915 5.79753 24.6595 5.79199 24.2334L5.58447 12.2554C5.57894 12.0617 5.61491 11.8984 5.69238 11.7656C5.76986 11.6328 5.8916 11.5277 6.05762 11.4502C6.52799 11.2454 6.9043 11.0213 7.18652 10.7778C7.47428 10.5288 7.67904 10.2134 7.80078 9.83154C7.92253 9.44417 7.97233 8.94059 7.9502 8.3208L7.65967 1.80469C7.6486 1.5778 7.57943 1.40348 7.45215 1.28174C7.32487 1.15446 7.15609 1.09082 6.9458 1.09082C6.73551 1.09082 6.57227 1.15723 6.45605 1.29004C6.33984 1.41732 6.28174 1.5944 6.28174 1.82129L6.35645 8.16309C6.35645 8.35677 6.30111 8.50618 6.19043 8.61133C6.07975 8.71647 5.93864 8.76904 5.76709 8.76904C5.59554 8.76904 5.45166 8.71924 5.33545 8.61963C5.22477 8.51449 5.16943 8.37061 5.16943 8.18799L5.06152 1.63037C5.05599 1.40902 4.99235 1.23747 4.87061 1.11572C4.74886 0.993978 4.58285 0.933105 4.37256 0.933105C4.15674 0.933105 3.98796 0.993978 3.86621 1.11572C3.74447 1.23747 3.68359 1.40902 3.68359 1.63037L3.56738 8.18799C3.56738 8.37061 3.51204 8.51449 3.40137 8.61963C3.29069 8.71924 3.14681 8.76904 2.96973 8.76904C2.79818 8.76904 2.65706 8.71647 2.54639 8.61133C2.44124 8.50618 2.38867 8.35677 2.38867 8.16309L2.45508 1.82129C2.45508 1.5944 2.39697 1.41732 2.28076 1.29004C2.16455 1.15723 2.00407 1.09082 1.79932 1.09082C1.5835 1.09082 1.41195 1.15446 1.28467 1.28174C1.16292 1.40348 1.09652 1.5778 1.08545 1.80469L0.794922 8.3208C0.767253 8.94059 0.81429 9.44417 0.936035 9.83154C1.05778 10.2134 1.26253 10.5288 1.55029 10.7778C1.83805 11.0213 2.21436 11.2454 2.6792 11.4502C2.84521 11.5277 2.96696 11.6328 3.04443 11.7656C3.12191 11.8984 3.16064 12.0617 3.16064 12.2554L2.95312 24.2334C2.94206 24.6595 3.06657 24.9915 3.32666 25.2295C3.58675 25.4674 3.93538 25.5864 4.37256 25.5864ZM12.5903 16.4639L12.3413 24.1338C12.3247 24.6097 12.4492 24.9694 12.7148 25.2129C12.9805 25.4619 13.3291 25.5864 13.7607 25.5864C14.2035 25.5864 14.5549 25.473 14.8149 25.2461C15.075 25.0192 15.2051 24.6955 15.2051 24.2749V1.70508C15.2051 1.43945 15.1304 1.24577 14.981 1.12402C14.8371 0.996745 14.6711 0.933105 14.4829 0.933105C14.2892 0.933105 14.1177 0.988444 13.9683 1.09912C13.8244 1.2098 13.6722 1.38135 13.5117 1.61377C13.0801 2.21696 12.6899 2.93359 12.3413 3.76367C11.9982 4.59375 11.7021 5.5013 11.4531 6.48633C11.2041 7.46582 11.0132 8.49235 10.8804 9.56592C10.7476 10.6395 10.6812 11.7186 10.6812 12.8032V13.3926C10.6812 13.7799 10.7476 14.1064 10.8804 14.3721C11.0132 14.6377 11.2124 14.8618 11.478 15.0444L12.0674 15.4512C12.2555 15.584 12.3911 15.7334 12.4741 15.8994C12.5627 16.0599 12.6014 16.248 12.5903 16.4639Z" fill="#5A5A5A" style="mix-blend-mode:color-burn"/>
<path d="M4.37256 25.5864C4.8042 25.5864 5.15007 25.4674 5.41016 25.2295C5.67025 24.9915 5.79753 24.6595 5.79199 24.2334L5.58447 12.2554C5.57894 12.0617 5.61491 11.8984 5.69238 11.7656C5.76986 11.6328 5.8916 11.5277 6.05762 11.4502C6.52799 11.2454 6.9043 11.0213 7.18652 10.7778C7.47428 10.5288 7.67904 10.2134 7.80078 9.83154C7.92253 9.44417 7.97233 8.94059 7.9502 8.3208L7.65967 1.80469C7.6486 1.5778 7.57943 1.40348 7.45215 1.28174C7.32487 1.15446 7.15609 1.09082 6.9458 1.09082C6.73551 1.09082 6.57227 1.15723 6.45605 1.29004C6.33984 1.41732 6.28174 1.5944 6.28174 1.82129L6.35645 8.16309C6.35645 8.35677 6.30111 8.50618 6.19043 8.61133C6.07975 8.71647 5.93864 8.76904 5.76709 8.76904C5.59554 8.76904 5.45166 8.71924 5.33545 8.61963C5.22477 8.51449 5.16943 8.37061 5.16943 8.18799L5.06152 1.63037C5.05599 1.40902 4.99235 1.23747 4.87061 1.11572C4.74886 0.993978 4.58285 0.933105 4.37256 0.933105C4.15674 0.933105 3.98796 0.993978 3.86621 1.11572C3.74447 1.23747 3.68359 1.40902 3.68359 1.63037L3.56738 8.18799C3.56738 8.37061 3.51204 8.51449 3.40137 8.61963C3.29069 8.71924 3.14681 8.76904 2.96973 8.76904C2.79818 8.76904 2.65706 8.71647 2.54639 8.61133C2.44124 8.50618 2.38867 8.35677 2.38867 8.16309L2.45508 1.82129C2.45508 1.5944 2.39697 1.41732 2.28076 1.29004C2.16455 1.15723 2.00407 1.09082 1.79932 1.09082C1.5835 1.09082 1.41195 1.15446 1.28467 1.28174C1.16292 1.40348 1.09652 1.5778 1.08545 1.80469L0.794922 8.3208C0.767253 8.94059 0.81429 9.44417 0.936035 9.83154C1.05778 10.2134 1.26253 10.5288 1.55029 10.7778C1.83805 11.0213 2.21436 11.2454 2.6792 11.4502C2.84521 11.5277 2.96696 11.6328 3.04443 11.7656C3.12191 11.8984 3.16064 12.0617 3.16064 12.2554L2.95312 24.2334C2.94206 24.6595 3.06657 24.9915 3.32666 25.2295C3.58675 25.4674 3.93538 25.5864 4.37256 25.5864ZM12.5903 16.4639L12.3413 24.1338C12.3247 24.6097 12.4492 24.9694 12.7148 25.2129C12.9805 25.4619 13.3291 25.5864 13.7607 25.5864C14.2035 25.5864 14.5549 25.473 14.8149 25.2461C15.075 25.0192 15.2051 24.6955 15.2051 24.2749V1.70508C15.2051 1.43945 15.1304 1.24577 14.981 1.12402C14.8371 0.996745 14.6711 0.933105 14.4829 0.933105C14.2892 0.933105 14.1177 0.988444 13.9683 1.09912C13.8244 1.2098 13.6722 1.38135 13.5117 1.61377C13.0801 2.21696 12.6899 2.93359 12.3413 3.76367C11.9982 4.59375 11.7021 5.5013 11.4531 6.48633C11.2041 7.46582 11.0132 8.49235 10.8804 9.56592C10.7476 10.6395 10.6812 11.7186 10.6812 12.8032V13.3926C10.6812 13.7799 10.7476 14.1064 10.8804 14.3721C11.0132 14.6377 11.2124 14.8618 11.478 15.0444L12.0674 15.4512C12.2555 15.584 12.3911 15.7334 12.4741 15.8994C12.5627 16.0599 12.6014 16.248 12.5903 16.4639Z" fill="#717171" fill-opacity="0.5"/>
</svg>
