<svg width="20" height="21" viewBox="0 0 20 21" fill="none" xmlns="http://www.w3.org/2000/svg">
<path d="M3.15186 20.0176H16.8398C18.4613 20.0176 19.272 19.4753 19.272 18.3906C19.272 17.8317 19.1336 17.2396 18.8569 16.6143C18.5858 15.9945 18.1873 15.3885 17.6616 14.7964C17.1359 14.1987 16.4967 13.6592 15.7441 13.1777C14.9915 12.6908 14.131 12.3034 13.1626 12.0156C12.1997 11.7279 11.1427 11.584 9.9917 11.584C8.84619 11.584 7.78923 11.7279 6.8208 12.0156C5.85791 12.3034 5.00016 12.6908 4.24756 13.1777C3.49495 13.6592 2.85579 14.1987 2.33008 14.7964C1.80436 15.3885 1.40316 15.9945 1.12646 16.6143C0.855306 17.2396 0.719727 17.8317 0.719727 18.3906C0.719727 19.4753 1.53044 20.0176 3.15186 20.0176ZM2.74512 18.6313C2.54036 18.6313 2.39648 18.6009 2.31348 18.54C2.23047 18.4847 2.18896 18.3823 2.18896 18.2329C2.18896 17.8455 2.29964 17.4167 2.521 16.9463C2.74235 16.4814 3.06885 16.0166 3.50049 15.5518C3.93213 15.0814 4.46338 14.6525 5.09424 14.2651C5.7251 13.8778 6.45003 13.5651 7.26904 13.3271C8.08805 13.0892 8.99561 12.9702 9.9917 12.9702C10.9933 12.9702 11.9036 13.0892 12.7227 13.3271C13.5417 13.5651 14.2666 13.8778 14.8975 14.2651C15.5283 14.6525 16.0596 15.0814 16.4912 15.5518C16.9229 16.0166 17.2493 16.4814 17.4707 16.9463C17.6921 17.4167 17.8027 17.8455 17.8027 18.2329C17.8027 18.3823 17.7612 18.4847 17.6782 18.54C17.5952 18.6009 17.4513 18.6313 17.2466 18.6313H2.74512ZM10.0083 10.1729C10.6336 10.1729 11.2202 10.0456 11.7681 9.79102C12.3215 9.53092 12.8057 9.17399 13.2207 8.72021C13.6357 8.2609 13.9595 7.73242 14.1919 7.13477C14.4299 6.53711 14.5488 5.89242 14.5488 5.20068C14.5488 4.53109 14.4299 3.90299 14.1919 3.31641C13.9595 2.72982 13.6357 2.21794 13.2207 1.78076C12.8057 1.33805 12.3215 0.992188 11.7681 0.743164C11.2202 0.494141 10.6336 0.369629 10.0083 0.369629C9.38298 0.369629 8.79362 0.496908 8.24023 0.751465C7.69238 1.00049 7.20817 1.34635 6.7876 1.78906C6.37256 2.23177 6.04606 2.74642 5.80811 3.33301C5.57568 3.9196 5.45947 4.55046 5.45947 5.22559C5.46501 5.90625 5.58398 6.54541 5.81641 7.14307C6.05436 7.74072 6.38086 8.26644 6.7959 8.72021C7.21094 9.17399 7.69238 9.53092 8.24023 9.79102C8.78809 10.0456 9.37744 10.1729 10.0083 10.1729ZM10.0083 8.78662C9.44938 8.78662 8.93473 8.62891 8.46436 8.31348C7.99951 7.99251 7.62598 7.56364 7.34375 7.02686C7.06706 6.49007 6.92871 5.88965 6.92871 5.22559C6.92871 4.57259 7.06706 3.986 7.34375 3.46582C7.62044 2.9401 7.99121 2.52507 8.45605 2.2207C8.92643 1.91081 9.44385 1.75586 10.0083 1.75586C10.5728 1.75586 11.0874 1.90804 11.5522 2.2124C12.0171 2.51676 12.3879 2.92904 12.6646 3.44922C12.9412 3.9694 13.0796 4.55322 13.0796 5.20068C13.0796 5.87028 12.9412 6.47624 12.6646 7.01855C12.3879 7.55534 12.0143 7.98421 11.5439 8.30518C11.0791 8.62614 10.5672 8.78662 10.0083 8.78662Z" fill="#5A5A5A" style="mix-blend-mode:color-burn"/>
<path d="M3.15186 20.0176H16.8398C18.4613 20.0176 19.272 19.4753 19.272 18.3906C19.272 17.8317 19.1336 17.2396 18.8569 16.6143C18.5858 15.9945 18.1873 15.3885 17.6616 14.7964C17.1359 14.1987 16.4967 13.6592 15.7441 13.1777C14.9915 12.6908 14.131 12.3034 13.1626 12.0156C12.1997 11.7279 11.1427 11.584 9.9917 11.584C8.84619 11.584 7.78923 11.7279 6.8208 12.0156C5.85791 12.3034 5.00016 12.6908 4.24756 13.1777C3.49495 13.6592 2.85579 14.1987 2.33008 14.7964C1.80436 15.3885 1.40316 15.9945 1.12646 16.6143C0.855306 17.2396 0.719727 17.8317 0.719727 18.3906C0.719727 19.4753 1.53044 20.0176 3.15186 20.0176ZM2.74512 18.6313C2.54036 18.6313 2.39648 18.6009 2.31348 18.54C2.23047 18.4847 2.18896 18.3823 2.18896 18.2329C2.18896 17.8455 2.29964 17.4167 2.521 16.9463C2.74235 16.4814 3.06885 16.0166 3.50049 15.5518C3.93213 15.0814 4.46338 14.6525 5.09424 14.2651C5.7251 13.8778 6.45003 13.5651 7.26904 13.3271C8.08805 13.0892 8.99561 12.9702 9.9917 12.9702C10.9933 12.9702 11.9036 13.0892 12.7227 13.3271C13.5417 13.5651 14.2666 13.8778 14.8975 14.2651C15.5283 14.6525 16.0596 15.0814 16.4912 15.5518C16.9229 16.0166 17.2493 16.4814 17.4707 16.9463C17.6921 17.4167 17.8027 17.8455 17.8027 18.2329C17.8027 18.3823 17.7612 18.4847 17.6782 18.54C17.5952 18.6009 17.4513 18.6313 17.2466 18.6313H2.74512ZM10.0083 10.1729C10.6336 10.1729 11.2202 10.0456 11.7681 9.79102C12.3215 9.53092 12.8057 9.17399 13.2207 8.72021C13.6357 8.2609 13.9595 7.73242 14.1919 7.13477C14.4299 6.53711 14.5488 5.89242 14.5488 5.20068C14.5488 4.53109 14.4299 3.90299 14.1919 3.31641C13.9595 2.72982 13.6357 2.21794 13.2207 1.78076C12.8057 1.33805 12.3215 0.992188 11.7681 0.743164C11.2202 0.494141 10.6336 0.369629 10.0083 0.369629C9.38298 0.369629 8.79362 0.496908 8.24023 0.751465C7.69238 1.00049 7.20817 1.34635 6.7876 1.78906C6.37256 2.23177 6.04606 2.74642 5.80811 3.33301C5.57568 3.9196 5.45947 4.55046 5.45947 5.22559C5.46501 5.90625 5.58398 6.54541 5.81641 7.14307C6.05436 7.74072 6.38086 8.26644 6.7959 8.72021C7.21094 9.17399 7.69238 9.53092 8.24023 9.79102C8.78809 10.0456 9.37744 10.1729 10.0083 10.1729ZM10.0083 8.78662C9.44938 8.78662 8.93473 8.62891 8.46436 8.31348C7.99951 7.99251 7.62598 7.56364 7.34375 7.02686C7.06706 6.49007 6.92871 5.88965 6.92871 5.22559C6.92871 4.57259 7.06706 3.986 7.34375 3.46582C7.62044 2.9401 7.99121 2.52507 8.45605 2.2207C8.92643 1.91081 9.44385 1.75586 10.0083 1.75586C10.5728 1.75586 11.0874 1.90804 11.5522 2.2124C12.0171 2.51676 12.3879 2.92904 12.6646 3.44922C12.9412 3.9694 13.0796 4.55322 13.0796 5.20068C13.0796 5.87028 12.9412 6.47624 12.6646 7.01855C12.3879 7.55534 12.0143 7.98421 11.5439 8.30518C11.0791 8.62614 10.5672 8.78662 10.0083 8.78662Z" fill="#717171" fill-opacity="0.5"/>
</svg>
