<svg width="42" height="29" viewBox="0 0 42 29" fill="none" xmlns="http://www.w3.org/2000/svg">
<path d="M38 2H4C2.89543 2 2 2.89543 2 4V25C2 26.1046 2.89543 27 4 27H38C39.1046 27 40 26.1046 40 25V4C40 2.89543 39.1046 2 38 2Z" fill="#F8F8F8" stroke="#3179AA" stroke-width="3"/>
<path d="M5 7L37 7" stroke="#61AB48" stroke-width="3" stroke-linecap="square"/>
<path d="M20.629 19.2442H12.9512L14.1385 18.0881C14.4186 17.8154 14.7941 17.6628 15.185 17.6628H16.1593C16.8485 17.6628 17.5071 17.3783 17.9796 16.8765L21.6556 12.9718C21.939 12.6707 22.3342 12.5 22.7477 12.5H30.9402L30.4011 13.1125C30.3826 13.1334 30.3625 13.1528 30.3408 13.1704L30.6558 13.5586L30.3408 13.1704L29.9066 13.5227C29.4611 13.8841 28.905 14.0814 28.3314 14.0814H27.1506C26.7597 14.0814 26.3843 14.234 26.1042 14.5067L21.6755 18.8189C21.3954 19.0916 21.0199 19.2442 20.629 19.2442Z" fill="#60AC48" stroke="#60AC48"/>
<path d="M26.8151 23.9766H19.1372L20.3246 22.8205C20.6046 22.5478 20.9801 22.3952 21.371 22.3952H22.3453C23.0345 22.3952 23.6932 22.1107 24.1656 21.6089L27.8416 17.7042C28.1251 17.4031 28.5202 17.2324 28.9338 17.2324H37.1263L36.5871 17.8449C36.5687 17.8659 36.5485 17.8852 36.5268 17.9028L36.8419 18.2911L36.5268 17.9028L36.0926 18.2551C35.6472 18.6166 35.091 18.8138 34.5174 18.8138H33.3367C32.9458 18.8138 32.5703 18.9664 32.2902 19.2391L27.8615 23.5513C27.5814 23.824 27.206 23.9766 26.8151 23.9766Z" fill="#3478AB" stroke="#3478AB"/>
</svg>
