<svg width="67" height="17" viewBox="0 0 67 17" fill="none" xmlns="http://www.w3.org/2000/svg">
<path d="M2.448 6.988V8.068H0.912V9.136H2.448V12.7C1.836 12.82 1.224 12.916 0.6 12.988L0.876 14.056C2.316 13.816 3.672 13.528 4.932 13.18V12.124C4.464 12.256 3.996 12.376 3.528 12.484V9.136H4.896V8.068H3.528V6.988H4.404V6.196L4.692 6.616L5.424 5.836C4.74 4.924 4.02 4.048 3.264 3.22H2.508C1.86 4.408 1.164 5.44 0.408 6.328L1.02 7.18C1.152 7.012 1.284 6.856 1.416 6.688V6.988H2.448ZM1.524 9.736L0.72 10C0.984 10.732 1.212 11.5 1.392 12.304L2.184 12.1C1.992 11.212 1.764 10.432 1.524 9.736ZM4.284 9.532C4.128 10.372 3.96 11.056 3.78 11.596L4.548 11.884C4.764 11.26 4.956 10.552 5.112 9.76L4.284 9.532ZM1.944 5.968C2.316 5.44 2.664 4.888 2.976 4.312C3.324 4.72 3.744 5.272 4.248 5.968H1.944ZM6.588 6.748H9.6V7.876H6.588V6.748ZM9.6 5.764H6.588V4.612H9.6V5.764ZM10.776 9.34C10.284 9.916 9.768 10.348 9.216 10.66C9 10.264 8.796 9.832 8.628 9.376L7.788 9.856C8.46 11.764 9.516 13.168 10.98 14.08L11.616 13.156C10.896 12.736 10.272 12.172 9.744 11.476C10.38 11.14 10.956 10.648 11.472 10.024L10.776 9.34ZM6.588 8.896H10.668V3.58H5.52V12.76C5.52 12.904 5.4 13.012 5.16 13.084L5.412 13.996C6.732 13.684 7.836 13.348 8.724 13.012L8.46 12.016C7.836 12.256 7.212 12.46 6.588 12.628V8.896ZM16.836 3.196V7.204H12.624V8.308H16.836V14.224H17.988V10.492C18.948 10.948 20.148 11.608 21.564 12.472L22.212 11.5C20.772 10.696 19.368 9.988 17.988 9.364V8.308H23.364V7.204H17.988V5.656H21.804V4.564H17.988V3.196H16.836ZM31.776 7.42C31.608 7.864 31.428 8.224 31.224 8.512L31.968 8.788C32.196 8.452 32.388 8.056 32.532 7.612L31.776 7.42ZM28.2 7.408L27.444 7.648C27.672 8.008 27.864 8.392 28.02 8.788L28.776 8.596C28.608 8.152 28.416 7.756 28.2 7.408ZM25.692 6.532V9.712H34.308V6.52C34.524 6.616 34.74 6.724 34.968 6.832L35.568 5.872C33.648 5.092 31.908 4.192 30.348 3.172H29.652C28.092 4.192 26.352 5.092 24.432 5.884L25.032 6.832C25.248 6.724 25.476 6.628 25.692 6.532ZM34.26 6.496H25.764C26.4 6.184 27.012 5.884 27.588 5.584V6.004H32.4V5.56C32.964 5.872 33.588 6.184 34.26 6.496ZM33.264 8.872H30.516V7.348H33.264V8.872ZM29.484 8.872H26.736V7.348H29.484V8.872ZM33.864 10.204H26.148V14.272H27.24V13.876H32.772V14.26H33.864V10.204ZM27.24 12.976V12.388H32.772V12.976H27.24ZM27.24 11.608V11.044H32.772V11.608H27.24ZM31.68 5.164H28.344C28.932 4.816 29.484 4.468 30 4.132C30.504 4.468 31.056 4.804 31.68 5.164ZM38.436 3.532V6.052H45.576V3.532H38.436ZM44.484 5.2H39.528V4.396H44.484V5.2ZM37.86 6.592V12.1H40.068C39.168 12.604 38.064 13.06 36.768 13.456L37.428 14.308C38.892 13.816 40.116 13.252 41.112 12.604L40.524 12.1H43.452L42.936 12.592C44.412 13.204 45.552 13.78 46.356 14.32L47.148 13.528C46.284 13.048 45.252 12.58 44.028 12.1H46.176V6.592H37.86ZM45.084 11.14H38.952V10.468H45.084V11.14ZM38.952 9.604V8.98H45.084V9.604H38.952ZM38.952 8.116V7.492H45.084V8.116H38.952Z" fill="black"/>
<path d="M59.5 14.7461C62.7695 14.7461 65.4766 12.0332 65.4766 8.76953C65.4766 5.5 62.7637 2.79297 59.4941 2.79297C56.2305 2.79297 53.5234 5.5 53.5234 8.76953C53.5234 12.0332 56.2363 14.7461 59.5 14.7461ZM59.5 13.75C56.7344 13.75 54.5254 11.5352 54.5254 8.76953C54.5254 6.00391 56.7285 3.78906 59.4941 3.78906C62.2598 3.78906 64.4746 6.00391 64.4805 8.76953C64.4863 11.5352 62.2656 13.75 59.5 13.75ZM59.4473 6.68359C59.875 6.68359 60.209 6.34375 60.209 5.91602C60.209 5.48828 59.875 5.14844 59.4473 5.14844C59.0254 5.14844 58.6855 5.48828 58.6855 5.91602C58.6855 6.34375 59.0254 6.68359 59.4473 6.68359ZM58.4746 11.9922H60.8594C61.0996 11.9922 61.2871 11.8164 61.2871 11.5762C61.2871 11.3477 61.0996 11.166 60.8594 11.166H60.1328V8.18359C60.1328 7.86719 59.9746 7.65625 59.6758 7.65625H58.5742C58.334 7.65625 58.1465 7.83789 58.1465 8.06641C58.1465 8.30664 58.334 8.48242 58.5742 8.48242H59.2012V11.166H58.4746C58.2344 11.166 58.0469 11.3477 58.0469 11.5762C58.0469 11.8164 58.2344 11.9922 58.4746 11.9922Z" fill="black"/>
</svg>
