<svg width="21" height="20" viewBox="0 0 21 20" fill="none" xmlns="http://www.w3.org/2000/svg">
<path d="M1.81836 6.94141C2.53125 6.94141 2.91211 6.55078 2.91211 5.83789V3.70898C2.91211 2.81055 3.37109 2.38086 4.23047 2.38086H6.39844C7.11133 2.38086 7.50195 1.99023 7.50195 1.28711C7.50195 0.583984 7.11133 0.203125 6.39844 0.203125H4.04492C1.88672 0.203125 0.734375 1.33594 0.734375 3.48438V5.83789C0.734375 6.55078 1.125 6.94141 1.81836 6.94141ZM19.1719 6.94141C19.875 6.94141 20.2559 6.55078 20.2559 5.83789V3.48438C20.2559 1.3457 19.1133 0.203125 16.9453 0.203125H14.5918C13.8789 0.203125 13.4883 0.583984 13.4883 1.28711C13.4883 1.99023 13.8789 2.38086 14.5918 2.38086H16.7598C17.6094 2.38086 18.0781 2.81055 18.0781 3.70898V5.83789C18.0781 6.55078 18.4688 6.94141 19.1719 6.94141ZM6.06641 13.9629H6.76953V5.95508H6.06641V13.9629ZM7.63867 13.9629H8.95703V5.95508H7.63867V13.9629ZM9.5332 13.9629H10.3535V5.95508H9.5332V13.9629ZM11.0957 13.9629H12.3652V5.95508H11.0957V13.9629ZM12.8926 13.9629H13.9082V5.95508H12.8926V13.9629ZM14.2793 13.9629H14.9238V5.95508H14.2793V13.9629ZM4.04492 19.7246H6.39844C7.11133 19.7246 7.50195 19.334 7.50195 18.6309C7.50195 17.9375 7.11133 17.5469 6.39844 17.5469H4.23047C3.37109 17.5469 2.91211 17.1172 2.91211 16.2188V14.0801C2.91211 13.377 2.52148 12.9863 1.81836 12.9863C1.11523 12.9863 0.734375 13.377 0.734375 14.0801V16.4434C0.734375 18.582 1.88672 19.7246 4.04492 19.7246ZM14.5918 19.7246H16.9453C19.1133 19.7246 20.2559 18.582 20.2559 16.4434V14.0801C20.2559 13.377 19.8652 12.9863 19.1719 12.9863C18.459 12.9863 18.0781 13.377 18.0781 14.0801V16.2188C18.0781 17.1172 17.6094 17.5469 16.7598 17.5469H14.5918C13.8789 17.5469 13.4883 17.9375 13.4883 18.6309C13.4883 19.334 13.8789 19.7246 14.5918 19.7246Z" fill="black"/>
</svg>
