<svg width="366" height="94" viewBox="0 0 366 94" fill="none" xmlns="http://www.w3.org/2000/svg">
<rect width="366" height="94" rx="8" fill="white"/>
<path d="M17.3096 26H23.6944V24.8926H19.0186V24.7832L21.2608 22.4658C23.045 20.627 23.5303 19.8066 23.5303 18.6787V18.665C23.5303 17.0723 22.211 15.9033 20.4883 15.9033C18.6016 15.9033 17.2481 17.1611 17.2413 18.9111L17.2549 18.918L18.4307 18.9248L18.4376 18.9111C18.4376 17.749 19.2237 16.9766 20.4063 16.9766C21.5684 16.9766 22.2725 17.7559 22.2725 18.7949V18.8086C22.2725 19.6699 21.9034 20.1826 20.6456 21.543L17.3096 25.1523V26ZM28.6526 26.2324C30.8333 26.2324 32.1458 24.2432 32.1458 21.0713V21.0576C32.1458 17.8857 30.8333 15.9033 28.6526 15.9033C26.4719 15.9033 25.1731 17.8857 25.1731 21.0576V21.0713C25.1731 24.2432 26.4719 26.2324 28.6526 26.2324ZM28.6526 25.1592C27.2376 25.1592 26.4104 23.5869 26.4104 21.0713V21.0576C26.4104 18.542 27.2376 16.9834 28.6526 16.9834C30.0676 16.9834 30.9085 18.542 30.9085 21.0576V21.0713C30.9085 23.5869 30.0676 25.1592 28.6526 25.1592ZM33.7612 26H40.146V24.8926H35.4702V24.7832L37.7124 22.4658C39.4966 20.627 39.9819 19.8066 39.9819 18.6787V18.665C39.9819 17.0723 38.6626 15.9033 36.9399 15.9033C35.0532 15.9033 33.6997 17.1611 33.6929 18.9111L33.7065 18.918L34.8823 18.9248L34.8891 18.9111C34.8891 17.749 35.6753 16.9766 36.8579 16.9766C38.02 16.9766 38.7241 17.7559 38.7241 18.7949V18.8086C38.7241 19.6699 38.355 20.1826 37.0971 21.543L33.7612 25.1523V26ZM41.8024 26H48.1872V24.8926H43.5114V24.7832L45.7536 22.4658C47.5378 20.627 48.0231 19.8066 48.0231 18.6787V18.665C48.0231 17.0723 46.7038 15.9033 44.9811 15.9033C43.0944 15.9033 41.7409 17.1611 41.7341 18.9111L41.7477 18.918L42.9235 18.9248L42.9304 18.9111C42.9304 17.749 43.7165 16.9766 44.8991 16.9766C46.0612 16.9766 46.7653 17.7559 46.7653 18.7949V18.8086C46.7653 19.6699 46.3962 20.1826 45.1384 21.543L41.8024 25.1523V26ZM49.7479 22.582H54.3417V21.4746H49.7479V22.582ZM59.3409 26.2324C61.5216 26.2324 62.8341 24.2432 62.8341 21.0713V21.0576C62.8341 17.8857 61.5216 15.9033 59.3409 15.9033C57.1603 15.9033 55.8614 17.8857 55.8614 21.0576V21.0713C55.8614 24.2432 57.1603 26.2324 59.3409 26.2324ZM59.3409 25.1592C57.9259 25.1592 57.0987 23.5869 57.0987 21.0713V21.0576C57.0987 18.542 57.9259 16.9834 59.3409 16.9834C60.756 16.9834 61.5968 18.542 61.5968 21.0576V21.0713C61.5968 23.5869 60.756 25.1592 59.3409 25.1592ZM67.6898 26.2324C69.6927 26.2324 71.1214 24.8447 71.1214 22.8555V22.8418C71.1214 20.9346 69.7884 19.5469 67.9359 19.5469C67.0403 19.5469 66.2679 19.9092 65.8304 20.5723H65.721L66.056 17.2363H70.5745V16.1357H65.0853L64.5657 21.8027H65.6321C65.7552 21.5703 65.9124 21.3789 66.0833 21.2148C66.5071 20.8115 67.0677 20.6133 67.7239 20.6133C69.0023 20.6133 69.9183 21.5498 69.9183 22.8623V22.876C69.9183 24.209 69.0159 25.1455 67.7034 25.1455C66.5482 25.1455 65.6937 24.3936 65.5775 23.4502L65.5706 23.3955H64.388L64.3948 23.4707C64.5384 25.0498 65.8509 26.2324 67.6898 26.2324ZM72.6001 22.582H77.1939V21.4746H72.6001V22.582ZM81.3044 26H82.5349V16.1357H81.3113L78.6863 18.0225V19.3213L81.195 17.5029H81.3044V26ZM88.204 15.9033C86.2148 15.9033 84.7519 17.332 84.7519 19.3008V19.3145C84.7519 21.208 86.1328 22.6162 87.9853 22.6162C89.3183 22.6162 90.248 21.8984 90.6103 21.0918H90.7402C90.7402 21.167 90.7402 21.249 90.7333 21.3242C90.6581 23.3818 89.9267 25.1318 88.1357 25.1318C87.1376 25.1318 86.4472 24.6191 86.1464 23.792L86.1191 23.7168H84.8818L84.9023 23.8057C85.2372 25.2617 86.4677 26.2324 88.122 26.2324C90.5146 26.2324 91.916 24.2637 91.916 20.9004V20.8867C91.916 17.1748 90.0087 15.9033 88.204 15.9033ZM88.1972 21.543C86.9189 21.543 85.9892 20.5996 85.9892 19.2871V19.2734C85.9892 17.9951 86.9804 16.9902 88.2177 16.9902C89.4687 16.9902 90.4462 18.0156 90.4462 19.3145V19.3213C90.4462 20.6064 89.4755 21.543 88.1972 21.543Z" fill="#A0A0A0"/>
<path d="M28.8871 68.774H23.6511V66.52H22.6711V68.774H17.4351V71.434H18.4151V69.656H27.9071V71.434H28.8871V68.774ZM19.6751 70.566V73.366H26.6471V70.566H19.6751ZM25.7091 72.624H20.6131V71.35H25.7091V72.624ZM19.6891 66.59L18.8911 66.982C19.2831 67.486 19.6611 68.074 20.0111 68.718L20.8091 68.312C20.4591 67.696 20.0811 67.122 19.6891 66.59ZM26.5911 66.618C26.3111 67.164 25.9331 67.71 25.4571 68.27L26.2411 68.69C26.7171 68.144 27.1091 67.584 27.4171 66.996L26.5911 66.618ZM27.9771 74.164H18.3591V79.442H19.3391V78.84H27.0111V79.442H27.9771V74.164ZM19.3391 78.014V76.852H22.6991V78.014H19.3391ZM23.6791 78.014V76.852H27.0111V78.014H23.6791ZM19.3391 76.124V74.976H22.6991V76.124H19.3391ZM23.6791 74.976H27.0111V76.124H23.6791V74.976ZM41.2191 67.122H32.5671V79.344H33.5751V78.266H40.1971V79.33H41.2191V67.122ZM33.5751 77.286V73.072H40.1971V77.286H33.5751ZM33.5751 72.092V68.102H40.1971V72.092H33.5751ZM47.9791 67.108C47.1111 69.642 45.8231 71.658 44.1151 73.17L44.9131 73.856C46.5651 72.386 47.9091 70.258 48.9171 67.486L47.9791 67.108ZM52.7391 74.122L51.8151 74.416C52.4031 75.256 52.9631 76.18 53.5091 77.188C51.4931 77.51 49.3511 77.748 47.0831 77.888C48.3011 76.362 49.5051 74.276 50.6951 71.644L49.7011 71.308C48.0211 75.144 46.6211 77.356 45.5151 77.944L45.6971 78.924C48.7211 78.728 51.4791 78.434 53.9571 78.056C54.1671 78.476 54.3771 78.91 54.5871 79.386L55.5251 78.966C54.7411 77.258 53.8171 75.634 52.7391 74.122ZM50.1211 67.052V67.99H52.4731C53.0471 70.328 54.1811 72.26 55.8891 73.8L56.6871 73.072C54.8811 71.532 53.7331 69.53 53.2571 67.052H50.1211ZM60.0031 70.818H63.4191V72.68H60.0031V70.818ZM63.4191 73.604V75.242H58.3651V76.208H63.4191V77.944H57.7631V78.91H70.0971V77.944H64.4551V76.208H69.5091V75.242H64.4551V73.604H68.8231V67.08H59.0231V73.604H63.4191ZM64.4551 72.68V70.818H67.8291V72.68H64.4551ZM67.8291 69.894H64.4551V68.004H67.8291V69.894ZM63.4191 68.004V69.894H60.0031V68.004H63.4191ZM71.9291 67.318V68.886H71.3131V69.726H71.9291V71.294H74.1551V72.022H71.7331V74.304H73.9171C73.7771 74.556 73.6231 74.808 73.4831 75.074H71.2151V75.858H73.0071C72.7551 76.264 72.4891 76.67 72.2091 77.09C72.7831 77.258 73.3711 77.454 73.9591 77.678C73.1751 78.056 72.2371 78.392 71.1591 78.672L71.7191 79.4C72.9651 79.036 74.0431 78.588 74.9671 78.084C75.7651 78.42 76.5771 78.826 77.3891 79.274L77.9351 78.56C77.2071 78.168 76.5071 77.832 75.8071 77.552C76.5631 77.02 77.1511 76.404 77.5711 75.718V75.074H74.4631C74.5891 74.836 74.7291 74.584 74.8831 74.304H77.5151V72.022H75.0791V71.294H77.3191V69.726H77.9491V68.886H77.3191V67.318H75.0791V66.548H74.1551V67.318H71.9291ZM74.8831 77.188C74.4071 76.992 73.9311 76.838 73.4691 76.712C73.6371 76.46 73.8051 76.166 74.0011 75.858H76.4651C76.0731 76.334 75.5411 76.782 74.8831 77.188ZM76.4511 70.58H75.0791V69.642H76.4511V70.58ZM75.0791 68.97V68.046H76.4511V68.97H75.0791ZM74.1551 70.58H72.7971V69.642H74.1551V70.58ZM72.7971 68.97V68.046H74.1551V68.97H72.7971ZM76.6471 73.604H75.0791V72.708H76.6471V73.604ZM74.1551 73.604H72.6011V72.708H74.1551V73.604ZM79.8111 69.67H81.8551C81.7991 71.756 81.4351 73.548 80.7771 75.032C80.3011 74.052 79.9931 72.946 79.8531 71.714L79.0411 71.966C79.3351 71.28 79.5871 70.51 79.8111 69.67ZM80.2591 76.054C79.6571 77.048 78.8871 77.874 77.9351 78.532L78.4811 79.414C79.4051 78.742 80.1751 77.916 80.8191 76.95C81.4771 77.902 82.3311 78.728 83.3671 79.428L83.9691 78.63C82.8911 77.902 82.0231 77.034 81.3511 76.026C82.2331 74.318 82.7091 72.19 82.7791 69.67H83.7311V68.704H80.0351C80.1611 68.06 80.2731 67.36 80.3711 66.632L79.3771 66.45C79.0831 68.998 78.5231 71.014 77.7111 72.512L78.3411 73.296C78.5651 72.918 78.7891 72.498 79.0131 72.036C79.1951 73.534 79.6151 74.878 80.2591 76.054ZM92.5351 66.562V67.556H89.5531V68.438H92.5351V69.516H88.6991V70.398H90.3651C90.5891 70.79 90.8131 71.238 91.0091 71.728H89.3571V72.596H92.5351V73.618H89.7491V74.458H92.5351V75.522H88.9651V76.418H92.5351V77.776H93.4871V76.418H97.1411V75.522H93.4871V74.458H96.2451V73.618H93.4871V72.596H96.6651V71.728H95.0271C95.2651 71.294 95.4611 70.846 95.6151 70.398H97.3511V69.516H93.4871V68.438H96.5811V67.556H93.4871V66.562H92.5351ZM94.1031 71.728H91.9331C91.7511 71.252 91.5551 70.818 91.3451 70.398H94.6771C94.5371 70.86 94.3551 71.308 94.1031 71.728ZM85.8991 66.702L85.2411 67.332C86.1511 68.06 86.8651 68.732 87.3831 69.362L88.0411 68.704C87.4531 68.032 86.7391 67.374 85.8991 66.702ZM84.9051 70.062V70.986H87.0051C86.5291 71.77 85.9271 72.554 85.2271 73.352V74.122H87.3131C87.1311 75.032 86.8931 75.858 86.5991 76.586C86.0111 76.754 85.3811 77.454 84.7231 78.714L85.4651 79.372C86.0951 78.14 86.5851 77.524 86.9211 77.524C87.0331 77.524 87.1591 77.566 87.2711 77.664C87.7471 78.14 88.2931 78.504 88.8811 78.728C89.3851 78.938 90.1411 79.05 91.1211 79.078C91.9471 79.106 92.8991 79.12 93.9631 79.12H97.3091L97.5331 78.154C96.0211 78.21 94.7891 78.238 93.8371 78.238C92.8431 78.238 91.9611 78.224 91.1771 78.224C90.3651 78.196 89.7211 78.098 89.2451 77.93C88.7831 77.72 88.3351 77.412 87.8871 77.006C87.7611 76.894 87.6351 76.796 87.5231 76.726C87.8171 75.984 88.0691 75.06 88.2651 73.94V73.268H86.4171C87.0611 72.484 87.6211 71.686 88.1251 70.86V70.062H84.9051ZM105.481 78H106.711V68.1357H105.488L102.863 70.0225V71.3213L105.371 69.5029H105.481V78ZM112.456 78.2324C114.636 78.2324 115.949 76.2432 115.949 73.0713V73.0576C115.949 69.8857 114.636 67.9033 112.456 67.9033C110.275 67.9033 108.976 69.8857 108.976 73.0576V73.0713C108.976 76.2432 110.275 78.2324 112.456 78.2324ZM112.456 77.1592C111.041 77.1592 110.214 75.5869 110.214 73.0713V73.0576C110.214 70.542 111.041 68.9834 112.456 68.9834C113.871 68.9834 114.712 70.542 114.712 73.0576V73.0713C114.712 75.5869 113.871 77.1592 112.456 77.1592ZM117.639 78H118.829V75.2041L119.519 74.5342L122.281 78H123.778L120.353 73.7275L123.566 70.6309H122.124L118.938 73.8506H118.829V67.7051H117.639V78ZM124.765 78H125.954V73.4336C125.954 72.3945 126.686 71.5537 127.649 71.5537C128.579 71.5537 129.181 72.1211 129.181 72.9961V78H130.37V73.2627C130.37 72.3262 131.047 71.5537 132.072 71.5537C133.111 71.5537 133.61 72.0938 133.61 73.1807V78H134.8V72.9072C134.8 71.3623 133.959 70.501 132.455 70.501C131.437 70.501 130.596 71.0137 130.199 71.793H130.09C129.748 71.0273 129.051 70.501 128.053 70.501C127.089 70.501 126.392 70.959 126.064 71.752H125.954V70.6309H124.765V78Z" fill="#696969"/>
<path d="M267.204 47.072V47.884H269.486V48.99H266.882V49.886H272.958V48.99H270.382V47.884H272.622V47.072H270.382V46.05H272.79V41.08H267.064V46.05H269.486V47.072H267.204ZM267.246 50.53C267.176 51.51 266.994 52.378 266.7 53.134L267.526 53.386C267.792 52.574 267.96 51.664 268.03 50.628L267.246 50.53ZM269.444 50.614L268.688 50.712C268.744 51.314 268.772 52.168 268.8 53.274L269.626 53.176C269.598 52.084 269.528 51.23 269.444 50.614ZM272.37 50.376L271.628 50.586C271.866 51.342 272.076 52.112 272.244 52.896L272.986 52.616C272.846 51.944 272.636 51.188 272.37 50.376ZM270.9 50.558L270.158 50.712C270.326 51.412 270.452 52.21 270.564 53.106L271.39 52.938C271.25 52.07 271.082 51.286 270.9 50.558ZM271.978 45.266H270.284V41.864H271.978V45.266ZM269.542 45.266H267.89V41.864H269.542V45.266ZM271.026 42.354C270.942 43.138 270.788 43.866 270.578 44.566L271.138 44.762C271.362 44.048 271.53 43.292 271.614 42.508L271.026 42.354ZM268.716 42.48L268.156 42.648C268.366 43.32 268.548 44.02 268.702 44.748L269.262 44.594C269.094 43.796 268.912 43.096 268.716 42.48ZM275.548 40.632V46.666H273.574V53.4H274.526V52.658H277.97V53.4H278.922V46.666H276.528V44.132H279.51V43.222H276.528V40.632H275.548ZM274.526 51.734V47.576H277.97V51.734H274.526ZM281.104 41.318V42.886H280.488V43.726H281.104V45.294H283.33V46.022H280.908V48.304H283.092C282.952 48.556 282.798 48.808 282.658 49.074H280.39V49.858H282.182C281.93 50.264 281.664 50.67 281.384 51.09C281.958 51.258 282.546 51.454 283.134 51.678C282.35 52.056 281.412 52.392 280.334 52.672L280.894 53.4C282.14 53.036 283.218 52.588 284.142 52.084C284.94 52.42 285.752 52.826 286.564 53.274L287.11 52.56C286.382 52.168 285.682 51.832 284.982 51.552C285.738 51.02 286.326 50.404 286.746 49.718V49.074H283.638C283.764 48.836 283.904 48.584 284.058 48.304H286.69V46.022H284.254V45.294H286.494V43.726H287.124V42.886H286.494V41.318H284.254V40.548H283.33V41.318H281.104ZM284.058 51.188C283.582 50.992 283.106 50.838 282.644 50.712C282.812 50.46 282.98 50.166 283.176 49.858H285.64C285.248 50.334 284.716 50.782 284.058 51.188ZM285.626 44.58H284.254V43.642H285.626V44.58ZM284.254 42.97V42.046H285.626V42.97H284.254ZM283.33 44.58H281.972V43.642H283.33V44.58ZM281.972 42.97V42.046H283.33V42.97H281.972ZM285.822 47.604H284.254V46.708H285.822V47.604ZM283.33 47.604H281.776V46.708H283.33V47.604ZM288.986 43.67H291.03C290.974 45.756 290.61 47.548 289.952 49.032C289.476 48.052 289.168 46.946 289.028 45.714L288.216 45.966C288.51 45.28 288.762 44.51 288.986 43.67ZM289.434 50.054C288.832 51.048 288.062 51.874 287.11 52.532L287.656 53.414C288.58 52.742 289.35 51.916 289.994 50.95C290.652 51.902 291.506 52.728 292.542 53.428L293.144 52.63C292.066 51.902 291.198 51.034 290.526 50.026C291.408 48.318 291.884 46.19 291.954 43.67H292.906V42.704H289.21C289.336 42.06 289.448 41.36 289.546 40.632L288.552 40.45C288.258 42.998 287.698 45.014 286.886 46.512L287.516 47.296C287.74 46.918 287.964 46.498 288.188 46.036C288.37 47.534 288.79 48.878 289.434 50.054ZM297.608 44.468V49.452H303.012V44.468H297.608ZM302.06 48.598H298.546V45.336H302.06V48.598ZM305.91 41.402H294.682V53.176H295.662V52.574H304.93V53.176H305.91V41.402ZM295.662 51.678V42.298H304.93V51.678H295.662ZM313.622 41.318V43.81H316.1V44.552H312.88V45.35H320.202V44.552H317.01V43.81H319.474V41.318H317.01V40.534H316.1V41.318H313.622ZM318.62 43.096H317.01V42.032H318.62V43.096ZM316.1 43.096H314.476V42.032H316.1V43.096ZM313.664 46.008V51.37H319.446V46.008H313.664ZM318.494 50.628H314.616V49.732H318.494V50.628ZM314.616 49.088V48.248H318.494V49.088H314.616ZM314.616 47.604V46.736H318.494V47.604H314.616ZM317.43 51.468L317.08 52.14C318.116 52.448 319.096 52.868 320.048 53.428L320.356 52.686C319.418 52.154 318.438 51.748 317.43 51.468ZM315.526 51.496C314.896 51.972 313.972 52.364 312.754 52.672L313.174 53.386C314.378 53.05 315.316 52.63 315.988 52.098L315.526 51.496ZM309.898 40.716C309.156 41.836 308.33 42.83 307.434 43.67L307.966 44.426C308.386 44.034 308.778 43.628 309.156 43.208V43.95H311.634V43.152H309.198C309.618 42.662 310.024 42.144 310.416 41.584C311.004 42.2 311.704 43.026 312.516 44.062L313.104 43.432C312.348 42.48 311.578 41.57 310.766 40.716H309.898ZM309.38 47.744H311.382V48.962H309.38V47.744ZM311.382 46.946H309.38V45.756H311.382V46.946ZM311.76 50.18L310.962 50.446C311.102 50.74 311.242 51.062 311.382 51.426C310.794 51.678 310.122 51.916 309.38 52.154V49.83H312.306V44.888H308.456V52.21C308.456 52.35 308.372 52.462 308.204 52.532L308.47 53.26C309.674 52.952 310.738 52.588 311.676 52.196C311.774 52.462 311.872 52.742 311.97 53.05L312.754 52.7C312.474 51.804 312.138 50.964 311.76 50.18Z" fill="#696969"/>
<path d="M330.149 49.4766H333.524V52.75H335.579V49.4766H338.962V47.4219H335.579V44.1484H333.524V47.4219H330.149V49.4766ZM340.663 53H348.796V51.1016H343.827V50.9219L345.913 48.9766C347.968 47.0781 348.632 46.0156 348.632 44.7344V44.7109C348.632 42.7656 347.007 41.4375 344.687 41.4375C342.218 41.4375 340.53 42.9219 340.53 45.0859L340.538 45.1172H342.718V45.0781C342.718 44.0078 343.476 43.2734 344.577 43.2734C345.655 43.2734 346.312 43.9453 346.312 44.9062V44.9297C346.312 45.7188 345.882 46.2891 344.296 47.8281L340.663 51.4141V53Z" fill="#3179AA"/>
<path d="M39.7027 46.638L38.5547 47.352C40.0387 49.564 41.2147 51.552 42.0827 53.344L43.2587 52.518C42.4467 50.838 41.2567 48.878 39.7027 46.638ZM34.4947 46.722C33.7107 49.046 32.4927 50.894 30.8547 52.294L31.9747 53.26C33.5567 51.86 34.8307 49.858 35.7827 47.226L34.4947 46.722ZM30.8967 44.16V45.448H43.4127V44.16H30.8967ZM36.0067 40.618L35.0827 41.486C36.2587 42.326 37.1547 43.124 37.7847 43.852L38.7647 42.872C38.0087 42.116 37.0987 41.374 36.0067 40.618ZM56.5427 40.87H50.1307V47.002H49.1507V48.206H50.0467V51.608C50.0467 51.888 49.9067 52.098 49.6407 52.238L50.1587 53.358C51.4327 53.05 52.5527 52.644 53.5327 52.168L53.3227 50.992C52.6507 51.356 51.9787 51.65 51.3067 51.874V48.206H57.1027V47.002H51.3907V46.134H56.0667V44.972H51.3907V44.132H56.0107V42.942H51.3907V42.088H56.5427V40.87ZM55.9687 48.556C55.4787 49.186 54.9607 49.676 54.4147 50.026C54.0787 49.55 53.7987 48.99 53.5747 48.36L52.5947 48.934C53.3787 51.118 54.7227 52.616 56.6267 53.414L57.3407 52.378C56.5007 52.042 55.7727 51.552 55.1567 50.922C55.7727 50.558 56.3187 50.054 56.8227 49.424L55.9687 48.556ZM46.1547 45.308H48.7587V40.968H44.5167V42.172H47.5127V44.146H45.0207L44.5587 48.458H47.4427C47.4427 49.97 47.3867 50.95 47.2887 51.412C47.1907 51.874 46.8127 52.112 46.1547 52.112C45.7067 52.112 45.2587 52.084 44.8107 52.056L45.1467 53.26C45.5947 53.288 46.0287 53.316 46.4487 53.316C47.6527 53.246 48.3247 52.812 48.4927 52.014C48.6327 51.23 48.7027 49.662 48.7027 47.31H45.8887L46.1547 45.308ZM61.1187 41.92V42.466H58.3747V43.586H60.7547C60.1247 44.23 59.2707 44.818 58.2067 45.35L58.7387 46.708C59.7047 45.994 60.5027 45.224 61.1187 44.398V46.204H62.3647V44.944C62.8687 45.182 63.4707 45.504 64.1707 45.924L64.8847 44.86C64.0307 44.468 63.1907 44.132 62.3647 43.824V43.586H65.0107V42.466H62.3647V41.85C63.3027 41.78 64.1427 41.682 64.8707 41.556L64.2827 40.562C62.7147 40.786 60.7967 40.912 58.5287 40.912L58.8787 41.962C59.6627 41.962 60.4047 41.948 61.1187 41.92ZM65.8787 41.164V45.042H67.1527V41.164H65.8787ZM68.4967 46.708C69.4487 46.708 69.9247 46.26 69.9247 45.364V40.534H68.6647V45.042C68.6647 45.406 68.4547 45.588 68.0627 45.588C67.7127 45.588 67.3487 45.546 66.9707 45.49L67.2507 46.708H68.4967ZM61.0907 48.71H64.2127V50.18H58.5287V51.412H64.2127V53.442H65.5567V51.412H70.5827V50.18H65.5567V48.71H69.6447V47.506H65.5567V46.316H64.2127V47.506H61.7487C61.8607 47.254 61.9727 46.974 62.0847 46.694L60.8107 46.428C60.4467 47.436 59.8447 48.374 58.9907 49.256L60.1107 49.984C60.4607 49.592 60.7827 49.158 61.0907 48.71ZM79.4987 40.506V46.582H77.4687V53.372H78.7427V52.504H82.3827V53.358H83.6707V46.582H80.8427V44.146H84.2447V42.858H80.8427V40.506H79.4987ZM78.7427 51.272V47.744H82.3827V51.272H78.7427ZM71.6727 42.732V44.02H77.2587V42.732H75.0747C74.9067 41.948 74.7527 41.234 74.5847 40.618L73.2407 40.828C73.4367 41.402 73.6327 42.032 73.8007 42.732H71.6727ZM73.1427 44.65L71.9807 45.028C72.3587 46.764 72.6667 48.57 72.9187 50.446L74.0247 50.18C73.7587 48.108 73.4647 46.26 73.1427 44.65ZM76.9927 50.138C76.6007 50.25 76.1947 50.362 75.7747 50.474C76.1947 48.738 76.5167 46.834 76.7267 44.776L75.4387 44.594C75.2567 46.764 74.9627 48.822 74.5427 50.754C73.5767 50.964 72.5967 51.132 71.5887 51.258L71.8967 52.532C73.7167 52.238 75.4107 51.874 76.9927 51.44V50.138ZM89.4768 47.758V48.99H96.5468V47.758H89.4768Z" fill="black"/>
<path d="M115.868 42.018V43.292H121.44V44.818H117.072V51.468H118.374V46.092H121.44V53.428H122.784V46.092H126.018V49.704C126.018 50.012 125.85 50.18 125.514 50.18L124.184 50.11L124.52 51.37H125.934C126.858 51.37 127.334 50.908 127.334 50.012V44.818H122.784V43.292H128.356V42.018H122.742C122.546 41.43 122.35 40.884 122.14 40.394L120.712 40.618C120.95 41.038 121.174 41.514 121.384 42.018H115.868ZM129.628 41.682V42.984H132.344V50.53C132.008 50.614 131.658 50.712 131.294 50.796V44.692H130.048V51.09C129.768 51.146 129.488 51.216 129.208 51.272L129.572 52.504C131.84 51.972 133.828 51.412 135.55 50.796V49.564C134.934 49.774 134.29 49.984 133.618 50.18V46.932H134.864L135.62 47.926C135.928 47.45 136.222 46.96 136.488 46.428C136.852 47.632 137.3 48.724 137.846 49.704C136.95 50.824 135.732 51.706 134.192 52.364L135.004 53.456C136.446 52.784 137.636 51.916 138.574 50.838C139.386 51.958 140.38 52.826 141.542 53.442L142.298 52.322C141.164 51.734 140.184 50.88 139.372 49.76C140.366 48.192 140.912 46.26 141.01 43.964H141.962V42.676H137.846C138 42.032 138.14 41.346 138.252 40.632L136.95 40.492C136.614 42.844 135.998 44.846 135.088 46.526V45.672H133.618V42.984H135.648V41.682H129.628ZM138.602 48.542C138.126 47.66 137.72 46.652 137.398 45.532L136.74 45.91C137.02 45.294 137.258 44.636 137.482 43.964H139.736C139.68 45.714 139.302 47.24 138.602 48.542ZM147.686 43.236C147.252 44.818 146.51 46.274 145.474 47.618L145.936 49.06C146.258 48.682 146.566 48.29 146.86 47.87V53.344H148.176V45.588C148.484 44.916 148.736 44.216 148.946 43.488L147.686 43.236ZM148.96 45.308V46.596H152.964V51.454C152.964 51.874 152.768 52.098 152.39 52.098C151.83 52.098 151.256 52.07 150.668 52.028L150.962 53.316H152.852C153.79 53.316 154.266 52.798 154.266 51.79V46.596H155.61V45.308H154.266V43.474H152.964V45.308H148.96ZM155.386 41.542H150.556C150.43 41.122 150.304 40.73 150.178 40.38L148.736 40.604C148.89 40.884 149.044 41.206 149.184 41.542H144.046V46.05C144.004 48.808 143.556 50.964 142.702 52.504L143.71 53.4C144.76 51.552 145.306 49.102 145.362 46.05V42.774H155.386V41.542ZM150.192 47.576L149.184 48.206C149.968 49.144 150.598 49.998 151.06 50.754L152.054 50.068C151.62 49.368 151.004 48.528 150.192 47.576ZM164.456 40.506V46.582H162.426V53.372H163.7V52.504H167.34V53.358H168.628V46.582H165.8V44.146H169.202V42.858H165.8V40.506H164.456ZM163.7 51.272V47.744H167.34V51.272H163.7ZM156.63 42.732V44.02H162.216V42.732H160.032C159.864 41.948 159.71 41.234 159.542 40.618L158.198 40.828C158.394 41.402 158.59 42.032 158.758 42.732H156.63ZM158.1 44.65L156.938 45.028C157.316 46.764 157.624 48.57 157.876 50.446L158.982 50.18C158.716 48.108 158.422 46.26 158.1 44.65ZM161.95 50.138C161.558 50.25 161.152 50.362 160.732 50.474C161.152 48.738 161.474 46.834 161.684 44.776L160.396 44.594C160.214 46.764 159.92 48.822 159.5 50.754C158.534 50.964 157.554 51.132 156.546 51.258L156.854 52.532C158.674 52.238 160.368 51.874 161.95 51.44V50.138Z" fill="black"/>
<circle cx="21" cy="47" r="5" fill="#C58C38"/>
<circle cx="106" cy="47" r="5" fill="#3884BE"/>
</svg>
